<?xml version="1.0" encoding="UTF-8"?> <svg xmlns="http://www.w3.org/2000/svg" id="Layer_1" data-name="Layer 1" viewBox="0 0 400 400"><defs><style>.cls-1{fill:#fff;}.cls-2{fill:#0d206a;}.cls-3{fill:#112369;}.cls-4{fill:#112368;}.cls-5{fill:#102368;}.cls-6{fill:#122468;}.cls-7{fill:#122469;}.cls-8{fill:#132469;}.cls-9{fill:#112367;}.cls-10{fill:#0f2167;}.cls-11{fill:#ebc942;}.cls-12{fill:#0f2269;}</style></defs><rect class="cls-1" width="400" height="400"></rect><path class="cls-2" d="M201.06,258.17q-53.46,0-106.93,0a2.71,2.71,0,0,1-2.3-1,138.06,138.06,0,0,1-32.06-66.06,134.08,134.08,0,0,1-1.5-39.58,136.29,136.29,0,0,1,37-80.1c19.32-20.62,42.85-34.23,70.24-41.15a142.5,142.5,0,0,1,45.57-4c33.73,2.46,63.33,14.87,88.29,37.74a136.71,136.71,0,0,1,42.6,75.23,133.84,133.84,0,0,1,1.77,42.63c-3.38,28.6-14.73,53.71-33.58,75.47a2.44,2.44,0,0,1-2.14.78H201.06ZM296.34,106l0,0,0,0a20.28,20.28,0,0,0-.81-2.13,1.48,1.48,0,0,1,.45-2.08c.86-.72,1.62-1.58,2.56-2.52-1.3,0-2.37-.06-3.43,0a1.57,1.57,0,0,1-1.68-1,11.49,11.49,0,0,0-1.86-3c-.06.57-.11,1-.15,1.36-.3,2.94-.3,2.94-3.07,3.59l-.78.21c1.52,1.73,5,2.23,3.16,5.81a5.66,5.66,0,0,0,1.32-1.21,1.21,1.21,0,0,1,2-.32A5.09,5.09,0,0,0,296.34,106ZM165.81,124.92l.06.15a.64.64,0,0,1,0-.07l-.09-.07a6.15,6.15,0,0,0-.47-1.39c-.84-1.36-.51-2.35.74-3.27a15.51,15.51,0,0,0,1.93-2,26.79,26.79,0,0,0-2.84,0,2,2,0,0,1-2.42-1.31,7.75,7.75,0,0,0-1.62-2.66c-.06.38-.1.6-.13.81-.12,1.16.09,2.53-.46,3.42s-2.23.43-3.46,1c1,.8,2,1.6,3,2.3,1.41,1,0,2.28.35,3.29A7.78,7.78,0,0,0,161.6,124c.63-.87,1.21-.76,2-.23S164.87,125,165.81,124.92Zm-33.87,58.37.07-.09-.08.08c2.57,2,5.19,3.94,7.72,6.18a21.45,21.45,0,0,0-4,2.49,23.21,23.21,0,0,1-6.29,3.3c-3.41,1.26-6.82,2.52-10.2,3.84-12.5,4.89-24.68,10.52-36.7,16.46a5.47,5.47,0,0,0-2.64,2.22,2.6,2.6,0,0,0,0,2.69,2.36,2.36,0,0,0,2.44,1.08,7.79,7.79,0,0,0,3-1q12.36-6.3,25.06-11.84,7.73-3.34,15.57-6.36c.69-.26,1.1-.42,1.25.58a5.36,5.36,0,0,0,2.34,3.34l2,1.56c-.43.18-.65.29-.89.37-9.22,3.28-18.21,7.12-27.07,11.27-5,2.36-10.08,4.71-15,7.38-1.63.89-2.13,2.49-1.4,3.72a3.14,3.14,0,0,0,4.07.88l4.61-2.22q20-9.63,40.76-17.55c1.73-.67,3.44-1.24,5.35-.67,5.82,1.74,11.85,2.13,17.85,2.33A193.77,193.77,0,0,0,212.83,208a120.81,120.81,0,0,0,23-7.73,11.69,11.69,0,0,1,7.16-1c6.16,1,12.34,1.86,18.51,2.79A342.91,342.91,0,0,1,300.43,210c1.86.5,3.68,1.15,5.54,1.67,1.6.46,2.95-.06,3.46-1.26a3.33,3.33,0,0,0-1.33-3.9,7.89,7.89,0,0,0-1.77-.62A420.38,420.38,0,0,0,252,195c-1.37-.19-2.74-.42-4.29-.66,2.05-1.65,3.91-3.13,5.73-4.65a2.31,2.31,0,0,1,2-.54c3.59.59,7.18,1.12,10.76,1.75,13.71,2.41,27.28,5.44,40.73,9a12.68,12.68,0,0,0,3.72.58c1.13,0,2.15-.27,2.53-1.56a2.68,2.68,0,0,0-1.21-3.15,10.49,10.49,0,0,0-3.11-1.24c-11.42-3.14-23-5.65-34.64-7.79-5.3-1-10.61-1.86-15.92-2.8-.52-.09-1.21,0-1.19-.91.09-4-2.23-6.14-5.62-7.53a48.65,48.65,0,0,0-5.38-1.7c-.46-.13-.87-.15-.57-.86,1.08-2.46,2.11-5,3.14-7.44a1.48,1.48,0,0,1,1.33-.92,86.33,86.33,0,0,0,16.3-4A46.87,46.87,0,0,0,282.53,151c1.67-1.56,2.63-3.88,4.68-4.9s4.42-1.48,6.59-2.3c4.4-1.67,8.62-3.66,11.62-7.5.38-.48.69-.36,1.15-.19a6.53,6.53,0,0,0,5.59-.42,3.23,3.23,0,0,0,1.87-3.3,3.32,3.32,0,0,0-2.81-2.57,6.82,6.82,0,0,0-6,1.34.79.79,0,0,1-1.15.08,16,16,0,0,0-5.36-2.09,53.82,53.82,0,0,0-14.88-.79l-5.57.38c.74-1.47,1.42-2.73,2-4a7.88,7.88,0,0,0,.58-4.62,1.89,1.89,0,0,0-1.3-1.73,2,2,0,0,0-2.05.7,6,6,0,0,0-1.69,3.59,6.47,6.47,0,0,1-5.48,5.82c-3.27.67-6.34-.17-9.31-1.39-4.53-1.85-8.49-4.52-11.16-8.74-1.12-1.77-1.7-3.76-.8-5.77a9,9,0,0,1,7.44-5.51,3.81,3.81,0,0,1,4.11,2.17c.74,1.67-.07,2.83-1.24,3.9a7.75,7.75,0,0,0-.89,1,3.64,3.64,0,0,0-.76,2.51c.05.91.39,1.37,1.38,1.38a5.48,5.48,0,0,0,4.26-2,8,8,0,0,0-3.78-13.24c-6-1.75-13.46,2.75-15.07,9.07-.16.62-.27,1.26-.45,2.07a53.39,53.39,0,0,1-7.91-11.57c-2.07-4.29-.79-10.17,2.66-13.58a5.89,5.89,0,0,1,6.7-1.27c1.72.73,2.72,2.22,2.43,3.62s-1.45,2.23-3.5,2.29a21.41,21.41,0,0,0-3.49,0,1.68,1.68,0,0,0-1.54,1.13,2.13,2.13,0,0,0,.53,2.23,3.69,3.69,0,0,0,1.52.85,10.7,10.7,0,0,0,4.14.27c3.45-.28,5.94-2.23,6.73-5.26a7.63,7.63,0,0,0-3.28-8.57,11.18,11.18,0,0,0-8.66-1.42c-3,.64-5,2.58-6.5,5.07-.74,1.2-1.42,2.43-2.23,3.82-.38-1.35-.71-2.46-1-3.58-1.78-6.34-1.86-12.62,1-18.69a41.82,41.82,0,0,1,11.46-14.8c7.35-6,16.71-5.88,23.92.29,4,3.42,6.53,7.62,6.37,13.09-.12,4-2.26,7-5.63,8-4.06,1.24-9.94-1-9.81-6.54a9.88,9.88,0,0,0-.4-2.38,1.74,1.74,0,0,0-1.62-1.54,1.92,1.92,0,0,0-2,1.26,6.92,6.92,0,0,0-.57,3.42C253.87,78.9,264,84,271.61,79.44c5-3,7.42-9.38,6-15.68a23.16,23.16,0,0,0-33.13-15.48c-7.13,3.68-11.7,9.79-15.57,16.53a29.32,29.32,0,0,0-4.06,16c0,1.08.16,2.16.25,3.31a3,3,0,0,1-1.26-1,102.31,102.31,0,0,0-8.37-7.62c-5.12-4-10.8-6.38-17.41-6.08-6.91.32-11.31,3.88-12.48,10.09s3.75,10.87,9.87,9.45a6.66,6.66,0,0,0,4.05-10.33,2.11,2.11,0,0,0-2.26-1.12,2,2,0,0,0-1.56,1.82,7.54,7.54,0,0,0,0,3.47c.22,1-.2,1.42-1,1.73a3.57,3.57,0,0,1-4.56-2.43,5.3,5.3,0,0,1,1.4-5.21,9.16,9.16,0,0,1,5.06-2.62c4.87-1,9.28.39,13.34,3A51.13,51.13,0,0,1,229.1,98.52a89.81,89.81,0,0,0,8.42,14.85c5.36,7.24,11.58,13.49,19.9,17.34.86.39,1.74.76,2.6,1.13-.14.36-.39.32-.6.39-5.38,1.58-10.76,3.18-15.53,6.29a3.74,3.74,0,0,1-2.86.28c-3.83-.69-7.64-1.68-11.59-1.48a7.79,7.79,0,0,0-2.94.62q4.25,6,12.4,4.35a4.44,4.44,0,0,0,.53,5.14c.36.42.08.62-.13.9-3.09,4.14-6.17,8.29-9.28,12.41-1.59,2.11-1.63,2.11-4.14,1.37-8.77-2.58-14.82-7.53-15.66-17.38-.12-1.5-.08-2.13,1.25-2.75a4.22,4.22,0,0,0,1.8-2.28,9.9,9.9,0,0,0,.71-5.8c-.24-1.45-1-2.83-.4-4.38a2.46,2.46,0,0,0-.14-1.32c-.13-.62-.57-1-1.17-.77a2.28,2.28,0,0,1-2.54-.63,2.72,2.72,0,0,0-1.18-.63c-.84-.17-1.08-.44-.76-1.34a1.75,1.75,0,0,0-.83-2.32,2,2,0,0,0-2.41.66,1.81,1.81,0,0,0-.17,2.65c.25.31.5.51,0,.8a5.32,5.32,0,0,0-1.61,1.79c-.37.53-.75,1.11-1.36,1.26a1.12,1.12,0,0,0-.87,1.63c1,2.6,1,5.5,2.42,8a3.52,3.52,0,0,1,.76,1.59c-1.73-.1-3.43-.25-5.12-.29-5.86-.11-11.69.07-17.25,2.26a5.18,5.18,0,0,1-3.43.16,22.76,22.76,0,0,1-7.94-3.52,2.54,2.54,0,0,0-3.81.42c-.59.72-.95,1.64-1.52,2.37-.72.92-.35,1.32.5,1.8,2.17,1.23,4.44,2.26,6.7,3.35a2.3,2.3,0,0,1-1.1.91,33.19,33.19,0,0,1-17.91,4.49,21,21,0,0,1-10-2.2,4.84,4.84,0,0,0-5.84.42c-.87.65-1.74,1.29-2.54,2-1.56,1.4-1.47,1.78.45,2.4,6.22,2,12.5,3.64,19.12,3.32a31,31,0,0,0,18.19-6.55c1.06-.83,2.14-1.63,3.23-2.43a3.86,3.86,0,0,1,3.43-.68,13.39,13.39,0,0,0,3.34.4A33.13,33.13,0,0,0,194.61,147c1.48-.59,3-1.2,4.44-1.8a16.3,16.3,0,0,1-2.25,2.16,115.16,115.16,0,0,0-9.64,8.43c-.63.64-.71,1.11-.06,1.78a3.65,3.65,0,0,1,1.22,1.55c-2.78,1.63-3.67,2.83-3.75,5a6.37,6.37,0,0,0,2.64,5.21,43.52,43.52,0,0,0,5.47,3.67c.31.19.8.23.8.82-6.3,1-12.58,2-18.79,3.48-8.09,1.86-16.14,3.9-23.76,7.27a9.32,9.32,0,0,1-5.64.7c-2.6-.47-5.2-1-7.82-1.36C135.63,183.63,133.83,183,131.94,183.29Zm126,59.87.43.1a14.65,14.65,0,0,0,1-1.23c.59-.87,1.2-.84,2-.25s1.45.92,2.45,1.55a19.35,19.35,0,0,0-1-2.43,1.51,1.51,0,0,1,.5-2.17c.87-.73,1.67-1.54,2.62-2.43-1.39,0-2.54-.05-3.69,0a1.29,1.29,0,0,1-1.44-.88c-.52-1.07-1.18-2.08-1.78-3.12-.14,2.77-.38,5.27-4.2,5.16a11.86,11.86,0,0,0,1.55,1.23C258.19,239.7,259,241,257.92,243.16ZM106.24,89.24a20.92,20.92,0,0,1-.55,4.2c-.53,1.53-2.31.53-3.48,1.34,1,.75,1.88,1.53,2.86,2.19,1.46,1,.09,2.27.47,3.44l.52-.49c1.51-1.59,1.5-1.59,3.41-.39.46.29.93.54,1.65,1-.42-1-.68-1.76-1-2.44a1.43,1.43,0,0,1,.39-2c.92-.74,1.74-1.61,2.79-2.61-1.45,0-2.6-.06-3.73,0a1.33,1.33,0,0,1-1.47-.86C107.57,91.6,107,90.6,106.24,89.24ZM129.34,242a13.92,13.92,0,0,0,1.14-1.22c.59-.84,1.18-.88,2-.25a26.4,26.4,0,0,0,2.45,1.51c-.4-1-.63-1.79-1-2.48a1.38,1.38,0,0,1,.41-2c.9-.76,1.73-1.61,2.76-2.58-1.41,0-2.52-.08-3.61,0a1.41,1.41,0,0,1-1.59-.9c-.52-1.05-1.14-2.05-1.88-3.36-.15,1.47-.3,2.58-.36,3.68,0,.86-.33,1.3-1.27,1.31a21.76,21.76,0,0,0-2.6.37c1.24,1,2.18,1.71,3.15,2.41C130.33,239.6,129,240.82,129.34,242Zm21.4-159.85a2.48,2.48,0,0,0,2.31-2.64,2.54,2.54,0,0,0-2.17-2.78,2.48,2.48,0,0,0-2.31,2.64A2.55,2.55,0,0,0,150.74,82.19Zm15.54,142.92a2.28,2.28,0,1,0-4.47-.06,2.63,2.63,0,0,0,2.22,2.78A2.52,2.52,0,0,0,166.28,225.11Zm-41.4-52.06a2.41,2.41,0,0,0-2.29-2.63,2.51,2.51,0,0,0-2.14,2.78,2.47,2.47,0,0,0,2.29,2.65A2.56,2.56,0,0,0,124.88,173.05ZM93.24,184.23A2.45,2.45,0,0,0,91,181.58c-1.25,0-2.16,1.21-2.14,2.77s1,2.68,2.26,2.64A2.51,2.51,0,0,0,93.24,184.23ZM296.07,236a2.43,2.43,0,0,0-2.16-2.74c-1.31,0-2.24,1-2.26,2.61s.91,2.76,2.13,2.79A2.5,2.5,0,0,0,296.07,236Zm-41.15-16.58c0-1.57-1-2.66-2.26-2.65a2.75,2.75,0,1,0,2.26,2.65ZM136.7,129.16a2.39,2.39,0,0,0-2.24-2.65c-1.29,0-2.18,1.15-2.17,2.73a2.49,2.49,0,0,0,2.24,2.69A2.54,2.54,0,0,0,136.7,129.16Zm162.64,41.08c0-1.58-.84-2.76-2.08-2.84a2.46,2.46,0,0,0-2.32,2.63,2.53,2.53,0,0,0,2.24,2.84A2.47,2.47,0,0,0,299.34,170.24ZM88.1,130.75a2.5,2.5,0,0,0,2.12,2.8c1.25.06,2.24-1.09,2.27-2.64s-.84-2.73-2.11-2.78A2.38,2.38,0,0,0,88.1,130.75Zm123.34,90.79a2.46,2.46,0,0,0-2.22-2.7A2.54,2.54,0,0,0,207,221.6a2.44,2.44,0,0,0,2.25,2.67C210.55,224.25,211.45,223.12,211.44,221.54Zm-17.93,19.74c0,1.57.91,2.66,2.22,2.65s2.2-1.1,2.2-2.68a2.41,2.41,0,0,0-2.22-2.68C194.43,238.58,193.51,239.71,193.51,241.28Zm140.34-70.91a2.56,2.56,0,0,0-2.15-2.8c-1.24,0-2.22,1.12-2.25,2.67s.82,2.71,2.12,2.75S333.82,171.93,333.85,170.37ZM191.7,49.91c0-1.6-.85-2.7-2.14-2.73a2.38,2.38,0,0,0-2.28,2.63,2.58,2.58,0,0,0,2.18,2.78C190.71,52.62,191.68,51.45,191.7,49.91Zm-12.86,53.14a1.81,1.81,0,1,0-3.55,0,1.81,1.81,0,1,0,3.55,0Z"></path><path class="cls-3" d="M69,337.2c-.26-1.84-1.46-2.64-3.16-3a10.64,10.64,0,0,1-3.31-1.05c.28-.67.84-.57,1.28-.56,9.06.15,18.15-.44,27.2.37a31.43,31.43,0,0,1,16.14,5.81,17,17,0,0,1,1.34,26.41c-4.94,4.49-11,6.48-17.45,7.36a46.05,46.05,0,0,1-6.32.31H65c-.62,0-1.25,0-1.88-.06-.28,0-.58-.13-.58-.44s.34-.37.59-.37a15,15,0,0,0,3.25-.81A3.14,3.14,0,0,0,69,367.94c.05-1,.11-2,.11-3q0-13.49,0-27a2.68,2.68,0,0,1,.17,1.58q0,13.33,0,26.68v1.56c.19-.27.24-.31.24-.35q0-14.69,0-29.37C69.5,337.73,69.57,337.29,69,337.2Zm5.66,15.51v15c0,1.78.63,2.4,2.45,2.41,2.6,0,5.21.06,7.81,0,5.82-.16,11.29-1.52,16-5.16,7.48-5.79,8.59-16.25,2.37-22.78-3.59-3.77-8.27-5.41-13.27-6.26-4.32-.74-8.69-.4-13-.45-1.79,0-2.3.51-2.3,2.34Z"></path><path class="cls-4" d="M259.88,288.47c-1.76,6.08-3.42,11.84-5.08,17.59L253.39,311c-.42,1.51-.12,2.16,1.33,2.7.67.25,1.38.39,2.07.59a2.7,2.7,0,0,1,1.64,1c-.85.09-1.49.2-2.13.2-3.24,0-6.48,0-9.71,0a3,3,0,0,1-.67,0c-.28-.06-.74,0-.74-.39s.39-.43.68-.53a3.58,3.58,0,0,1,.77-.23c2.45-.24,3.74-1.81,4.39-4,1-3.38,2-6.8,3-10.2s1.89-6.55,2.8-9.83c1-3.66-.14-5.56-3.81-6.37-.38-.09-1,0-1-.52s.63-.42,1-.44c2.83-.16,5.66-.12,8.49,0a3.06,3.06,0,0,1,2.72,2.08l9.63,19.71,2.15,4.4c1.76-3.75,3.44-7.31,5.11-10.88,2-4.26,4.05-8.51,6-12.8a3.74,3.74,0,0,1,3.76-2.46c2.2,0,4.41,0,6.61,0,.48,0,1.31-.25,1.32.46s-.83.53-1.33.59a12.94,12.94,0,0,0-2.63.55,1.62,1.62,0,0,0-1.18,2.28c2.2,7.53,4.32,15.08,6.55,22.61.75,2.51,2.09,4.58,5.06,4.93.39.05,1.05.14,1,.69s-.68.32-1,.33q-7,0-14,0c-.33,0-.86.08-.93-.33s.47-.55.83-.66c.94-.29,1.92-.47,2.84-.82a1.8,1.8,0,0,0,1.22-2.45c-2.18-7.35-4.31-14.72-6.46-22.08a6.07,6.07,0,0,0-.3-.63c-1.8,3.85-3.53,7.59-5.28,11.32-2.13,4.54-4.26,9.1-6.44,13.62-.52,1.07-1.06,2.45-2.46,2.39s-1.68-1.45-2.19-2.49l-11.4-23.48C260.42,289.48,260.23,289.13,259.88,288.47Z"></path><path class="cls-4" d="M288.3,345.71c-1.92,4.1-3.67,7.87-5.44,11.63q-3,6.35-5.94,12.67a12.75,12.75,0,0,1-1.38,2.3c-1,1.29-2.05,1.27-2.87-.15-1-1.75-1.85-3.59-2.73-5.4q-4.83-9.93-9.64-19.85c-.13-.28-.28-.54-.56-1.06-1.1,3.8-2.11,7.35-3.14,10.89-1.1,3.84-2.22,7.67-3.32,11.5-.48,1.66-.14,2.27,1.48,2.88,1.1.42,2.39.37,3.35,1.24-.31.53-.8.43-1.21.44-3.6,0-7.19,0-10.79,0-.36,0-.94.15-1-.39s.53-.61.88-.64c3.38-.31,4.57-2.65,5.37-5.53,1.67-6.09,3.38-12.18,5.21-18.23,1.23-4-.4-6.52-4-6.8-.32,0-.69-.1-.68-.49s.46-.42.74-.43a66.52,66.52,0,0,1,9.15,0c1.29.1,1.92,1.2,2.44,2.29q4.42,9.06,8.84,18.13l2.8,5.72,6.39-13.61c1.6-3.41,3.24-6.8,4.79-10.23a3.45,3.45,0,0,1,3.33-2.28c2.42,0,4.85,0,7.28,0,.37,0,1-.07,1,.4.05.63-.62.49-1,.58a20.52,20.52,0,0,0-3,.64,1.59,1.59,0,0,0-1.12,2.2c2.18,7.44,4.28,14.9,6.45,22.35.78,2.67,2.06,4.91,5.22,5.27a1.18,1.18,0,0,1,1,.63c-.31.51-.84.4-1.3.4q-6.87,0-13.74,0c-.39,0-1,.11-1.05-.36s.6-.57,1-.7c.85-.28,1.75-.42,2.58-.74,1.34-.51,1.66-1.17,1.27-2.51C292.78,361,290.59,353.55,288.3,345.71Z"></path><path class="cls-5" d="M142.42,356.45A96.52,96.52,0,0,0,150,367.1a29.24,29.24,0,0,0,7.62,7,13.88,13.88,0,0,0,6.11,2.3,3.62,3.62,0,0,1,.93.31c-.32.64-.89.62-1.39.66a18,18,0,0,1-13.52-4.18,59.88,59.88,0,0,1-12.7-14.91,2.16,2.16,0,0,0-2.14-1.19c-2.69,0-5.39,0-8.08-.14-.75,0-.91.19-.9.88,0,2.87,0,5.75,0,8.62.09,3.34,1.59,4.94,4.84,5.34.43.05,1,0,1,.59s-.63.49-1,.49H115.74c-.42,0-1.06.15-1.06-.47s.61-.54,1-.6c3.17-.39,4.62-1.72,4.78-4.91a205.13,205.13,0,0,0,0-20.6c-.16-3.14-1.59-4.45-4.68-4.88a4,4,0,0,1-.91-.2.51.51,0,0,1-.27-.4c0-.13.18-.31.32-.37a2.06,2.06,0,0,1,.66-.08c7.81.08,15.63-.19,23.44.16a17.07,17.07,0,0,1,6.89,1.67,7.19,7.19,0,0,1,.07,12.94A37.15,37.15,0,0,1,142.42,356.45Zm-10.67-2.22c2.59-.06,5.22.33,7.75-.55,1.87-.66,3.4-1.66,3.94-3.71.85-3.22-1-5.84-4.64-6.54s-7.62-.29-11.44-.35c-1,0-1.38.71-1.38,1.64,0,2.87,0,5.75,0,8.62,0,.74.26.92.94.9C128.51,354.2,130.13,354.23,131.75,354.23Z"></path><path class="cls-4" d="M140.36,299.1c3.63,5.44,7.14,10.84,12,15.14,2.63,2.33,5.55,4.28,9.2,4.74.34,0,1-.06,1,.44s-.65.46-1.07.5c-6,.64-11-1.47-15.32-5.52a64.4,64.4,0,0,1-11.06-13.51,2.26,2.26,0,0,0-2.27-1.23c-2.6,0-5.21,0-7.81-.08-.83,0-1.06.2-1.05,1,.06,2.79,0,5.58,0,8.36.06,3.32,1.52,4.93,4.77,5.42.45.07,1.18-.06,1.12.64s-.78.43-1.22.43q-7.42,0-14.84,0c-.42,0-1.07.17-1.13-.41s.66-.59,1.1-.65c3.15-.41,4.68-1.82,4.75-5.11.14-6.78.12-13.57,0-20.35,0-2.46-1.36-4.91-4.78-4.91-.44,0-1,0-1.06-.59s.63-.48,1-.48c7.42,0,14.83,0,22.25.06a19.74,19.74,0,0,1,7.23,1.4c3.19,1.31,4.78,3.61,4.82,6.79,0,3.41-1.71,5.55-4.71,6.84C142.41,298.45,141.46,298.72,140.36,299.1Zm-10.85-2.22v.06c1.43,0,2.87,0,4.3,0a10.86,10.86,0,0,0,5.18-1.25,4.87,4.87,0,0,0,2.64-4.65,4.63,4.63,0,0,0-3-4.37,9.38,9.38,0,0,0-2.58-.73c-3.48-.5-7-.2-10.49-.25A1.43,1.43,0,0,0,124,287.3c0,2.92,0,5.84,0,8.76,0,.63.15.85.83.83C126.36,296.84,127.94,296.88,129.51,296.88Z"></path><path class="cls-6" d="M86.11,299.38c-3.87,0-7.73,0-11.59,0-.83,0-1.08.2-1.06,1,.07,2.74,0,5.48.07,8.22.09,3.75,1.32,5.14,5,5.79.39.07.94,0,.94.56s-.55.5-.94.5H63.13c-.39,0-.94.09-1-.48s.55-.51.93-.57c3.46-.57,4.5-1.6,4.94-5.08a56.12,56.12,0,0,0,.12-6.74c0-3.86,0-7.73,0-11.59a13.35,13.35,0,0,0-.31-3.21,4.38,4.38,0,0,0-4.43-3.75,5.43,5.43,0,0,1-.91-.18.46.46,0,0,1,.12-.9H78.28c.23,0,.45,0,.68,0a.46.46,0,0,1,.14.91,3.85,3.85,0,0,1-.78.16c-3,.32-4.59,1.84-4.76,4.83-.13,2.33,0,4.67-.09,7,0,.69.27.81.88.81q11.87,0,23.72,0c.76,0,.89-.28.88-.94,0-2.11,0-4.23-.06-6.34C98.72,286,97.31,284.48,94,284c-.42-.06-1-.05-1-.66s.61-.41,1-.41q7.62,0,15.23,0c.37,0,.94-.15,1,.41s-.52.61-1,.67c-3.26.4-4.79,1.86-4.88,5.13q-.28,10,0,20.08c.1,3.23,1.57,4.66,4.75,5.14.42.06,1.08,0,1.08.54,0,.73-.71.53-1.15.53q-7.48,0-15,0c-.4,0-1,.21-1.07-.45s.61-.54,1-.6c3.17-.44,4.53-1.65,4.78-4.92s.1-6.29.16-9.43c0-.94-.65-.67-1.11-.68Z"></path><path class="cls-4" d="M58.92,283c0,1.62,0,3.24,0,4.85,0,.36,0,.95-.46,1s-.47-.53-.59-.89c-.25-.81-.47-1.64-.75-2.44a11.91,11.91,0,0,0-9.77-8.23c-6.27-1.09-12.27-.55-17.83,2.78-12.13,7.25-12.16,23.4-.1,30.84,5.08,3.14,10.61,3.64,16.36,3A18.28,18.28,0,0,0,50,313c4.34-1.51,6.46-4.88,7.71-9,.16-.56,0-1.61.71-1.55s.56,1.08.57,1.71c0,3,.24,5.92.07,8.89,0,.61-.16,1.09-.82,1.17-2.86.34-5.57,1.36-8.4,1.86-7.55,1.32-15,1.5-22.25-1.54-6.65-2.79-11.49-7.35-13.3-14.53-2.12-8.45,1.48-16.64,9.28-21.41,6.88-4.21,14.4-5.32,22.3-4.34a57.48,57.48,0,0,1,11,2.59c2.27.75,2.27.73,2.27,3.21,0,.49,0,1,0,1.48s0,1-.06,1.48Z"></path><path class="cls-7" d="M192,316.53a27.91,27.91,0,0,1-10.43-1.75c-2.31-.82-2.34-.8-2.32-3.36,0-1.75,0-3.5.09-5.25,0-.35.09-.77.54-.82s.47.34.53.65c1.05,5.67,5,7.57,10.21,7.84a19.67,19.67,0,0,0,9.47-1.53c1.83-.84,3.3-2.06,3.51-4.25.25-2.49-1-4.34-3.54-5.41a35.92,35.92,0,0,0-8.39-1.89c-2-.31-4-.65-6-1.07a11.17,11.17,0,0,1-4.78-2.38c-3.81-3.12-4-7.88-.3-11.2a16.78,16.78,0,0,1,9.56-3.93,30.21,30.21,0,0,1,13.91,1.67,3.18,3.18,0,0,0,1.15.33c1.43-.12,1.79.66,1.75,1.88-.06,2.15-.09,4.31-.16,6.46,0,.37.06.92-.51.94s-.49-.47-.56-.81c-1.09-4.57-4-7.06-8.63-7.61a24.63,24.63,0,0,0-10.14.66,8.75,8.75,0,0,0-1.73.74c-3,1.68-3.07,5-.1,6.74,2.62,1.53,5.59,1.84,8.54,2.19A31.32,31.32,0,0,1,201.6,297a11.65,11.65,0,0,1,5.56,4.09c2.48,3.49,1.59,8.64-2,11.6a18.15,18.15,0,0,1-11.24,3.87C193.26,316.55,192.63,316.53,192,316.53Z"></path><path class="cls-7" d="M308.48,367.13c0-1.16,0-2.33,0-3.5,0-.4,0-.89.54-.93s.49.43.56.78c.89,4.74,3.95,7,8.55,7.57a21.08,21.08,0,0,0,10.58-1.16,9.45,9.45,0,0,0,1.55-.8c3.59-2.33,3.37-6.84-.44-8.78-2.65-1.35-5.58-1.63-8.45-2.11-2.12-.35-4.25-.67-6.36-1.1a11.5,11.5,0,0,1-4.81-2.31c-4-3.18-4.11-8.25-.19-11.57a16.7,16.7,0,0,1,8.72-3.59A29.67,29.67,0,0,1,333,341.16a9.38,9.38,0,0,0,1,.34c2,.48,2.07.48,2.07,2.52s-.1,4-.16,6.06c0,.32-.09.67-.45.73s-.47-.3-.58-.6c-2.37-6.31-5.32-8.25-12.23-8a24.65,24.65,0,0,0-6,.7,9.6,9.6,0,0,0-2.61,1.08c-2.66,1.7-2.68,4.79,0,6.46a17.82,17.82,0,0,0,7.3,2.14,64.64,64.64,0,0,1,7.19,1.09,16.18,16.18,0,0,1,4.12,1.61c6.2,3.49,6.71,10.92,1,15.19a18.76,18.76,0,0,1-11,3.47,30.2,30.2,0,0,1-12.16-1.84,2.83,2.83,0,0,0-.92-.17c-.91,0-1.25-.54-1.24-1.4,0-1.12,0-2.25,0-3.37Z"></path><path class="cls-4" d="M371.58,316.52a26.86,26.86,0,0,1-9.89-1.73c-2.34-.85-2.35-.83-2.33-3.34,0-1.75.05-3.5.09-5.25,0-.36,0-.78.49-.84s.51.28.57.61c1,5.78,5.05,7.63,10.29,7.88a19.09,19.09,0,0,0,9.71-1.71,5.25,5.25,0,0,0,3.21-4,4.89,4.89,0,0,0-2.93-5.14c-2.82-1.41-5.92-1.7-9-2.19a34.92,34.92,0,0,1-7.62-1.6,11.64,11.64,0,0,1-3.64-2.26,6.92,6.92,0,0,1-.43-10.19c2.73-2.91,6.3-4,10.11-4.52a28.91,28.91,0,0,1,13.39,1.48c.38.13.76.27,1.15.38,2.13.63,2.21.62,2.29,2.89.08,1.88-.06,3.77-.11,5.65,0,.36,0,.79-.48.84s-.49-.41-.6-.75c-1.67-5.34-4.5-7.55-10.07-7.81a24.11,24.11,0,0,0-8.54.77,9.87,9.87,0,0,0-2,.83c-3,1.76-3,5,.06,6.75,2.6,1.47,5.52,1.78,8.41,2.14a36,36,0,0,1,7.14,1.3,14.27,14.27,0,0,1,3.18,1.45c5.76,3.59,6.14,10.67.75,14.84A18.26,18.26,0,0,1,374,316.52C373.33,316.55,372.65,316.52,371.58,316.52Z"></path><path class="cls-8" d="M175.51,340.19c5.07,0,10.15,0,15.22,0,1,0,1.21.37,1.12,1.19q-.36,3.15-.75,6.28c0,.34,0,.83-.53.8s-.42-.49-.5-.84c-.17-.74-.32-1.49-.56-2.21a3.08,3.08,0,0,0-2.76-2.23,90.33,90.33,0,0,0-15.34-.08,1,1,0,0,0-1.06,1.12c0,3,0,6,0,9,0,.7.31.8.89.79,3.42,0,6.83,0,10.25,0a7.24,7.24,0,0,0,1.6-.21c1.52-.35,2.63-1.12,2.74-2.86,0-.33,0-.81.48-.83s.45.37.45.68q0,4.59,0,9.17c0,.32-.05.66-.47.69s-.37-.26-.39-.46c-.18-3-2.43-3.42-4.69-3.5-3.32-.13-6.65,0-10-.05-.75,0-.89.28-.89.94,0,3.68,0,7.37,0,11.05,0,.86.34,1.17,1.19,1.25a128.64,128.64,0,0,0,15.21.19c3.07-.1,4.73-1.55,5.62-4.48.11-.36.08-1,.61-.91s.36.74.32,1.11a37.9,37.9,0,0,1-.55,4c-.46,2.22-1.49,3.05-3.76,3.06-4.53,0-9.07,0-13.61,0H160.15c-.4,0-1.05.2-1.08-.45s.6-.61,1-.61c3.18,0,4.51-2.1,4.85-4.89a26.46,26.46,0,0,0,.09-3c0-5.3,0-10.6,0-15.9a11.71,11.71,0,0,0-.34-3.07,4.36,4.36,0,0,0-4.06-3.52c-.36,0-.72-.09-1.07-.15s-.54-.18-.52-.51.27-.43.56-.44h15.91Z"></path><path class="cls-8" d="M244.19,372.43a8.71,8.71,0,0,1-2.48.34c-4.17,0-8.35,0-12.53,0a22,22,0,0,1-2.55-.24c-.25,0-.59,0-.56-.39s.23-.35.46-.43c.9-.28,1.8-.57,2.67-.9a1.55,1.55,0,0,0,1-2.35c-1.33-2.59-2.74-5.14-4.11-7.71-.25-.46-.68-.37-1.07-.37H210.48c-.51,0-.92,0-1.23.56A56.71,56.71,0,0,0,206,367c-.94,2.27-.49,3.21,1.81,4,1,.33,2,.61,2.95.93.29.09.67.22.61.6s-.46.37-.77.37H195c-.26,0-.6.05-.64-.31s.29-.51.6-.58c5-1,7.94-4.52,10.28-8.76,3.43-6.21,7-12.35,10.46-18.52.78-1.38.67-1.75-.76-2.47a11,11,0,0,0-3.22-.91c-.32-.06-.73-.1-.73-.46s.43-.41.74-.42a35,35,0,0,1,7.66.18,4.47,4.47,0,0,1,3.11,2.53c3.89,7,7.83,13.93,11.76,20.88a24.88,24.88,0,0,0,3,4.44,10.3,10.3,0,0,0,5.52,3.15C243.29,371.7,243.9,371.68,244.19,372.43Zm-19.73-14.71-6.65-11.8c-2.27,4-4.45,7.84-6.7,11.8Z"></path><path class="cls-9" d="M357,315a2.19,2.19,0,0,1-1.43.35c-4.85,0-9.7,0-14.56,0-.69,0-1.83.2-2-.58s1.07-.55,1.67-.76c2.93-1,3.18-1.62,1.68-4.37-1.06-1.93-2.14-3.84-3.16-5.79a1.4,1.4,0,0,0-1.45-.89c-4.8,0-9.61,0-14.42,0a1.16,1.16,0,0,0-1.22.58,46.78,46.78,0,0,0-3.33,6.3c-.82,2.05-.37,3,1.72,3.69,1,.34,2,.61,2.94.94.36.12.92.2.79.72-.09.35-.6.29-1,.29H308.09c-.32,0-.81.14-.88-.35s.36-.5.66-.56c4.95-1,7.82-4.39,10.13-8.54q5.26-9.47,10.7-18.85c.67-1.16.26-1.7-.65-2.22a11,11,0,0,0-3.46-1c-.27,0-.73,0-.69-.48s.44-.4.74-.41a45.86,45.86,0,0,1,7.13.09,4.63,4.63,0,0,1,3.56,2.56c4,7.25,8.15,14.47,12.22,21.7,2,3.49,4.48,6.29,8.7,7A.8.8,0,0,1,357,315ZM330.7,288.55,324,300.43h13.43C335.15,296.46,333,292.61,330.7,288.55Z"></path><path class="cls-9" d="M228.34,315.47h-7.68c-.36,0-.82,0-.85-.44s.42-.5.76-.58c4.17-.93,5.22-2.16,5.26-6.66.06-7.1,0-14.19,0-21.29,0-.76-.27-.88-.92-.88-2.88,0-5.75,0-8.63,0a3.55,3.55,0,0,0-3.3,2.16c-.57,1.12-1.08,2.26-1.65,3.39-.14.27-.34.6-.71.48s-.26-.44-.27-.71a32.55,32.55,0,0,1,.78-7.62c.22-1,.91-.95,1.65-.87,8,.81,16,.4,24,.49a56.6,56.6,0,0,0,7.25-.5,1.36,1.36,0,0,1,1.77,1.26,30.27,30.27,0,0,1,.63,7.23c0,.25.1.58-.22.71s-.56-.2-.7-.46c-.49-1-1-1.92-1.41-2.9a4.19,4.19,0,0,0-4.25-2.68c-2.56.06-5.12,0-7.68,0-.77,0-1.09.12-1.08,1,0,7.37,0,14.74,0,22.1,0,3.57,1.39,5.07,4.94,5.67.41.07,1,0,.95.66s-.62.4-1,.41c-1.3,0-2.61,0-3.91,0Z"></path><path class="cls-10" d="M163.06,298.5c-.15-2.87.29-6.43-.2-10-.41-3-1.7-4.16-4.73-4.5-.45-.05-1-.05-1.06-.59s.63-.48,1-.48q7.62,0,15.23,0c.39,0,.93-.11,1,.44s-.47.56-.88.63c-3.66.61-5,1.83-5,5.55-.1,6.6-.24,13.2.08,19.8.16,3.18,1.55,4.54,4.71,5,.45.07,1.16,0,1.09.65s-.71.41-1.13.42h-15.1c-.38,0-.93.1-1-.44s.5-.52.88-.59c3.79-.69,5-2.18,5.1-6.24C163.1,305.19,163.06,302.18,163.06,298.5Z"></path><path class="cls-10" d="M69,337.2c.57.09.5.53.5.93q0,14.69,0,29.37s0,.08-.24.35v-1.56q0-13.35,0-26.68a2.68,2.68,0,0,0-.17-1.58Z"></path><path class="cls-11" d="M165.81,124.92c-.94,0-1.52-.67-2.2-1.12s-1.38-.64-2,.23a7.78,7.78,0,0,1-1.19,1.08c-.38-1,1.06-2.3-.35-3.29-1-.7-2-1.5-3-2.3,1.23-.56,2.83,0,3.46-1s.34-2.26.46-3.42c0-.21.07-.43.13-.81a7.75,7.75,0,0,1,1.62,2.66,2,2,0,0,0,2.42,1.31,26.79,26.79,0,0,1,2.84,0,15.51,15.51,0,0,1-1.93,2c-1.25.92-1.58,1.91-.74,3.27a6.15,6.15,0,0,1,.47,1.39Z"></path><path class="cls-11" d="M257.92,243.16c1.08-2.12.27-3.46-1.54-4.45a11.86,11.86,0,0,1-1.55-1.23c3.82.11,4.06-2.39,4.2-5.16.6,1,1.26,2.05,1.78,3.12a1.29,1.29,0,0,0,1.44.88c1.15-.07,2.3,0,3.69,0-.95.89-1.75,1.7-2.62,2.43a1.51,1.51,0,0,0-.5,2.17,19.35,19.35,0,0,1,1,2.43c-1-.63-1.76-1-2.45-1.55s-1.39-.62-2,.25a14.65,14.65,0,0,1-1,1.23Z"></path><path class="cls-11" d="M106.24,89.24c.75,1.36,1.33,2.36,1.86,3.39a1.33,1.33,0,0,0,1.47.86c1.13-.09,2.28,0,3.73,0-1,1-1.87,1.87-2.79,2.61a1.43,1.43,0,0,0-.39,2c.32.68.58,1.4,1,2.44-.72-.42-1.19-.67-1.65-1-1.91-1.2-1.9-1.2-3.41.39l-.52.49c-.38-1.17,1-2.47-.47-3.44-1-.66-1.88-1.44-2.86-2.19,1.17-.81,3,.19,3.48-1.34A20.92,20.92,0,0,0,106.24,89.24Z"></path><path class="cls-11" d="M296.34,106a5.09,5.09,0,0,1-2.31-1.26,1.21,1.21,0,0,0-2,.32,5.66,5.66,0,0,1-1.32,1.21c1.81-3.58-1.64-4.08-3.16-5.81l.78-.21c2.77-.65,2.77-.65,3.07-3.59,0-.4.09-.79.15-1.36a11.49,11.49,0,0,1,1.86,3,1.57,1.57,0,0,0,1.68,1c1.06-.08,2.13,0,3.43,0-.94.94-1.7,1.8-2.56,2.52a1.48,1.48,0,0,0-.45,2.08,20.28,20.28,0,0,1,.81,2.13Z"></path><path class="cls-11" d="M129.34,242c-.36-1.22,1-2.44-.4-3.45-1-.7-1.91-1.45-3.15-2.41a21.76,21.76,0,0,1,2.6-.37c.94,0,1.23-.45,1.27-1.31.06-1.1.21-2.21.36-3.68.74,1.31,1.36,2.31,1.88,3.36a1.41,1.41,0,0,0,1.59.9c1.09-.1,2.2,0,3.61,0-1,1-1.86,1.82-2.76,2.58a1.38,1.38,0,0,0-.41,2c.36.69.59,1.46,1,2.48a26.4,26.4,0,0,1-2.45-1.51c-.81-.63-1.4-.59-2,.25A13.92,13.92,0,0,1,129.34,242Z"></path><path class="cls-11" d="M165.8,124.93l.09.07a.64.64,0,0,0,0,.07l-.06-.15Z"></path><polygon class="cls-11" points="296.34 106.04 296.36 106.07 296.34 106.03 296.34 106.04"></polygon><path class="cls-12" d="M201.81,163.35c1.39.2,1.84-.67,2.24-1.63a26.76,26.76,0,0,1,2-4.82c.57-.86,1-1.16,2.07-.34,4.74,3.73,10.27,6,15.87,8.06,2.42.9,2.44.91,1,3-1.12,1.57-2.3,3.1-3.47,4.64-.21.27-.38.7-.78.66-1.63-.17-3.22.32-4.83.24a2.08,2.08,0,0,1-1.56-.69A30.43,30.43,0,0,0,201.81,163.35Z"></path><path class="cls-3" d="M281,147.74c-8.68,7.89-19.31,11.44-30.8,13.84,1.07-2.65,2.23-5,3-7.45s2-3.56,4.87-3.53A96.58,96.58,0,0,0,281,147.74Z"></path><path class="cls-6" d="M261.15,136.23a2.56,2.56,0,0,1,2.6,2.78,2.51,2.51,0,0,1-2.62,2.75,3,3,0,0,1-2.9-3.07A2.6,2.6,0,0,1,261.15,136.23Z"></path><path class="cls-8" d="M189.45,144.32a31.11,31.11,0,0,1,13.93-2.54A26.77,26.77,0,0,1,189.45,144.32Z"></path></svg> 