<?xml version="1.0" encoding="UTF-8"?> <svg xmlns="http://www.w3.org/2000/svg" id="Layer_1" data-name="Layer 1" viewBox="0 0 400 400"><defs><style>.cls-1{fill:#fff;}.cls-2{fill:#978b7d;}.cls-3{fill:#8f1739;}</style></defs><rect class="cls-1" x="0.24" y="-1.44" width="400" height="400"></rect><path class="cls-2" d="M369.23,289.9c.68-.1,1.37-.17,2-.33a2.33,2.33,0,0,0,1.72-2.5q0-13,0-26c0-1.64-.78-2.33-2.52-2.35-.65,0-1.22.07-1.24-.92s.41-1.07,1.21-1.22c2.79-.54,5.56-1.18,8.42-1.81v1.29c0,10,0,20,0,30,0,3.75,1,3.37,3.76,3.84v1.88H371.12c-1.91,0-1.91,0-1.87-1.88Z"></path><path class="cls-3" d="M127.83,363c-1.07-.5-2.27-1.07-2.28-2.38a3.53,3.53,0,0,1,2.19-3c.33-.18.65-.39,1-.59-1-1.17-.93-1.62.44-2.6a4.08,4.08,0,0,1-1.18-5.74c1.38-2.13,3.06-2.71,5.59-1.92.79.25,1.51-.14,2.27-.19.22,0,.47-.48.64,0a.67.67,0,0,1-.13.76c-.09.08-.15.21-.25.24-1.44.46-1.43,1.55-1.53,2.83a3.94,3.94,0,0,1-2.46,3.32c-2.21,1-2.18,1.08-.22,2.43a8.12,8.12,0,0,1,2,1.7,2.68,2.68,0,0,1-.42,3.75,14.85,14.85,0,0,1-2.53,1.39Zm2.37-1.17c1.24,0,2.37-.79,2.31-1.59s-1.94-2.36-2.74-2.39c-.63,0-1.89,1.33-1.92,2.07C127.81,360.86,129,361.84,130.2,361.83Zm-.49-10.89c0,.42,0,.73,0,1,.06.49.18,1,.74,1.16s.91-.23,1.15-.61a4.47,4.47,0,0,0,.62-4.18c-.13-.32-.2-.83-.7-.79a1.23,1.23,0,0,0-1.12.66A4.73,4.73,0,0,0,129.71,350.94Z"></path><path class="cls-3" d="M202.19,112.85a91.86,91.86,0,0,1,9.41,12.28,23.59,23.59,0,0,1,3.46,9.55c.35,3.13,1.07,6.23,1.66,9.33.41,2.14.72,4.3.95,6.63,2-.77,4-1.47,6-2.31a27.4,27.4,0,0,0,8.63-5.77,21.08,21.08,0,0,1,6.4-4.11A11.93,11.93,0,0,0,242,136.5a4,4,0,0,1,1.17-.7,1.45,1.45,0,0,1,2.11,1.42,5.29,5.29,0,0,1-2.45,4.76c-.24.18-.49.34-.76.52a2.6,2.6,0,0,0,2.75-.77c.87-1,1.7-2,2.48-3a2.38,2.38,0,0,1,2.36-.9c.12,0,.31,0,.34,0,.68,1.36,1.34.16,2,0s1.18-.38,1.65.26c.25.35.64.17,1,.23.84.14,1.27.64,1.05,1.48a.79.79,0,0,0,.54,1.07.84.84,0,0,1,.52,1.1c-.77,2.26-1.43,4.7-2.89,6.52-2.49,3.11-5.35,6-9.62,6.7a29.8,29.8,0,0,1-3.28.49c-1.36.07-2.06,1.24-2.76,2.13-2.56,3.27-5,6.65-7.46,10a3.87,3.87,0,0,0-.3.63c33.51,4.18,65.08,14.08,94.32,31.08a6,6,0,0,1-2.66-.8c-5.13-2.15-10.39-4-15.67-5.75-7.22-2.4-14.53-4.52-21.91-6.42-6.29-1.62-12.63-3-19-4.34-3.76-.81-7.59-1.26-11.38-1.95-4.14-.75-8.31-1.23-12.46-1.83-2.39-.35-4.82-.47-7.22-.74q-5.57-.63-11.16-1c-2.58-.16-5.17-.27-7.75-.46-8.82-.67-17.66-.41-26.5-.41-4.34,0-8.68.24-13,.46-3.19.15-6.39.35-9.56.71-3.47.39-6.95.71-10.41,1.09s-6.79.78-10.15,1.28c-4.44.66-8.87,1.44-13.3,2.23C124.29,183,116.12,184.9,108,187c-4.66,1.2-9.28,2.55-13.87,4-7.88,2.47-15.67,5.18-23.3,8.35a9.7,9.7,0,0,0-1,.28,8.69,8.69,0,0,1,2.7-1.82q9.31-5.22,19.06-9.58a243,243,0,0,1,25.48-9.67c5.38-1.71,10.81-3.26,16.29-4.6,5.16-1.26,10.38-2.28,15.6-3.33,2.09-.42,4.22-.64,6.33-1,.72-.11,1.23-.3,1.15-1.28a59.12,59.12,0,0,1,.25-8.62c.23-4,.58-7.93.71-11.91a67.1,67.1,0,0,0-.68-10.41,26.12,26.12,0,0,1,.49-8.53c.95-4.65,2.54-9.13,3.59-13.74.4-1.78.32-3.69.81-5.43,1-3.43,2.93-6.18,6.48-7.39,1-.33.88-1.12,1-1.77a19.44,19.44,0,0,0,.9-5.52,4,4,0,0,0-2.71-3.94,6.47,6.47,0,0,1-4.15-4.76c-.19-.89-1-1.64-.89-2.65,0-.15,0-.31.05-.52a11.92,11.92,0,0,0,4.88.9c-.93-.85-1.42-1.84-2.81-2.14a4.38,4.38,0,0,1-2.95-5.31,13.85,13.85,0,0,0,1.4.68,1.56,1.56,0,0,0,2.22-1.21,11.91,11.91,0,0,0,.08-4,14,14,0,0,1,0-4.43c.27-1.9.11-3.83.62-5.72A18,18,0,0,1,167,58.21a66.19,66.19,0,0,1,4.84-8.77,36.14,36.14,0,0,1,16.17-12.71A30.62,30.62,0,0,1,201.88,35,31.5,31.5,0,0,1,216,40a49.53,49.53,0,0,1,7.78,6.08A49.29,49.29,0,0,1,234.57,60,34,34,0,0,1,238,71a26.68,26.68,0,0,1-.25,7.93,1.61,1.61,0,0,1-1,1.3c-2.09.44-2.83,2.23-3.91,3.65a14.78,14.78,0,0,1-5.42,4.89c-3.61,1.67-4,3.72-3.18,7.22.25,1.14.61,2.27.84,3.42a3,3,0,0,1-2.3,3.77,4.93,4.93,0,0,1-1.43.36c-.91,0-1.08.57-1.17,1.25,0,.3,0,.62,0,.93a1.79,1.79,0,0,1-1.82,2,6.53,6.53,0,0,1-1.17,0c-.67,0-1,.17-1,.92-.06,1.84-1.22,2.64-3,2a1.28,1.28,0,0,0-1.73.59,5.56,5.56,0,0,1-6.76,2.21c-.79-.27-1.56-.56-2.34-.85a.25.25,0,0,0-.41-.15Zm-5.72,21.9a7.06,7.06,0,0,0-3,.28,34.92,34.92,0,0,0-10.78,3.75,16.41,16.41,0,0,0-7.11,7.55,2,2,0,0,0,.83,2.89c1.24.81,1.66.72,2.72-.54a3.18,3.18,0,0,1,.41-.41,41.41,41.41,0,0,1,7.47-5.67,31,31,0,0,1,13.45-3.87c.57,0,1.28.13,1.52-.54a1.67,1.67,0,0,0-.61-1.71A6.06,6.06,0,0,0,196.47,134.75Z"></path><path class="cls-2" d="M223,223.37a13.78,13.78,0,0,1,5.41-3.1c4.73-1.07,9,1.17,9.57,6.34s.13,10.19.24,15.29c0,2.07,1.24,3.19,3.34,3,.56-.06,1.1-.29,1.66-.38,1.23-.2,1.57-1.05,1.57-2.14,0-5.27,0-10.54,0-15.82,0-2.49-.64-2.36-2.6-2.72-.49-.09-1,.1-1-.73s.21-1.05.91-1.17a49.85,49.85,0,0,0,7.73-1.9c.94-.31,1-.07,1,.75,0,7,0,14,0,21,0,1.93.73,2.72,2.64,3a9.6,9.6,0,0,0,3-.27,1.52,1.52,0,0,0,1.36-1.46c0-1,.29-2,.29-3,0-7.46,0-14.92,0-22.38a12.43,12.43,0,0,0-.26-2.51,1.41,1.41,0,0,0-1.38-1.16c-.57,0-1.14-.15-1.7-.24-.73-.1-.34-.67-.38-1s-.24-.74.43-.86A81,81,0,0,0,263,210c.91-.26,1.07.15,1.07,1q0,15.47,0,30.94c0,1.87.59,2.48,2.49,2.71.57.07,1.3,0,1.29,1,0,.85-.17,1.11-1.08,1.1q-18.27,0-36.56,0c-.4,0-1.08.35-1.07-.58,0-.72-.08-1.32.9-1.52,2-.42,2-.62,2.19-2.65.33-3.5.17-7,.17-10.5a13.83,13.83,0,0,0-.54-4.31c-1-3-3.79-3.49-6.4-2.6-2.07.71-2.4,1.35-2.4,3.59v14.17c0,1.58.38,2.09,1.93,2.28,1.08.14.84.87.88,1.54.06.83-.54.58-1,.58-3.51,0-7,0-10.54,0-.35,0-1,.29-.92-.48,0-.57-.33-1.24.68-1.53,2.84-.81,2.82-.86,2.82-3.89,0-8.16,0-16.32,0-24.49,0-2.5-.83-2.26-2.58-2.63-.46-.1-1.07.15-1-.71.07-.56-.21-1.07.82-1.24,2.58-.42,5.11-1.11,7.66-1.73.82-.2,1.17-.1,1.16.88C223,215,223,219.1,223,223.37Z"></path><path class="cls-2" d="M229.39,273.71c-2.46,0-4.92,0-7.38,0-.71,0-.93.16-.92.9,0,3.71,0,7.42,0,11.13a5.11,5.11,0,0,0,.7,2.84,3.26,3.26,0,0,0,3.14,1.3c.83-.05.85.34.86,1s-.07,1-.86,1q-7.16-.06-14.3,0c-.71,0-.87-.25-.81-.88s-.15-1,.77-1c2.63-.13,3.82-.77,4-3.94.38-7.83.06-15.67.16-23.5a18.71,18.71,0,0,0-.47-3.63c-.23-1.18-1.7-1.94-3.66-1.93-.66,0-1,0-1-.9s.26-1,1.06-1c4.65,0,9.29,0,13.94,0,.58,0,1-.05,1,.81,0,.7,0,1.09-1,1.1-2.35,0-3.45,1.28-3.5,3.93-.07,3.13,0,6.25,0,9.38,0,.54.14.73.71.73q7.62,0,15.24,0c.57,0,.72-.19.71-.73,0-3.43.08-6.85-.24-10.26-.2-2.1-1.26-3.06-3.51-3.06-.76,0-1-.2-1-1s.26-.95,1-.94c4.68,0,9.37,0,14.06,0,.83,0,.92.3.94,1s-.18.92-.91.92c-2.8,0-4,1.14-4,3.95,0,8.36-.12,16.72,0,25.08,0,2.49.32,3.82,4,4,.88,0,.64.56.66,1s.12.91-.65.9q-7.44,0-14.88,0c-.92,0-.58-.61-.63-1s0-1,.69-.85a6.07,6.07,0,0,0,2.16-.29c1.13-.18,2-1.54,2.07-2.94.35-4,.17-7.93.26-11.9,0-.93-.3-1.08-1.12-1.06C234.24,273.75,231.81,273.71,229.39,273.71Z"></path><path class="cls-2" d="M24.26,255c2.69,0,5.39-.06,8.08,0a15.26,15.26,0,0,1,5.25,1,8,8,0,0,1,5.11,6.53,9.65,9.65,0,0,1-2.9,8.83,9.74,9.74,0,0,1-3.23,2.12c-.76.28-.94.64-.49,1.44a99.79,99.79,0,0,0,7.77,11.95,9.83,9.83,0,0,0,4.43,3.71c.61.21.39.74.25,1s0,1-.57.79a13.47,13.47,0,0,0-3.89-.35c-4.46-.37-7.23-2.89-9.27-6.56-1.48-2.66-2.92-5.33-4.47-7.95a3.3,3.3,0,0,0-4-1.75c-.47.09-.42.35-.42.66,0,3.12-.06,6.25,0,9.37a5,5,0,0,0,.58,2.64,3.37,3.37,0,0,0,3.12,1.38c.77,0,1,.2,1,1s-.26.95-1,.94q-6.9,0-13.82,0c-.68,0-1-.1-.94-.88s0-1,.9-1c2.61,0,3.79-1.13,3.8-3.74q0-12.76,0-25.54c0-2.61-1.17-3.69-3.83-3.71-.81,0-.85-.32-.85-1s.05-1,.85-1C18.55,255,21.41,255,24.26,255Zm1.62,10.89c0,2.34,0,4.68,0,7,0,.64.14.9.82.85,1-.06,2-.07,3-.21A6.59,6.59,0,0,0,34.76,270a9.63,9.63,0,0,0,.91-7.31,6.46,6.46,0,0,0-2.63-4,9,9,0,0,0-5.31-1.39c-1.38.05-1.84.48-1.85,1.89C25.87,261.41,25.88,263.63,25.88,265.85Z"></path><path class="cls-2" d="M301.5,264.34v4.12c1.6-.94,3-1.82,4.52-2.64a7.41,7.41,0,0,1,7.73.38c3.19,1.91,4.46,5,4.88,8.58A16,16,0,0,1,317,284a15.54,15.54,0,0,1-8.55,7.55c-3.53,1.38-3.49,1.18-6.94.28.14,3.16-.25,6.3.25,9.42a2.37,2.37,0,0,0,2.48,1.79,11.09,11.09,0,0,0,1.23.18c1.22-.11.94.67,1,1.33,0,.45-.13.61-.59.61H292.48c-.46,0-.69-.17-.58-.6s-.4-1.1.37-1.25c.44-.09.87-.25,1.34-.3a2.08,2.08,0,0,0,2-2.31q0-14.88,0-29.75c0-1.53-.93-1.86-2.86-2.12-.37-.05-.93.23-.88-.54,0-.52-.15-1.14.6-1.29C295.53,266.33,298.43,265.21,301.5,264.34Zm0,14.85c0,2.42,0,4.84,0,7.26,0,.28-.13.57.18.84,3,2.56,7.22,3,9.43-1.27a15.52,15.52,0,0,0,.74-11.84c-1.37-4.66-5.78-6.3-9.64-3.54a1.49,1.49,0,0,0-.73,1.42C301.52,274.44,301.5,276.81,301.5,279.19Z"></path><path class="cls-2" d="M136.47,247.63v-3.25a29.34,29.34,0,0,0-3.37,2c-1.95,1.51-4,1.33-6.08.54a11.62,11.62,0,0,1-7.64-9.62,14.66,14.66,0,0,1,2.5-11.43,13.88,13.88,0,0,1,8.78-5.58,21.08,21.08,0,0,1,5.84-.12c0-1.64.05-3.35,0-5.06,0-1-1-1.67-2.63-1.59-1,0-1.16-.28-1.14-1.17a.86.86,0,0,1,.87-1c3-.35,5.8-1.25,8.77-1.76V219.9c0,6.17,0,12.34,0,18.51,0,1.25.17,2.47.27,3.69.06.71.36,1.27,1.25,1.15a9.2,9.2,0,0,1,1,0c1.52,0,1.66.18,1.45,1.63-.05.33-.14.44-.49.48A55.16,55.16,0,0,0,136.47,247.63Zm0-14.2c0-2.5,0-5,0-7.49a1.52,1.52,0,0,0-.22-1.1c-2.55-3.17-6.79-2.88-8.67.71a14.87,14.87,0,0,0,0,14.39c1.53,2.94,4.79,4.38,7.95,2.5a1.54,1.54,0,0,0,1-1.52C136.47,238.42,136.5,235.93,136.5,233.43Z"></path><path class="cls-2" d="M283.87,247.69v-3.34a21.3,21.3,0,0,0-2.81,1.68c-2.53,2.08-5.19,1.7-7.82.41a11.29,11.29,0,0,1-6.43-8.73,15.36,15.36,0,0,1,1.21-10,14.24,14.24,0,0,1,9-7.24c2.24-.65,4.48-.45,6.88-.38,0-1.44.12-3,0-4.59-.12-1.27-.93-1.67-2.89-1.81-.5,0-1.15.2-1-.74.06-.59-.13-1,.86-1.2a73.58,73.58,0,0,0,7.91-1.66c1-.28,1.09,0,1.09.85q0,14.75,0,29.51a3.74,3.74,0,0,0,0,.82c.44,1.85.22,2,2.12,1.95a1.41,1.41,0,0,1,.58,0c.44.16,1.28-.5,1.28.6,0,.78.13,1.36-1.1,1.56A45.59,45.59,0,0,0,283.87,247.69Zm.05-14.16v-6.91a4.47,4.47,0,0,0-5-4,6.06,6.06,0,0,0-4.38,3.48,16.74,16.74,0,0,0-1.21,5.31,13.32,13.32,0,0,0,1.45,8.17c1.83,3.31,4.88,4.72,8.23,2.81a1.53,1.53,0,0,0,.93-1.53C283.89,238.44,283.92,236,283.92,233.53Z"></path><path class="cls-2" d="M179.15,268.64a12.63,12.63,0,0,1,5.22-3.26c4.27-1.19,8.62.37,9.8,5.39a9.74,9.74,0,0,1,.22,2.28c0,4.22,0,8.44,0,12.65a12.14,12.14,0,0,0,.3,2.51,1.78,1.78,0,0,0,1.82,1.46c.53,0,1.19,0,1.21,1s-.22,1.17-1.14,1.15c-3.4-.06-6.8,0-10.19,0-.38,0-1,.21-.87-.54.06-.52-.36-1.15.62-1.44,2.43-.73,2.41-.8,2.41-3.34,0-4,.05-8,0-11.95a5.26,5.26,0,0,0-2-4.51c-1.75-1.24-4.33-.83-6.23.43a2.32,2.32,0,0,0-1.1,2.28c.07,4.57,0,9.14,0,13.7,0,2.44.12,2.71,2.41,3.39,1,.29.56.92.63,1.44.09.74-.49.54-.87.54H170.44c-.37,0-1,.22-.87-.52.09-.48-.51-1.16.63-1.4,2.55-.54,3.1,0,3.1-4.1V261.25c0-2-.59-2.49-2.4-2.54-.68,0-1.15-.16-1.14-1s.3-1,1.08-1.11c2.75-.5,5.48-1.17,8.31-1.79Z"></path><path class="cls-2" d="M179.84,228.67a16.79,16.79,0,0,1,3.9-11.38,19.23,19.23,0,0,1,9.7-6.43,27.89,27.89,0,0,1,9.8-1.1,36.62,36.62,0,0,1,7.32,1.24c1.12.3.79,1.27.9,1.92.34,2,.54,4,.71,6.05,0,.41.42,1.12-.31,1.27s-1.46.24-1.77-.82c-.92-3.2-2.67-5.82-6.06-6.7-4.57-1.18-8.9-.57-12.42,2.79a14.69,14.69,0,0,0-4,8.05,23.36,23.36,0,0,0,1.19,13.18c1.74,4.48,4.77,7.64,9.7,8.34s8.79-1.19,11.36-5.52a19.55,19.55,0,0,0,1.42-2.72c.46-1.14,1.22-.46,1.81-.35s.34.69.22,1.06c-.74,2.38-1.33,4.81-2.15,7.18a2.07,2.07,0,0,1-1.78,1.62A39.33,39.33,0,0,1,199,247.68c-5.18-.23-10-1.55-13.92-5.21a16.87,16.87,0,0,1-5-9.67A33.19,33.19,0,0,1,179.84,228.67Z"></path><path class="cls-2" d="M343,219.79V224c1.36-1,2.52-1.78,3.7-2.59a7.39,7.39,0,0,1,7.81-.58,6.56,6.56,0,0,1,3.48,5,38.93,38.93,0,0,1,.22,6.74c.05,3.2,0,6.4,0,9.6,0,1.89.3,2.24,2.16,2.54a1.27,1.27,0,0,1,1.13,1.76c-.1.41-.36.35-.61.35H349.42c-.36,0-.67,0-.57-.49s-.36-1.09.37-1.38a3.37,3.37,0,0,1,.65-.23c2-.35,2.46-.78,2.48-2.83,0-4.13,0-8.27,0-12.41a6.83,6.83,0,0,0-.69-3.09c-1.12-2.13-3.48-2.53-5.57-1.73a9.87,9.87,0,0,0-2.08,1.16,2.15,2.15,0,0,0-1,1.93c.07,4.68.05,9.37,0,14.05a5.42,5.42,0,0,0,.33,1.79,1.85,1.85,0,0,0,1.62,1.13c1.08.13,1.38.67,1.13,1.74-.09.4-.34.36-.6.36-3.9,0-7.81,0-11.71,0-.46,0-.69-.17-.58-.61s-.39-1,.37-1.26a6.37,6.37,0,0,1,1.23-.24c1.63-.16,2.35-.8,2.36-2.47,0-5.39.09-10.78,0-16.16,0-1.74-.54-2-2.57-2.22-.53-.06-1,0-.92-.77.05-.63,0-1,.9-1.15A58.67,58.67,0,0,0,343,219.79Z"></path><path class="cls-2" d="M32,239.15c.11-3.55-2.21-5.41-4.92-6.89a62.09,62.09,0,0,1-6.63-3.77,9.9,9.9,0,0,1,1.13-17A14.44,14.44,0,0,1,30,210.14c1.66.21,3.16.8,4.76,1.13.43.08.65.23.73.79.31,2.22.74,4.43,1.12,6.64a.55.55,0,0,1-.42.62,1.3,1.3,0,0,1-1.92-.87,10.33,10.33,0,0,0-3.24-4.84,6.29,6.29,0,0,0-7.34.22,5.82,5.82,0,0,0-.67,7.56c1.79,2.18,4.27,3.13,6.65,4.26,3.18,1.5,6.12,3.23,7.56,6.64a10.88,10.88,0,0,1-3.36,12.8,14.14,14.14,0,0,1-9.53,2.58,24.82,24.82,0,0,1-7.15-1.81c-.94-.35-1-1.13-1.12-1.8-.47-2.24-.87-4.49-1.23-6.74-.15-1,.83-.63,1.27-.92s.64,0,.85.46c1.3,2.88,2.8,5.61,5.67,7.29,3.31,1.92,7.89,1.35,9.19-3.27A9,9,0,0,0,32,239.15Z"></path><path class="cls-2" d="M109.08,243.29c-1.47,1.15-2.73,2.11-4.06,3-2.84,1.87-7.16,1.6-9.38-1.13a8.72,8.72,0,0,1-1.77-5.55c-.07-4.69,0-9.37,0-14.06,0-1.48-.46-1.91-1.89-2.26-.47-.12-1.38.25-1.42-.86,0-.94.19-1.19,1.18-1.25,2.29-.14,4.57-.46,6.84-.82.84-.13,1.17-.09,1.16.88,0,4.88,0,9.77,0,14.65a14.06,14.06,0,0,0,.33,3.79c1,3.53,3.8,4.26,7.28,2.35a3.11,3.11,0,0,0,1.8-3.15c-.14-4.05,0-8.12,0-12.18,0-3-.1-3.18-3-3.56-1.06-.13-.61-.75-.7-1.21-.14-.72.32-.69.83-.71a50.25,50.25,0,0,0,7.53-.9c.88-.18,1.28,0,1.27,1.08-.06,6.4,0,12.81,0,19.21a12,12,0,0,0,.18,1.47c.15,1.13.85,1.35,1.76,1.41a5.89,5.89,0,0,1,.94,0c.39.1,1.11-.41,1.11.54,0,.66.17,1.29-.89,1.45a52.07,52.07,0,0,0-8,1.94c-.63.21-1-.06-1-.83C109.11,245.59,109.08,244.58,109.08,243.29Z"></path><path class="cls-2" d="M247.82,279.44c0-4.67,1.33-8.48,4.68-11.44a12.34,12.34,0,0,1,14.64-1.1,12.18,12.18,0,0,1,5.25,7.79c.89,4.51.47,8.91-2.3,12.76a11.39,11.39,0,0,1-9.22,5c-3.74.11-7.06-.9-9.61-3.75A12.87,12.87,0,0,1,247.82,279.44Zm18.06.35c0-1.34.07-2.25,0-3.14-.25-2.42-.61-4.82-2.08-6.89-1.91-2.69-5.21-3.67-7.46.09a12.39,12.39,0,0,0-1.68,6.21,26.6,26.6,0,0,0,.23,5.57c.45,2.44,1,4.84,2.77,6.75,2.29,2.45,5.16,2.25,6.78-.76A14.47,14.47,0,0,0,265.88,279.79Z"></path><path class="cls-2" d="M127.36,279c0,2.26,0,4.53,0,6.79a3,3,0,0,0,.31,1.44c.57,1.1,1,1.25,2.12.75s1.43-.43,1.74.79c.09.36,0,.51-.31.7-1.63.9-3.23,1.87-4.86,2.76-1.23.66-3-.18-3.94-1.71-.3-.49-.24-1.41-.84-1.43s-1,.6-1.53.93c-.86.56-1.74,1.08-2.59,1.66-2.24,1.53-4.63.62-6.19-.7a7.61,7.61,0,0,1-1.13-10.42,8.49,8.49,0,0,1,3.45-2.17,69.31,69.31,0,0,0,7.55-3.43,1,1,0,0,0,.61-1.09,17.56,17.56,0,0,0-.46-3.05,3.36,3.36,0,0,0-3.3-2.67c-1.38-.09-2.33,1-3.06,2.12a8.89,8.89,0,0,0-.92,2.79,2.2,2.2,0,0,1-3.5,1.47,2.63,2.63,0,0,1-.66-4.23c3.13-3,6.74-5.13,11.22-5.25a6,6,0,0,1,6.12,5.57c.1,1.39.14,2.77.17,4.16S127.36,277.6,127.36,279Zm-5.62-1.7a24.55,24.55,0,0,0-3.79,1.94c-2.5,1.34-3.35,3-3,5.76a3.21,3.21,0,0,0,5,2.6,9.81,9.81,0,0,0,1.33-.87,1.13,1.13,0,0,0,.52-1C121.73,283,121.74,280.17,121.74,277.31Z"></path><path class="cls-2" d="M369.25,289.88c-1.38.08-2.34,1.08-3.48,1.67-2.88,1.5-4.74.75-5.7-2.45a2.12,2.12,0,0,1-.14-.21c-1.18.8-2.35,1.61-3.54,2.39-3.22,2.1-6.66,1.14-8.56-2.26-2.25-4-.85-9,3.78-10.52,2.26-.76,4.34-2,6.56-2.87a2.28,2.28,0,0,0,1.7-2.8,6.05,6.05,0,0,0-1.28-3.57,3.22,3.22,0,0,0-5.29.7,10,10,0,0,0-1.15,3.06c-.21,1-.48,1.8-1.65,1.86a3.25,3.25,0,0,1-3.08-1.78c-.7-1.53.56-3.13,1.74-4a22.86,22.86,0,0,1,8.14-3.93c3.32-.77,7.36.84,8,4.88a38,38,0,0,1,.18,5.1c0,3.36,0,6.72,0,10.07a8.74,8.74,0,0,0,.15,1.24c.27,1.78,1,2.17,2.72,1.38.33-.15.83-.63,1,0,.12.47.82,1.08,0,1.58-.13.07-.37.22-.11.43Zm-9.39-12.73-4.59,2.67a4.36,4.36,0,0,0-2.2,4.46c.14,1.73.79,3.25,2.58,3.82,1.54.49,2.65-.56,3.77-1.41a1.24,1.24,0,0,0,.45-1.12C359.85,282.84,359.86,280.11,359.86,277.15Z"></path><path class="cls-2" d="M84,211.37c2.31,0,4.61,0,6.91,0,.75,0,.94.22.89.92s0,1.19-.93,1.24c-2.42.11-3.24,1.11-3.28,3.48-.07,5.15-.08,10.31,0,15.46,0,2.92-.1,5.83-.3,8.73-.39,5.59-2.9,10-8.13,12.47A14.2,14.2,0,0,1,76,255c-.39.09-.77.54-.9-.26-.09-.61-1-1.21.06-1.81a9.34,9.34,0,0,0,4.7-5.62,20.51,20.51,0,0,0,.9-5.05c.49-8,.06-16,.23-24a9.84,9.84,0,0,0-.3-2.5c-.39-1.61-1.38-2.15-3.38-2.3-1.13-.08-1.62-.76-1.25-1.82.18-.52.59-.28.89-.28C79.27,211.36,81.61,211.37,84,211.37Z"></path><path class="cls-2" d="M167.44,228.68c0,2.41-.26,2.72-3.16,2.83s-5.86.53-8.8.52c-.83,0-1.68.24-2.53.2-.43,0-.51.19-.51.56-.1,4.21,1.93,8.59,6.73,9.68a6.82,6.82,0,0,0,5.29-1.05c.41-.26.84-.51,1.24-.8s.65-.71,1.07-.24.63.87.21,1.44c-2.44,3.3-5.31,5.94-9.78,5.62a10.72,10.72,0,0,1-9.47-7,14,14,0,0,1-1.11-6c.27-5.33,2.1-10,6.88-12.88,5.09-3.05,11.38-1.73,13.53,4.58A6.44,6.44,0,0,1,167.44,228.68Zm-10.57.74c1.17,0,2.34,0,3.51,0,.82,0,1.15-.34,1.22-1.17a6.44,6.44,0,0,0-1.4-4.26,3.13,3.13,0,0,0-4.89-.39,9.62,9.62,0,0,0-2.62,5.33c-.13.58.34.49.67.49Z"></path><path class="cls-2" d="M58.41,265c4.54-.48,8.65,4.29,8.49,8.51,0,.47,0,.94,0,1.41,0,.89-.46,1.27-1.34,1.34-3.5.29-7,.7-10.51.7-.53,0-1,.26-1.59.25-1.62-.05-1.71,0-1.53,1.6a10.42,10.42,0,0,0,2.68,6.39,7.56,7.56,0,0,0,9.74,1,6.9,6.9,0,0,0,.92-.69c.31-.29.66-.57,1-.14s.84.76.39,1.34c-1.85,2.34-3.83,4.59-6.84,5.4a9.71,9.71,0,0,1-9.13-2,12.41,12.41,0,0,1-4.41-9.24,15.57,15.57,0,0,1,4.62-12.75A9.76,9.76,0,0,1,58.41,265ZM57,274.41h2c2.09,0,2.6-.7,2-2.76a9.58,9.58,0,0,0-.42-1.28c-1.34-2.92-4-3.76-6.07-1.47a11,11,0,0,0-2.32,5.24c-.13.57.3.55.64.5A24.27,24.27,0,0,1,57,274.41Z"></path><path class="cls-2" d="M313,234.79a15.37,15.37,0,0,1,4.39-11.43,10.17,10.17,0,0,1,10.92-2.85c2.83.91,5.42,4.5,5.32,7.35a18.55,18.55,0,0,0,0,2.11c.09.93-.44,1.17-1.21,1.34a35.33,35.33,0,0,1-4.7.39c-1.65.12-3.31.34-5,.32-1.2,0-2.39.16-3.58.2-.53,0-.57.27-.54.66.24,3.87,1.69,8.38,6.77,9.53a7.7,7.7,0,0,0,6.33-1.6c.43-.3.74-.91,1.44-.28s.38,1,0,1.56a12,12,0,0,1-7.39,5.25,10.18,10.18,0,0,1-7.84-1.84C314.83,243.44,312.81,238.84,313,234.79Zm10.24-5.37h3.27a1.37,1.37,0,0,0,1.49-1.74,6.78,6.78,0,0,0-2.14-4.3,2.88,2.88,0,0,0-3.58-.31c-2.08,1.33-2.7,3.47-3.18,5.68-.1.49.1.69.63.68C320.88,229.39,322.05,229.42,323.22,229.42Z"></path><path class="cls-2" d="M86.8,279.88a15.47,15.47,0,0,1,4.42-11.54c3-3,6.73-4.23,10.93-2.81a8.35,8.35,0,0,1,5.29,7.26c0,.74,0,1.48,0,2.22s-.43,1.18-1.14,1.27c-1.52.18-3,.36-4.58.47-1.85.12-3.72.13-5.57.25a20.56,20.56,0,0,1-3.23.23c-.45,0-.46.23-.5.58-.42,4.28,2.88,8.94,7,9.69a7.49,7.49,0,0,0,6.11-1.73c.42-.33.78-.85,1.44-.21s.36.93,0,1.46c-1.81,2.5-4,4.52-7.11,5.21a10.28,10.28,0,0,1-9-2.45A12.74,12.74,0,0,1,86.8,279.88Zm6-5.17a54.1,54.1,0,0,1,7.63-.3,1.31,1.31,0,0,0,1.36-1.69c-.09-.34-.12-.67-.2-1-.51-2-2-4.47-4.18-4.12a4.23,4.23,0,0,0-2.84,1.91A11,11,0,0,0,92.78,274.71Z"></path><path class="cls-2" d="M78.31,265a9.83,9.83,0,0,1,2.61.28c2,.37,2.42,1,2.85,3.68a9.56,9.56,0,0,0,.31,2c.39,1,.07,1.31-.87,1.63-.64.21-.85,0-1-.43a10,10,0,0,0-2.51-3.66,3.54,3.54,0,0,0-4-.72,3.29,3.29,0,0,0-1.77,3.56,4.31,4.31,0,0,0,2.19,2.82c1.47,1,3.17,1.46,4.67,2.35a8.48,8.48,0,0,1,4.14,4.58c1.54,4.8-.77,9.8-6.64,11.08a11.84,11.84,0,0,1-8.61-1.35,2.77,2.77,0,0,1-1.34-2.43,22.6,22.6,0,0,1-.28-4.86c0-.33-.1-.81.46-.7.41.08,1-.39,1.21.44a11.45,11.45,0,0,0,2.09,4c1.17,1.41,2.47,2.56,4.51,2.57,2.48,0,4.15-2.46,3.24-5.08-.62-1.8-2.1-2.63-3.67-3.38a15.19,15.19,0,0,1-5.65-3.93c-2-2.45-1.66-6.42-.13-8.77C72,266,74.73,265,78.31,265Z"></path><path class="cls-2" d="M373.31,220.05a12.77,12.77,0,0,1,3.63.41,2.33,2.33,0,0,1,1.9,2.09c.23,1.35.58,2.68.76,4,.08.53,0,.88-.4.86s-1.11.81-1.55-.18a15.29,15.29,0,0,0-1.63-2.86c-.88-1.21-3.06-2.21-4.17-1.95a3.37,3.37,0,0,0-2.57,3c-.22,1.24.58,2.18,1.45,3,1.44,1.4,3.4,1.84,5.08,2.79a9,9,0,0,1,4,3.64c2.2,4.38.77,9.72-4.28,11.69a11.25,11.25,0,0,1-10.64-.95,2.09,2.09,0,0,1-1-1.67,30.07,30.07,0,0,1-.52-5.27c0-.32-.27-.9.4-.87s1.2-.33,1.49.64a10,10,0,0,0,4.06,5.66,3.89,3.89,0,0,0,5.11-.43,4.07,4.07,0,0,0-.31-5.33c-1.41-1.6-3.43-2.1-5.15-3.14-2-1.23-3.77-2.69-4.48-5.14a8.19,8.19,0,0,1,3.45-8.74A9.2,9.2,0,0,1,373.31,220.05Z"></path><path class="cls-2" d="M284.39,265a11.27,11.27,0,0,1,3.48.47,2.07,2.07,0,0,1,1.69,1.86c.25,1.46.56,2.9.9,4.34a.58.58,0,0,1-.59.77c-.44,0-.92.84-1.35-.09a20.68,20.68,0,0,0-1.56-2.65,4.14,4.14,0,0,0-5.37-1.77,3.26,3.26,0,0,0-.92,4.71,9.91,9.91,0,0,0,3.92,2.72c2.84,1.16,5.5,2.67,6.57,5.8a8.14,8.14,0,0,1-4.05,10.05,11.44,11.44,0,0,1-11.56-.62,1.6,1.6,0,0,1-.75-1.06,45.17,45.17,0,0,1-.7-5.81c-.05-.33-.28-1,.49-.89.52.05,1.12-.26,1.39.62a10.35,10.35,0,0,0,4.13,5.75,3.91,3.91,0,0,0,5.13-.54,4.14,4.14,0,0,0-.08-5,7.76,7.76,0,0,0-3.08-2.26,16.6,16.6,0,0,1-5-3.19,7.16,7.16,0,0,1-1.59-7.74,7.81,7.81,0,0,1,6-5.26A13.46,13.46,0,0,1,284.39,265Z"></path><path class="cls-2" d="M141.41,264.76v5.72c.79-1.15,1.43-2.15,2.13-3.1a5.73,5.73,0,0,1,3.68-2.55,3.18,3.18,0,0,1,3.14,1.32,3.75,3.75,0,0,1,.46,3.94c-.75,1.74-1.5,2.25-2.91,2.23-.77,0-1.13-.61-1.64-1a2.36,2.36,0,0,0-3.5.44,4.77,4.77,0,0,0-1.37,3.41q.12,5.91,0,11.83c0,1.95,1,2.29,2.4,2.59a6.68,6.68,0,0,0,1.11.2c1.25,0,.64.93.71,1.44.1.76-.56.47-.91.47-4,0-8,0-12,0-.4,0-1.06.24-.93-.59.07-.49-.46-1.34.7-1.31.27,0,.57-.18.88-.22a2,2,0,0,0,1.92-2.12q0-8.38,0-16.75c0-1.35-.74-1.88-2.65-2-.48,0-.91.08-.89-.68s.11-1.1.87-1.21A53.91,53.91,0,0,0,141.41,264.76Z"></path><path class="cls-2" d="M42.05,233.05c0-2.85,0-5.7,0-8.54,0-.77-.2-1-1-1-.58.06-1.18-.05-1.75,0-.92.13-1.1-.25-1.07-1.09.06-1.73,0-1.73,1.71-1.73,2.06,0,2.12,0,2-2.06a1.8,1.8,0,0,1,1.24-2.13,6.56,6.56,0,0,0,2.93-2.67c.14-.22.29-.44.45-.65s.64-.24,1-.21c.49.06.28.49.28.75,0,2,.05,4.06,0,6.09,0,.74.21.92.92.89,1.32,0,2.65,0,4,0,.88,0,1.31.18,1.23,1.16s-.08,1.72-1.34,1.68-2.65,0-4,0c-.58,0-.81.11-.8.76,0,4.92-.07,9.84.06,14.75,0,1.61.28,3.38,2.14,4.21,1.26.56,2.37,0,3.5-.43.39-.14.91-.61,1.07.17.12.53.9,1.17-.22,1.67-1.41.63-2.75,1.45-4.14,2.15a5.45,5.45,0,0,1-8-3.77,9.35,9.35,0,0,1-.22-2.17Z"></path><path class="cls-2" d="M164.08,265.05a8.09,8.09,0,0,1,4.69,1.14,2,2,0,0,1,1.23,2.26c-.22,1.1-.4,2.32-1.65,2.82-1,.41-1.66-.33-2.29-.94a7.36,7.36,0,0,0-4.14-2,5,5,0,0,0-5.19,3.42c-1.57,4.42-1.45,8.8,1.37,12.73a6.86,6.86,0,0,0,9.8,1.76c.41-.29.78-.62,1.17-.93s.56-.94,1.19-.27c.47.51.85.86.31,1.62-1.74,2.4-3.72,4.49-6.63,5.42a9.69,9.69,0,0,1-8.05-1c-4.68-2.75-6.42-7.19-6-12.33.61-6.85,4.55-11.55,11.5-13.46A8.8,8.8,0,0,1,164.08,265.05Z"></path><path class="cls-2" d="M333.61,278.15c0-2.85,0-5.7,0-8.55,0-.91-.26-1.18-1.1-1.05a7.5,7.5,0,0,1-1.06,0c-1.61,0-1.52,0-1.64-1.57-.1-1.19.42-1.29,1.38-1.27,2.4.06,2.43,0,2.38-2.28a1.58,1.58,0,0,1,1.15-1.85,5.83,5.83,0,0,0,3.13-3c.28-.64.75-.56,1.23-.52.66.06.35.61.35.92,0,2,0,4,0,6,0,.66.18.87.85.85,1.4-.05,2.81,0,4.21,0,.88,0,1.09.44,1,1.13s-.07,1.62-1.09,1.68c-1.4.07-2.81,0-4.21,0-.6,0-.8.15-.8.78,0,5,0,10.07,0,15.1a5.65,5.65,0,0,0,1.12,3.18c.73,1.07,1.86,1,2.95.82a8.52,8.52,0,0,0,1.5-.5c.4-.14.8-.74,1.13.11.23.6.67,1.14-.23,1.6a48.65,48.65,0,0,1-5.25,2.75c-2.82,1-6.16-1.06-6.85-4-.48-2-.17-4.09-.23-6.14C333.57,280.88,333.61,279.52,333.61,278.15Z"></path><path class="cls-2" d="M303.85,219.81v5.94a20.65,20.65,0,0,1,3.62-4.78,3.68,3.68,0,0,1,4.89-.43,3.72,3.72,0,0,1,1.09,4.36c-.59,1.71-1.57,2.47-3.07,2.42a1.31,1.31,0,0,1-.93-.36c-2-1.78-3.53-1.53-4.89.79a4.78,4.78,0,0,0-.74,2.59c.06,3.63.05,7.26,0,10.89,0,2.44.94,3.46,3.08,3.48.37,0,1.32-.27,1.39.75s0,1.37-1.19,1.34c-3.9-.1-7.81,0-11.71-.05-.34,0-1,.29-.93-.47,0-.56-.34-1.24.67-1.53,2.85-.83,2.83-.88,2.83-3.95q0-7.1,0-14.17c0-2.3-.8-2.67-2.72-2.83-.43,0-.9.07-.8-.62.07-.5-.23-1.15.63-1.26A63.15,63.15,0,0,0,303.85,219.81Z"></path><path class="cls-2" d="M328,264.77v3.5c0,5.86,0,11.71,0,17.57a14.46,14.46,0,0,0,.3,2.39c.15,1,1,1.25,1.87,1.4a7,7,0,0,0,1.12.2c1.16,0,.63.83.71,1.33.12.82-.53.59-.93.59H319.31c-.4,0-1.05.23-.92-.59.07-.5-.41-1.13.7-1.34,2.89-.54,3.05-.72,3-4,0-4.72,0-9.45,0-14.17,0-2.32-1-2.58-2.64-2.81-.45-.06-.93.12-.9-.66s.09-1.14.84-1.22a38.46,38.46,0,0,0,4.23-.93A42.74,42.74,0,0,0,328,264.77Z"></path><path class="cls-3" d="M293.39,354.39a10.92,10.92,0,0,1-2.5,2.53c-1.65,1.08-2.45.8-2.94-1.07-.9-3.46,2-8.5,5.44-9.43,0,0,.08-.05.11,0,1.91.39,1.66-1.11,1.9-2.18a7.86,7.86,0,0,1,.12-.91c.28-.82.34-1.57-.94-1.39-.24,0-.57.09-.58-.35s.05-.52.48-.61c1-.24,2-.61,3-.89.59-.16.77.18.69.7-.26,1.62-.52,3.24-.79,4.86-.44,2.59-.91,5.17-1.3,7.77-.08.56-.47,1.09-.2,1.72.59.11.83-.5,1.27-.72.58.56.36,1.05-.16,1.46a8.41,8.41,0,0,1-2.18,1.46c-.35.14-.74.59-1.13.13a1.21,1.21,0,0,1-.36-1.36c.27-.5.08-1,.18-1.49a.25.25,0,0,0,.15-.41Zm-2.91-.55c0,.23,0,.46,0,.7s-.1.7.25.82.57-.11.79-.33a10.41,10.41,0,0,0,3.16-6.54c0-.25.19-.69-.32-.71-.72,0-1.44-.16-2,.55A9.09,9.09,0,0,0,290.48,353.84Z"></path><path class="cls-3" d="M103.78,354.39a10.72,10.72,0,0,1-2.5,2.53c-1.65,1.08-2.58.82-2.9-1.07-.48-2.85,1-8.19,5.11-9.27.15,0,.29-.21.41-.19,1.34.26,1.72-.42,1.8-1.63A7.69,7.69,0,0,1,106,343c.18-.53.18-1.22-.8-1.05-.24,0-.55.08-.58-.36a.56.56,0,0,1,.46-.67c1-.28,2-.59,3-.82.73-.17.61.44.56.82-.23,1.66-.5,3.32-.78,5-.43,2.52-.91,5-1.29,7.54-.09.56-.47,1.09-.21,1.72.59.11.83-.5,1.28-.72.57.56.35,1.05-.16,1.46a8.58,8.58,0,0,1-2.18,1.46c-.36.14-.74.59-1.14.13a1.21,1.21,0,0,1-.35-1.36c.26-.5.07-1,.17-1.49a.25.25,0,0,0,.16-.41Zm.4-6.6c-1-.25-1.46.45-1.86,1.08a9.39,9.39,0,0,0-1.44,5.66c0,.3-.1.71.24.83s.64-.15.89-.4a10.71,10.71,0,0,0,3.09-6.34C105.21,347.86,104.88,347.64,104.18,347.79Z"></path><path class="cls-3" d="M268.62,349.52c1.24-1,2.05-2.15,3.29-2.77,1.63-.81,2.16-.53,2.17,1.25,0,2.16-.76,4.2-1,6.33,0,.29-.41.64-.12.84s.54-.29.81-.46.28-.39.58-.36a1,1,0,0,1-.2,1.42,8.67,8.67,0,0,1-2.43,1.7c-.75.33-1.18.16-1.2-.75-.07-2.25.71-4.36,1-6.55.09-.57.38-1.32,0-1.61s-.89.43-1.25.77a8,8,0,0,0-2.56,5.32c-.05.61-.2,1.22-.22,1.82s-.42.54-.69.64c-.57.21-1.17.32-1.85.5.42-2.45.83-4.86,1.24-7.27s.85-5,1.29-7.55c.13-.74-.18-1-.9-.9-.29,0-.71.19-.76-.41s.37-.5.66-.59c.94-.29,1.88-.58,2.84-.84.51-.13.77,0,.75.65-.09,1.77-.6,3.46-.85,5.2C269.1,347,268.87,348.14,268.62,349.52Z"></path><path class="cls-3" d="M74.26,348.64a8.56,8.56,0,0,0,3.11-.18c.57-.08.62-.61.77-1s.2-1,.85-.82.07.63.05.89a29.82,29.82,0,0,1-.44,3.4c-.07.39-.11.88-.72.85-.89,0-.15-.52-.2-.79A1.09,1.09,0,0,0,77,350a7.61,7.61,0,0,0-2.65-.09c-.23,0-.37.24-.41.5-.23,1.46-.49,2.93-.7,4.4-.11.79.14,1.35,1.09,1.41.31,0,.85.08.76.65s-.51.5-.91.5H69.49c-.23,0-.57.17-.69-.21a.59.59,0,0,1,.39-.76c1.67-.14,1.66-1.49,1.82-2.59.5-3.44,1.28-6.83,1.52-10.31,0-.58-.12-1-.7-1.11-.29-.08-.8.15-.7-.46s.52-.49.92-.49h5.5c.86,0,1.71,0,2.57,0,.24,0,.73-.06.57.32-.45,1,.08,2.16-.41,3.18-.12.25-.1.54-.48.46a.55.55,0,0,1-.48-.57c0-.7.12-1.51-.56-1.9a5.42,5.42,0,0,0-3.07-.3c-.5,0-.53.54-.59.95Z"></path><path class="cls-3" d="M198.44,357.61a5.36,5.36,0,0,1-2.05-.29c-1.67-.31-1.52-1.77-1.75-2.95-.09-.45,0-.93,0-1.4s.33-.48.65-.58c.53-.16.25.31.34.46a19.84,19.84,0,0,0,1.08,2.36,2.39,2.39,0,0,0,2.3,1.18,2.22,2.22,0,0,0,1.79-1.73c.51-1.81-.09-3.2-2-4.57-1.5-1.1-2.69-2.46-2.54-4.5a4.36,4.36,0,0,1,2.51-4,5.64,5.64,0,0,1,4.8.1.73.73,0,0,1,.41.87c-.08.84-.18,1.67-.23,2.52,0,.33-.25.36-.45.42-.39.12-.41-.34-.42-.46a5.07,5.07,0,0,0-.5-1.62,1.9,1.9,0,0,0-2.44-1,2,2,0,0,0-1.37,1.88c-.33,2.28,1.48,3.06,2.81,4.12a5.21,5.21,0,0,1,1.77,5.43C202.38,356.46,201,357.61,198.44,357.61Z"></path><path class="cls-3" d="M157.43,355.36a4.06,4.06,0,0,1,.95-.55c.22-.05.27-.77.64-.18.19.31.39.63,0,.93a9.81,9.81,0,0,1-3,2c-.78.26-1-.58-1-1.1a18.49,18.49,0,0,1,.37-2.57,10.89,10.89,0,0,0-1.07,1.29,5.63,5.63,0,0,1-2.38,2.08c-1.22.67-2.11.17-2.09-1.26a36.19,36.19,0,0,1,.8-4.95,6.23,6.23,0,0,0,.32-2.22c-.63,0-.89.6-1.46.87-.24-.57-.28-1.07.21-1.45a14.77,14.77,0,0,1,2.19-1.65c.43-.21.92-.42,1.31-.14a1.33,1.33,0,0,1,.35,1.39c-.29,1.34-.58,2.67-.76,4-.13,1-.41,1.92-.62,2.88a.53.53,0,0,0,.23.61c.23.14.33-.1.45-.22a10.38,10.38,0,0,0,3.52-6.73c0-.57.07-1.31.5-1.52s1.3-.83,1.92-.45,0,1-.1,1.49C158.37,350.37,157.89,352.79,157.43,355.36Z"></path><path class="cls-3" d="M317.29,348.76c-.43.29-.92,1-1.34.59-.57-.61.36-.94.68-1.35a5.43,5.43,0,0,1,1.8-1.42c1-.54,1.58-.18,1.59,1,0,.58-.45,1.09-.16,1.76,1-.66,1.65-1.79,2.72-2.4.65-.37,1.32-.82,2-.47s.67,1.19.56,1.87c-.3,1.84-.68,3.67-1,5.5-.09.47-.17.93-.28,1.5a10.94,10.94,0,0,1,1-.56c.19-.08.29-.55.57-.21s.38.47.07.81a7.49,7.49,0,0,1-3.22,2.22c-.57.17-.81-.22-.83-.81,0-1.7.58-3.3.81-5,.12-.86.4-1.7.58-2.55.05-.25.15-.6-.11-.75s-.56.08-.8.29a9.19,9.19,0,0,0-3.29,6.09c-.24,2-.31,2-2.59,2.72.22-3,1.22-5.76,1.45-8.66a.25.25,0,0,0,.15-.41Z"></path><path class="cls-3" d="M122.64,348.31A7.87,7.87,0,0,0,119,353a11.89,11.89,0,0,0-.52,3.27c0,.4-2,1.52-2.4,1.32s-.18-.5-.13-.74c.51-2.52,1.06-5,1.58-7.56,0-.18.11-.42-.11-.52s-.38.23-.58.3-.51,1.17-1,.15c-.19-.37,0-.49.19-.68a10.28,10.28,0,0,1,2.5-2c.8-.5,1.34-.11,1.43.87.06.73-.27,1.41-.27,2.22a11.75,11.75,0,0,1,3.54-3c1.2-.54,1.83-.15,1.87,1.14.09,2.18-.76,4.2-1.06,6.32,0,.37,0,.73-.14,1.2l.8-.41c.24-.11.33-.64.7-.29a.66.66,0,0,1,0,.95,7.39,7.39,0,0,1-3.12,2.06c-.68.21-1-.44-1-1.12.08-1.45.62-2.82.83-4.25A15.93,15.93,0,0,0,122.64,348.31Z"></path><path class="cls-3" d="M231.75,357.52c.55-2.89,1.1-5.77,1.67-8.73a1.81,1.81,0,0,0-1,.39c-.19.16-.35.65-.7.2-.22-.29-.1-.56.15-.82a10.9,10.9,0,0,1,2.28-1.95c.44-.25,1-.49,1.39-.1a1.18,1.18,0,0,1,.21,1.4c-.24.46-.07.91-.2,1.5,1.14-.7,1.76-1.77,2.76-2.42.73-.47,1.48-1,2.19-.46s.57,1.53.4,2.37l-1.29,6.33c.56,0,.66-.5,1-.59.17,0,.4-.5.6-.05.1.21.39.39.1.71a8,8,0,0,1-3.13,2.28c-.55.2-.93-.08-1-.78a24.1,24.1,0,0,1,.75-4.86c.14-.93.45-1.84.65-2.76a.85.85,0,0,0-.1-.65c-.23-.16-.49,0-.72.18a9.26,9.26,0,0,0-3.39,6C234.21,357,234.18,357,231.75,357.52Z"></path><path class="cls-3" d="M95.32,355.22c.43,0,.53-.29.75-.41s.26-.57.61-.31a.64.64,0,0,1,.12.94,6.11,6.11,0,0,1-3.19,2.11c-.77.18-1-.68-.91-1.28.36-2.06.82-4.09,1.25-6.14.11-.53.44-1.37,0-1.51-.56-.2-1.1.45-1.54.92a10,10,0,0,0-2.57,6.88.66.66,0,0,1-.64.67c-.65.06-1.21.4-2,.52.58-3,1.13-5.91,1.7-8.86-.82-.05-.92.85-1.59.87a1.2,1.2,0,0,1,.38-1.52A9.64,9.64,0,0,1,90,346.54c.82-.35,1.25-.21,1.26.76a11,11,0,0,1-.18,2.27,10.16,10.16,0,0,1,3.35-2.92c1.38-.74,1.94-.35,2,1.22.06,2.25-.73,4.35-1.12,6.52A1.79,1.79,0,0,0,95.32,355.22Z"></path><path class="cls-3" d="M212.78,355.32a10.35,10.35,0,0,1,1-.57c.16-.08.26-.57.53-.16.13.19.4.39.11.71a7.65,7.65,0,0,1-3,2.23c-.7.25-1-.29-1.07-1s.41-1.53.21-2.31c-1.12,1-2,2.3-3.3,3.05-1,.59-1.66.34-1.91-.85-.72-3.44.68-8.93,5.29-10a8.88,8.88,0,0,1,3.21.22c.5.06.25.68.18,1.07q-.66,3.58-1.31,7.17C212.66,355,212.73,355.11,212.78,355.32Zm-5.26-1.24a7.48,7.48,0,0,0,0,.82c.07.57.29.64.73.23a9.37,9.37,0,0,0,3.22-6.21c0-.37.55-.89.05-1.09a1.89,1.89,0,0,0-1.67.16,2.65,2.65,0,0,0-.91.88A12.82,12.82,0,0,0,207.52,354.08Z"></path><path class="cls-2" d="M237.52,320.73v1.88a5.62,5.62,0,0,0,0,.58c0,.45,1.06.52.58,1-.29.28-1,.11-1.58.13a4.92,4.92,0,0,1-.94,0c-.3-.05-.74.24-.87-.27s.36-.36.59-.49.32-.49.32-.81v-3.86c0-.78-.36-1.51-1.09-1.46a1.28,1.28,0,0,0-1.28,1.55,21.87,21.87,0,0,1,0,2.92c0,.7-.13,1.44.76,1.75.23.09.18.31.14.5s-.23.17-.37.18h-2.7c-.19,0-.39,0-.4-.29a.38.38,0,0,1,.27-.43c.64-.28.72-.85.66-1.46-.12-1.31.2-2.62-.2-3.93-.18-.59-.48-.81-1-.75s-1.14.28-1.14,1c0,1.45,0,2.89,0,4.34a1.46,1.46,0,0,0,.06.46c.11.33.88.32.58.81s-.84.17-1.28.2-1.17,0-1.75,0c-.2,0-.4,0-.42-.28s0-.4.28-.41c.67-.05.65-.53.65-1,0-1.52,0-3.05,0-4.57,0-.29.2-.75-.41-.76-.21,0-.47.06-.52-.29s.28-.45.49-.53c.61-.22,1.22-.4,1.85-.57.16,0,.45-.07.45.21,0,1.1.49.47.85.24,1.2-.77,1.81-.7,2.73.38.23.27.34.23.62.05.51-.31.93-.81,1.57-.89,1.66-.22,2.15.68,2.44,2.73A14.71,14.71,0,0,1,237.52,320.73Z"></path><path class="cls-2" d="M64.59,243.13a3.93,3.93,0,0,1-5.41,4.09c-1.87-.65-2.82-3.34-2.15-5.67a3.88,3.88,0,0,1,3.85-2.78,3.81,3.81,0,0,1,3.56,2.86A8.29,8.29,0,0,1,64.59,243.13Z"></path><path class="cls-2" d="M134,312.24a13.62,13.62,0,0,1,3.13,0c3.31.81,4.16,4.07,3.69,6.83-.35,2-1.18,3.88-3.31,4.72a6.07,6.07,0,0,1-1.73.49c-1.56.07-3.12,0-4.68,0-.22,0-.49,0-.49-.32s.07-.38.32-.38c1.08,0,1.09-.74,1.09-1.53q0-3.92,0-7.83c0-.67,0-1.27-.84-1.41-.34-.06-.35-.24-.32-.48s.27-.23.45-.23H134Zm-.12,5.61v3.39c0,.76-.12,1.71.63,2.06a2.46,2.46,0,0,0,2.54-.63,3.18,3.18,0,0,0,1-1.24,7.82,7.82,0,0,0,.09-6.39,3.18,3.18,0,0,0-3.05-2c-.9-.07-1.28.2-1.22,1.17C134,315.44,133.92,316.65,133.92,317.85Z"></path><path class="cls-2" d="M324.82,255c2.67,0,3.8,1.87,3.82,3.94a3.68,3.68,0,0,1-3.65,4,3.77,3.77,0,0,1-3.79-4C321.33,256.48,323,254.83,324.82,255Z"></path><path class="cls-2" d="M251.34,213.37a3.71,3.71,0,0,1-3.8,3.86c-2.12,0-3.46-1.6-3.46-4.09a3.72,3.72,0,0,1,3.55-3.88A3.82,3.82,0,0,1,251.34,213.37Z"></path><path class="cls-2" d="M207.52,316.46c.4,0,.66-.21,1-.34a2.05,2.05,0,0,1,3,2c0,1.41,0,2.81,0,4.21a1.23,1.23,0,0,0,.59,1.28c.23.12.4.21.35.5s-.34.25-.55.26h-2.46c-.17,0-.41.07-.47-.2a.41.41,0,0,1,.28-.54,1.21,1.21,0,0,0,.64-1.36c-.12-1.3.2-2.62-.24-3.91-.2-.59-.52-1.09-1.18-1a1.08,1.08,0,0,0-.95,1.31c.07,1.25,0,2.5,0,3.75,0,.47-.14,1,.51,1.28.32.14.37.63-.22.64-.9,0-1.8,0-2.69,0-.2,0-.4,0-.41-.29s0-.36.28-.42c.69-.17.66-.7.66-1.26,0-3,0-5.93,0-8.89,0-.45.12-1-.56-1.08-.21,0-.36-.09-.37-.34a.58.58,0,0,1,.34-.55l.11-.05c2.18-.87,2.36-.75,2.36,1.62Z"></path><path class="cls-3" d="M306.89,353.88c-.07-3.37,1.87-6.53,4.58-7.32,1.34-.39,2.44-.17,3,.71a3,3,0,0,1-.64,3.06,9.86,9.86,0,0,1-3.88,2.34c-1.42.54-.55,1.51-.39,2.18a1.12,1.12,0,0,0,1.64.76,4.74,4.74,0,0,0,1.87-1.25.57.57,0,0,1,.82-.16c.26.17.26.35.11.68-.56,1.25-3.72,3-5,2.72a2.73,2.73,0,0,1-2.09-2.67C306.87,354.58,306.89,354.23,306.89,353.88Zm2.57-2.17a4.65,4.65,0,0,0,2.83-2.25c.29-.62.39-1.29-.19-1.63s-1.21.1-1.56.64A8.34,8.34,0,0,0,309.46,351.71Z"></path><path class="cls-3" d="M168.61,353.92c0-2.88.94-5.33,3.49-6.93a4.24,4.24,0,0,1,2-.65,1.94,1.94,0,0,1,2.11,1.1,2.55,2.55,0,0,1-.42,2.62,10.13,10.13,0,0,1-4.13,2.58c-1.2.43-.71,1.09-.54,1.81s.6,1.46,1.58,1.21a4.18,4.18,0,0,0,2-1.25c.24-.27.53-.54.86-.16s.12.58-.15.87a7.88,7.88,0,0,1-3.15,2.25c-2.32.8-3.51-.62-3.69-2.52C168.59,354.54,168.61,354.23,168.61,353.92Zm2.55-2.16c1.3-.69,2.56-1.17,2.94-2.74a1,1,0,0,0-.41-1.15c-.37-.28-.8-.11-1.11.26A6.3,6.3,0,0,0,171.16,351.76Z"></path><path class="cls-2" d="M323.06,317.07V322c0,.6-.09,1.24.83,1.19.23,0,.35.1.34.35s-.13.32-.34.38c-.69.21-1.37.44-2.05.66h-.11c-.64-1.26-1.26,0-1.88,0A3.08,3.08,0,0,1,316.8,322c-.18-1.53-.33-3.12.76-4.54a3.52,3.52,0,0,1,3-1.56c.73,0,1-.19.89-.91-.06-.54,0-1.1,0-1.64s0-1-.69-1c-.24,0-.48,0-.47-.35a.59.59,0,0,1,.48-.58c.08,0,.16,0,.24,0,2.09-.53,2.09-.53,2.09,1.65Zm-1.64,3.13v-1.87a1.3,1.3,0,0,0-1.06-1.42c-.61-.09-1.09.39-1.34,1a4.9,4.9,0,0,0,.31,4.57,1.11,1.11,0,0,0,1.25.6,1,1,0,0,0,.86-1.16A12.78,12.78,0,0,1,321.42,320.2Z"></path><path class="cls-3" d="M284.84,355.2c.56.1.68-.32,1-.51s.39-.57.75-.2a.54.54,0,0,1,0,.82,7.56,7.56,0,0,1-2.92,2.19c-.81.3-1.06-.26-1.14-1a15.2,15.2,0,0,1,.53-4.09c.49-3.3,1.19-6.58,1.81-9.86.15-.77-.39-.64-.85-.67-.3,0-.72.22-.79-.39s.31-.51.63-.61c.86-.27,1.71-.62,2.59-.82.63-.15,1.09-.07.91.9-.58,3-1,6.08-1.55,9.12C285.5,351.8,285.16,353.5,284.84,355.2Z"></path><path class="cls-2" d="M58.83,324.33a9.2,9.2,0,0,1-1,0c-.31,0-.76.22-.92-.21s.38-.4.61-.58c.38-.28.34-.65.19-1a6.14,6.14,0,0,1-.55-1.61c0-.68-.31-.84-.93-.78s-1.62-.15-1.78.14a8.68,8.68,0,0,0-.83,2.79c-.08.45.46.52.82.59s.31.18.31.4-.17.31-.38.31h-2.7c-.19,0-.41,0-.41-.27s.06-.36.14-.39c1.34-.47,1.32-1.8,1.66-2.8.9-2.61,1.61-5.29,2.41-7.93.13-.42.2-1,.78-1s.54.62.66,1c.85,2.95,1.67,5.9,2.57,8.83.21.69.33,1.54,1.24,1.78.26.07.41.2.35.49s-.34.25-.55.26Zm-2.17-5.48c-.59-1-.44-2.09-1.15-3-.1.56-.27,1-.38,1.49C54.75,319.06,54.71,319.05,56.66,318.85Z"></path><path class="cls-2" d="M92.72,324.33a5.61,5.61,0,0,1-.58,0c-.44-.06-1.06.24-1.27-.2s.44-.55.73-.77.06-.32,0-.5a8,8,0,0,1-.32-1.09c-.38-1.67-.38-1.63-2.08-1.67-.75,0-1.13.19-1.23,1-.06.48-.34.93-.41,1.41s-.19,1.08.58,1.16c.25,0,.32.16.32.37,0,.37-.26.33-.49.33H85.51c-.21,0-.49.09-.56-.25s.09-.42.35-.5c.76-.24.94-.89,1.15-1.56,1-3.1,2-6.19,2.92-9.3.12-.39.1-.8.63-.8s.49.35.59.72c.67,2.36,1.3,4.74,2.12,7.05.49,1.37.32,3.12,1.92,4,.18.09.15.25.14.39s-.21.28-.41.28Zm-3.32-8.55-.89,3.16a6.17,6.17,0,0,1,.76,0c.93.12,1.21-.12.87-1.11A14.31,14.31,0,0,1,89.4,315.78Z"></path><path class="cls-2" d="M98.3,318.32c-.3-3,1.75-5.82,3.94-6.25a9.63,9.63,0,0,1,4,0c.61.14.72.41.74.95s-.19,1.24.2,1.82a.36.36,0,0,1-.13.51.48.48,0,0,1-.62-.17c-.13-.23-.18-.5-.29-.74-.35-.83-.78-1.54-1.84-1.65a2.84,2.84,0,0,0-2.9,1.3,7.54,7.54,0,0,0-.93,5.33,5.85,5.85,0,0,0,1.27,3.11,2.41,2.41,0,0,0,3.74.32,4.33,4.33,0,0,0,1.14-1.82c.06-.16.07-.53.41-.45a.5.5,0,0,1,.4.61c-.22.92-.46,1.84-.74,2.74-.08.28-.38.31-.66.38C101.37,325.42,98.16,323.36,98.3,318.32Z"></path><path class="cls-3" d="M219.83,354c.88-1.47,2-2.77,2.46-4.45a2.28,2.28,0,0,0,.06-1.3c-.14-.5-.4-1.26.4-1.63.5-.25,1.06-.49,1.48,0a1.79,1.79,0,0,1,.24,1.94,35.79,35.79,0,0,1-2.52,4.32c-.73,1.33-1.64,2.56-2.49,3.82a2.27,2.27,0,0,1-.68.76c-.45.27-.92.45-1-.44-.13-2.74-.31-5.47-.47-8.2-.59-.15-.73.39-1,.63s-.48.33-.71.15a.57.57,0,0,1,0-.76,10,10,0,0,1,2.55-2.34c.78-.39,1.22.13,1.39,1.24C219.8,349.78,219.65,351.87,219.83,354Z"></path><path class="cls-2" d="M78.46,324.57c-.58,0-.89,0-1.2,0-.63-.06-1.5-.34-1.56-.77-.13-1-.61-1.93-.26-2.94a.51.51,0,0,1,.36-.23c.2,0,.18.18.24.31.19.46.39.91.62,1.34.59,1.12,1.67,1.68,2.4,1.26s1-2.12.51-3.06a4.91,4.91,0,0,0-2.06-1.73c-2.21-1.36-2.37-3.74-1.18-5.77.58-1,3.53-1.51,4.46-.8a5.85,5.85,0,0,1,.44,2.83c-.27.24-.58.44-.76-.16a4.7,4.7,0,0,0-.49-1.25,1.37,1.37,0,0,0-1.53-.72,1.35,1.35,0,0,0-1,1.28,2.17,2.17,0,0,0,1.24,2.47,7.39,7.39,0,0,1,2.11,1.58,4.21,4.21,0,0,1-.93,6.1A2.48,2.48,0,0,1,78.46,324.57Z"></path><path class="cls-2" d="M276.39,312.15c.86,0,1.72,0,2.57,0,.69,0,1,.19,1,.93,0,.54,0,1.09,0,1.63,0,.23,0,.49-.33.49s-.31-.21-.38-.45c-.2-.76-.36-1.56-1.4-1.66-1.87-.18-1.87-.2-1.87,1.67V316c0,1.54,0,1.52,1.57,1.51.63,0,1.09-.11,1-.89,0-.4.13-.55.54-.54s.4.27.4.55v2.81c0,.3.08.63-.43.64s-.49-.19-.52-.56c-.1-1.52-1.28-.69-2-.82-.9-.18-.56.61-.58,1-.05.74,0,1.49,0,2.23s.12,1.47,1,1.63c.31.05.39.18.36.45s-.25.26-.44.26H273.4c-.22,0-.49,0-.49-.33a.34.34,0,0,1,.32-.38c.72-.14.84-.72.84-1.32q0-4.1,0-8.19c0-.53-.13-1.11-.78-1.25-.3-.06-.41-.17-.37-.45s.33-.26.54-.26Z"></path><path class="cls-2" d="M362.26,212.08c2.4-.21,3.85,2.61,3.39,4.8a7.33,7.33,0,0,1-3.12,4.6c-.3.21-.54.3-.82.05a.53.53,0,0,1-.13-.73c1.06-1.79,0-3.05-1.13-4.24a2.51,2.51,0,0,1-.56-3A2.24,2.24,0,0,1,362.26,212.08Z"></path><path class="cls-2" d="M193.05,311.84a27.67,27.67,0,0,0,8.08.11,7.25,7.25,0,0,1,.28,2.28c0,.33.32.85-.32.94s-.43-.51-.49-.74a1.71,1.71,0,0,0-2.06-1.37c-.54,0-.64.22-.64.7,0,2.61-.06,5.22,0,7.83,0,.78-.13,2,1.29,2,.26,0,.3.18.3.39s-.18.31-.39.31h-4.09c-.19,0-.4,0-.42-.27s.07-.42.38-.43c.9,0,1-.62,1-1.36,0-2.65,0-5.31,0-8,0-.4.42-1.08-.4-1.21a1.74,1.74,0,0,0-1.88.84c-.25.4-.07,1.32-.68,1.17s-.2-1-.29-1.51C192.64,312.93,193,312.35,193.05,311.84Z"></path><path class="cls-2" d="M157.14,316.75c.62-.21,1-.75,1.55-.85A2,2,0,0,1,161.1,318c0,1.25,0,2.5,0,3.75,0,.72-.45,1.7.79,2,.07,0,.11.28.1.42s-.25.24-.44.24H159c-.55,0-.61-.31-.36-.66a7,7,0,0,0,.38-5.82c-.22-.37-.5-.61-.89-.46s-1,.38-1,1c0,1.52,0,3,0,4.56a1,1,0,0,0,.12.44c.14.28.77.25.54.73s-.69.19-1,.21c-.62,0-1.25,0-1.87,0-.21,0-.49.08-.55-.26s.07-.42.34-.49c.59-.14.6-.58.59-1.07,0-1.25,0-2.5,0-3.75,0-.58.33-1.31-.74-1.54-.43-.08-.16-.68.25-.83s.92-.14,1.32-.32C156.81,315.74,157.29,315.71,157.14,316.75Z"></path><path class="cls-3" d="M143.53,353v.22c0,.89-.16,1.92.75,2.4s1.5-.42,2.24-.76c.32-.14.64-.95,1.12-.24.39.56-.16.86-.49,1.13a10.64,10.64,0,0,1-2,1.39c-2.09,1-3.95.5-4.21-2.23s.66-6.82,4.39-8.3a2.73,2.73,0,0,1,2.32,0c1,.52,1.14,1.33.38,2.17-.5.55-.84.46-1.28-.07-1-1.25-1.57-1.14-2.35.33A7.6,7.6,0,0,0,143.53,353Z"></path><path class="cls-3" d="M181.7,346.36c1.55,0,2.24.83,1.71,2-.35.77-.78.72-1.35.31-.25-.17-.49-.35-.75-.51a.83.83,0,0,0-1.15.12,1,1,0,0,0-.18,1.15,2.33,2.33,0,0,0,1.29,1.24c2.83,1.46,1.86,5-.34,6.27a3.13,3.13,0,0,1-3.42.2,1.58,1.58,0,0,1-.3-2.37.75.75,0,0,1,1.13,0,3.73,3.73,0,0,0,1.08.85c.49.22.94.56,1.42-.06a1.2,1.2,0,0,0,0-1.73,18.86,18.86,0,0,0-1.9-1.68,2.63,2.63,0,0,1-.74-3.31A4.32,4.32,0,0,1,181.7,346.36Z"></path><path class="cls-2" d="M168.22,316.81c.47,0,.59-.36.83-.53a1.92,1.92,0,0,1,3.08,1.12,24.13,24.13,0,0,1,.24,4.73c0,.57-.27,1.25.58,1.59.22.08.25.59-.27.6-.89,0-1.79,0-2.69,0-.18,0-.4,0-.42-.26s0-.41.24-.43c.77-.05.68-.6.68-1.11,0-1.17,0-2.34,0-3.51,0-.79-.21-1.51-1.06-1.69s-1.28.68-1.29,1.68,0,2.1,0,3.15c0,.63,0,1.19.69,1.46a.36.36,0,0,1,.25.44c0,.34-.32.27-.54.27h-2.69c-.21,0-.49.06-.5-.31a.33.33,0,0,1,.3-.4c.78-.15.85-.78.86-1.41,0-1.25,0-2.5,0-3.74,0-.47,0-1-.53-1.14-.24-.1-.44-.13-.4-.44a.52.52,0,0,1,.53-.51,2.22,2.22,0,0,0,.88-.24C167.65,315.88,168.34,315.62,168.22,316.81Z"></path><path class="cls-2" d="M308.13,316.94c.67-.38,1-.94,1.66-1.05,1.4-.23,2.44.82,2.48,2.58,0,1.25,0,2.5,0,3.74,0,.53-.27,1.18.56,1.48a.34.34,0,0,1-.21.63c-.93,0-1.87,0-2.81,0-.22,0-.36-.08-.35-.34a.31.31,0,0,1,.33-.36c.6-.06.6-.49.6-.94,0-1.33,0-2.65,0-4,0-.79-.42-1.36-1.09-1.35a1.22,1.22,0,0,0-1.27,1.34c.05,1.2,0,2.41,0,3.62a1.17,1.17,0,0,0,.62,1.26c.26.12.36.26.31.52s-.27.23-.45.23h-2.81c-.17,0-.41.05-.45-.23s0-.42.32-.48c.8-.14.85-.75.84-1.42,0-1.13,0-2.26,0-3.39,0-.62.13-1.24-.74-1.57-.46-.17-.18-.72.23-.84a6.87,6.87,0,0,0,1-.26C307.58,315.87,308.27,315.62,308.13,316.94Z"></path><path class="cls-3" d="M257,353.87c0-2.83.95-5.22,3.43-6.84a4.05,4.05,0,0,1,2.73-.66,1.34,1.34,0,0,1,1.07,2.17c-.37.52-.8.87-1.47.21-1.38-1.37-1.69-1.28-2.51.56a9.94,9.94,0,0,0-.91,4.33,2,2,0,0,0,.9,1.94c.86.48,1.43-.23,2.06-.6.23-.13.38-.39.6-.55s.49-.19.61,0,.34.39.06.7a6.94,6.94,0,0,1-3.93,2.43,2.46,2.46,0,0,1-2.64-2.43C257,354.73,257,354.3,257,353.87Z"></path><path class="cls-2" d="M301,315.73v6.17c0,.61-.15,1.33.86,1.27.25,0,.32.16.3.38a.52.52,0,0,1-.51.53,2.9,2.9,0,0,0-1.11.23c-.8.38-1.42.38-1.16-.95a5.15,5.15,0,0,0-.47.37,2.17,2.17,0,0,1-2.59.71c-1-.39-1.11-1.4-1.16-2.29-.08-1.36,0-2.72,0-4.09,0-.43.06-.89-.53-1-.21,0-.37-.06-.4-.32s.19-.35.4-.46c.66-.35,1.42-.11,2.13-.35.4-.14.26.45.27.71,0,1.64.06,3.28,0,4.91,0,.87.41,1.5,1.07,1.47a1.4,1.4,0,0,0,1.3-1.5c0-1,0-2,0-2.93,0-.7.18-1.54-1-1.57-.18,0-.21-.19-.2-.36s.21-.24.37-.33C299.33,315.9,300.22,316.41,301,315.73Z"></path><path class="cls-3" d="M302.91,348.33c.38-.52.9-.82,1.19-1.31a1.32,1.32,0,0,1,1.8-.54c.79.39.67,1.26.43,1.86s-.74,1.14-1.57.7c-.51-.27-.78,0-1.1.4a11.08,11.08,0,0,0-1.66,5.25,5,5,0,0,0-.27,1.81c.08.45-.36.5-.59.58a18.6,18.6,0,0,1-1.89.48c.52-2.94,1-5.87,1.55-8.79-.54-.11-.65.33-.93.51s-.38.61-.69.16c-.19-.26-.38-.54,0-.9a12.4,12.4,0,0,1,2.28-1.93c1-.59,1.44-.36,1.45.81Z"></path><path class="cls-3" d="M160.92,357.64c.55-3.11,1.07-6.05,1.64-9.32-.46.46-.72.74-1,1s-.38.56-.63.18-.47-.52-.06-.9a11.39,11.39,0,0,1,2.38-2c.95-.5,1.36-.26,1.39.79v1c.6-.3.71-.9,1-1.31.56-.7,1.32-1.06,2.1-.45s.39,1.39,0,2.07a.83.83,0,0,1-1.1.41c-.81-.46-1.12-.05-1.54.58a11.34,11.34,0,0,0-1.42,4.87,5.75,5.75,0,0,0-.25,1.94c.05.29-.16.33-.42.41C162.35,357.12,161.68,357.38,160.92,357.64Z"></path><path class="cls-2" d="M283.68,320.58c0-1.72.35-3.15,1.64-4.06,2.19-1.54,4.47-.27,5.16,2.09a6.3,6.3,0,0,1,0,3.05,3.55,3.55,0,0,1-3,2.91,3,3,0,0,1-3.51-2.41C283.82,321.59,283.5,321,283.68,320.58Zm2.12-.52a4.38,4.38,0,0,0,.5,2.69c.22.38.5.85,1,.86s.83-.56,1-1a6.66,6.66,0,0,0,.17-3.73,3,3,0,0,0-.79-1.72c-.44-.41-.75-.41-1.17,0C285.72,317.94,285.8,318.9,285.8,320.06Z"></path><path class="cls-2" d="M219.33,324.57c-2.43.19-3.71-2.76-3.33-5a4.66,4.66,0,0,1,1.12-2.69,3.13,3.13,0,0,1,5.19.74,5.27,5.27,0,0,1-.84,6.2A2.77,2.77,0,0,1,219.33,324.57Zm-1.25-4.68a4.34,4.34,0,0,0,.66,3.11c.66.85,1.57.8,1.83-.2.45-1.78.68-3.62-.33-5.33-.49-.83-1.15-.84-1.66-.05A3.52,3.52,0,0,0,218.08,319.89Z"></path><path class="cls-2" d="M67.71,324.33h-3c-.25,0-.58.1-.58-.35s.22-.33.47-.36c.73-.06.94-.52.93-1.2q0-4.16,0-8.31c0-.66-.16-1.15-.89-1.26-.27,0-.29-.21-.28-.41s.19-.29.39-.29h3.63c.2,0,.42,0,.4.28s-.1.38-.16.38c-1.23,0-1.17,1.12-1.17,1.73,0,2.59-.31,5.19.16,7.78.11.62.3,1.06,1,1.06s1.66.21,2.11-.75a2.39,2.39,0,0,1,.23-.51c.28-.32,0-1.14.62-1s.18.85.3,1.29c0,.06,0,.14,0,.22-.43,1.72-.43,1.72-2.28,1.72Z"></path><path class="cls-2" d="M247.13,320.17c0,.62,0,1.25,0,1.87,0,.44-.16.92.64.93.35,0,.76.52.14.86-.79.42-1.62,1.51-2.45,0-.18-.32-.33.1-.49.2-1.41.83-2.15.73-2.77-.42s-.34-3.09.87-3.5c.5-.17.94-.49,1.43-.68.81-.31.82-1,.73-1.63a.87.87,0,0,0-.69-.71c-.41-.1-.62.18-.73.56a6.1,6.1,0,0,1-.33.84c-.18.39-.36.87-.9.63A.94.94,0,0,1,242,318c.22-1,2.14-2.18,3.41-2.08,1.07.08,1.7.93,1.73,2.4C247.14,318.92,247.13,319.55,247.13,320.17Zm-1.88.05a2,2,0,0,0-1.44,1.17c-.35.6.05,1,.29,1.41.1.19.29.5.64.27a1.18,1.18,0,0,0,.52-1.18C245.22,321.35,245.25,320.81,245.25,320.22Z"></path><path class="cls-2" d="M150.1,320.46c0,.55,0,1.09,0,1.64,0,.4-.15.89.58.84.53,0,.4.45.32.68-.23.76-1.91,1.14-2.35.5s-.63-.41-.92-.09a1.37,1.37,0,0,1-1.94.31,2.46,2.46,0,0,1-1-2.51c.16-1.3,1.22-1.72,2.22-2.17.69-.31,1.33-.59,1.24-1.55-.05-.55-.27-.93-.76-1s-.74.31-.9.74a2.39,2.39,0,0,0-.19.53c-.07.45-.18.93-.75.78a.94.94,0,0,1-.67-1.29,3.87,3.87,0,0,1,2.57-1.92,1.62,1.62,0,0,1,2.08.81,5.71,5.71,0,0,1,.48,2.89C150.09,319.92,150.1,320.19,150.1,320.46Zm-1.88.85c-.21-.28.32-1-.21-1.11s-.74.58-1.1.9c-.11.09-.12.27-.2.4-.35.57.13.92.36,1.32s.37.24.66.13c.55-.21.5-.62.49-1.05Z"></path><path class="cls-3" d="M111.19,348.83c-.71,0-.93.66-1.47.82a.9.9,0,0,1,.2-1.43c.77-.54,1.5-1.17,2.32-1.64,1.07-.61,1.55-.31,1.52.88a38.11,38.11,0,0,1-1.05,5.7c-.11.66-.26,1.32-.41,2.11l1.08-.67c.2-.13.39-.53.61-.05.11.24.42.47.06.8a10.87,10.87,0,0,1-3.19,2.19c-.68.27-1.24-.47-1.06-1.44.24-1.3.57-2.58.8-3.89A19.91,19.91,0,0,0,111.19,348.83Z"></path><path class="cls-3" d="M279.11,355.29c.57-.15.74-.69,1.22-.8.21-.05.41-.31.53.06.06.18.28.33,0,.59a9,9,0,0,1-3.2,2.41c-.71.27-1.08-.09-1.05-.88a42.77,42.77,0,0,1,1-5.84,4.63,4.63,0,0,0,.3-2.09c-.52,0-.66.43-.95.64s-.38.43-.55.13-.5-.47-.18-.81a7.84,7.84,0,0,1,3.24-2.31c.74-.23,1.23.14,1.09,1-.31,1.72-.58,3.45-1,5.15C279.45,353.41,279.3,354.3,279.11,355.29Z"></path><path class="cls-3" d="M228.17,355.25c.53,0,.69-.38.93-.61s.52-.47.8-.24a.61.61,0,0,1,0,.85,8.2,8.2,0,0,1-3.1,2.31c-.63.25-1-.08-1-.83-.07-1.71.62-3.29.83-5a17,17,0,0,1,.47-2.34c.07-.27.26-.52,0-.68s-.37.21-.56.31-.55,1.13-1,.12c-.19-.38,0-.49.2-.68a8.2,8.2,0,0,1,2.44-1.9,1.43,1.43,0,0,1,1.42-.14c.53.34.33,1,.25,1.4-.28,1.61-.66,3.19-1,4.78C228.56,353.49,228.37,354.33,228.17,355.25Z"></path><path class="cls-3" d="M82.85,348.58l-1.18.7c-.17.09-.24.45-.53.18a.5.5,0,0,1-.08-.73,7.05,7.05,0,0,1,3.2-2.35c.81-.24,1.19.28,1,1.18-.5,2.52-1,5-1.47,7.59a1.38,1.38,0,0,0,1-.52c.18-.18.35-.46.67-.16a.52.52,0,0,1,.07.81,8.35,8.35,0,0,1-3.25,2.26c-.68.24-1.2-.58-1-1.47C81.77,353.64,82.28,351.21,82.85,348.58Z"></path><path class="cls-2" d="M180.2,321a25,25,0,0,0,1.2-3.5c.2-.52-.12-.63-.48-.68s-.37-.21-.34-.47.27-.23.45-.24h2.11c.17,0,.4,0,.45.23a.38.38,0,0,1-.31.51c-.7.24-.87.89-1.07,1.5q-1.62,4.77-3.22,9.57c-.13.4-.13.86-.74.85a.81.81,0,0,1-.74-.44.89.89,0,0,1,.17-1.22c1.65-1.57,1.7-3.32.82-5.31a23.84,23.84,0,0,1-1.15-3.68c-.15-.58-.33-1.08-.94-1.29a.37.37,0,0,1-.29-.42c0-.27.19-.3.39-.3h2.69c.62,0,.57.5.25.64-.7.3-.33.78-.25,1.12C179.47,318.91,179.83,319.9,180.2,321Z"></path><path class="cls-2" d="M329.23,319.88a10.73,10.73,0,0,0,.49,1.88c.7,1.2,1.36,1.41,2.59.75.23-.12.6-.57.89-.08.19.32-.09.59-.3.86-1.7,2.2-4,1.38-5-.7s.13-5.86,1.87-6.45a2.35,2.35,0,0,1,2.48.19,3.08,3.08,0,0,1,1.1,2.76.58.58,0,0,1-.74.55C331.49,319.49,330.42,320,329.23,319.88Zm1-.92c.51-.12,1.2.07,1.23-.82,0-.69-.49-1.28-.95-1.23-.77.09-1.05.94-1.13,1.65S330,318.8,330.28,319Z"></path><path class="cls-2" d="M251.58,322.7c0-.24,0-.44,0-.63s-.09-.42.16-.5.42.16.52.35a6.14,6.14,0,0,0,.55,1.12c.34.38.78.86,1.37.43a1,1,0,0,0,.19-1.6,3.52,3.52,0,0,0-1-.84,2.73,2.73,0,0,1-1.6-3.42c.27-1.45,2.67-2.44,3.71-1.45a2.41,2.41,0,0,1,.44,2.12c-.05.31-.45.3-.65-.08a3.73,3.73,0,0,0-.7-1c-.32-.28-.6-.5-1-.15a.78.78,0,0,0-.24,1.1,2.41,2.41,0,0,0,1.27,1.07,3,3,0,0,1,1.15,4.43,3.05,3.05,0,0,1-3.91.46C251.42,323.65,251.65,323.13,251.58,322.7Z"></path><path class="cls-2" d="M339.64,317a8,8,0,0,1,.63-.86,1,1,0,0,1,1.36-.07c.63.49.5,1.12.24,1.78s-.86.45-1.16.27c-1-.61-1.16.29-1.2.79-.12,1.23,0,2.49,0,3.73a.9.9,0,0,0,.82,1c.34.05.36.22.33.47s-.27.24-.45.24h-3c-.17,0-.41.05-.45-.23s0-.45.32-.47c.6-.05.6-.5.6-.94q0-2.34,0-4.68c0-.42,0-.79-.59-.72-.22,0-.36-.07-.35-.33a.37.37,0,0,1,.33-.39,11.84,11.84,0,0,1,2.05-.64C339.88,315.84,339.22,316.68,339.64,317Z"></path><path class="cls-2" d="M117.28,318.13c0-1.4.66-2.24,1.76-2.23.8,0,1.75,1.14,1.76,2.1,0,1.14-.89,2.34-1.75,2.35C118,320.36,117.28,319.52,117.28,318.13Z"></path><path class="cls-2" d="M262.58,323.83c.25,1.38-.65,2.15-1.66,2.85-.25.17-.51.37-.79,0s0-.49.21-.67a2.81,2.81,0,0,0,.82-1.71,1.1,1.1,0,0,0-.64-1.13c-.79-.35-.58-.92-.25-1.41a.91.91,0,0,1,1.37-.26A2.12,2.12,0,0,1,262.58,323.83Z"></path><path class="cls-3" d="M185.86,354.09c.95,0,1.48.58,1.5,1.62a1.83,1.83,0,0,1-1.61,1.9c-.81,0-1.41-.69-1.43-1.71C184.28,354.71,184.82,354.09,185.86,354.09Z"></path><path class="cls-3" d="M329.63,355.76c0,1.17-.54,1.86-1.42,1.85s-1.4-.68-1.4-1.76.5-1.71,1.49-1.76C329.56,354,329.63,354.85,329.63,355.76Z"></path><path class="cls-3" d="M229.26,340.74c.9-.14,1.16.47,1.22,1.23a1.76,1.76,0,0,1-1.59,1.8c-.9,0-1.13-.74-1.19-1.42A1.55,1.55,0,0,1,229.26,340.74Z"></path><path class="cls-3" d="M281.34,341.89a1.79,1.79,0,0,1-1.62,1.88,1.22,1.22,0,0,1-1.15-1.44,1.54,1.54,0,0,1,1.55-1.61C281.1,340.68,281.23,341.31,281.34,341.89Z"></path><path class="cls-3" d="M111.89,342.41c0-1.1.48-1.66,1.42-1.68s1.19.5,1.17,1.33c0,1.08-.56,1.74-1.44,1.72S111.9,343.36,111.89,342.41Z"></path><path class="cls-3" d="M85.87,342.21c.14,1.05-.53,1.49-1.4,1.54s-1.17-.53-1.17-1.34c0-1,.54-1.67,1.44-1.68S85.93,341.37,85.87,342.21Z"></path></svg> 