<?xml version="1.0" encoding="UTF-8"?> <svg xmlns="http://www.w3.org/2000/svg" id="Layer_1" data-name="Layer 1" viewBox="0 0 246.97 246.97"><defs><style>.cls-1{fill:#2f236b;}.cls-2{fill:#fdfdfd;}.cls-3{fill:#2f2271;}.cls-4{fill:#2c2455;}.cls-5{fill:#6d6980;}.cls-6{fill:#204299;}.cls-7{fill:#30256b;}.cls-8{fill:#c5203c;}.cls-9{fill:#32276b;}.cls-10{fill:#33286b;}.cls-11{fill:#34296d;}.cls-12{fill:#423c73;}.cls-13{fill:#bb4661;}.cls-14{fill:#eff4f6;}.cls-15{fill:#314c95;}.cls-16{fill:#f6eff0;}</style></defs><path class="cls-1" d="M5,128.48q0-61,0-122.07C5,5.25,5.25,5,6.41,5q122.07.06,244.14,0c1.16,0,1.42.26,1.42,1.42q-.06,122.07,0,244.14c0,1.16-.26,1.42-1.42,1.42q-122.07-.06-244.14,0C5.25,252,5,251.71,5,250.55Q5.05,189.52,5,128.48ZM6.87,245.79h.56l.1,3.3c.51.63,1.23.38,1.86.38H208.22q19.74,0,39.46,0c.47,0,1.08.35,1.41-.33l.17-.86c.17-.12.18-.24,0-.37v-.55a3.24,3.24,0,0,0,0-2.52v-.55a2.77,2.77,0,0,0,.21-1.65q0-114.78,0-229.55a2.77,2.77,0,0,0-.21-1.65V10a.42.42,0,0,0,0-.68V8.74c.18-.13.18-.25,0-.37V7.82c.15-.18.11-.28-.13-.31l-1.22,0H10.12c-2.56,0-2.56,0-2.69,2.45H6.87c0-.31,0-.61,0-.91s.1-1-.48-1.14a.48.48,0,0,0-.62.28A1.43,1.43,0,0,0,5.9,9.61a1.18,1.18,0,0,0,1,.33V245.79l-.45,0c-.78.06-.81.6-.74,1.19,0,.33.23.58.58.54.73-.08.56-.68.6-1.15C6.88,246.19,6.87,246,6.87,245.79Z" transform="translate(-4.99 -4.99)"></path><path class="cls-2" d="M249.26,244.29v.55a7.61,7.61,0,0,0,0,2.52v.92c-.06.29-.11.57-.17.86-.56,0-1.12,0-1.68,0H7.53l-.1-3.3c0-.51.05-1,.05-1.53q0-116.38,0-232.79c0-.51,0-1-.05-1.53.13-2.45.13-2.45,2.69-2.45H247.91l1.22,0,.13.31v3.62c0,.62-.08,1.23-.08,1.84q0,114.59,0,229.17C249.18,243.07,249.23,243.68,249.26,244.29Zm-108.5-13.56.46,0H213.5c.4,0,.94.28,1.2-.32.46-1.39.94-2.77,1.38-4.16q6.09-19.12,12.17-38.26c3.5-11,7-22.11,10.5-33.16.36-1.12.17-1.39-1-1.34-1.84.07-3.68,0-5.53,0l-88.87.06c-.66,0-1.33.06-2,.1l-.63,0a7.23,7.23,0,0,0-.91-.1c-7.31,0-14.62,0-21.93-.12-1.48,0-1.74.47-1.74,1.81,0,15,0,30,0,44.94q0,15.12.07,30.22c0,.45.41.38.69.38Zm43-111.68c-.81-.14-1.48-.23-1.47,1,0,5.83,0,11.66-.05,17.49,0,.88.28,1.12,1.14,1.1,3.48,0,7,0,10.43,0,2.24,0,2.18,0,2.25-2.3,0-1.14-.21-1.56-1.48-1.56a35.76,35.76,0,0,1-6.86-.15c0-4.83,0-9.67,0-14.51,0-.35.24-.84-.31-1h-3.66ZM24.86,26.48c-.32-.34-.46-.88-1.18-1V37.53L11.45,41.47a111.89,111.89,0,0,0,10.72,4.2,1.73,1.73,0,0,1,1.36,2c-.07,3.71,0,7.41,0,11.12l.47.08c.16-.18.32-.35.47-.53,2.21-2.75,4.44-5.48,6.62-8.25A1.45,1.45,0,0,1,33,49.49c1.52.57,3.11,1,4.68,1.45a59.63,59.63,0,0,0,6.71,1.8c-2.39-3.35-4.56-6.49-6.83-9.56a1.76,1.76,0,0,1,0-2.44c1.92-2.53,3.79-5.08,5.68-7.63a4,4,0,0,0,.94-1.61c-.67.18-1.21.31-1.74.47l-8.22,2.45c-2.57.76-2.55.73-4.13-1.35C28.39,30.84,26.77,28.54,24.86,26.48ZM105.39,37a72.66,72.66,0,0,0-25.5,4.34C63.28,47.3,49.28,56.89,39.06,71.43c-11.47,16.31-14.92,34.63-12.6,54.14,2.62,22,13.61,39.1,31.56,51.81,11.76,8.32,25,13.21,39.13,15.51a32.76,32.76,0,0,0,7.66.61,1,1,0,0,0-.49-.33A91.94,91.94,0,0,1,71.53,171C53.87,152.33,47.1,130,49.79,104.65,51,93,55.54,82.54,62.15,73,71.42,59.53,83.64,49.36,97.64,41.2,100.06,39.8,102.57,38.54,105.39,37Zm35.49,102c6.46,0,10.27-3.77,10.25-10.17s-3.75-10.13-10.11-10.15c-6.53,0-10.26,3.64-10.31,10.09S134.4,139,140.88,139Zm-13-36.71c2.24-1,3.1-2,3.4-3.67.57-3.26-1.09-5.57-4.46-6.07s-6.85-.08-10.26-.25c-1.12,0-1.35.36-1.34,1.39,0,4.76,0,9.51,0,14.27,0,1.31-.59,3.07.25,3.82s2.65.14,4,.26c1,.08,1.22-.34,1.19-1.24-.06-1.84,0-3.68,0-5.52,0-.8.22-1.06,1-1.05a3,3,0,0,1,2.91,1.85,50.16,50.16,0,0,1,1.76,4.9c.14.37.05,1,.7,1a31.18,31.18,0,0,0,5-.1c0-1.31-.72-2.39-1.11-3.58-.34-1-.78-2-1.12-3A5.45,5.45,0,0,0,127.89,102.27Zm38.55,26.64a4.63,4.63,0,0,0,3.52-3.5c.67-3.19-.86-5.53-4.16-6.14-3.5-.65-7-.11-10.56-.31-1.12-.06-1.34.35-1.33,1.39.06,4.76,0,9.51.06,14.27,0,1.3-.6,3.09.29,3.78s2.54.13,3.86.25c1.09.1,1.29-.38,1.26-1.32-.06-1.79,0-3.58,0-5.37,0-.4-.2-1,.54-1,1.15-.06,2.26,0,3,1.09a13.15,13.15,0,0,1,1.22,2.64c.52,1.3.39,3.2,1.57,3.8s2.8.11,4.23.18c1,.06,1.08-.31.74-1.15-.8-2-1.54-4-2.27-6A4.54,4.54,0,0,0,166.44,128.91Zm12.26-36.6a7.05,7.05,0,0,1-1.38,0c-1.57-.32-2.2.44-2.73,1.84-2,5.27-4.07,10.48-6.13,15.71-.85,2.16-.85,2.16,1.5,2.16,3.16,0,3.2,0,4.3-3a1.57,1.57,0,0,1,1.75-1.25c1.74.06,3.48,0,5.22,0a1.32,1.32,0,0,1,1.47,1C184,112,184,112,187.57,112a7.06,7.06,0,0,1,.92,0c1.21.16,1.2-.31.81-1.27-2.09-5.16-4.12-10.35-6.19-15.52C181.94,92.3,181.93,92.31,178.7,92.31Zm-44.11,9.85h0c0,2.86,0,5.73,0,8.59,0,1,.28,1.29,1.29,1.28,3.63-.06,7.26,0,10.89,0,2.51,0,2.47,0,2.47-2.55,0-.91-.23-1.26-1.2-1.21-1.58.08-3.17,0-4.76,0-3.44,0-3.41,0-3.27-3.42,0-.81.3-1.06,1.08-1,1.64.05,3.27,0,4.91,0,2.78-.06,2.36.62,2.45-2.55,0-1-.29-1.24-1.21-1.2-1.48.07-3,0-4.45,0-3,0-2.93,0-2.78-3,0-.78.27-1.08,1.08-1.06,1.79,0,3.58,0,5.37,0,2.5,0,2.46,0,2.44-2.55,0-.93-.26-1.22-1.21-1.2q-6,.07-12,0c-.88,0-1.14.27-1.12,1.13C134.62,96.33,134.59,99.24,134.59,102.16Zm89.58,26.59h0c0,2.87,0,5.73,0,8.6,0,1,.2,1.33,1.27,1.31,3.63-.07,7.27,0,10.9,0,2.52,0,2.47,0,2.47-2.54,0-1-.34-1.22-1.24-1.18-1.59.06-3.18,0-4.76,0-3.42,0-3.39,0-3.25-3.42,0-.75.27-1,1-.94,1.58,0,3.17,0,4.75,0,2.74,0,2.7,0,2.66-2.68,0-.88-.27-1.17-1.14-1.13-1.43.06-2.87,0-4.3,0-3,0-3,0-2.95-3,0-.83.2-1.17,1.11-1.13,1.73.07,3.48,0,5.22,0,2.62,0,2.56,0,2.59-2.55,0-1-.33-1.19-1.23-1.18q-5.91.06-11.82,0c-.92,0-1.25.21-1.23,1.19C224.21,123,224.17,125.89,224.17,128.75ZM206.5,92.31c-1.87,0-3.41.07-4.93,0a1.69,1.69,0,0,0-1.87,1.15c-1,2.19-2.14,4.33-3.34,6.74-1.24-2.47-2.34-4.65-3.44-6.82-.27-.54-.44-1.11-1.28-1.08-1.72.06-3.44,0-5.15,0-.16.71.3,1.06.55,1.47,1.47,2.45,2.82,5,4.49,7.3a11.47,11.47,0,0,1,2.18,7.86c-.2,3.07-.05,3.08,3.08,3.08,2.31,0,2.49,0,2.27-2.35a13.22,13.22,0,0,1,2.62-9.42C203.42,97.81,204.81,95.13,206.5,92.31Zm-91.26,36.42h0v5.83c0,4.23,0,4.2,4.26,4.1,1,0,1.25-.3,1.22-1.23-.06-1.79,0-3.58,0-5.37,0-1,.23-1.39,1.27-1.33,1.33.08,2.66,0,4,0,2.6,0,2.55,0,2.58-2.56,0-.92-.21-1.29-1.18-1.23-1.23.07-2.46,0-3.68,0-3.16,0-3.14,0-3-3.21,0-.78.25-1.1,1.06-1.07,1.54,0,3.07,0,4.61,0,2.53,0,2.47,0,2.51-2.48,0-1-.36-1.28-1.33-1.27-3.68.05-7.36.06-11,0-1,0-1.27.35-1.25,1.32C115.28,123.1,115.24,125.91,115.24,128.73Zm92.75.11h0c0,1.9,0,3.79,0,5.68,0,1.31-.58,3,.24,3.83s2.63.15,4,.29c1,.1,1.22-.33,1.19-1.22,0-1.79,0-3.59,0-5.37,0-1,.23-1.39,1.28-1.33,1.32.08,2.65,0,4,0,2.71,0,2.68,0,2.59-2.72,0-.8-.27-1.07-1.06-1-1.23,0-2.46,0-3.69,0-3.3,0-3.27,0-3.1-3.28,0-.82.33-1,1.1-1,1.53,0,3.07,0,4.6,0,2.49,0,2.44,0,2.45-2.55,0-1-.31-1.21-1.22-1.19-3.74,0-7.47,0-11.21,0-.87,0-1.15.27-1.14,1.14C208,123,208,125.93,208,128.84ZM152.47,102.2c0,2.66.08,5.33,0,8-.05,1.43.28,1.94,1.82,1.87,3.12-.13,6.24,0,9.36,0,2.66,0,2.62,0,2.62-2.71,0-.93-.26-1.26-1.21-1.23-1.78.06-3.58,0-5.37.05-1.3.07-1.82-.22-1.77-1.7.11-4.24,0-8.49.06-12.74,0-1-.18-1.51-1.32-1.4a15.82,15.82,0,0,1-2.92,0c-1.05-.1-1.28.34-1.26,1.31C152.51,96.47,152.47,99.34,152.47,102.2Zm31.17-23.9c2.28-5,4.45-9.76,6.66-14.51.56-1.2-.34-.88-.84-.88-3.11,0-6.23.14-9.34.18-2.2,0-4.4,0-7,0ZM164.2,54.51c.16-5.53.31-10.73.47-15.92,0-.76-.26-.87-.9-.58-1.54.68-3.09,1.33-4.64,2l-10.41,4.48ZM118.39,36.18l18.25,3.47L130.7,24.58c-.34-.86-.69-.26-1,0-.9.9-1.78,1.82-2.68,2.74Zm85.7,92.61H204v-6c0-3.88,0-3.84-3.91-3.85-1,0-1.4.24-1.39,1.35.05,4.75,0,9.51,0,14.27,0,4.23,0,4.2,4.28,4.1.89,0,1.11-.31,1.1-1.15C204.06,134.62,204.09,131.7,204.09,128.79Zm32.42,20.56a3.85,3.85,0,1,0-4-3.78A3.89,3.89,0,0,0,236.51,149.35Z" transform="translate(-4.99 -4.99)"></path><path class="cls-3" d="M7.43,9.94c0,.51.05,1,.05,1.53q0,116.4,0,232.79c0,.51,0,1-.05,1.53H6.87V9.94h.56Z" transform="translate(-4.99 -4.99)"></path><path class="cls-4" d="M7.53,249.09H247.41c.56,0,1.12,0,1.68,0-.33.68-.94.32-1.41.33q-19.73,0-39.46,0H9.39C8.76,249.47,8,249.72,7.53,249.09Z" transform="translate(-4.99 -4.99)"></path><path class="cls-5" d="M249.26,244.29c0-.61-.08-1.22-.08-1.84q0-114.58,0-229.17c0-.61,0-1.22.08-1.84a2.77,2.77,0,0,1,.21,1.65q0,114.78,0,229.55A2.77,2.77,0,0,1,249.26,244.29Z" transform="translate(-4.99 -4.99)"></path><path class="cls-3" d="M6.87,9.94a1.18,1.18,0,0,1-1-.33,1.43,1.43,0,0,1-.14-1.44.48.48,0,0,1,.62-.28c.58.18.45.7.48,1.14s0,.6,0,.91Z" transform="translate(-4.99 -4.99)"></path><path class="cls-3" d="M6.87,245.79c0,.2,0,.4,0,.6,0,.47.13,1.07-.6,1.15-.35,0-.54-.21-.58-.54-.07-.59,0-1.13.74-1.19l.45,0Z" transform="translate(-4.99 -4.99)"></path><path class="cls-5" d="M249.26,247.36a7.61,7.61,0,0,1,0-2.52A3.24,3.24,0,0,1,249.26,247.36Z" transform="translate(-4.99 -4.99)"></path><path class="cls-5" d="M249.26,10V9.29A.42.42,0,0,1,249.26,10Z" transform="translate(-4.99 -4.99)"></path><path class="cls-5" d="M249.26,8.74V8.37C249.44,8.49,249.44,8.61,249.26,8.74Z" transform="translate(-4.99 -4.99)"></path><path class="cls-5" d="M249.26,7.82l-.13-.31C249.37,7.54,249.41,7.64,249.26,7.82Z" transform="translate(-4.99 -4.99)"></path><path class="cls-5" d="M249.26,248.28v-.37C249.44,248,249.43,248.16,249.26,248.28Z" transform="translate(-4.99 -4.99)"></path><path class="cls-6" d="M141.37,153.62c.66,0,1.33-.1,2-.1l88.87-.06c1.85,0,3.69.12,5.53,0,1.16,0,1.35.22,1,1.34-3.53,11.05-7,22.11-10.5,33.16q-6.08,19.14-12.17,38.26c-.44,1.39-.92,2.77-1.38,4.16H143.8c-2.44,0-2.43,0-2.43-2.38Zm13.48,46.78c-.09-.17-.15-.46-.28-.5-2-.56-4-1-6,.25-.74.46-1.17.92-1,1.8-.49,2.8.11,3.81,2.79,4.72l1.15.42a1.09,1.09,0,0,1,.86,1.12c0,.72-.64.88-1.2,1a6.08,6.08,0,0,1-2.57-.33c-.31-.09-.61-.41-.91.08a1.51,1.51,0,0,0,1.07,2.37c1.21.13,2.44.08,3.67.1a2.56,2.56,0,0,0,3.08-1.7,1.43,1.43,0,0,1,.67-.76,4.82,4.82,0,0,0,5.28,2.46,3.91,3.91,0,0,0,3.47-2.59,4.64,4.64,0,0,0-1.43-5.37c-.14-.44.05-1.19-.66-1.2-1.36,0-2.77-.31-4.09.2-.47.18-.82-.06-1.14-.06-1.51,0-1.82-1.38-2.76-2Zm43.67,6.15c-.84,0-.57-1.2-1.36-1.24-.18-.53-.34-1.07-.54-1.59a2.3,2.3,0,0,0-2.74-.8c-.88.46-.11,1.08.06,1.55.7,2,1.52,4,2.27,6,.51,1.36.13,2.1-1.25,2-1.19-.08-.89.67-1,1.24-.18.86.32,1,1,1.08a3.32,3.32,0,0,0,3.85-2.33c1.09-2.59,2-5.24,3-7.86.66-1.75.58-1.81-1.3-1.75-.78,0-1,.38-1.22,1.06C199.13,204.81,198.8,205.67,198.52,206.55ZM158.24,182c-1.31-2.71-2.14-5.59-3.18-8.4a1.24,1.24,0,0,0-1.61-.92c-.88.18-2.08-.68-2.61.82-1.11,3.17-2.29,6.33-3.43,9.49-.11.31-.38.65.12.91a2.29,2.29,0,0,0,2.92-1.2,1.41,1.41,0,0,1,1.75-1.2,12.56,12.56,0,0,0,1.84,0,1,1,0,0,1,1,.68c.85,1.92,1.56,2.18,3.68,1.45h.72a1.32,1.32,0,0,0,1,.29c1.91.08,1.89.08,1.92-1.87a25.37,25.37,0,0,1,.14-2.9c.1-.77.51-1.4,1.4-1.33s1,.78,1,1.47a26.61,26.61,0,0,1,0,3.22c-.12,1.21.42,1.43,1.5,1.44s1.43-.3,1.39-1.38A10.67,10.67,0,0,1,168,179c.21-.69.62-1.22,1.44-1.09s.87.76.88,1.39c0,1.18.09,2.36,0,3.53s.63,1.16,1.44,1.17,1.55.08,1.49-1.12c-.08-1.43,0-2.87-.07-4.3-.06-1.12-.08-2.37-1.34-2.88a3.47,3.47,0,0,0-3.74.51c-.31.27-.48.56-1,.09-1.29-1.29-2.74-1.11-4.2-.27-.22.13-.43.59-.72.16-.8-1.2-1.77-.66-2.74-.32-.62,1.51-.18,3.09-.25,4.64S159.2,182,158.24,182Zm-2,7.05c.46-2.54.46-2.55-1.93-2.83-.3,0-.61,0-.92-.06-3.54,0-5.88,2-6.13,5.28-.27,3.46,1.68,5.77,5.27,6.27a14.07,14.07,0,0,0,2.9-.13c1.23-.08,1.15-.77,1.09-1.68-.09-1.23-.77-.71-1.37-.6a9,9,0,0,1-1.37.13,3.12,3.12,0,0,1-3.14-1.77,3.64,3.64,0,0,1,.41-4,3.19,3.19,0,0,1,3.6-1Zm54.48-9.45h0c0,1.07.08,2.15,0,3.21-.1,1.23.63,1.11,1.44,1.13s1.49,0,1.43-1.17a23.45,23.45,0,0,1,.13-3.65,1.35,1.35,0,0,1,1.45-1.3c.93,0,1.19.69,1.21,1.47,0,1.22.08,2.45,0,3.67s.77,1,1.44,1,1.51.29,1.46-.93,0-2.66,0-4c-.09-3.36-2.36-4.64-5.28-3-.26.15-.46.64-.75,0-.46-1.09-1.42-.49-2.11-.44s-.37.82-.4,1.27C210.72,177.8,210.75,178.72,210.75,179.64Zm-44.14,13.7c0,1.08.06,2.15,0,3.22s.67,1,1.39,1,1.47.24,1.43-1a14.06,14.06,0,0,1,.17-3.66c.18-.86.62-1.45,1.51-1.43s1.21.82,1.24,1.62c.06,1.17.06,2.35,0,3.52s.85.89,1.49.91,1.39.25,1.34-.88c-.05-1.32,0-2.65,0-4,0-3.36-2.36-4.66-5.25-3-.18.11-.4.66-.65.12-.51-1.16-1.52-.67-2.21-.53-.87.18-.37,1.12-.44,1.72S166.62,192.58,166.61,193.34Zm42.69-12.52h0c0-.81,0-1.63,0-2.45a2.86,2.86,0,0,0-1.11-2.26c-1-.79-4.41-1-5.47-.31-.64.4-.41,1-.32,1.51.14.86.69.3,1,.22a3.91,3.91,0,0,1,2.55.05c.29.13.56.32.52.68s-.43.3-.71.32c-.66.06-1.32.08-2,.18a2.65,2.65,0,0,0-2.43,2,2.44,2.44,0,0,0,.79,2.64,3.33,3.33,0,0,0,3.47.38c.53-.21.94-1,1.56.05.18.29,1.3.22,1.89,0s.16-.9.2-1.37S209.3,181.39,209.3,180.82Zm-50.86,10.65a7.66,7.66,0,0,1,2.85-.4c.57.08,1.27.22,1.21.9s-.75.27-1.14.3a6.65,6.65,0,0,0-2.54.46A2.46,2.46,0,0,0,157.3,195a2.35,2.35,0,0,0,1.19,2.31,3.26,3.26,0,0,0,3.49-.05c.35-.22.58-.83,1.05.08.29.55,1.34.29,2,.14s.27-.77.29-1.19c0-.91,0-1.83,0-2.75,0-3.67-1.69-5-5.32-4.45C158.54,189.35,157.92,190,158.44,191.47Zm21.21-10.86h0c.67,0,1.33,0,2,0s.79-.22.84-.81a4,4,0,0,0-3.39-4.37c-2.76-.28-4.68,1.14-4.88,3.62a4.78,4.78,0,0,0,6.93,4.75c.89-.4.6-1.13.54-1.7-.09-.88-.7-.25-1-.17a3.75,3.75,0,0,1-2.83-.13c-.35-.18-.76-.48-.62-.93s.6-.23.93-.25C178.63,180.59,179.14,180.61,179.65,180.61ZM183.46,208h0c.61,0,1.22,0,1.84,0,.43,0,.75-.05.87-.61a4.12,4.12,0,0,0-3.13-4.59,4.23,4.23,0,0,0-4.78,2.18,4.79,4.79,0,0,0,1,5.37c1.25,1.11,4.54,1.51,5.81.74.7-.44.45-1.12.37-1.66-.14-.85-.72-.19-1-.12a3.82,3.82,0,0,1-2.82-.16c-.32-.17-.65-.42-.6-.81s.55-.32.86-.34C182.34,208,182.9,208,183.46,208Zm7.82-12.65a10.47,10.47,0,0,1-1.61.39,3,3,0,0,1-2.22-.28c-.29-.22-.63-.45-.57-.84s.57-.3.88-.31c1.18,0,2.35,0,3.53,0,.56,0,.81-.17.85-.78a4,4,0,0,0-3.33-4.44,4.09,4.09,0,0,0-4.8,3.05c-.87,3.62,1.72,6.2,5.63,5.6C191.6,197.41,191.6,197.41,191.28,195.33Zm-3.32,12c0,3.5.84,4.41,3.76,4.13.52,0,1.08,0,1-.79-.07-.55.22-1.27-.86-1.16-.73.07-1.07-.48-1.07-1.21s0-1.53,0-2.3.18-1.09.94-1,1-.28,1-1,0-1.19-.85-1.09c-1,.13-1.07-.41-1.07-1.19,0-.46.32-1.07-.28-1.38s-2.43.79-2.44,1.47-.18,1.17-1,1.12c-.54,0-.68.37-.67.82s-.12,1.09.26,1.1C188.64,204.91,187.75,206.43,188,207.29Zm-7.07-9.45c.38-.06.88-.16,1.39-.22,1.14-.14.8-1,.78-1.65,0-.91-.71-.48-1.14-.42a2.3,2.3,0,0,1-2.52-1,2.17,2.17,0,0,1,.11-2.45,2,2,0,0,1,2.14-.83c.56.1,1.16.57,1.29-.54.1-.91,0-1.44-1.05-1.6a4.84,4.84,0,0,0-4.84,1.57,4.36,4.36,0,0,0-.44,4.77C177.41,197.2,179,197.66,180.89,197.84Zm17.45-13.76c.21,0,.42,0,.62,0,.82-.11,1.71.06,1.71-1.34,0-1.61-1-.83-1.6-.83a2.16,2.16,0,0,1-2.4-2.33c.08-1.43,1.07-2.18,2.66-2,.55.08,1.11.4,1.16-.56,0-.67.25-1.38-.72-1.53-1.83-.3-3.62-.26-5,1.24a4.35,4.35,0,0,0-.68,4.87C194.9,183.45,196.46,184.09,198.34,184.08Zm-25.81,25c-.35.07-.69.15-1,.19a2.29,2.29,0,0,1-2.43-.92,2.2,2.2,0,0,1,0-2.47,2,2,0,0,1,2.42-.85c.63.14,1,.24,1.08-.65s0-1.4-.95-1.52c-1.86-.25-3.63-.09-4.88,1.5a4.3,4.3,0,0,0-.49,4.76c.88,1.84,2.52,2.41,4.45,2.36S172.88,211.22,172.53,209Zm11-29.28h0c0,1,.05,2.05,0,3.06s.27,1.13,1.13,1.19c1.36.1,2-.32,1.79-1.77a12,12,0,0,1,0-2c0-1.39.51-2.43,2.12-2.4.64,0,.84-.25.8-.79s.36-1.23-.24-1.55a1.72,1.72,0,0,0-1.76.15c-.56.38-.82.66-1.57,0-.94-.85-2.24,0-2.25,1.36Zm11.09,17.79c1.12.22,1.61-.17,1.48-1.36a13.26,13.26,0,0,1,0-2.44c.1-1.31.66-2.26,2.15-2.28s.74-1.07.84-1.68c.15-.88-.58-.78-1.13-.76a2.16,2.16,0,0,0-1.37.59c-.36.32-.5.64-.89-.11s-1.32-.32-2-.21-.41.82-.42,1.27c0,1.88,0,3.77,0,5.65C193.21,197.23,193.41,197.84,194.58,197.55ZM193,179.77c0-1.13,0-2.25,0-3.37s-.78-.87-1.4-.87-1.41-.3-1.41.83c0,2.24,0,4.49,0,6.74,0,.35,0,.67.45.84,1.41.52,2.34-.08,2.34-1.57C193,181.5,193,180.64,193,179.77ZM173.9,207.06c0,1.07.06,2.15,0,3.22s.75,1,1.42,1,1.44.16,1.4-1c-.07-2.09,0-4.19,0-6.29,0-.77-.23-1.06-1-1.11-1.32-.08-2,.26-1.79,1.75A16.67,16.67,0,0,1,173.9,207.06Zm1.23-7.61c-.6-.06-1.24-.12-1.26,1.08s.75,1,1.47,1.07,1.41,0,1.39-1.17S176,199.44,175.13,199.45Zm16.43-25.19c.95.12,1.45-.11,1.5-1.18s-.69-1-1.37-1-1.56-.38-1.52,1C190.21,174.16,190.71,174.38,191.56,174.26Z" transform="translate(-4.99 -4.99)"></path><path class="cls-7" d="M105.39,37c-2.82,1.52-5.33,2.78-7.75,4.18C83.64,49.36,71.42,59.53,62.15,73,55.54,82.54,51,93,49.79,104.65,47.1,130,53.87,152.33,71.53,171a91.94,91.94,0,0,0,32.79,22.15,1,1,0,0,1,.49.33,32.76,32.76,0,0,1-7.66-.61C83,190.59,69.78,185.7,58,177.38c-18-12.71-28.94-29.79-31.56-51.81-2.32-19.51,1.13-37.83,12.6-54.14C49.28,56.89,63.28,47.3,79.89,41.36A72.66,72.66,0,0,1,105.39,37Z" transform="translate(-4.99 -4.99)"></path><path class="cls-8" d="M116.27,230.41q0-15.1-.07-30.22c0-15,0-30,0-44.94,0-1.34.26-1.83,1.74-1.81,7.31.11,14.62.09,21.93.12a7.23,7.23,0,0,1,.91.1c0,.66,0,1.33,0,2V226.5c0,1.33-.06,2.66-.1,4Zm15.37-30.29h0l-.34.29h0l-1-.06q0-17.17,0-34.35a10.94,10.94,0,0,0-1.53-4.82l-1,2.3c-.95.52-.6,1.45-.61,2.2,0,8,0,15.93,0,23.9a4.81,4.81,0,0,1-.39,2.52,1,1,0,0,0,.51,1.51v.56a9.74,9.74,0,0,0-1.79,0c-.46.09-1-.88-1.36.06-2.29.18-3.18.76-3.65,2.37s-.11,2.83,1.58,4.21c1,.84,2,1.7,3,2.56.48.58.95,1.16.29,1.91-.86.82-2,1.53-1.2,3,.08.77,1.77.77,1,2h0a.35.35,0,0,0-.3.37c0,.55,0,1.1,0,1.64s.18,1,.82,1c.42,0,.81.06,1,.52-1.71,1.63-1.61,2.59.32,3.2.46.79.17,1.66.23,2.48,0,.61,0,1.21.74,1.48,1.63.65,2.59.48,3-.63.61-1.66-.75-2.91-1-4.4l-.15,0-.15-.65c.84-.72,1.7-1.42,2.53-2.16a1.62,1.62,0,0,0,.22-2.6c.6-.86.09-.93-.59-.76-.33.08-.78.65-.58-.29s1-1.22,1.64-1.64a1.78,1.78,0,0,0,.89-2.12c-.25-1.1-1-1.05-1.87-1l-.08-.77q2.15-1.8,4.3-3.59a3.14,3.14,0,0,0,1.12-3.4c-.57-2.43-2.59-3.31-5.67-2.45,0,.7,1.07,1.23.31,2.07-.24.28-.68.64-.36,1.05s.83.22,1.28.1,1-.7,1.37-.17-.48.86-.8,1.26a1.77,1.77,0,0,1-.51.32l-1-.25.22,1-.08,0C131.76,199.85,131.66,199.94,131.64,200.12Z" transform="translate(-4.99 -4.99)"></path><path class="cls-9" d="M24.86,26.48c1.91,2.06,3.53,4.36,5.23,6.59s1.56,2.11,4.13,1.35L42.44,32c.53-.16,1.07-.29,1.74-.47a4,4,0,0,1-.94,1.61c-1.89,2.55-3.76,5.1-5.68,7.63a1.76,1.76,0,0,0,0,2.44c2.27,3.07,4.44,6.21,6.83,9.56a59.63,59.63,0,0,1-6.71-1.8c-1.57-.45-3.16-.88-4.68-1.45a1.45,1.45,0,0,0-1.93.59c-2.18,2.77-4.41,5.5-6.62,8.25-.15.18-.31.35-.47.53l-.47-.08c0-3.71-.05-7.41,0-11.12a1.73,1.73,0,0,0-1.36-2,111.89,111.89,0,0,1-10.72-4.2l12.23-3.93c.53-.43.38-1,.38-1.56,0-2.65,0-5.29,0-7.93C24.07,27.41,23.92,26.66,24.86,26.48Z" transform="translate(-4.99 -4.99)"></path><path class="cls-10" d="M140.88,139c-6.48,0-10.21-3.78-10.17-10.23s3.78-10.11,10.31-10.09c6.36,0,10.09,3.76,10.11,10.15S147.34,139,140.88,139Zm4.63-10.11a9.32,9.32,0,0,0-.78-3.86,4,4,0,0,0-3.75-2.43,3.8,3.8,0,0,0-3.74,2.19,8.7,8.7,0,0,0,.13,8.23,4.06,4.06,0,0,0,7.14,0A8.94,8.94,0,0,0,145.51,128.87Z" transform="translate(-4.99 -4.99)"></path><path class="cls-10" d="M127.89,102.27a5.45,5.45,0,0,1,2,3c.34,1,.78,2,1.12,3,.39,1.19,1.12,2.27,1.11,3.58a31.18,31.18,0,0,1-5,.1c-.65,0-.56-.65-.7-1a50.16,50.16,0,0,0-1.76-4.9,3,3,0,0,0-2.91-1.85c-.82,0-1.06.25-1,1.05,0,1.84,0,3.68,0,5.52,0,.9-.2,1.32-1.19,1.24-1.36-.12-3.11.54-4-.26s-.24-2.51-.25-3.82c0-4.76,0-9.51,0-14.27,0-1,.22-1.44,1.34-1.39,3.41.17,6.85-.25,10.26.25s5,2.81,4.46,6.07C131,100.3,130.13,101.24,127.89,102.27Zm-7.23-4.11c.08,1.2-.51,2.58,1.64,2.4,2.51-.2,3.68-.74,3.71-2.25s-1.32-2.23-4.16-2.31C119.78,95.94,121.06,97.52,120.66,98.16Z" transform="translate(-4.99 -4.99)"></path><path class="cls-10" d="M166.44,128.91a4.54,4.54,0,0,1,1.95,2.55c.73,2,1.47,4,2.27,6,.34.84.3,1.21-.74,1.15-1.43-.07-3.09.41-4.23-.18s-1.05-2.5-1.57-3.8A13.15,13.15,0,0,0,162.9,132c-.74-1.09-1.85-1.15-3-1.09-.74,0-.53.64-.54,1,0,1.79,0,3.58,0,5.37,0,.94-.17,1.42-1.26,1.32-1.32-.12-3,.41-3.86-.25s-.28-2.48-.29-3.78c0-4.76,0-9.51-.06-14.27,0-1,.21-1.45,1.33-1.39,3.52.2,7.06-.34,10.56.31,3.3.61,4.83,3,4.16,6.14A4.63,4.63,0,0,1,166.44,128.91Zm-7.11-4c.13,1.09-.58,2.5,1.54,2.36,2.6-.18,3.84-.79,3.83-2.33s-1.3-2.12-3.89-2.29C158.61,122.51,159.56,124.05,159.33,124.91Z" transform="translate(-4.99 -4.99)"></path><path class="cls-10" d="M178.7,92.31c3.23,0,3.24,0,4.41,2.91,2.07,5.17,4.1,10.36,6.19,15.52.39,1,.4,1.43-.81,1.27a7.06,7.06,0,0,0-.92,0c-3.55,0-3.57,0-4.87-3.27a1.32,1.32,0,0,0-1.47-1c-1.74,0-3.48.07-5.22,0a1.57,1.57,0,0,0-1.75,1.25c-1.1,3-1.14,3-4.3,3-2.35,0-2.35,0-1.5-2.16,2.06-5.23,4.16-10.44,6.13-15.71.53-1.4,1.16-2.16,2.73-1.84A7.05,7.05,0,0,0,178.7,92.31Zm0,4.29a16.76,16.76,0,0,0-1.47,3.89c-.34,1.16-1.6,2.66-.76,3.39s2.53.18,3.86.21c.57,0,.68-.23.5-.76C180.14,101.16,179.46,99,178.71,96.6Z" transform="translate(-4.99 -4.99)"></path><path class="cls-11" d="M134.59,102.16c0-2.92,0-5.83,0-8.75,0-.86.24-1.14,1.12-1.13q6,.07,12,0c1,0,1.21.27,1.21,1.2,0,2.55.06,2.55-2.44,2.55-1.79,0-3.58,0-5.37,0-.81,0-1,.28-1.08,1.06-.15,3-.18,3,2.78,3,1.48,0,3,0,4.45,0,.92,0,1.24.23,1.21,1.2-.09,3.17.33,2.49-2.45,2.55-1.64,0-3.27.05-4.91,0-.78,0-1,.23-1.08,1-.14,3.42-.17,3.42,3.27,3.42,1.59,0,3.18,0,4.76,0,1,0,1.2.3,1.2,1.21,0,2.55,0,2.55-2.47,2.55-3.63,0-7.26,0-10.89,0-1,0-1.32-.26-1.29-1.28.06-2.86,0-5.73,0-8.59Z" transform="translate(-4.99 -4.99)"></path><path class="cls-10" d="M224.17,128.75c0-2.86,0-5.73,0-8.59,0-1,.31-1.2,1.23-1.19q5.91.06,11.82,0c.9,0,1.24.19,1.23,1.18,0,2.55,0,2.55-2.59,2.55-1.74,0-3.49.06-5.22,0-.91,0-1.09.3-1.11,1.13,0,3-.07,3,2.95,3,1.43,0,2.87,0,4.3,0,.87,0,1.12.25,1.14,1.13,0,2.68.08,2.68-2.66,2.68-1.58,0-3.17,0-4.75,0-.71,0-.94.19-1,.94-.14,3.42-.17,3.42,3.25,3.42,1.58,0,3.17.05,4.76,0,.9,0,1.24.2,1.24,1.18,0,2.54.05,2.54-2.47,2.54-3.63,0-7.27,0-10.9,0-1.07,0-1.29-.35-1.27-1.31,0-2.87,0-5.73,0-8.6Z" transform="translate(-4.99 -4.99)"></path><path class="cls-11" d="M206.5,92.31c-1.69,2.82-3.08,5.5-4.82,7.93a13.22,13.22,0,0,0-2.62,9.42c.22,2.33,0,2.35-2.27,2.35-3.13,0-3.28,0-3.08-3.08a11.47,11.47,0,0,0-2.18-7.86c-1.67-2.31-3-4.85-4.49-7.3-.25-.41-.71-.76-.55-1.47,1.71,0,3.43,0,5.15,0,.84,0,1,.54,1.28,1.08,1.1,2.17,2.2,4.35,3.44,6.82,1.2-2.41,2.33-4.55,3.34-6.74a1.69,1.69,0,0,1,1.87-1.15C203.09,92.38,204.63,92.31,206.5,92.31Z" transform="translate(-4.99 -4.99)"></path><path class="cls-10" d="M115.24,128.73c0-2.82,0-5.63,0-8.45,0-1,.2-1.34,1.25-1.32,3.69.06,7.37.05,11,0,1,0,1.34.22,1.33,1.27,0,2.48,0,2.48-2.51,2.48-1.54,0-3.07,0-4.61,0-.81,0-1,.29-1.06,1.07-.16,3.21-.18,3.21,3,3.21,1.22,0,2.45.06,3.68,0,1-.06,1.19.31,1.18,1.23,0,2.56,0,2.56-2.58,2.56-1.33,0-2.66.05-4,0-1-.06-1.31.35-1.27,1.33.07,1.79,0,3.58,0,5.37,0,.93-.27,1.21-1.22,1.23-4.27.1-4.26.13-4.26-4.1v-5.83Z" transform="translate(-4.99 -4.99)"></path><path class="cls-10" d="M208,128.84c0-2.91,0-5.83,0-8.74,0-.87.27-1.15,1.14-1.14,3.74.05,7.47.05,11.21,0,.91,0,1.23.21,1.22,1.19,0,2.54,0,2.54-2.45,2.55-1.53,0-3.07,0-4.6,0-.77,0-1.06.2-1.1,1-.17,3.29-.2,3.29,3.1,3.28,1.23,0,2.46,0,3.69,0,.79,0,1,.24,1.06,1,.09,2.72.12,2.72-2.59,2.72-1.33,0-2.66.06-4,0-1-.06-1.31.36-1.28,1.33.06,1.78,0,3.58,0,5.37,0,.89-.2,1.32-1.19,1.22-1.36-.14-3.11.55-4-.29s-.22-2.52-.24-3.83c-.05-1.89,0-3.78,0-5.68Z" transform="translate(-4.99 -4.99)"></path><path class="cls-11" d="M152.47,102.2c0-2.86,0-5.73,0-8.6,0-1,.21-1.41,1.26-1.31a15.82,15.82,0,0,0,2.92,0c1.14-.11,1.33.37,1.32,1.4,0,4.25.05,8.5-.06,12.74,0,1.48.47,1.77,1.77,1.7,1.79-.1,3.59,0,5.37-.05.95,0,1.21.3,1.21,1.23,0,2.71,0,2.71-2.62,2.71-3.12,0-6.24-.09-9.36,0-1.54.07-1.87-.44-1.82-1.87C152.55,107.53,152.47,104.86,152.47,102.2Z" transform="translate(-4.99 -4.99)"></path><path class="cls-10" d="M186.82,119.05h.61q0,7,0,13.94c0,.56-.13,1.14.28,1.62a35.76,35.76,0,0,0,6.86.15c1.27,0,1.51.42,1.48,1.56-.07,2.3,0,2.3-2.25,2.3-3.48,0-6.95,0-10.43,0-.86,0-1.14-.22-1.14-1.1.05-5.83.08-11.66.05-17.49,0-1.24.66-1.15,1.47-1A5,5,0,0,0,186.82,119.05Z" transform="translate(-4.99 -4.99)"></path><path class="cls-9" d="M183.64,78.3,173.13,63.1c2.59,0,4.79,0,7,0,3.11,0,6.23-.14,9.34-.18.5,0,1.4-.32.84.88C188.09,68.54,185.92,73.32,183.64,78.3Z" transform="translate(-4.99 -4.99)"></path><path class="cls-10" d="M164.2,54.51l-15.48-10L159.13,40c1.55-.67,3.1-1.32,4.64-2,.64-.29.92-.18.9.58C164.51,43.78,164.36,49,164.2,54.51Z" transform="translate(-4.99 -4.99)"></path><path class="cls-10" d="M118.39,36.18,127,27.35c.9-.92,1.78-1.84,2.68-2.74.29-.29.64-.89,1,0l5.94,15.07Z" transform="translate(-4.99 -4.99)"></path><path class="cls-9" d="M204.09,128.79c0,2.91,0,5.83,0,8.74,0,.84-.21,1.13-1.1,1.15-4.28.1-4.28.13-4.28-4.1,0-4.76.05-9.52,0-14.27,0-1.11.35-1.35,1.39-1.35,3.91,0,3.91,0,3.91,3.85v6Z" transform="translate(-4.99 -4.99)"></path><path class="cls-12" d="M140.67,230.49c0-1.33.1-2.66.1-4V155.65c0-.66,0-1.33,0-2l.63,0v74.43c0,2.38,0,2.38,2.43,2.38h70.9c-.26.6-.8.32-1.2.32H141.22l-.46,0A1,1,0,0,0,140.67,230.49Z" transform="translate(-4.99 -4.99)"></path><path class="cls-12" d="M236.51,149.35a3.85,3.85,0,1,1,3.94-3.85A3.87,3.87,0,0,1,236.51,149.35Zm-1.75-6c-1.31,1-1.4,2.6-.25,4.15,1.47,1.22,2.87,1.22,4,0a3.13,3.13,0,0,0,0-4.06A2.51,2.51,0,0,0,234.76,143.37Z" transform="translate(-4.99 -4.99)"></path><path class="cls-13" d="M140.67,230.49a1,1,0,0,1,.09.24l-23.8.06c-.28,0-.64.07-.69-.38Z" transform="translate(-4.99 -4.99)"></path><path class="cls-4" d="M187.73,134.62c-.41-.48-.28-1.06-.28-1.62q0-7,0-13.94c.55.21.31.7.31,1C187.75,125,187.73,129.79,187.73,134.62Z" transform="translate(-4.99 -4.99)"></path><path class="cls-4" d="M24.86,26.48c-.94.18-.79.93-.79,1.57,0,2.64,0,5.28,0,7.93,0,.54.15,1.13-.38,1.56V25.45C24.4,25.6,24.54,26.14,24.86,26.48Z" transform="translate(-4.99 -4.99)"></path><path class="cls-4" d="M186.82,119.05a5,5,0,0,1-3,0Z" transform="translate(-4.99 -4.99)"></path><path class="cls-14" d="M159.47,175.85c1-.34,1.94-.88,2.74.32.29.43.5,0,.72-.16,1.46-.84,2.91-1,4.2.27.47.47.64.18,1-.09a3.47,3.47,0,0,1,3.74-.51c1.26.51,1.28,1.76,1.34,2.88.07,1.43,0,2.87.07,4.3.06,1.2-.68,1.13-1.49,1.12s-1.54,0-1.44-1.17,0-2.35,0-3.53c0-.63-.09-1.28-.88-1.39s-1.23.4-1.44,1.09a10.67,10.67,0,0,0-.15,3.65c0,1.08-.31,1.39-1.39,1.38s-1.62-.23-1.5-1.44a26.61,26.61,0,0,0,0-3.22c0-.69-.14-1.41-1-1.47s-1.3.56-1.4,1.33a25.37,25.37,0,0,0-.14,2.9c0,1.95,0,1.95-1.92,1.87a1.32,1.32,0,0,1-1-.29C159.48,181.08,159.47,178.46,159.47,175.85Z" transform="translate(-4.99 -4.99)"></path><path class="cls-14" d="M158.76,183.68c-2.12.73-2.83.47-3.68-1.45a1,1,0,0,0-1-.68,12.56,12.56,0,0,1-1.84,0,1.41,1.41,0,0,0-1.75,1.2,2.29,2.29,0,0,1-2.92,1.2c-.5-.26-.23-.6-.12-.91,1.14-3.16,2.32-6.32,3.43-9.49.53-1.5,1.73-.64,2.61-.82a1.24,1.24,0,0,1,1.61.92c1,2.81,1.87,5.69,3.18,8.4A4,4,0,0,0,158.76,183.68Zm-5.85-8.51c-.44,1.37-.77,2.37-1.1,3.38-.17.51-.17.81.53.89,1.59.17,1.8,0,1.37-1.55C153.49,177.12,153.25,176.35,152.91,175.17Z" transform="translate(-4.99 -4.99)"></path><path class="cls-14" d="M152.41,211.39c-1.23,0-2.46,0-3.67-.1a1.51,1.51,0,0,1-1.07-2.37c.3-.49.6-.17.91-.08a6.08,6.08,0,0,0,2.57.33c.56-.08,1.15-.24,1.2-1a1.09,1.09,0,0,0-.86-1.12l-1.15-.42c-2.68-.91-3.28-1.92-2.79-4.72,1.58-2,4.33-2.64,7.3-1.55l0,0c-.05,1.3-.05,2.53-2.05,1.84-.77-.26-2.11-.37-2.33.78s1.07,1.12,1.83,1.39c1.43.51,2.79,1,3.06,2.82C155.63,209.2,154.87,210.32,152.41,211.39Z" transform="translate(-4.99 -4.99)"></path><path class="cls-14" d="M156.27,189.09l-1.59-.46a3.19,3.19,0,0,0-3.6,1,3.64,3.64,0,0,0-.41,4,3.12,3.12,0,0,0,3.14,1.77,9,9,0,0,0,1.37-.13c.6-.11,1.28-.63,1.37.6.06.91.14,1.6-1.09,1.68a14.07,14.07,0,0,1-2.9.13c-3.59-.5-5.54-2.81-5.27-6.27.25-3.31,2.59-5.33,6.13-5.28.31,0,.62,0,.92.06C156.73,186.54,156.73,186.55,156.27,189.09Z" transform="translate(-4.99 -4.99)"></path><path class="cls-14" d="M198.52,206.55c.28-.88.61-1.74.83-2.63.17-.68.44-1,1.22-1.06,1.88-.06,2,0,1.3,1.75-1,2.62-1.94,5.27-3,7.86A3.32,3.32,0,0,1,195,214.8c-.72-.06-1.22-.22-1-1.08.12-.57-.18-1.32,1-1.24,1.38.1,1.76-.64,1.25-2-.75-2-1.57-4-2.27-6-.17-.47-.94-1.09-.06-1.55a2.3,2.3,0,0,1,2.74.8c.2.52.36,1.06.54,1.59a9.49,9.49,0,0,0,.83,2.6A1.78,1.78,0,0,0,198.52,206.55Z" transform="translate(-4.99 -4.99)"></path><path class="cls-14" d="M210.75,179.64c0-.92,0-1.84,0-2.76,0-.45-.31-1.22.4-1.27s1.65-.65,2.11.44c.29.66.49.17.75,0,2.92-1.66,5.19-.38,5.28,3,0,1.32,0,2.65,0,4s-.8.92-1.46.93-1.5.25-1.44-1,0-2.45,0-3.67c0-.78-.28-1.44-1.21-1.47a1.35,1.35,0,0,0-1.45,1.3,23.45,23.45,0,0,0-.13,3.65c.06,1.18-.58,1.18-1.43,1.17s-1.54.1-1.44-1.13c.1-1.06,0-2.14,0-3.21Z" transform="translate(-4.99 -4.99)"></path><path class="cls-14" d="M166.61,193.34c0-.76-.05-1.54,0-2.29s-.43-1.54.44-1.72c.69-.14,1.7-.63,2.21.53.25.54.47,0,.65-.12,2.89-1.69,5.21-.39,5.25,3,0,1.33,0,2.66,0,4,.05,1.13-.73.9-1.34.88s-1.54.33-1.49-.91,0-2.35,0-3.52c0-.8-.24-1.61-1.24-1.62s-1.33.57-1.51,1.43a14.06,14.06,0,0,0-.17,3.66c0,1.21-.76.95-1.43,1s-1.47.14-1.39-1S166.61,194.42,166.61,193.34Z" transform="translate(-4.99 -4.99)"></path><path class="cls-14" d="M163.48,203.43a4.64,4.64,0,0,1,1.43,5.37,3.91,3.91,0,0,1-3.47,2.59,4.82,4.82,0,0,1-5.28-2.46,5.33,5.33,0,0,1,.85-5l.3-.28A6.14,6.14,0,0,1,163.48,203.43Zm-1.17,3.64c-.05-1.12-.33-2.13-1.7-2.27-1.05-.1-1.75.8-1.78,2.19,0,1.55.57,2.39,1.74,2.34C162,209.28,162.24,208.24,162.31,207.07Z" transform="translate(-4.99 -4.99)"></path><path class="cls-14" d="M209.3,180.82c0,.57,0,1.13,0,1.69s.43,1.16-.2,1.37-1.71.27-1.89,0c-.62-1.05-1-.26-1.56-.05a3.33,3.33,0,0,1-3.47-.38,2.44,2.44,0,0,1-.79-2.64,2.65,2.65,0,0,1,2.43-2c.65-.1,1.31-.12,2-.18.28,0,.66.13.71-.32s-.23-.55-.52-.68a3.91,3.91,0,0,0-2.55-.05c-.36.08-.91.64-1-.22-.09-.52-.32-1.11.32-1.51,1.06-.66,4.47-.48,5.47.31a2.86,2.86,0,0,1,1.11,2.26c0,.82,0,1.64,0,2.45Zm-3.85-.68c-.56.18-1.42.12-1.44,1.12a.86.86,0,0,0,1,.87,1.5,1.5,0,0,0,1.53-1.42C206.61,180.06,206,180.2,205.45,180.14Z" transform="translate(-4.99 -4.99)"></path><path class="cls-14" d="M158.44,191.47c-.52-1.52.1-2.12,1.57-2.36,3.63-.59,5.32.78,5.32,4.45,0,.92,0,1.84,0,2.75,0,.42.31,1.06-.29,1.19s-1.71.41-2-.14c-.47-.91-.7-.3-1.05-.08a3.26,3.26,0,0,1-3.49.05A2.35,2.35,0,0,1,157.3,195a2.46,2.46,0,0,1,1.52-2.29,6.65,6.65,0,0,1,2.54-.46c.39,0,1.08.32,1.14-.3s-.64-.82-1.21-.9A7.66,7.66,0,0,0,158.44,191.47Zm3.24,2.4c-.78,0-1.58,0-1.7,1-.09.71.46,1,1.1.94a1.51,1.51,0,0,0,1.48-1.32C162.73,193.63,162,194,161.68,193.87Z" transform="translate(-4.99 -4.99)"></path><path class="cls-14" d="M179.65,180.61c-.51,0-1,0-1.53,0-.33,0-.8-.16-.93.25s.27.75.62.93a3.75,3.75,0,0,0,2.83.13c.34-.08,1-.71,1,.17.06.57.35,1.3-.54,1.7a4.78,4.78,0,0,1-6.93-4.75c.2-2.48,2.12-3.9,4.88-3.62a4,4,0,0,1,3.39,4.37c0,.59-.27.82-.84.81s-1.32,0-2,0ZM178.4,179c.41-.37,1.35.43,1.41-.57,0-.74-.59-1.13-1.34-1.14a1.21,1.21,0,0,0-1.38,1.13C177.07,179.36,178,178.69,178.4,179Z" transform="translate(-4.99 -4.99)"></path><path class="cls-14" d="M183.46,208c-.56,0-1.12,0-1.68,0-.31,0-.8-.19-.86.34s.28.64.6.81a3.82,3.82,0,0,0,2.82.16c.33-.07.91-.73,1,.12.08.54.33,1.22-.37,1.66-1.27.77-4.56.37-5.81-.74a4.79,4.79,0,0,1-1-5.37,4.23,4.23,0,0,1,4.78-2.18,4.12,4.12,0,0,1,3.13,4.59c-.12.56-.44.61-.87.61-.62,0-1.23,0-1.84,0Zm-1.31-1.64c.35-.46,1.3.41,1.36-.59.05-.74-.57-1.13-1.34-1.13a1.25,1.25,0,0,0-1.38,1.13C180.78,206.64,181.65,206,182.15,206.34Z" transform="translate(-4.99 -4.99)"></path><path class="cls-14" d="M191.28,195.33c.32,2.08.32,2.08-1.64,2.38-3.91.6-6.5-2-5.63-5.6a4.09,4.09,0,0,1,4.8-3.05,4,4,0,0,1,3.33,4.44c0,.61-.29.78-.85.78-1.18,0-2.35,0-3.53,0-.31,0-.79-.22-.88.31s.28.62.57.84a3,3,0,0,0,2.22.28A10.47,10.47,0,0,0,191.28,195.33Zm-3.07-2.65c.35-.41,1.33.42,1.33-.63a1.24,1.24,0,0,0-1.41-1.12c-.74,0-1.36.42-1.33,1.18C186.84,193,187.69,192.41,188.21,192.68Z" transform="translate(-4.99 -4.99)"></path><path class="cls-14" d="M188,207.29c-.21-.86.68-2.38-1.37-2.45-.38,0-.25-.7-.26-1.1s.13-.85.67-.82c.84.05,1-.38,1-1.12s1.86-1.77,2.44-1.47.29.92.28,1.38c0,.78.09,1.32,1.07,1.19.83-.1.83.48.85,1.09s-.21,1.07-1,1-1,.29-.94,1,0,1.54,0,2.3.34,1.28,1.07,1.21c1.08-.11.79.61.86,1.16.09.79-.47.75-1,.79C188.8,211.7,188,210.79,188,207.29Z" transform="translate(-4.99 -4.99)"></path><path class="cls-14" d="M180.89,197.84c-1.88-.18-3.48-.64-4.28-2.39a4.36,4.36,0,0,1,.44-4.77,4.84,4.84,0,0,1,4.84-1.57c1,.16,1.15.69,1.05,1.6-.13,1.11-.73.64-1.29.54a2,2,0,0,0-2.14.83,2.17,2.17,0,0,0-.11,2.45,2.3,2.3,0,0,0,2.52,1c.43-.06,1.1-.49,1.14.42,0,.64.36,1.51-.78,1.65C181.77,197.68,181.27,197.78,180.89,197.84Z" transform="translate(-4.99 -4.99)"></path><path class="cls-14" d="M198.34,184.08c-1.88,0-3.44-.63-4.21-2.44a4.35,4.35,0,0,1,.68-4.87c1.34-1.5,3.13-1.54,5-1.24,1,.15.76.86.72,1.53-.05,1-.61.64-1.16.56-1.59-.22-2.58.53-2.66,2a2.16,2.16,0,0,0,2.4,2.33c.63,0,1.61-.78,1.6.83,0,1.4-.89,1.23-1.71,1.34C198.76,184.1,198.55,184.08,198.34,184.08Z" transform="translate(-4.99 -4.99)"></path><path class="cls-14" d="M172.53,209c.35,2.18.21,2.35-1.86,2.4s-3.57-.52-4.45-2.36a4.3,4.3,0,0,1,.49-4.76c1.25-1.59,3-1.75,4.88-1.5.94.12,1,.65.95,1.52s-.45.79-1.08.65a2,2,0,0,0-2.42.85,2.2,2.2,0,0,0,0,2.47,2.29,2.29,0,0,0,2.43.92C171.84,209.19,172.18,209.11,172.53,209Z" transform="translate(-4.99 -4.99)"></path><path class="cls-14" d="M183.49,179.76V177c0-1.33,1.31-2.21,2.25-1.36.75.68,1,.4,1.57,0a1.72,1.72,0,0,1,1.76-.15c.6.32.21,1,.24,1.55s-.16.81-.8.79c-1.61,0-2.09,1-2.12,2.4a12,12,0,0,0,0,2c.2,1.45-.43,1.87-1.79,1.77-.86-.06-1.18-.32-1.13-1.19s0-2,0-3.06Z" transform="translate(-4.99 -4.99)"></path><path class="cls-14" d="M194.58,197.55c-1.17.29-1.37-.32-1.34-1.33.06-1.88,0-3.77,0-5.65,0-.45-.32-1.16.42-1.27s1.64-.43,2,.21.53.43.89.11a2.16,2.16,0,0,1,1.37-.59c.55,0,1.28-.12,1.13.76-.1.61.53,1.67-.84,1.68s-2.05,1-2.15,2.28a13.26,13.26,0,0,0,0,2.44C196.19,197.38,195.7,197.77,194.58,197.55Z" transform="translate(-4.99 -4.99)"></path><path class="cls-15" d="M163.48,203.43a6.16,6.16,0,0,0-6.17.26h0c.13-1.08-.75-.92-1.33-1-.38-.05-.45.36-.4.68.12.83.76.64,1.31.62l.15,0v0a5.33,5.33,0,0,0-.85,5,1.43,1.43,0,0,0-.67.76,2.56,2.56,0,0,1-3.08,1.7c2.46-1.07,3.22-2.19,2.93-4.18-.27-1.8-1.63-2.31-3.06-2.82-.76-.27-2.05-.26-1.83-1.39s1.56-1,2.33-.78c2,.69,2-.54,2.05-1.84.94.61,1.25,2,2.76,2,.32,0,.67.24,1.14.06,1.32-.51,2.73-.22,4.09-.2C163.53,202.24,163.34,203,163.48,203.43Z" transform="translate(-4.99 -4.99)"></path><path class="cls-14" d="M193,179.77c0,.87,0,1.73,0,2.6,0,1.49-.93,2.09-2.34,1.57-.47-.17-.45-.49-.45-.84,0-2.25,0-4.5,0-6.74,0-1.13.82-.83,1.41-.83s1.42-.23,1.4.87S193,178.64,193,179.77Z" transform="translate(-4.99 -4.99)"></path><path class="cls-14" d="M173.9,207.06a16.67,16.67,0,0,0,0-2.45c-.22-1.49.47-1.83,1.79-1.75.81,0,1.05.34,1,1.11,0,2.1-.07,4.2,0,6.29,0,1.17-.69,1-1.4,1s-1.51.22-1.42-1S173.9,208.13,173.9,207.06Z" transform="translate(-4.99 -4.99)"></path><path class="cls-14" d="M175.13,199.45c.89,0,1.58-.19,1.6,1s-.53,1.23-1.39,1.17-1.49.21-1.47-1.07S174.53,199.39,175.13,199.45Z" transform="translate(-4.99 -4.99)"></path><path class="cls-14" d="M191.56,174.26c-.85.12-1.35-.1-1.39-1.19,0-1.35.86-.94,1.52-1s1.43-.22,1.37,1S192.51,174.38,191.56,174.26Z" transform="translate(-4.99 -4.99)"></path><path class="cls-15" d="M154.85,200.4c-3-1.09-5.72-.5-7.3,1.55-.16-.88.27-1.34,1-1.8,2-1.25,4-.81,6-.25C154.7,199.94,154.76,200.23,154.85,200.4Z" transform="translate(-4.99 -4.99)"></path><path class="cls-12" d="M158.76,183.68a4,4,0,0,1-.52-1.64c1,0,.9,0,1-1.55s-.37-3.13.25-4.64c0,2.61,0,5.23,0,7.84Z" transform="translate(-4.99 -4.99)"></path><path class="cls-5" d="M198.52,206.55a1.78,1.78,0,0,1-.53,1.36,9.49,9.49,0,0,1-.83-2.6C198,205.35,197.68,206.56,198.52,206.55Z" transform="translate(-4.99 -4.99)"></path><path class="cls-16" d="M127.82,163.48l1-2.3a10.94,10.94,0,0,1,1.53,4.82q0,17.17,0,34.35c-.63.26-.94,1.32-1.87.82a2.34,2.34,0,0,1-1.05-2.34,25,25,0,0,0-.1-4.66v-.56c0-.45.11-.9.11-1.36q0-12.5,0-25A12.37,12.37,0,0,1,127.82,163.48Z" transform="translate(-4.99 -4.99)"></path><path class="cls-16" d="M124.21,208.28c-.81-1.48.34-2.19,1.2-3a57.14,57.14,0,0,0,5.89-4.86h0l.34-.29h0l.3-.24.08,0a1.21,1.21,0,0,0,.81-.7,1.77,1.77,0,0,0,.51-.32c.32-.4,1.2-.61.8-1.26s-.91,0-1.37.17-1,.31-1.28-.1.12-.77.36-1.05c.76-.84-.33-1.37-.31-2.07,3.08-.86,5.1,0,5.67,2.45a3.14,3.14,0,0,1-1.12,3.4q-2.16,1.78-4.3,3.59c-1.66,1.32-3.37,2.58-5,4A2,2,0,0,1,124.21,208.28Z" transform="translate(-4.99 -4.99)"></path><path class="cls-16" d="M125.12,203.36c-1-.86-2-1.72-3-2.56-1.69-1.38-2.1-2.45-1.58-4.21s1.36-2.19,3.65-2.37c.51.51,2.1-.69,1.78,1.13v0c-.55.38-.53.77,0,1.15a.1.1,0,0,0,.09.12c0,.41.41.74.26,1.19a4.43,4.43,0,0,1-1.65-.2c-.38-.1-.89-.62-1.2,0s.31.69.59.93c1,.82,1.94,1.61,2.91,2.41.19.51,1.37.69.79,1.34S126.43,204.18,125.12,203.36Z" transform="translate(-4.99 -4.99)"></path><path class="cls-16" d="M131.87,204.71c.83-.07,1.62-.12,1.87,1a1.78,1.78,0,0,1-.89,2.12c-.62.42-1.4.79-1.64,1.64-1.51.49-2.46,1.75-3.64,2.68a1.92,1.92,0,0,1-2.73.12c0-.54,0-1.09,0-1.64l.3-.37h0Z" transform="translate(-4.99 -4.99)"></path><path class="cls-16" d="M127,216.94c-1.93-.61-2-1.57-.32-3.2,1.16-.9,2.33-1.8,3.48-2.72a2.32,2.32,0,0,1,2.26-.52,1.62,1.62,0,0,1-.22,2.6c-.83.74-1.69,1.44-2.53,2.16C128.65,215.69,128,216.66,127,216.94Z" transform="translate(-4.99 -4.99)"></path><path class="cls-16" d="M129.78,215.91l.15,0c.24,1.49,1.6,2.74,1,4.4-.4,1.11-1.36,1.28-3,.63-.91-2.13-.74-3.23,1-4.18A4.78,4.78,0,0,0,129.78,215.91Z" transform="translate(-4.99 -4.99)"></path><path class="cls-13" d="M125.12,203.36c1.31.82,2-.35,2.6-1s-.6-.83-.79-1.34c.22-.89-.13-1.79.16-2.7.12-.37-.48-.37-.81-.45.15-.45-.21-.78-.26-1.18.39-.21.79.95,1.12,0a2,2,0,0,0,0-1.45c-.32-.59-.73.3-1.15.11.32-1.82-1.27-.62-1.78-1.13.39-.94.9,0,1.36-.06a9.74,9.74,0,0,1,1.79,0,25,25,0,0,1,.1,4.66,2.34,2.34,0,0,0,1.05,2.34c.93.5,1.24-.56,1.87-.82l1,.06a57.14,57.14,0,0,1-5.89,4.86C126.07,204.52,125.6,203.94,125.12,203.36Z" transform="translate(-4.99 -4.99)"></path><path class="cls-13" d="M127.82,163.48a12.37,12.37,0,0,0-.41,3.78q0,12.5,0,25c0,.46-.07.91-.11,1.36a1,1,0,0,1-.51-1.51,4.81,4.81,0,0,0,.39-2.52c0-8,0-15.93,0-23.9C127.22,164.93,126.87,164,127.82,163.48Z" transform="translate(-4.99 -4.99)"></path><path class="cls-13" d="M131.87,204.71l-6.71,5.54c.82-1.2-.87-1.2-1-2a2,2,0,0,0,2.61-.37c1.6-1.39,3.31-2.65,5-4C131.82,204.2,131.84,204.45,131.87,204.71Z" transform="translate(-4.99 -4.99)"></path><path class="cls-13" d="M132.38,210.5a2.32,2.32,0,0,0-2.26.52c-1.15.92-2.32,1.82-3.48,2.72-.17-.46-.56-.52-1-.52-.64,0-.88-.36-.82-1a1.92,1.92,0,0,0,2.73-.12c1.18-.93,2.13-2.19,3.64-2.68-.2.94.25.37.58.29C132.47,209.57,133,209.64,132.38,210.5Z" transform="translate(-4.99 -4.99)"></path><path class="cls-13" d="M129.78,215.91a4.78,4.78,0,0,1-.88.81c-1.71.95-1.88,2.05-1,4.18-.71-.27-.69-.87-.74-1.48-.06-.82.23-1.69-.23-2.48,1.06-.28,1.69-1.25,2.67-1.68Z" transform="translate(-4.99 -4.99)"></path><path class="cls-13" d="M132.83,199.13a1.21,1.21,0,0,1-.81.7c-.07-.32-.15-.64-.22-1Z" transform="translate(-4.99 -4.99)"></path><path class="cls-13" d="M131.63,200.12l-.34.29Z" transform="translate(-4.99 -4.99)"></path><path class="cls-13" d="M125.18,210.24l-.3.37A.35.35,0,0,1,125.18,210.24Z" transform="translate(-4.99 -4.99)"></path><path class="cls-13" d="M131.94,199.88l-.3.24C131.66,199.94,131.76,199.85,131.94,199.88Z" transform="translate(-4.99 -4.99)"></path><path class="cls-2" d="M145.51,128.88a8.93,8.93,0,0,1-1,4.1,4.06,4.06,0,0,1-7.14,0,8.7,8.7,0,0,1-.13-8.23,3.8,3.8,0,0,1,3.74-2.19,4,4,0,0,1,3.75,2.43A9.34,9.34,0,0,1,145.51,128.88Z" transform="translate(-4.99 -4.99)"></path><path class="cls-14" d="M120.66,98.16c.4-.64-.88-2.22,1.19-2.16,2.84.08,4.18.78,4.16,2.31s-1.2,2-3.71,2.25C120.15,100.74,120.74,99.36,120.66,98.16Z" transform="translate(-4.99 -4.99)"></path><path class="cls-14" d="M159.33,124.91c.23-.86-.72-2.4,1.48-2.26,2.59.17,3.89.79,3.89,2.29s-1.23,2.15-3.83,2.33C158.75,127.41,159.46,126,159.33,124.91Z" transform="translate(-4.99 -4.99)"></path><path class="cls-14" d="M178.71,96.6c.75,2.39,1.43,4.56,2.13,6.73.18.53.07.77-.5.76-1.33,0-3.09.45-3.86-.21s.42-2.23.76-3.39A16.76,16.76,0,0,1,178.71,96.6Z" transform="translate(-4.99 -4.99)"></path><path class="cls-14" d="M234.76,143.37a2.51,2.51,0,0,1,3.73.08,3.13,3.13,0,0,1,0,4.06c-1.14,1.23-2.54,1.23-4,0l.27,0c1.63.47.72-1.16,1.27-1.57.92.22.66,2,2,1.59.21-.74-1.2-1.11-.32-1.87a1.26,1.26,0,0,0,.47-1.47c-.23-.75-.91-.76-1.49-.82a3.18,3.18,0,0,0-1.94.24A1.62,1.62,0,0,0,234.76,143.37Z" transform="translate(-4.99 -4.99)"></path><path class="cls-16" d="M234.78,147.49l-.27,0c-1.15-1.55-1.06-3.13.25-4.15a1.62,1.62,0,0,1,0,.22C234.78,144.89,234.78,146.19,234.78,147.49Z" transform="translate(-4.99 -4.99)"></path><path class="cls-15" d="M152.91,175.17c.34,1.18.58,2,.8,2.72.43,1.53.22,1.72-1.37,1.55-.7-.08-.7-.38-.53-.89C152.14,177.54,152.47,176.54,152.91,175.17Z" transform="translate(-4.99 -4.99)"></path><path class="cls-15" d="M162.31,207.07c-.07,1.17-.3,2.21-1.74,2.26-1.17,0-1.77-.79-1.74-2.34,0-1.39.73-2.29,1.78-2.19C162,204.94,162.26,206,162.31,207.07Z" transform="translate(-4.99 -4.99)"></path><path class="cls-15" d="M157.31,203.7l-.3.28v0l.27-.28Z" transform="translate(-4.99 -4.99)"></path><path class="cls-15" d="M205.45,180.14c.52.06,1.16-.08,1.12.57a1.5,1.5,0,0,1-1.53,1.42.86.86,0,0,1-1-.87C204,180.26,204.89,180.32,205.45,180.14Z" transform="translate(-4.99 -4.99)"></path><path class="cls-15" d="M161.68,193.87c.33.11,1-.24.88.59a1.51,1.51,0,0,1-1.48,1.32c-.64,0-1.19-.23-1.1-.94C160.1,193.91,160.9,193.88,161.68,193.87Z" transform="translate(-4.99 -4.99)"></path><path class="cls-15" d="M178.4,179c-.45-.3-1.33.37-1.31-.58a1.21,1.21,0,0,1,1.38-1.13c.75,0,1.38.4,1.34,1.14C179.75,179.42,178.81,178.62,178.4,179Z" transform="translate(-4.99 -4.99)"></path><path class="cls-15" d="M182.15,206.34c-.5-.31-1.37.3-1.36-.59a1.25,1.25,0,0,1,1.38-1.13c.77,0,1.39.39,1.34,1.13C183.45,206.75,182.5,205.88,182.15,206.34Z" transform="translate(-4.99 -4.99)"></path><path class="cls-15" d="M188.21,192.68c-.52-.27-1.37.35-1.41-.57,0-.76.59-1.16,1.33-1.18a1.24,1.24,0,0,1,1.41,1.12C189.54,193.1,188.56,192.27,188.21,192.68Z" transform="translate(-4.99 -4.99)"></path><path class="cls-6" d="M157.27,203.68,157,204l-.15,0c-.55,0-1.19.21-1.31-.62,0-.32,0-.73.4-.68C156.52,202.76,157.4,202.6,157.27,203.68Z" transform="translate(-4.99 -4.99)"></path><path class="cls-8" d="M126.28,197.83c.33.08.93.08.81.45-.29.91.06,1.81-.16,2.7-1-.8-2-1.59-2.91-2.41-.28-.24-.83-.45-.59-.93s.82-.11,1.2,0A4.43,4.43,0,0,0,126.28,197.83Z" transform="translate(-4.99 -4.99)"></path><path class="cls-8" d="M125.94,195.35c.42.19.83-.7,1.15-.11a2,2,0,0,1,0,1.45c-.33.91-.73-.25-1.12,0a.12.12,0,0,1-.09-.13v-1.17Z" transform="translate(-4.99 -4.99)"></path><path class="cls-13" d="M125.93,195.37v1.15C125.4,196.14,125.38,195.75,125.93,195.37Z" transform="translate(-4.99 -4.99)"></path><path class="cls-12" d="M234.78,147.49c0-1.3,0-2.6,0-3.9a3.18,3.18,0,0,1,1.94-.24c.58.06,1.26.07,1.49.82a1.26,1.26,0,0,1-.47,1.47c-.88.76.53,1.13.32,1.87-1.34.38-1.08-1.37-2-1.59C235.5,146.33,236.41,148,234.78,147.49Z" transform="translate(-4.99 -4.99)"></path></svg> 