<?xml version="1.0" encoding="UTF-8"?> <svg xmlns="http://www.w3.org/2000/svg" id="Layer_1" data-name="Layer 1" viewBox="0 0 354.51 196.42"><defs><style>.cls-1{fill:#f1e3ca;}.cls-2{fill:#fcfcfc;}.cls-3{fill:#303676;}.cls-4{fill:#fefefe;}.cls-5{fill:#47a353;}.cls-6{fill:#c1ddd5;}.cls-7{fill:#1891c1;}.cls-8{fill:#f7b72f;}.cls-9{fill:#16a750;}.cls-10{fill:#f5b630;}.cls-11{fill:#4aa465;}.cls-12{fill:#64546f;}.cls-13{fill:#c53f36;}.cls-14{fill:#d87242;}.cls-15{fill:#d5683f;}.cls-16{fill:#c44036;}.cls-17{fill:#f5ee57;}.cls-18{fill:#874838;}.cls-19{fill:#c34837;}.cls-20{fill:#313777;}.cls-21{fill:#db8046;}.cls-22{fill:#da7c45;}.cls-23{fill:#d66b40;}.cls-24{fill:#d97744;}.cls-25{fill:#d87142;}.cls-26{fill:#313776;}.cls-27{fill:#313676;}.cls-28{fill:#343876;}.cls-29{fill:#dc8548;}.cls-30{fill:#de914a;}.cls-31{fill:#dd8b49;}.cls-32{fill:#e09c4d;}.cls-33{fill:#e8ba53;}.cls-34{fill:#e2a54e;}.cls-35{fill:#e0964b;}.cls-36{fill:#e5ac50;}.cls-37{fill:#e6b251;}.cls-38{fill:#eac154;}.cls-39{fill:#191717;}.cls-40{fill:#dc8848;}.cls-41{fill:#e19f4e;}.cls-42{fill:#de8d4a;}.cls-43{fill:#df944b;}.cls-44{fill:#e0994c;}.cls-45{fill:#e3a74f;}.cls-46{fill:#e5ad50;}.cls-47{fill:#e6b351;}.cls-48{fill:#e9c054;}.cls-49{fill:#ecc756;}.cls-50{fill:#69643f;}</style></defs><path class="cls-1" d="M164.05,195.83a53.76,53.76,0,0,1,3-13.32,56.22,56.22,0,0,1,8.41-14.93,71.87,71.87,0,0,1,8.95-9.91,85.9,85.9,0,0,1,14.91-10.86A84.33,84.33,0,0,1,223.94,137a74.93,74.93,0,0,1,11.66-1.66c2.55-.17,5.09-.13,7.64-.17,1.35,0,2.69.36,4,.23.44.3,1,0,1.44.22a83.33,83.33,0,0,1,42.36,17.16A78,78,0,0,1,302.67,164a84.1,84.1,0,0,1,11.44,17.56,77.26,77.26,0,0,1,5.33,14.19c.24.92.66,1.09,1.49,1.09,8.39,0,16.79,0,25.18,0,.26,2.41,0,4.83.12,7.25a20.75,20.75,0,0,0,.12,3.78h0a2.37,2.37,0,0,0,1.29.12h25a2.83,2.83,0,0,1,1.29.11c0,4.79,0,9.58,0,14.37,0,1,.32,1.25,1.29,1.25q20.94,0,41.89,0a2.37,2.37,0,0,1,.12,1.29q0,52.67,0,105.34a2.46,2.46,0,0,1-.11,1.29H64.46c-1.6,0-1.6,0-1.6-1.62V223.6c0-1.63,0-1.63,1.6-1.63,9.63,0,19.27,0,28.9,0,4.18,0,8.36.24,12.54-.17.31-4.14,0-8.29.13-12.43a4.71,4.71,0,0,0,0-.84c-.15-1,.28-1.21,1.21-1.2,8.43,0,16.86,0,25.3,0,1.05,0,1.36-.26,1.34-1.33-.07-3.24,0-6.48,0-9.71a2.28,2.28,0,0,1,1.29-.13h27.5C163.12,196.18,163.7,196.41,164.05,195.83Z" transform="translate(-62.86 -135.16)"></path><path class="cls-2" d="M417.1,331.57q0-54,0-107.92c.41.34.24.81.24,1.23q0,52.72,0,105.45C417.33,330.75,417.5,331.22,417.1,331.57Z" transform="translate(-62.86 -135.16)"></path><path class="cls-2" d="M164.05,195.83c-.19.8-.84.45-1.28.45q-13.68,0-27.37,0l-1.55,0c.39-.44.9-.25,1.36-.25h27.33A2.63,2.63,0,0,0,164.05,195.83Z" transform="translate(-62.86 -135.16)"></path><path class="cls-2" d="M373.93,208.05H347.72c-.46,0-1,.18-1.37-.23h26.22C373,207.82,373.53,207.64,373.93,208.05Z" transform="translate(-62.86 -135.16)"></path><path class="cls-2" d="M346.35,207.81c-.39-.35-.22-.82-.23-1.24q0-4.89,0-9.79c.39.36.23.82.23,1.24C346.35,201.28,346.35,204.55,346.35,207.81Z" transform="translate(-62.86 -135.16)"></path><path class="cls-2" d="M248.73,135.61c-.49-.05-1,.19-1.44-.22C247.77,135.46,248.3,135.2,248.73,135.61Z" transform="translate(-62.86 -135.16)"></path><path class="cls-3" d="M240,327.55q-85.72,0-171.47,0c-1.19,0-1.58-.21-1.58-1.51q.06-49.29,0-98.57c0-1.23.31-1.48,1.5-1.48,13.47.05,26.94,0,40.41.06,1,0,1.35-.17,1.33-1.28-.08-4.08,0-8.15-.06-12.23,0-1.05.31-1.22,1.27-1.22,8.43,0,16.87,0,25.3,0,1.08,0,1.33-.29,1.3-1.33-.07-2.91,0-5.83,0-8.75,0-.93.28-1.11,1.15-1.11,8.43,0,16.87,0,25.3,0,1,0,1.64-.09,1.41-1.31-.1-.49.1-.8.66-.6,1.19.44,1.37-.25,1.5-1.2.8-6.28,2.14-12.42,5.11-18.1a66.63,66.63,0,0,1,15.26-19.22,81.14,81.14,0,0,1,37.92-19.17,72.07,72.07,0,0,1,41.19,3.49c25.86,10,42,28.78,48.9,55.53.25,1,.6,1.17,1.51,1.17,7.75,0,15.51,0,23.26,0,.94,0,1.21.25,1.19,1.19-.06,2.84,0,5.68-.05,8.51,0,1.12.21,1.47,1.41,1.47,8.31-.07,16.63,0,24.94-.06,1.12,0,1.38.3,1.37,1.38-.06,4.36,0,8.72-.05,13.07,0,1.05.2,1.41,1.35,1.4,13.47,0,26.94,0,40.41-.05,1.21,0,1.58.24,1.58,1.53q-.06,48.39,0,96.77c0,1.55,0,1.55-1.53,1.55Z" transform="translate(-62.86 -135.16)"></path><path class="cls-4" d="M129.74,245.9,110,250.54c1.34-4.29,1.9-8.6,2.91-12.82a18.63,18.63,0,0,1,.63-2.05,3.68,3.68,0,0,1,3.65-2.67,155.33,155.33,0,0,0,39-7.51c2.86-.93,5.9-1.22,9-2.52-.62,1.51-1.12,2.74-1.64,4-1.23,2.94-2.49,5.87-3.69,8.82a2.18,2.18,0,0,1-1.27,1.3c-5.14,2.16-10.27,4.35-15.42,6.5a1.85,1.85,0,0,0-1.24,1.53q-6.37,30.51-12.82,61c-.43,2.06-.88,4.13-1.26,6.2-.15.83-.43,1.18-1.37,1.17q-8.82-.07-17.63,0c-1.07,0-1.26-.2-.91-1.24q6.65-20.08,13.24-40.18,4.14-12.61,8.3-25.21C129.58,246.57,129.63,246.32,129.74,245.9Z" transform="translate(-62.86 -135.16)"></path><path class="cls-4" d="M190.4,224.1c-1.1,4.36-2.21,8.72-3.29,13.08-3.05,12.38-5.91,24.81-9.19,37.13-1.78,6.69-6.2,11.61-12.28,15-7.33,4-14.92,4-22.68,1.42a41.51,41.51,0,0,1-4.64-1.91.89.89,0,0,1-.6-1.11c1.5-8.19,3.1-16.36,5.12-24.45a2.85,2.85,0,0,1,.18-.46l2.4,2.12a40,40,0,0,0,5.85,4.35,11.13,11.13,0,0,0,7.31,1.71,6.73,6.73,0,0,0,5.24-3.55,32.24,32.24,0,0,0,3.1-9.76c1.89-9.94,3.66-19.92,5.54-29.87.63-3.32,1.47-6.61,2.2-9.92a.93.93,0,0,1,1.13-.87,22.43,22.43,0,0,0,4.41-.17,6.49,6.49,0,0,1,2.32-.61,24.47,24.47,0,0,0,2.9-.7c2-.63,4-1.31,6-2,1.62-.55,1.84-.36,1.52,1.34-.35,1.34-.68,2.68-1,4-.27,1-.56,2.06-.74,3.12C191,222.7,191,223.52,190.4,224.1Z" transform="translate(-62.86 -135.16)"></path><path class="cls-5" d="M182.54,216.44a7.43,7.43,0,0,1-2.34.36,69.4,69.4,0,0,1,7.9-34.93,56.29,56.29,0,0,1,11.22-15.12A55.09,55.09,0,0,1,226,152.9a60.83,60.83,0,0,1,16.88-1A59.25,59.25,0,0,1,259.32,155a51,51,0,0,1,16.26,9.68,61,61,0,0,1,20.69,39.18,73.92,73.92,0,0,1,.39,11.71,57,57,0,0,1-.86,7.7c-.13.71-.43.81-1,.81q-14.5,0-29,0c0-.41.31-.56.59-.67,1.16-.48,2-1.52,3.15-1.95a17.17,17.17,0,0,1,2.27-.06h20c1.51,0,1.56,0,1.75-1.47,2.12-15.21-.86-29.27-9.7-41.9a53.56,53.56,0,0,0-19.11-17.11,50.55,50.55,0,0,0-12.48-4.48c-1-.21-1.33.22-1.57,1a111.47,111.47,0,0,1-6.09,12.89c-.83,1.5-.59,1.86,1.15,1.92a55.78,55.78,0,0,1,7.42.26,10.47,10.47,0,0,1,6.59,3.33,4.5,4.5,0,0,1,1.08,2.1c.11.59-.16.84-.75.7a4.83,4.83,0,0,1-.88-.37,20.88,20.88,0,0,0-6.64-1.94,12.09,12.09,0,0,0-5.06.72c-.8.28-.86.71-.2,1.32a40,40,0,0,0,3.54,2.67,24.51,24.51,0,0,1,5.77,5.36,7.83,7.83,0,0,1,1.78,5.34c0,.35,0,.8-.38.93s-.64-.26-.83-.54c-3-4.45-7.3-7.3-11.67-10.12a2.94,2.94,0,0,0-.53-.27c-.29-.12-.61-.33-.91-.13s-.19.66-.11,1a39.81,39.81,0,0,1,1.39,6.8c.07,1.09-.15,2.14-.15,3.21a12.08,12.08,0,0,1-1.93,5.07c-.17.24-.33.62-.71.51s-.36-.49-.37-.8a32.67,32.67,0,0,0-.25-4.74,19.26,19.26,0,0,0-1.81-9,8.26,8.26,0,0,0-1.76-2.68,1.34,1.34,0,0,0-1.92-.17,7.08,7.08,0,0,0-3,4.17,35.07,35.07,0,0,0-1.64,7.84,1.41,1.41,0,0,1-.24.79c-1.65,0-2.45-1-1.77-2.44a1.07,1.07,0,0,0-.14-1.41,1.26,1.26,0,0,1-.19-1.73.71.71,0,0,0-.25-1.11c-.46-.28-.79-.23-.75.39.1,1.64-.27,3.25-.27,4.89a63.16,63.16,0,0,1-1.38,11.87,10.4,10.4,0,0,1-1.15,2.88c-.39.74-.14,1,.65,1a62.89,62.89,0,0,0,7.63-.58c.5,0,1-.27,1.42.27-.22.53-.75.56-1.19.68a55.61,55.61,0,0,1-11.11,1.72c-.6,0-1.29.19-1.74-.46-.05-.58.41-.84.75-1.15a9.6,9.6,0,0,0,3.12-7.09c.24-4.84.23-9.71,1.22-14.49a15.19,15.19,0,0,1,4.87-8.73c.58-.52,1.41-1.17.95-2.12s-1.5-.81-2.36-.71c-1.66.18-3.33.29-5,.55a4.38,4.38,0,0,1-1,.1c-.31,0-.69,0-.82-.36s.17-.59.41-.8a16.22,16.22,0,0,1,4.67-2.65c.49-.19,1.26-.12,1.34-.79s-.57-.9-1-1.26a16.78,16.78,0,0,0-5.78-2.8c-.58-.19-1.25-.25-1.62-.85a1.16,1.16,0,0,1,1.11-.43c4.39-.16,8.51.6,11.93,3.63.5.45.77.37.8-.31.16-3.3.12-6.51-1.89-9.43-1.21-1.77-3-2.75-4.65-3.85-.71-.47-1.46.16-2.2.25a51.06,51.06,0,0,0-24.46,12.23c-10.72,9.75-16.36,22.12-18.48,36.29-.38,2.5-.32,5-.66,7.51a7.72,7.72,0,0,0,.13,1.91A2.79,2.79,0,0,1,182.54,216.44Z" transform="translate(-62.86 -135.16)"></path><path class="cls-4" d="M292.69,292.73a168.47,168.47,0,0,0,.6-17.69c-.06-2.71-.12-5.43-.22-8.14,0-.66.14-.9.85-.89q9.65,0,19.3,0c.73,0,.95.24,1,.95.14,1.83.3,3.66.57,5.47.13.87-.15.94-.86.82a86,86,0,0,0-10.13-.89c-.75,0-1.1.11-1.05,1,.06,1.11.05,2.23,0,3.35,0,.7.24.89.91.86,2.63-.08,5.27-.12,7.9-.2.62,0,.9.12,1,.82q.42,2.84,1.05,5.64c.17.78-.08.89-.75.86-3.11-.15-6.22-.23-9.33-.44-.83,0-.91.16-.88.89.11,2.67.11,5.34.24,8,0,.76-.21.85-.85.85-2.75,0-5.53.22-8.26-.07-3.36-.35-6.65.13-10,.22-.63,0-1-.08-1.21-.77-.37-1.26-.89-2.48-1.3-3.72a1.12,1.12,0,0,0-1.2-.91q-3.71,0-7.43,0a1.1,1.1,0,0,0-1.18.92c-.38,1.26-.82,2.5-1.26,3.74-.1.31-.12.75-.64.72l-8.92-.4c1.49-3.18,2.94-6.23,4.36-9.3q4-8.5,7.43-17.23a1.49,1.49,0,0,1,1.74-1.16,30.63,30.63,0,0,0,3.95,0,1.58,1.58,0,0,1,1.71,1.08q6.21,12.54,12.49,25C292.47,292.32,292.58,292.53,292.69,292.73Z" transform="translate(-62.86 -135.16)"></path><path class="cls-6" d="M221.38,209.49c1.28.5,2.56.07,3.84,0a41,41,0,0,0,10.11-1.88,1,1,0,0,1,.66-.39,84.67,84.67,0,0,1,11.33-2.65,70.48,70.48,0,0,1,14.26-1.38c2.7.06,5.44.21,7.9,1.58a10.15,10.15,0,0,1,2.93,2.76,11,11,0,0,1,1.74,4,3.37,3.37,0,0,1,.09.77c0,.94,0,1.88,0,2.82a9.37,9.37,0,0,1-1.23,3.84,5.39,5.39,0,0,1-1.75,2c-.45.26-.9.71-1.49.29,0-.86.69-1.42,1.05-2.11a11,11,0,0,0,.71-9.15,4.88,4.88,0,0,0-6.2-3.22,33.83,33.83,0,0,0-4.57,1.79c-.46.18-.47.38-.16.79a2.58,2.58,0,0,1-.07,3.48,4.36,4.36,0,0,1-1.27,1.07c-2.21,1.35-2.51,1-3.52-.54-.86-1.34-2.29-1.62-3.74-1.84a24,24,0,0,0-7.92.51c1,.85,1.46,1.82.77,2.94a3.22,3.22,0,0,1-3,1.55,1.64,1.64,0,0,1-1-.31,8.83,8.83,0,0,0-6.53-1.81,26.42,26.42,0,0,0-7.75,1.64c.86.62,1.68,1,2.39,1.55,1,.74,2,1.58,1.78,2.91a3.68,3.68,0,0,1-2.4,2.65,5.85,5.85,0,0,1-2.18.6c-1.57.1-3.14.24-4.71.37a28.79,28.79,0,0,0-6.77,1.26,12,12,0,0,1-10.5-1.26,4.89,4.89,0,0,1-2.39-2,10.46,10.46,0,0,1-1.77-3.2,7.51,7.51,0,0,1-.48-2,13.81,13.81,0,0,1,1-6.73,19.15,19.15,0,0,1,1.79-3.34c1.21-1.68,1.26-1.7,3.2-1a33.69,33.69,0,0,0,10.81,3.33A46.13,46.13,0,0,1,221.38,209.49Z" transform="translate(-62.86 -135.16)"></path><path class="cls-4" d="M352.6,246.4q-.27,5.88-.56,11.78c-.14,2.91-.15,2.9-3,2.91-1.48,0-3,0-4.43.06-.74,0-1-.18-.92-.94q.33-5.43.34-10.89c0-4.91-.16-9.81-.54-14.71-.09-1.12.29-1.38,1.28-1.4,1.23,0,2.46-.12,3.7-.07a2.88,2.88,0,0,1,1.74.62,122.59,122.59,0,0,1,12.37,11.3l.63.69c-.14-2-.25-3.62-.39-5.26-.18-2.14-.37-4.29-.6-6.43-.07-.61,0-.86.71-.83,2.79.11,5.59.19,8.38.24.77,0,.76.47.75,1-.08,3.55-.19,7.1-.19,10.66,0,4.9.22,9.81.58,14.7.06.79-.11,1.17-1,1.16-1.27,0-2.55,0-3.82.13-.67.05-1-.36-1.41-.75-4.37-4.33-8.63-8.77-12.73-13.35-.23-.26-.43-.54-.64-.81Z" transform="translate(-62.86 -135.16)"></path><path class="cls-7" d="M226.21,223.43a6.1,6.1,0,0,0,3.32-1.48c1.22-1.22,1.27-2.14.05-3.4a11.82,11.82,0,0,0-3.06-2.08c-.24-.12-.47-.25-.86-.47a26.34,26.34,0,0,1,6-1.66,15.87,15.87,0,0,1,5.95-.07,7.18,7.18,0,0,1,3,1.36,2.76,2.76,0,0,0,4.19-1.27c.28-.92.05-1.31-1.54-2.52,3.7-.74,7.3-1.33,10.93-.17a4.29,4.29,0,0,1,2.34,2.28c.32.57.66.75,1.24.4s1.13-.6,1.66-1c1.95-1.35,2-3.1.07-4.58,2.31-1.1,4.52-2.32,7.05-2.64s5,1.8,5.66,4.83a11.89,11.89,0,0,1-2.57,10.43c.15.06.06-.2.1,0s-.12.17-.22.22a.72.72,0,0,0-.19.11,20.79,20.79,0,0,1-3.59,2.36,59.34,59.34,0,0,1-9.88.52c-3.75,0-7.51-.1-11.26.07-6.1.27-12.2.05-18.3.25-1.95.06-3.9.12-6.11.14,1.19-.43,2.25-.38,3.13-.9A8.92,8.92,0,0,1,226.21,223.43Z" transform="translate(-62.86 -135.16)"></path><path class="cls-4" d="M172.81,287c3.25-.41,6.17-.21,9.08-.37a32.77,32.77,0,0,0,5.24-.42,8,8,0,0,0,4.63-2.78,5.68,5.68,0,0,0,.32-6.9,29.87,29.87,0,0,0-2.92-3.33c-4.35-4.78-3.68-9.78,1.78-13.28a33.48,33.48,0,0,1,5.52-2.59.76.76,0,0,1,.78.05,40.22,40.22,0,0,0,8.64,4.21c-1.31,1-2.55,2-3.77,2.93a7.57,7.57,0,0,0-2,2.34,3.37,3.37,0,0,0,.33,4.11,57,57,0,0,1,3.86,5c3.2,4.85,2.4,9.53-2.38,12.91-3.36,2.39-7.32,3.42-11.23,4.56a7.54,7.54,0,0,1-5.91-.77C180.94,290.76,177,289,172.81,287Z" transform="translate(-62.86 -135.16)"></path><path class="cls-4" d="M310.64,260.84c2.65-5.45,5.15-10.74,7.46-16.11,1.5-3.52,3-7,4.44-10.57.3-.74.63-1.06,1.46-1,1.52.08,3,0,4.55,0a1,1,0,0,1,1.11.68q6.52,13.1,13.09,26.16c.35.69.08.81-.52.83-2.83.13-5.66.25-8.48.44-.71,0-1-.21-1.15-.84-.39-1.21-.91-2.38-1.28-3.6a1.16,1.16,0,0,0-1.28-1h-7.3a1.14,1.14,0,0,0-1.26,1c-.37,1.26-.85,2.49-1.25,3.74-.14.42-.3.69-.82.67C316.54,261.09,313.68,261,310.64,260.84Z" transform="translate(-62.86 -135.16)"></path><path class="cls-4" d="M247.11,260.83c1.3-2.74,2.55-5.36,3.78-8q4.31-9.21,8.07-18.63a1.44,1.44,0,0,1,1.66-1.08c1.39.07,2.79.06,4.19,0a1.28,1.28,0,0,1,1.38.82q6.44,12.94,12.93,25.85c.42.84.2,1-.62,1-2.71.11-5.42.26-8.12.42-.71,0-1.15,0-1.37-.88-.32-1.22-.89-2.38-1.27-3.6a1.1,1.1,0,0,0-1.19-.91h-7.42a1.09,1.09,0,0,0-1.18.91c-.38,1.26-.85,2.49-1.27,3.74-.13.39-.22.75-.77.73Z" transform="translate(-62.86 -135.16)"></path><path class="cls-4" d="M336.14,272.8a45.87,45.87,0,0,0-7.28-.23l-1,0c-1.7.08-1.79.08-1.82,1.76-.07,2.73-.71,2.39,2.24,2.5a37.11,37.11,0,0,0,6.58-.23c.72-.09,1,.05.83.88q-.51,2.52-.84,5.07c-.08.65-.28.75-.9.65a29.48,29.48,0,0,0-6.57-.27c-.69,0-1.08.25-1.05,1,.05,1-.6,2.34.05,3s1.88.31,2.87.37c2.07.13,4.14.24,6.33.36-.66,2.11-1.33,4.15-1.93,6.21-.22.75-.75.48-1.16.45-2.82-.24-5.65-.43-8.49-.45-2.16,0-4.31,0-6.47,0-.57,0-.75-.11-.68-.73a129,129,0,0,0,.4-23.08c-.07-1.08-.26-2.14-.43-3.21-.1-.62,0-.94.75-.93,5.31,0,10.63,0,15.94,0,.43,0,.73,0,.86.57C334.94,268.63,335.54,270.65,336.14,272.8Z" transform="translate(-62.86 -135.16)"></path><path class="cls-4" d="M251.47,233.4c-.67,2.37-1.4,5-1.9,7.62-.12.63-.55.57-1,.55-1.39,0-2.79-.08-4.18-.19-.89-.07-1.15.17-1.11,1.11.26,5.86.44,11.72.69,17.58,0,.86-.21,1.06-1,1-2.47-.06-5-.05-7.43,0-.75,0-1-.14-1-1,.2-5.94.32-11.88.52-17.83,0-1-.25-1.2-1.18-1.09-1.66.2-3.33.27-5,.44-.71.07-1-.11-1-.89a45.27,45.27,0,0,1,.77-6.77c.13-.6.34-.82,1-.79,4.83.19,9.65.36,14.49.22C246.61,233.35,249,233.4,251.47,233.4Z" transform="translate(-62.86 -135.16)"></path><path class="cls-4" d="M289.65,233.24a115.55,115.55,0,0,0-.83,16.14c0,.72.08,1.43.14,2.15.16,1.69.17,1.7,1.79,1.61a61,61,0,0,0,8.41-1.09.93.93,0,0,1,.78,0,54,54,0,0,0-1.79,8.58c-.06.48-.38.44-.69.44-5.63,0-11.27,0-16.9,0-.91,0-.7-.55-.67-1,.28-4.54.33-9.1.23-13.65-.09-4.07-.37-8.13-.7-12.19,0-.46-.27-1,.65-1C283.22,233.27,286.38,233.24,289.65,233.24Z" transform="translate(-62.86 -135.16)"></path><path class="cls-4" d="M242.5,280.4a12.79,12.79,0,0,1,5.13-9.9,30,30,0,0,1,8.54-4.71c.62-.24.85,0,1.13.43,1.13,1.83,2.26,3.67,3.44,5.47.41.64.45.91-.39,1.2a18.38,18.38,0,0,0-5.62,2.84,5,5,0,0,0-.18,8.2,16.07,16.07,0,0,0,5.6,2.89c.6.19.75.37.45,1-.94,1.93-1.82,3.9-2.7,5.86-.19.4-.34.68-.87.5-4.47-1.49-8.72-3.37-11.88-7.05A10.48,10.48,0,0,1,242.5,280.4Z" transform="translate(-62.86 -135.16)"></path><path class="cls-4" d="M222.12,261.06c-1.24,0-2.47,0-3.71,0-.66,0-.86-.13-.82-.85q.45-9,.12-18.07c-.1-2.67-.24-5.33-.42-8,0-.76.17-.94.91-.93,2.51.05,5,0,7.54,0,1.55,0,1.56,0,1.37,1.54a126.17,126.17,0,0,0-1,16.71,77.1,77.1,0,0,0,.49,8.72c.08.69-.08.9-.79.87C224.6,261,223.36,261.06,222.12,261.06Z" transform="translate(-62.86 -135.16)"></path><path class="cls-4" d="M310.82,233.24a132.44,132.44,0,0,0-1.13,19.54c.08,2.43.27,4.86.46,7.28.06.74-.07,1-.92,1-2.35-.06-4.71-.07-7.06,0-.93,0-1-.34-1-1.11.11-3.07.21-6.14.24-9.21,0-5.5-.21-11-.58-16.49-.06-.81.11-1.07,1-1.05C304.8,233.28,307.79,233.24,310.82,233.24Z" transform="translate(-62.86 -135.16)"></path><path class="cls-4" d="M204.84,234.94c-.1.19-.19.37-.29.53q-5.12,8.31-10.22,16.62a.93.93,0,0,1-1.34.45c-2.27-.8-2.27-.76-1.5-3,2-5.72,4-11.43,5.87-17.18.39-1.18.74-1.26,1.75-.67,1.67,1,3.44,1.83,5.17,2.74C204.51,234.54,204.84,234.57,204.84,234.94Z" transform="translate(-62.86 -135.16)"></path><path class="cls-8" d="M319.18,316.22h-4.31c-.21,0-.53.12-.59-.21s.22-.43.45-.45c2.34-.2,3-1.9,3.46-3.83.69-3,1.43-6,2.11-9,.46-2,.21-2.4-1.76-3.06-.25-.09-.61-.06-.52-.48s.35-.27.58-.27a72.81,72.81,0,0,1,9.57.28,4.09,4.09,0,0,1,3.73,3.07,4.42,4.42,0,0,1-1.91,4.81,9.93,9.93,0,0,1-6.06,1.45c-.28,0-.58,0-.59-.43s.33-.4.58-.48a18.08,18.08,0,0,0,1.93-.62,4.06,4.06,0,0,0,2.39-4.5,3.5,3.5,0,0,0-3.43-2.63.65.65,0,0,0-.73.6c-1,4.07-2,8.13-2.88,12.22-.38,1.73.15,2.29,2.11,2.75.34.08,1-.08.88.5-.07.43-.61.23-.94.23-1.35,0-2.71,0-4.07,0Z" transform="translate(-62.86 -135.16)"></path><path class="cls-8" d="M240.71,316.18c.16-.7.62-.64,1-.72a3.15,3.15,0,0,0,2.6-2.48c.91-3.55,1.87-7.09,2.54-10.7.29-1.58-.07-2.06-1.6-2.53-.3-.09-.86.05-.77-.5s.59-.29.91-.28c2.91,0,5.83-.11,8.73.19,2.54.27,4,1.5,4.36,3.68a4.66,4.66,0,0,1-3,4.84,11,11,0,0,1-4.9.89c-.3,0-.7.09-.72-.4s.37-.48.66-.54a6,6,0,0,0,2.82-1.24,3.89,3.89,0,0,0,1.28-4.11c-.34-1.49-1.56-2-2.91-2.32-.69-.16-1.08,0-1.25.8-.9,3.93-1.86,7.84-2.77,11.76-.41,1.76,0,2.38,1.74,2.87l.47.1c.3.07.76.06.72.46s-.51.26-.79.26c-2.16,0-4.31,0-6.47,0Z" transform="translate(-62.86 -135.16)"></path><path class="cls-8" d="M222.72,314.06a12.84,12.84,0,0,0,3.16-2.58c.2-.22.4-.38.71-.12s.08.41-.05.59a12.61,12.61,0,0,1-4.08,4,3.91,3.91,0,0,1-1.47.48c-1.05.12-1.45-.44-1.08-1.43.58-1.6,1.19-3.2,1.84-5-.58.12-.68.48-.87.73A25,25,0,0,1,216,316a1.66,1.66,0,0,1-1.67.38,1.27,1.27,0,0,1-.92-1.49,19.7,19.7,0,0,1,2.74-7.85,7,7,0,0,1,4-2.53,2.15,2.15,0,0,1,1.81.43c.63.39,1,.36,1.14-.45a10.67,10.67,0,0,1,.54-1.83c.36-.93.51-1.75-.61-2.32-.58-.3-.43-.71.11-.94,1.18-.49,2.37-1,3.55-1.42.24-.09.46-.16.67,0s.1.68,0,1c-1,3.17-2,6.33-2.92,9.5C223.87,310.27,223.34,312,222.72,314.06Z" transform="translate(-62.86 -135.16)"></path><path class="cls-8" d="M152.15,311.37c0,2.53,1.18,4.08,3.16,4.18a2.88,2.88,0,0,0,2.95-1.64,3,3,0,0,0-.29-3.38,19,19,0,0,0-2.41-2.33c-1.23-1.15-2.48-2.31-2.76-4.09-.39-2.57,1.11-4.65,3.89-5.31a8.72,8.72,0,0,1,5.83.68c.46.21.67.45.44,1-.4,1-.71,2-1.07,3.05-.09.24-.15.56-.54.51s-.41-.39-.4-.71,0-.88,0-1.32a2.37,2.37,0,0,0-1.53-2.24,2.7,2.7,0,0,0-3,.68,2.52,2.52,0,0,0-.55,2.87,5.62,5.62,0,0,0,1.34,1.83c.9.9,1.81,1.81,2.74,2.69,1.44,1.35,2.23,3,1.62,4.93a5.3,5.3,0,0,1-4.24,3.65,10,10,0,0,1-6.82-1.16c-.49-.25-.46-.56-.34-1,.36-1.18.69-2.37,1.07-3.55.09-.29,0-.82.58-.72s.32.54.32.87A3.84,3.84,0,0,1,152.15,311.37Z" transform="translate(-62.86 -135.16)"></path><path class="cls-8" d="M195.38,298.15a4.65,4.65,0,0,1,1.87.22,1.74,1.74,0,0,1,1.1,2.14,2.59,2.59,0,0,1-2,1.75c-.24.07-.38-.06-.4-.3s0-.24,0-.36c-.11-1-.08-2.19-1.33-2.38s-1.61,1-2,1.84a18.24,18.24,0,0,0-1.27,3.73c-.15.58,0,.71.55.69s1.2,0,1.8,0c.29,0,.71-.09.65.43,0,.37,0,.84-.54.94-.11,0-.24,0-.35,0-.88.15-2-.46-2.58.31a6.68,6.68,0,0,0-.6,2.53,65.77,65.77,0,0,1-2.39,9.25c-.84,2.28-2.73,3.24-4.82,3.9a1.77,1.77,0,0,1-2.14-.94c-.45-.84,0-1.51.54-2.14.35-.39.59-.33,1,0,2.44,2.06,2.79,2,3.44-1.21.71-3.48,1.31-7,2-10.45.17-.83.11-1.19-.86-1-.33.05-.89.3-1-.23s.34-.8.79-.86c1.35-.19,1.84-1.1,2.21-2.27a8.65,8.65,0,0,1,2.88-4.18A5.45,5.45,0,0,1,195.38,298.15Z" transform="translate(-62.86 -135.16)"></path><path class="cls-8" d="M294.84,310.26c-.92,1.13-1.83,2.28-2.78,3.38a13.56,13.56,0,0,1-2.73,2.51,1.55,1.55,0,0,1-1.89,0,1.43,1.43,0,0,1-.51-1.71,44.18,44.18,0,0,1,1.77-5.7,6.72,6.72,0,0,1,3-3.43c1.51-.88,2.94-1.23,4.4,0,.47.41.79.36,1.09-.23s.66-1.15,1.38-.84.46,1.11.28,1.68c-.75,2.32-1.57,4.61-2.33,6.92-.12.36-.42.7-.21,1.18a12.05,12.05,0,0,0,3.14-2.53c.19-.19.39-.52.69-.31s.05.57-.12.8a17.71,17.71,0,0,1-3.26,3.49,4,4,0,0,1-2,.94c-1.25.14-1.66-.39-1.23-1.56l1.61-4.47Z" transform="translate(-62.86 -135.16)"></path><path class="cls-8" d="M181,314.07a12.93,12.93,0,0,0,3.15-2.54c.19-.19.37-.65.75-.28s0,.52-.17.73a15.93,15.93,0,0,1-3.65,3.77,4,4,0,0,1-1.51.69c-1.33.24-1.83-.36-1.37-1.62.59-1.63,1.18-3.27,1.63-5-1.06,1.3-2.11,2.62-3.19,3.91a12.32,12.32,0,0,1-2.55,2.34,1.58,1.58,0,0,1-1.89.15,1.47,1.47,0,0,1-.59-1.79,40.39,40.39,0,0,1,1.76-5.7,6.79,6.79,0,0,1,3-3.43c1.51-.87,2.95-1.2,4.41.05.49.42.78.31,1.07-.25s.68-1.13,1.39-.83.47,1,.3,1.57c-.79,2.43-1.62,4.84-2.43,7.26C181,313.4,180.76,313.67,181,314.07Z" transform="translate(-62.86 -135.16)"></path><path class="cls-8" d="M265.74,314.22a14.14,14.14,0,0,0,3.42-2.73c.19-.19.38-.5.7-.25s0,.5-.13.7a14.8,14.8,0,0,1-3.73,3.84,3.45,3.45,0,0,1-1.77.68c-1.17.05-1.52-.41-1.12-1.51a49.2,49.2,0,0,0,1.67-5.15l-1.44,1.88a22,22,0,0,1-4,4.24,1.73,1.73,0,0,1-2.09.33c-.82-.49-.77-1.2-.58-2a38.42,38.42,0,0,1,1.79-5.7,6.76,6.76,0,0,1,3.32-3.45,3.19,3.19,0,0,1,3.89.16c.55.45.91.5,1.26-.22.27-.56.71-1.1,1.41-.74s.42,1,.25,1.51c-.78,2.39-1.59,4.76-2.4,7.14C266.05,313.29,265.94,313.62,265.74,314.22Z" transform="translate(-62.86 -135.16)"></path><path class="cls-8" d="M369.4,310.25a30.19,30.19,0,0,1-4.74,5.36,8.62,8.62,0,0,1-.87.62,1.46,1.46,0,0,1-1.69,0,1.34,1.34,0,0,1-.59-1.56,35.07,35.07,0,0,1,2.07-6.47,7,7,0,0,1,4.54-3.61,2.6,2.6,0,0,1,2.43.69c.61.45,1,.49,1.35-.26.25-.5.69-1,1.34-.7s.47.92.29,1.47c-.8,2.37-1.61,4.75-2.38,7.13-.12.36-.4.7-.2,1.23a15.33,15.33,0,0,0,3.14-2.57c.21-.21.39-.62.75-.27s0,.51-.19.72a17.13,17.13,0,0,1-3.25,3.5,4.28,4.28,0,0,1-2,.95c-1.25.17-1.68-.37-1.27-1.54l1.56-4.38C369.69,310.33,369.75,310.1,369.4,310.25Z" transform="translate(-62.86 -135.16)"></path><path class="cls-8" d="M353.25,313.14c1.73.22,3.25.94,4.89,1.27.49.1,1,.1,1.27-.4s-.17-.84-.52-1.08a.94.94,0,0,1-.44-1.3,1.61,1.61,0,0,1,1.42-1.1,1.27,1.27,0,0,1,1.34.81,2.46,2.46,0,0,1,0,2,4.91,4.91,0,0,1-5.29,3c-.94-.16-1.86-.46-2.79-.69a2.06,2.06,0,0,0-2.39.5c-.52.63-.83,0-1-.42a2,2,0,0,1,1.34-2.38,3.45,3.45,0,0,0,1.43-1c1.63-1.8,3.55-3.3,5.6-5.23a4.93,4.93,0,0,1-4.12-.61.63.63,0,0,0-.78,0c-.28.26-.15.59,0,.89a1.06,1.06,0,0,1,.11.21c.11.43.79.79.43,1.22a3,3,0,0,1-1.84,1.06c-.74.08-.93-.51-1-1.09-.14-1.88,2.64-5.07,4.93-4.11,1.61.68,3.17,1,4.76-.05a.66.66,0,0,1,1,.15c.31.46-.09.76-.36,1-2.19,2-4.4,3.94-6.59,5.92A5,5,0,0,0,353.25,313.14Z" transform="translate(-62.86 -135.16)"></path><path class="cls-8" d="M346.49,307.23a4.49,4.49,0,0,1-3.52-.58c-.35-.19-.75-.48-1.11-.18s0,.72.08,1.09.81.77.44,1.23a3,3,0,0,1-1.72,1c-.73.16-1-.34-1.06-1-.28-1.84,2.52-5.17,4.92-4.24a10.8,10.8,0,0,1,1.13.4,2.8,2.8,0,0,0,2.84-.1,6.47,6.47,0,0,1,1-.41.63.63,0,0,1,.75.23c.23.3,0,.55-.14.74-.59.59-1.2,1.17-1.82,1.73L341.74,313c1.76.49,3.35.94,4.95,1.37.53.14,1.09.15,1.36-.41s-.18-.84-.54-1.07a1,1,0,0,1-.33-1.45,1.48,1.48,0,0,1,1.65-.91,1.29,1.29,0,0,1,1.15,1.19c.31,1.74-1.32,3.91-3.37,4.51a6.22,6.22,0,0,1-3.42-.18c-.65-.18-1.3-.4-2-.52a1.64,1.64,0,0,0-1.74.49c-.62.75-1,.28-1.08-.38a1.9,1.9,0,0,1,1.3-2.28,3.93,3.93,0,0,0,1.53-1.09C342.89,310.51,344.75,309,346.49,307.23Z" transform="translate(-62.86 -135.16)"></path><path class="cls-8" d="M202.71,308.49a10.6,10.6,0,0,1-3,6.48,5.18,5.18,0,0,1-1.55,1.11c-3,1.41-5.44-.16-5.34-3.48.11-3.7,2.59-7.24,5.58-8C201.11,304,202.73,305.25,202.71,308.49Z" transform="translate(-62.86 -135.16)"></path><path class="cls-8" d="M213.26,308.68a10.24,10.24,0,0,1-3.18,6.51,4.8,4.8,0,0,1-2.17,1.2c-2.6.67-4.46-.61-4.46-3.27a9.23,9.23,0,0,1,3.49-7.53,4.84,4.84,0,0,1,1.92-.93C211.65,303.93,213.28,305.19,213.26,308.68Z" transform="translate(-62.86 -135.16)"></path><path class="cls-8" d="M288.4,304.76c.06,1.14-.4,1.52-1.48,1.49-2.39-.06-2.4,0-3.11,2.28q-.76,2.5-1.51,5a2,2,0,0,0,0,.49,11.93,11.93,0,0,0,3.42-2.59c.21-.21.4-.73.85-.35s0,.64-.22.88a13.91,13.91,0,0,1-3.8,3.77,5.06,5.06,0,0,1-1.66.66c-1.22.23-1.89-.42-1.56-1.62q1-3.69,2.19-7.33c.3-.91.15-1.16-.82-1.11-.5,0-1.38.42-1.5-.33-.17-1,.81-1,1.49-1.06a1.94,1.94,0,0,0,2.17-1.81,1.38,1.38,0,0,1,.64-1.11,1.75,1.75,0,0,1,1.72,0c.53.32.2.87.11,1.31-.28,1.35-.3,1.35,1.11,1.37Z" transform="translate(-62.86 -135.16)"></path><path class="cls-8" d="M162.63,313.81c.08-4.34,2.14-7.55,5.74-9a2.66,2.66,0,0,1,2.92.26c1.13.93,1.18,1.78,0,2.62-1.56,1.11-3.2,2.11-4.8,3.17a3.38,3.38,0,0,0-1.06,3.06c.26.74.82.54,1.29.34a13.43,13.43,0,0,0,3.65-2.47c.24-.22.48-.84.93-.41s-.13.71-.35,1a13.33,13.33,0,0,1-5,3.86C163.94,317,162.59,316,162.63,313.81Z" transform="translate(-62.86 -135.16)"></path><path class="cls-8" d="M334.78,314a10.91,10.91,0,0,0,3.09-2.36c.2-.2.36-.64.75-.34s0,.56-.14.8a13.77,13.77,0,0,1-3.89,3.83c-.68.41-1.45.9-2.22.31s-.53-1.46-.26-2.21c.74-2.1,1.55-4.17,2.33-6.26l.44-1.17a9.11,9.11,0,0,0-3,2.55c-.15.17-.27.42-.57.23s-.18-.41-.05-.62a10,10,0,0,1,3.49-3.84c.76-.41,1.6-.74,2.35-.09s.47,1.4.22,2.12c-.67,1.92-1.39,3.81-2.09,5.72C335.11,313,335,313.37,334.78,314Z" transform="translate(-62.86 -135.16)"></path><path class="cls-8" d="M271.83,316.51c-1.1-.08-2-.37-2.26-1.5a1.52,1.52,0,0,1,1-1.83.62.62,0,0,1,1,.29,7.8,7.8,0,0,0,.92,1.24.91.91,0,0,0,1.17.32,1.07,1.07,0,0,0,.48-1.25,9.38,9.38,0,0,0-1-2.54c-.11-.21-.23-.42-.35-.63-.68-1.18-1.49-2.4-.54-3.77a5.35,5.35,0,0,1,4.52-2.29,1.62,1.62,0,0,1,1.79,1.29c.17.8-.36,1.23-1,1.62s-.87.26-1.22-.31-.88-1.56-1.72-1.1-.29,1.43,0,2.13c.47,1.05,1,2.09,1.55,3.1a2.41,2.41,0,0,1-.32,3A5.63,5.63,0,0,1,271.83,316.51Z" transform="translate(-62.86 -135.16)"></path><path class="cls-9" d="M308.5,310.5a3.31,3.31,0,0,1-3.42-3.61,3.55,3.55,0,0,1,3.57-3.57,3.7,3.7,0,0,1,3.62,3.72A3.5,3.5,0,0,1,308.5,310.5Z" transform="translate(-62.86 -135.16)"></path><path class="cls-9" d="M235.07,310.5a3.47,3.47,0,0,1-3.59-3.52,3.7,3.7,0,0,1,3.67-3.66,3.55,3.55,0,0,1,3.53,3.61A3.37,3.37,0,0,1,235.07,310.5Z" transform="translate(-62.86 -135.16)"></path><path class="cls-5" d="M201.89,221.9l2.23,2.2H190.4a8,8,0,0,1,.55-2.21,2.25,2.25,0,0,1,1.48-.3h7.84A3.48,3.48,0,0,1,201.89,221.9Z" transform="translate(-62.86 -135.16)"></path><path class="cls-10" d="M337.33,298.16a1.59,1.59,0,0,1,1.77,1.65,1.77,1.77,0,0,1-1.82,1.81,1.7,1.7,0,0,1-1.75-1.83A1.61,1.61,0,0,1,337.33,298.16Z" transform="translate(-62.86 -135.16)"></path><path class="cls-11" d="M226.21,223.43a10.91,10.91,0,0,1-2.87.73l-2-.06A20.67,20.67,0,0,1,226.21,223.43Z" transform="translate(-62.86 -135.16)"></path><path class="cls-12" d="M369.4,310.25c.09-.2.23-.57.39-.45s0,.5-.13.73Z" transform="translate(-62.86 -135.16)"></path><path class="cls-13" d="M182.54,216.44a61.74,61.74,0,0,1,7.06-32.55c7.71-14.86,19.84-24.06,36.12-27.84.15,0,.31,0,.47,0,.06.5-.35.58-.66.71a29.45,29.45,0,0,0-8.08,5.17,3.77,3.77,0,0,1-.79.53,56.25,56.25,0,0,0-9.74,5.72,41.23,41.23,0,0,0-8.4,8.13,30.75,30.75,0,0,0-2.64,3.57,29.87,29.87,0,0,0-1.89,2.93,32.37,32.37,0,0,0-2.16,4,35.51,35.51,0,0,0-1.68,3.79c-.44,1-.79,2.09-1.18,3.14s-.64,2.07-.94,3.11a22.23,22.23,0,0,0-.73,2.89,34.51,34.51,0,0,0-.9,4.83c-.25,1.51-.36,3-.51,4.57a47.72,47.72,0,0,0-.1,4.93,2.57,2.57,0,0,1-.37,1.69A9,9,0,0,1,182.54,216.44Z" transform="translate(-62.86 -135.16)"></path><path class="cls-14" d="M185.42,215.74c0-1.83,0-3.66,0-5.49,0-.42-.15-.88.22-1.24a3,3,0,0,0,2.12.59H199a2.34,2.34,0,0,1,1.81.38,16,16,0,0,0-1,6.94c-.44,0-.5-.4-.5-.69,0-1-.62-1.13-1.43-1.12q-1.84,0-3.69,0a2.52,2.52,0,0,1-1.49-.35l.23-1.37Z" transform="translate(-62.86 -135.16)"></path><path class="cls-15" d="M192.66,214.76c2.05,0,4.1,0,6.14,0,.57,0,.77.23.77.78s-.16,1,.2,1.37c.15.64.31,1.29.47,1.94a1.45,1.45,0,0,1-1.11.36q-3.16,0-6.35,0a1.4,1.4,0,0,1-1.1-.37C192,217.49,192.33,216.13,192.66,214.76Z" transform="translate(-62.86 -135.16)"></path><path class="cls-16" d="M191.68,218.85h8.56a20.77,20.77,0,0,0,1.65,3H191A13.89,13.89,0,0,1,191.68,218.85Z" transform="translate(-62.86 -135.16)"></path><path class="cls-17" d="M216.59,162.24a34.75,34.75,0,0,1,9.6-6.23c1.42-.74,2.49-.16,3.8.59a11.37,11.37,0,0,1,4.83,6.18c1,2.51.43,5.16.33,8.14-4-4-8.65-4.88-13.85-4.56a10,10,0,0,0,2.5,1,14.45,14.45,0,0,1,5.86,3.38c.67.7.7,1.12-.35,1.43a14.26,14.26,0,0,0-6.32,3.61c2.23-.24,4.17-.46,6.12-.64a11.5,11.5,0,0,1,2.27-.08,1.34,1.34,0,0,1,1,2.3,7,7,0,0,1-1.1,1.26,13.88,13.88,0,0,0-4.5,8.12c-.83,2.13-2.38,2.44-4.49,2.11-2.56-.41-5.79,2-6.79,4.77a6.3,6.3,0,0,0,.35,5.74c.61,1,.4,1.31-.8,1.37a15.45,15.45,0,0,1-1.67.05c-.45-.15-.6-.57-.86-.9-.59-1-1.21-1.93-1.72-3s-1.05-2.07-1.47-3.16a20.45,20.45,0,0,1-1-3,28.18,28.18,0,0,1-.71-3.88,19.33,19.33,0,0,1-.24-4,9,9,0,0,1,.08-1.87,42.55,42.55,0,0,1,.71-4.5,30.19,30.19,0,0,1,3.16-8c1-1.35,1.83-2.8,2.9-4.09A11.63,11.63,0,0,1,216.59,162.24Z" transform="translate(-62.86 -135.16)"></path><path class="cls-17" d="M245,192.43c.44-3.37-.41-6.56-1.3-9.75-.14-.53-.47-1.16.11-1.55s1,.12,1.42.35A47.92,47.92,0,0,1,256.1,190a19.23,19.23,0,0,1,1.95,2.83,7.67,7.67,0,0,0-.9-5c-1.5-2.69-3.84-4.56-6.24-6.36-1.22-.9-2.44-1.79-3.65-2.71-.45-.33-1-.73-.88-1.34s.77-.6,1.24-.76c4.09-1.35,7.94-.45,11.68,1.33a3.1,3.1,0,0,0,1.37.53,6.12,6.12,0,0,0-3.21-4.24,13.78,13.78,0,0,0-6.89-1.7c-1.43,0-2.87,0-4.31,0a11.73,11.73,0,0,1-1.19,0c-1.62-.19-1.76-.38-1-1.81a145.2,145.2,0,0,0,6.33-13.27c.52-.2.91.14,1.29.38l2.88,1.85a46.78,46.78,0,0,1,4.87,4.68,32.08,32.08,0,0,1,3.19,4.64,31.23,31.23,0,0,1,2.86,7.22c.21,1,.36,2,.54,2.94a2.43,2.43,0,0,1,0,.38,3.94,3.94,0,0,0,.18,1.32,8,8,0,0,1,.09,1.62c0,1,0,1.95,0,2.93a40.25,40.25,0,0,1-.72,4.35,20.89,20.89,0,0,1-.75,2.71c-.36,1-.77,2-1.17,3s-1.06,1.88-1.5,2.88c-.55.68-.83,1.55-1.41,2.22-1.37-.16-2.7.24-4.06.17a1.71,1.71,0,0,1-1.56-.9c-2.15-3.76-5.2-6.32-9.59-7A.89.89,0,0,1,245,192.43Z" transform="translate(-62.86 -135.16)"></path><path class="cls-4" d="M245,192.43c4.72.42,8,3,10.31,7a1.69,1.69,0,0,0,1.85,1,14.15,14.15,0,0,1,3.79-.11c2.19-.58,4.14.19,6.06,1.08a4.84,4.84,0,0,1,1.26.9,6.84,6.84,0,0,1,1.22,1.71c.18.37.5.74.14,1.18-2.35-1.37-5-1.54-7.59-1.63a71.9,71.9,0,0,0-14.77,1.39c-3.7-1.64-7.27-1.19-10.78.62-1.26.65-2,.37-2.67-.85a4.82,4.82,0,0,1-.48-1.09,45.2,45.2,0,0,1-2-9.56.57.57,0,0,1,.18-.34,28.3,28.3,0,0,1,1.73-8.92c.41-.36.84-.14,1.24,0a8.72,8.72,0,0,1,5.69,6c.31,1,.44,2,1.86,1.54.09,0,.21.09.31.16.32,1.83.08,3.69.23,5.76A13.93,13.93,0,0,0,245,192.43Z" transform="translate(-62.86 -135.16)"></path><path class="cls-13" d="M254.49,159.86l-4.08-2.42c.44-1.64.44-1.62,2-1.27,15.28,3.4,26.26,12.57,34.24,25.67a54.88,54.88,0,0,1,7.67,24.79,66.29,66.29,0,0,1-.55,14.08c-.09.66-.26,1.07-1.09,1.07q-11.67-.06-23.36-.06l.31-.29a5.94,5.94,0,0,0,3.12-2.57,2.62,2.62,0,0,1,1.83-.38h14.23c1.72,0,1.8-.09,2-1.76.1-.71.19-1.42.22-2.14,0-1,0-2.09,0-3.13-.12-1.81.16-3.63-.12-5.44-.13-1.28-.24-2.58-.47-3.85a34.57,34.57,0,0,0-.79-3.77c-.34-1.13-.41-2.32-.85-3.43a23.92,23.92,0,0,0-1-2.84,19.67,19.67,0,0,0-1.21-3.06,25.85,25.85,0,0,0-1.63-3.4,22.48,22.48,0,0,0-2.11-3.65,22.19,22.19,0,0,0-1.92-2.88,19.9,19.9,0,0,0-2.67-3.26,42.92,42.92,0,0,0-7.36-7.21c-1.89-1.22-3.49-2.85-5.51-3.9a9.94,9.94,0,0,0-1.27-.62,36.2,36.2,0,0,0-7.71-3.43A8.11,8.11,0,0,1,254.49,159.86Z" transform="translate(-62.86 -135.16)"></path><path class="cls-4" d="M213.25,200.52l2.79-.16a4,4,0,0,0-.27-.58c-1.82-2.66-1.39-5.33.24-7.81a6.86,6.86,0,0,1,7.09-3.41c1.25.18,2.48.3,3-1.31a.72.72,0,0,1,.7-.55,91.17,91.17,0,0,0-1.22,14.75,9.94,9.94,0,0,1-4.18,8c-1.57.51-3.16,0-4.71-.06a30.51,30.51,0,0,1-10.9-3.19,3.27,3.27,0,0,1-.48-.35c-.24-.39,0-.72.14-1a13.12,13.12,0,0,1,5-4A3.67,3.67,0,0,1,213.25,200.52Z" transform="translate(-62.86 -135.16)"></path><path class="cls-18" d="M231.45,193.71a.15.15,0,0,1,0,.16,2.51,2.51,0,0,1-1.13,1.19c-.56.36-.55.71-.1,1.14a6,6,0,0,1,.49.52c1.1,1.23,1.11,1.49-.28,2.35-.85.53-.65.86-.05,1.38s1.48.73,1.27,1.56-1.15.57-1.75.84a7.5,7.5,0,0,0-1,.4c2.22,1,4.2,2.15,6.22,3.23.38.21,1.11.22.86,1l-.68.11c-2.57.23-5.14.47-7.71.68-.56.05-1.13,0-1.68,0-1.2.13-1.16-.42-.7-1.21,1.56-2.66,1.71-5.68,2.14-8.62.6-4,.53-8.16.8-12.27.51-.09.87.28,1.28.47.69.33,1,.77.35,1.43s-.36,1.07.19,1.56c.35.31.8.57.35,1.25-.93,1.4-.88,1.44.49,2.41C231,193.47,231.24,193.58,231.45,193.71Z" transform="translate(-62.86 -135.16)"></path><path class="cls-17" d="M248.52,156.54c-2.59,2.14-4.36,5-6.26,7.66-.35.49-.69,1-1.06,1.44s-.53,1-1,.82-.5-.86-.51-1.36c0-1.56-.09-3.12,0-4.67a3.79,3.79,0,0,0-2.12-3.7c-2.17-1.31-4.64-1.32-7.35-1.8a29.68,29.68,0,0,1,14.52.16,13.92,13.92,0,0,1,2.84.72C247.92,155.94,248.38,156,248.52,156.54Z" transform="translate(-62.86 -135.16)"></path><path class="cls-17" d="M242.28,192.44c-.67-.1-1.41.63-1.9.16s-.33-1.2-.54-1.8c-1.13-3.2-3.2-5.38-6.66-6,.48-2.14,2-3.47,3.68-4.62.53-.35.92-.08,1.3.2A6.39,6.39,0,0,1,240,182.8,20.16,20.16,0,0,1,242.28,192.44Z" transform="translate(-62.86 -135.16)"></path><path class="cls-19" d="M248.52,156.54l-3.84-1.45a45.3,45.3,0,0,1,4.91.52A1.88,1.88,0,0,1,248.52,156.54Z" transform="translate(-62.86 -135.16)"></path><path class="cls-20" d="M279.82,282.42c-1.88-.19-3.49-.37-5.11-.51-.51,0-.63-.19-.39-.65.88-1.68,1.74-3.37,2.72-5.27Z" transform="translate(-62.86 -135.16)"></path><path class="cls-21" d="M290.71,202.06a11.52,11.52,0,0,1,.48,3.83c.24,1.59.1,1.81-1.42,1.82-5.59,0-11.18,0-16.77,0a2.13,2.13,0,0,1-.82-.15,13.94,13.94,0,0,0-2.6-2.43,5.77,5.77,0,0,0-1.45-2.58c0-.66.53-.74,1-.84a6.18,6.18,0,0,1,1.43-.08h18.21A2.79,2.79,0,0,1,290.71,202.06Z" transform="translate(-62.86 -135.16)"></path><path class="cls-22" d="M205.6,205l-.31.86c-1.62-.89-2.34.24-3,1.38-.53.88-1,1.8-1.49,2.71h-14c-.71,0-1.31,0-1.17-1a17.39,17.39,0,0,1,.48-4.55,2.2,2.2,0,0,1,1.59-.39c5.43,0,10.85,0,16.28,0C204.6,204.1,205.67,203.69,205.6,205Z" transform="translate(-62.86 -135.16)"></path><path class="cls-23" d="M291.41,214.53a23,23,0,0,1-.28,3.31c0,.86-.58,1-1.39,1-5.65,0-11.3,0-17,0a12.81,12.81,0,0,0,1.18-3.62c.15-.32,0-.79.46-.94a4.46,4.46,0,0,1,1.54-.15q6.81,0,13.63,0A2.49,2.49,0,0,1,291.41,214.53Z" transform="translate(-62.86 -135.16)"></path><path class="cls-24" d="M272.18,207.6a2.88,2.88,0,0,1,1.63-.26c5.32,0,10.64,0,15.95,0,1.18,0,1.61-.34,1.43-1.47.49,1.3.13,2.65.23,4,0,.51,0,1,0,1.54a2.14,2.14,0,0,1-1.58.39H275.48a2.3,2.3,0,0,1-1.59-.38A19.23,19.23,0,0,0,272.18,207.6Z" transform="translate(-62.86 -135.16)"></path><path class="cls-25" d="M273.89,211.42h17.53c0,1,0,2.08,0,3.12H274.17c-.32-.78,0-1.6-.19-2.39Z" transform="translate(-62.86 -135.16)"></path><path class="cls-5" d="M236,207.49c-1-1.15-2.56-1.49-3.82-2.27s-2.52-1.3-3.89-2c1.11-.69,2.27-.74,3.39-1.29l-2.62-2.29c.64-.42,1.2-.82,1.8-1.17s.5-.53.15-.91-.83-1-1.26-1.44-.44-.77.16-1.12a16.28,16.28,0,0,0,1.53-1.13,75,75,0,0,0,1.71,8.28,16.22,16.22,0,0,0,.67,2c.62,1.51,1.23,1.74,2.66,1a12.26,12.26,0,0,1,7.95-1.44,4.72,4.72,0,0,1,2.78,1.19A99.91,99.91,0,0,0,236,207.49Z" transform="translate(-62.86 -135.16)"></path><path class="cls-24" d="M274,212.15c.37.77.08,1.59.19,2.39,0,.24,0,.52-.21.7Z" transform="translate(-62.86 -135.16)"></path><path class="cls-20" d="M324,249c1-2,2-3.81,3-5.85l2.77,6.44Z" transform="translate(-62.86 -135.16)"></path><path class="cls-20" d="M263.48,243.12c1,2.27,1.84,4.3,2.77,6.45l-5.77-.6Z" transform="translate(-62.86 -135.16)"></path><path class="cls-26" d="M216.44,314a27.14,27.14,0,0,1,2.34-7.36.71.71,0,0,1,1.09-.34,2.12,2.12,0,0,1,.2.12c2.07,1.06,2.12,1.24.76,3.07A17.41,17.41,0,0,1,216.44,314Z" transform="translate(-62.86 -135.16)"></path><path class="cls-27" d="M289.94,314a28.76,28.76,0,0,1,2.21-7.16c.38-.77.85-.77,1.54-.39,2,1.13,2.06,1.12.71,3A19.19,19.19,0,0,1,289.94,314Z" transform="translate(-62.86 -135.16)"></path><path class="cls-27" d="M174.57,314a26.56,26.56,0,0,1,2.3-7.32.78.78,0,0,1,1.18-.37c2.12.92,2.26,1.34.93,3.15A19.37,19.37,0,0,1,174.57,314Z" transform="translate(-62.86 -135.16)"></path><path class="cls-26" d="M259.6,314a26.38,26.38,0,0,1,2.31-7.34.75.75,0,0,1,1.2-.31l.21.11c2,1.07,2,1.2.7,3A18.49,18.49,0,0,1,259.6,314Z" transform="translate(-62.86 -135.16)"></path><path class="cls-27" d="M364.49,314.23a13,13,0,0,1,.79-3.45,23.42,23.42,0,0,1,1.45-3.9c.38-.79.84-.89,1.6-.44,2,1.15,2,1.16.66,3A23.19,23.19,0,0,1,364.49,314.23Z" transform="translate(-62.86 -135.16)"></path><path class="cls-3" d="M200.06,307.56a16.28,16.28,0,0,1-2.39,7.15c-.32.51-.72,1-1.44.8s-.69-.85-.7-1.39a14.35,14.35,0,0,1,2-7.29c.38-.68.81-1.61,1.75-1.36S200,306.75,200.06,307.56Z" transform="translate(-62.86 -135.16)"></path><path class="cls-27" d="M210.59,307.49a15.37,15.37,0,0,1-2.33,7.2c-.3.48-.66,1-1.3.87s-.84-.85-.84-1.41a13.66,13.66,0,0,1,2.51-8.08c.29-.42.71-.85,1.3-.61s.62.79.66,1.32C210.61,307,210.59,307.25,210.59,307.49Z" transform="translate(-62.86 -135.16)"></path><path class="cls-28" d="M166.15,310.09a11.66,11.66,0,0,1,1.06-3.42c.4-.8,1-.66,1.58-.21s.9,1,.28,1.61A14,14,0,0,1,166.15,310.09Z" transform="translate(-62.86 -135.16)"></path><path class="cls-29" d="M205.6,205c-.13-.79-.76-.56-1.23-.56-6.08,0-12.16,0-18.24,0a16.83,16.83,0,0,1,1-4.81,2.21,2.21,0,0,1,1-.15c7.89,0,15.79.09,23.68-.05a1.55,1.55,0,0,1,.92.21l.52.86C209.92,200.71,207.65,202.68,205.6,205Z" transform="translate(-62.86 -135.16)"></path><path class="cls-30" d="M209.61,193.67l1.41,3.12c-.38.6-1,.6-1.6.61q-10.12,0-20.25,0c-.5,0-1.18.17-1.37-.62a9.52,9.52,0,0,1,1-3.11,2.25,2.25,0,0,1,1.59-.38H208A2.49,2.49,0,0,1,209.61,193.67Z" transform="translate(-62.86 -135.16)"></path><path class="cls-31" d="M187.8,196.77c.35.4.82.25,1.24.25h20.34a5.61,5.61,0,0,0,1.64-.24l1.71,2.87a12,12,0,0,1-3.32.24h-20.7a2.85,2.85,0,0,1-1.63-.25A7.24,7.24,0,0,1,187.8,196.77Z" transform="translate(-62.86 -135.16)"></path><path class="cls-32" d="M207.94,187l.72,3.84a2.13,2.13,0,0,1-1.58.38c-5.18,0-10.36,0-15.54,0-.58,0-1.32.21-1.59-.64a14.08,14.08,0,0,1,1.68-3.83,4,4,0,0,1,1.19-.13h13.29A2.48,2.48,0,0,1,207.94,187Z" transform="translate(-62.86 -135.16)"></path><path class="cls-33" d="M211.57,168.49c-.57,1.26-1.11,2.53-1.72,3.78s-.83,2.79-1.41,4.13a2.09,2.09,0,0,1-1.45.38c-2.34,0-4.67,0-7,0-.62,0-1.3.07-1.67-.63a37.1,37.1,0,0,1,8.42-8.17,21,21,0,0,1,3.46-.06A1.47,1.47,0,0,1,211.57,168.49Z" transform="translate(-62.86 -135.16)"></path><path class="cls-34" d="M207.94,187c-5,0-10,0-14.95,0-.46,0-1,.18-1.36-.25a18.06,18.06,0,0,1,2.18-4.06,9,9,0,0,1,2.38-.14c3.27,0,6.54,0,9.81,0a2.33,2.33,0,0,1,1.7.38Z" transform="translate(-62.86 -135.16)"></path><path class="cls-35" d="M190,190.52c.38.44.9.26,1.35.26h17.36c.32,1,.63,1.92,1,2.88H188.76A10.77,10.77,0,0,1,190,190.52Z" transform="translate(-62.86 -135.16)"></path><path class="cls-36" d="M207.7,182.87H195.05c-.42,0-.89.15-1.24-.24a13,13,0,0,1,1.87-2.89,2,2,0,0,1,1.23-.37c3.22,0,6.44,0,9.65,0,1.22,0,1.36.27,1.16,1.57Z" transform="translate(-62.86 -135.16)"></path><path class="cls-37" d="M207.72,181c.13-.91-.19-1.24-1.17-1.23-3.62.05-7.25,0-10.87,0a16.93,16.93,0,0,1,2.64-3.6,2.8,2.8,0,0,0,1.51.26c2.87,0,5.74,0,8.61,0Z" transform="translate(-62.86 -135.16)"></path><path class="cls-38" d="M211.57,168.49a12.09,12.09,0,0,0-3.5-.25c-.45,0-1,.17-1.33-.27a42.75,42.75,0,0,1,9.85-5.73A54.94,54.94,0,0,0,211.57,168.49Z" transform="translate(-62.86 -135.16)"></path><path class="cls-39" d="M221.69,170.09c-1.33,1.92-2.67,3.84-4,5.77a.56.56,0,0,1-.81.19c-1.61-.75-3.23-1.49-4.83-2.42a25.36,25.36,0,0,1,3.23-.3,5.22,5.22,0,0,0,4.24-1.72,23.1,23.1,0,0,1,2-1.72Z" transform="translate(-62.86 -135.16)"></path><path class="cls-40" d="M290.71,202.06H269.88c-.63,0-1.3-.09-1.75.52-2.07-1.83-4.63-2.13-7.23-2.28-.12-.93.69-1.39,1-2.08a2.79,2.79,0,0,1,1.72-.39h24.6a2.88,2.88,0,0,1,1.72.39A16.19,16.19,0,0,1,290.71,202.06Z" transform="translate(-62.86 -135.16)"></path><path class="cls-33" d="M271.1,168.46a37.4,37.4,0,0,1,7.37,7.23c.23.42-.06.58-.37.71a2.92,2.92,0,0,1-1.06.14q-5.16,0-10.3,0a2.09,2.09,0,0,1-1.47-.38A65.66,65.66,0,0,0,262.4,169c.05-.56.51-.58.87-.58A73,73,0,0,1,271.1,168.46Z" transform="translate(-62.86 -135.16)"></path><path class="cls-41" d="M285.21,185.5a14.48,14.48,0,0,1,1.64,3.41c0,.67-.55.71-1,.78a15.26,15.26,0,0,1-1.91,0H269.71c-1.47,0-2.94,0-4.41.09l.7-4.31a2,2,0,0,1,1.47-.38c5.38,0,10.76,0,16.13,0A3,3,0,0,1,285.21,185.5Z" transform="translate(-62.86 -135.16)"></path><path class="cls-42" d="M290,198.22h-28l1.46-2.87a3.15,3.15,0,0,1,2.08-.39q10,0,20.09,0a33.53,33.53,0,0,0,3.47-.12C289.71,195.87,289.58,197.12,290,198.22Z" transform="translate(-62.86 -135.16)"></path><path class="cls-43" d="M289,194.84c-.18.79-.82.49-1.27.49q-12.19,0-24.37,0l1.18-2.88a2.73,2.73,0,0,1,1.95-.39h18.92a23.15,23.15,0,0,0,2.63-.12A9.4,9.4,0,0,1,289,194.84Z" transform="translate(-62.86 -135.16)"></path><path class="cls-44" d="M288.08,192c-.18.8-.82.49-1.27.49q-11.12,0-22.23,0l.72-2.65c.36-.58.95-.47,1.5-.47h18.66c.5,0,1.07.17,1.39-.43C287.57,189.8,287.65,191,288.08,192Z" transform="translate(-62.86 -135.16)"></path><path class="cls-45" d="M285.21,185.5H266c0-1,0-2.08,0-3.12a2.56,2.56,0,0,1,1.83-.38h11a32.61,32.61,0,0,0,4.19-.15A14.05,14.05,0,0,1,285.21,185.5Z" transform="translate(-62.86 -135.16)"></path><path class="cls-46" d="M283.07,181.86c-.31.68-.92.53-1.46.53-5.2,0-10.4,0-15.59,0,0-.55,0-1.11,0-1.67-.27-.36,0-.83-.22-1.2v-.24a1.68,1.68,0,0,1,1.23-.38c4.48,0,8.95,0,13.43,0a4.39,4.39,0,0,1,.71.12A10.51,10.51,0,0,1,283.07,181.86Z" transform="translate(-62.86 -135.16)"></path><path class="cls-47" d="M281.14,179c-.38.45-.89.27-1.35.27h-14a17.34,17.34,0,0,1-.5-3.12c4,0,8,0,12,0,.42,0,1,.26,1.17-.46A13,13,0,0,1,281.14,179Z" transform="translate(-62.86 -135.16)"></path><path class="cls-48" d="M271.1,168.46c-2.43.54-4.9.13-7.35.27-.46,0-1-.18-1.35.24l-3.13-4.56c1.4-.95,3-.54,4.46-.52a3.68,3.68,0,0,0,.58.06,15.81,15.81,0,0,1,4.27,2.55C269.44,167.13,270.26,167.8,271.1,168.46Z" transform="translate(-62.86 -135.16)"></path><path class="cls-49" d="M264.31,164c-.41.38-.91.21-1.37.2a18.84,18.84,0,0,0-3.67.26l-4.78-4.55A31.38,31.38,0,0,1,264.31,164Z" transform="translate(-62.86 -135.16)"></path><path class="cls-39" d="M255.91,169.18c-1.76.83-3.53,1.64-5.28,2.5-.48.23-.76.25-1-.27-.81-1.41-1.68-2.79-2.46-4.34,2.44,1.85,5.06,2.75,8.06,1.87C255.47,168.9,255.84,168.6,255.91,169.18Z" transform="translate(-62.86 -135.16)"></path><path class="cls-50" d="M255.91,169.18c-.16-.32-.5-.13-.73-.24a1.75,1.75,0,0,1,1.36-.17C256.45,169.12,256.19,169.17,255.91,169.18Z" transform="translate(-62.86 -135.16)"></path><path class="cls-47" d="M265.78,179.52c.37.35.17.8.22,1.2C265.63,180.38,265.81,179.93,265.78,179.52Z" transform="translate(-62.86 -135.16)"></path></svg> 