<?xml version="1.0" encoding="UTF-8"?> <svg xmlns="http://www.w3.org/2000/svg" id="Layer_1" data-name="Layer 1" viewBox="0 0 256 256"><defs><style>.cls-1{fill:#fff;}.cls-2{fill:#fdfdfd;}.cls-3{fill:#2b2525;}.cls-4{fill:#3c393a;}.cls-5{fill:#ea1d24;}.cls-6{fill:#ea1e25;}.cls-7{fill:#fdfafa;}.cls-8{fill:#fdfbfa;}.cls-9{fill:#fded01;}.cls-10{fill:#fdec01;}.cls-11{fill:#fdfaf9;}.cls-12{fill:#eb2026;}.cls-13{fill:#eb1f26;}</style></defs><rect class="cls-1" width="256" height="256"></rect><path class="cls-2" d="M8.28,207.81q0-79.45,0-158.9c0-.86.41-.72.91-.72h99.15q69.24,0,138.46,0c.81,0,1,.15,1,1q0,78.86,0,157.71c0,.76-.08,1-.94,1Q127.53,207.79,8.28,207.81Zm231.46-50.47c-.49.22-.6-.26-.79-.47-2-2.21-4-4.49-6-6.63a1.83,1.83,0,0,1-.35-2.51,36.06,36.06,0,0,0,3.1-20.47,33.07,33.07,0,0,0-6.06-15.91,1.06,1.06,0,0,0-1.33-.52A6.4,6.4,0,0,1,226,111c-.28,0-.66.17-.82-.15s.2-.52.36-.76l5.71-8.4c.24-.35.5-.65.28-1.16-1.42-3.26-2.65-6.6-4.29-9.76a1.86,1.86,0,0,0-1.78-1.1c-3-.17-5.9-.42-8.84-.64-3.44-.26-6.89-.52-10.33-.76-.38,0-.76-.12-1.07.31-1.8,2.54-3.9,4.87-5.54,7.54a1.43,1.43,0,0,0,0,1.69c2.15,3.67,4.23,7.38,6.35,11.06.28.48.4.73-.36.74q-8.47.09-16.94.24c-.59,0-.7-.17-.71-.71-.1-4.82-.24-9.63-.32-14.45,0-.8-.26-1-1-1-5.94-.16-11.88-.37-17.82-.56l-22.2-.68c-.36,0-.69-.06-.94.35-1.62,2.6-3.31,5.15-4.89,7.76-.65,1.08-.18,1.79,1,1.91,1.82.18,3.63.38,5.45.58,2.67.28,5.34.58,8,.84.81.08,1.13.37,1.05,1.24-.15,1.45-.15,2.92-.2,4.38-.23,6-.86,11.92-1.33,17.87-.42,5.3-1,10.59-.88,15.91,0,1.73-.89,2.58-1.9,3.56-.39.37-.85.23-1.31.07s-.41-.58-.41-1c0-6,.83-12,1.35-18a105.13,105.13,0,0,0,.5-10.94c0-.58-.19-.63-.71-.55a9.26,9.26,0,0,1-2.68,0A14.73,14.73,0,0,1,137,104.94c-.21-1.27-.82-1.39-1.77-1.46L116,102c-6.88-.53-13.76-1.09-20.65-1.63a1.55,1.55,0,0,0-1.85,1.53c-.08.73-.12,1.45-.18,2.18-.55,7-1.08,14-1.64,21-.44,5.69-.91,11.38-1.36,17.07a4.2,4.2,0,0,1-2.51,2.55,1.07,1.07,0,0,1-.93-.48A6.29,6.29,0,0,1,85.15,140l-.21-21.83q-.09-8.22-.17-16.45c0-2.2-.36-2,1.94-2.23,1.48-.16,1.48-.17,1.48-1.62,0-.67,0-1.33,0-2a21.32,21.32,0,0,0-.3-5c-.16-.69-.39-1-1.17-.9-4.41.31-8.82.54-13.23.79l-14,.8-13.92.77-13,.75c-4.74.27-9.47.53-14.21.82a60.64,60.64,0,0,0-7.73.68c-.3.06-.64,0-.59.46.26,2.22-.08,4.46.2,6.67.32,2.45.31,2.47,2.68,2.56.65,0,.85.23.83.87-.05,1.93-.05,3.86-.05,5.78,0,10.34,0,20.68.12,31,0,.95.35,1.15,1.21,1.14,2.72,0,5.44,0,8.3,0-.24.82-.41,1.39-.57,2a16.48,16.48,0,0,0-.49,8.64c.53,2.17,1.26,4.3,3.4,5.52a8.27,8.27,0,0,0,9.88-1.48c4.19-4.15,5.41-9.3,5-15-.06-.67.07-.77.68-.79,2.88-.13,5.76-.3,8.65-.46,1.12-.07,1.22,0,.77,1.1a14.61,14.61,0,0,0-1.32,4.67c-.19,3.08-.13,6.11,1.51,8.88A6.91,6.91,0,0,0,57,159.69c3.26.08,5.44-1.71,7.36-3.95,3.48-4.08,4.55-8.9,4-14.14-.1-.87.08-1.09,1-1.08q6.28.07,12.57,0c.77,0,1.12.21,1.34,1A12,12,0,0,0,85.5,146a2.77,2.77,0,0,0,3.13.86,7.65,7.65,0,0,0,2.56-1.49c.39-.3.69-.78,1.25-.75,1.09.06,2.18.17,3.27.26.72.06.78.38.44,1a17.68,17.68,0,0,0-1.41,3.4,13.22,13.22,0,0,0,1.91,12.3,5.79,5.79,0,0,0,4.06,2.61,9,9,0,0,0,7.86-2.81,18.54,18.54,0,0,0,5.07-12.74c0-.76-.25-1.74.12-2.23s1.48-.09,2.25-.05c2,.08,4,.29,6,.45a.92.92,0,0,1,0,.22l-.33.62a15.24,15.24,0,0,0-1.61,10.6c1.34,6.18,7,8.33,11.86,4.54a13.63,13.63,0,0,0,4.29-5.78,17.86,17.86,0,0,0,1.19-8.18c-.07-.85,0-1.25,1.06-1.1,1.21.18,2.45.07,3.68.16,2.62.2,5.3-.08,7.8,1.17a3.53,3.53,0,0,0,3.83-.69,20.5,20.5,0,0,0,2.1-2,1.48,1.48,0,0,1,1.23-.48c2.81.14,5.63.27,8.45.35.75,0,.92.21.63.93a18.12,18.12,0,0,0-1.26,4.79c-.36,3.13-.4,6.25,1.06,9.16a7.9,7.9,0,0,0,11.9,3,16.68,16.68,0,0,0,5.6-7.24,18.11,18.11,0,0,0,1.4-8.84c-.06-.76.12-1.05.95-1,1.1,0,2.18.24,3.27.31s1.29.56,1.38,1.48a22.18,22.18,0,0,0,.78,5.6,1,1,0,0,0,1.06.79c3.35.1,6.69.26,10,.36.6,0,.71.17.6.73a18,18,0,0,0-.15,3.88c.15,3.16,2,5.52,4.75,6.1s4.6-.86,6.21-2.75a13.26,13.26,0,0,0,2.77-6.73c.09-.58.32-.77.88-.8a14.93,14.93,0,0,1,3.06.24c.75.11,1,.42,1,1.16,0,2.62.08,5.25.07,7.87,0,.82.38.88,1,.85q2.19-.09,4.38-.12l19.44-.18c.12,0,.27.05.36-.22-2.16-2.4-4.36-4.83-6.53-7.28-.21-.23-.77-.37-.45-.89.19,0,.38,0,.57,0,.68.07,1.3,0,1.52-.77s-.29-1-.84-1.23c-.21-.08-.49-.17-.44-.46s.38-.32.63-.28.47,0,.53-.29-.21-.3-.38-.32c-.61-.07-1.25-.07-1.51.62s.16,1,.72,1.2c.3.11.69.26.56.68s-.51.29-.78.21C239.67,156.54,239.81,157,239.74,157.34Zm5.09-1.59.23.05a5,5,0,0,0,0,.67c.05.28-.2.77.34.77s.33-.54.33-.83c0-.63-.08-1.26-.13-1.88,0-.27,0-.55-.4-.58a.54.54,0,0,0-.64.46c-.13.51-.31,1-.52,1.69-.23-.71-.41-1.23-.55-1.75a.49.49,0,0,0-.59-.39c-.29,0-.39.2-.4.46-.06.79-.12,1.58-.17,2.38,0,.18-.05.43.24.44s.32-.22.36-.47-.05-.75.29-1.12l.29,1c.07.25.08.55.44.57s.42-.27.52-.51S244.71,156.08,244.83,155.75Z"></path><path class="cls-3" d="M239.73,157.34c-.32.52.24.66.45.89,2.17,2.45,4.37,4.88,6.53,7.28-.09.27-.24.22-.36.22l-19.44.18q-2.19,0-4.38.12c-.65,0-1,0-1-.85,0-2.62-.08-5.25-.07-7.87,0-.74-.21-1.05-1-1.16a14.93,14.93,0,0,0-3.06-.24c-.56,0-.79.22-.88.8a13.26,13.26,0,0,1-2.77,6.73c-1.61,1.89-3.51,3.31-6.21,2.75s-4.6-2.94-4.75-6.1a18,18,0,0,1,.15-3.88c.11-.56,0-.71-.6-.73-3.35-.1-6.69-.26-10-.36a1,1,0,0,1-1.06-.79,22.18,22.18,0,0,1-.78-5.6c-.09-.92-.37-1.42-1.38-1.48s-2.17-.27-3.27-.31c-.83,0-1,.27-.95,1a18.11,18.11,0,0,1-1.4,8.84,16.68,16.68,0,0,1-5.6,7.24,7.9,7.9,0,0,1-11.9-3c-1.46-2.91-1.42-6-1.06-9.16a18.12,18.12,0,0,1,1.26-4.79c.29-.72.12-.91-.63-.93-2.82-.08-5.64-.21-8.45-.35a1.48,1.48,0,0,0-1.23.48,20.5,20.5,0,0,1-2.1,2,3.53,3.53,0,0,1-3.83.69c-2.5-1.25-5.18-1-7.8-1.17-1.23-.09-2.47,0-3.68-.16-1-.15-1.13.25-1.06,1.1a17.86,17.86,0,0,1-1.19,8.18,13.63,13.63,0,0,1-4.29,5.78c-4.89,3.79-10.52,1.64-11.86-4.54a15.24,15.24,0,0,1,1.61-10.6L122,147a.92.92,0,0,0,0-.22c-2-.16-4-.37-6-.45-.77,0-1.78-.58-2.25.05s-.09,1.47-.12,2.23a18.54,18.54,0,0,1-5.07,12.74,9,9,0,0,1-7.86,2.81,5.79,5.79,0,0,1-4.06-2.61,13.22,13.22,0,0,1-1.91-12.3,17.68,17.68,0,0,1,1.41-3.4c.34-.58.28-.9-.44-1-1.09-.09-2.18-.2-3.27-.26-.56,0-.86.45-1.25.75a7.65,7.65,0,0,1-2.56,1.49A2.77,2.77,0,0,1,85.5,146a12,12,0,0,1-2.28-4.5c-.22-.74-.57-1-1.34-1q-6.28.08-12.57,0c-.9,0-1.08.21-1,1.08.56,5.24-.51,10.06-4,14.14-1.92,2.24-4.1,4-7.36,3.95A6.91,6.91,0,0,1,50.79,156c-1.64-2.77-1.7-5.8-1.51-8.88a14.61,14.61,0,0,1,1.32-4.67c.45-1.08.35-1.17-.77-1.1-2.89.16-5.77.33-8.65.46-.61,0-.74.12-.68.79.45,5.68-.77,10.83-5,15a8.27,8.27,0,0,1-9.88,1.48c-2.14-1.22-2.87-3.35-3.4-5.52a16.48,16.48,0,0,1,.49-8.64c.16-.57.33-1.14.57-2-2.86,0-5.58,0-8.3,0-.86,0-1.2-.19-1.21-1.14-.13-10.33-.14-20.67-.12-31,0-1.92,0-3.85.05-5.78,0-.64-.18-.85-.83-.87-2.37-.09-2.36-.11-2.68-2.56-.28-2.21.06-4.45-.2-6.67,0-.45.29-.4.59-.46a60.64,60.64,0,0,1,7.73-.68c4.74-.29,9.47-.55,14.21-.82l13-.75,13.92-.77,14-.8c4.41-.25,8.82-.48,13.23-.79.78-.05,1,.21,1.17.9a21.32,21.32,0,0,1,.3,5c0,.67,0,1.33,0,2,0,1.45,0,1.46-1.48,1.62-2.3.24-1.95,0-1.94,2.23q.08,8.22.17,16.45L85.15,140a6.29,6.29,0,0,0,1.72,4.34,1.07,1.07,0,0,0,.93.48,4.2,4.2,0,0,0,2.51-2.55c.45-5.69.92-11.38,1.36-17.07.56-7,1.09-14,1.64-21,.06-.73.1-1.45.18-2.18a1.55,1.55,0,0,1,1.85-1.53c6.89.54,13.77,1.1,20.65,1.63l19.26,1.44c.95.07,1.56.19,1.77,1.46a14.73,14.73,0,0,0,11.77,11.55,9.26,9.26,0,0,0,2.68,0c.52-.08.71,0,.71.55a105.13,105.13,0,0,1-.5,10.94c-.52,6-1.35,11.94-1.35,18,0,.4-.11.8.41,1s.92.3,1.31-.07c1-1,1.94-1.83,1.9-3.56-.1-5.32.46-10.61.88-15.91.47-6,1.1-11.9,1.33-17.87.05-1.46.05-2.93.2-4.38.08-.87-.24-1.16-1.05-1.24-2.67-.26-5.34-.56-8-.84-1.82-.2-3.63-.4-5.45-.58-1.23-.12-1.7-.83-1-1.91,1.58-2.61,3.27-5.16,4.89-7.76.25-.41.58-.36.94-.35l22.2.68c5.94.19,11.88.4,17.82.56.78,0,1,.2,1,1,.08,4.82.22,9.63.32,14.45,0,.54.12.73.71.71q8.46-.15,16.94-.24c.76,0,.64-.26.36-.74-2.12-3.68-4.2-7.39-6.35-11.06a1.43,1.43,0,0,1,0-1.69c1.64-2.67,3.74-5,5.54-7.54.31-.43.69-.34,1.07-.31,3.44.24,6.89.5,10.33.76,2.94.22,5.89.47,8.84.64a1.86,1.86,0,0,1,1.78,1.1c1.64,3.16,2.87,6.5,4.29,9.76.22.51,0,.81-.28,1.16l-5.71,8.4c-.16.24-.51.46-.36.76s.54.13.82.15a6.4,6.4,0,0,0,2.27-.18,1.06,1.06,0,0,1,1.33.52,33.07,33.07,0,0,1,6.06,15.91,36.06,36.06,0,0,1-3.1,20.47,1.83,1.83,0,0,0,.35,2.51c2.08,2.14,4,4.42,6,6.63.19.21.3.69.79.47ZM208.8,111c-.49,0-.84.07-1.19.08q-9.72.1-19.44.21c-1.1,0-1.51-.42-1.54-1.56-.11-4.61-.24-9.22-.33-13.84,0-.54-.13-.76-.72-.76-1.13,0-2.26-.14-3.38-.16-4.12-.06-8.23-.26-12.35-.37q-11.21-.3-22.4-.69a1.21,1.21,0,0,0-1.21.65c-1.2,1.95-2.41,3.9-3.67,5.81-.46.71-.28.85.47.92,4.42.45,8.83.94,13.25,1.42a1.58,1.58,0,0,1,1.45,1.68c0,4.25-.35,8.49-.66,12.72-.28,3.9-.66,7.8-1,11.7-.27,3.57-.54,7.14-.73,10.72-.1,1.72,0,3.44,0,5.26a2.18,2.18,0,0,1,1.64-.34c1,0,1.93.1,2.89.14l7.66.36c.62,0,.89.17.59.9a21.49,21.49,0,0,0-1.92,10.94,10.62,10.62,0,0,0,1.67,4.81c2.31,3.42,7.07,3.11,9.27,1.29,5.09-4.2,6.94-9.63,6.2-16.05-.09-.83.21-.92.85-1A18.73,18.73,0,0,1,190,146a1.71,1.71,0,0,1,1.75,1.82c.13,1.65.35,3.3.55,4.94.06.51.07,1,.87,1.06,3.05.07,6.1.26,9.16.29,1.68,0,2.5.39,2.05,2.43a10.37,10.37,0,0,0,.09,4.92,4.25,4.25,0,0,0,7.29,2.13,11.62,11.62,0,0,0,3.46-7.21c.2-1.4.3-1.6,1.73-1.78a14,14,0,0,1,4.74.41c.81.18,1.14.48,1.12,1.37-.05,2.39.06,4.79,0,7.18,0,.84.25,1.06,1.06,1,6.15-.1,12.29-.15,18.44-.23a2.69,2.69,0,0,0,1.36-.13l-4.11-4.59c-3-3.31-5.94-6.62-8.94-9.91a.72.72,0,0,1-.1-1,32.26,32.26,0,0,0,4.05-15.13,34.27,34.27,0,0,0-5.41-20.46,1.42,1.42,0,0,0-1.7-.77A5.44,5.44,0,0,1,224,112c-1-.46-1.08-.63-.45-1.56l6.12-9c.22-.32.48-.6.27-1.08-1.26-2.89-2.34-5.85-3.81-8.65-.19-.36-.36-.67-.87-.69-1.12,0-2.25-.14-3.37-.23-2.88-.23-5.76-.48-8.63-.7-2.15-.16-4.31-.3-6.46-.44-.31,0-.63-.1-.89.25-1.56,2.15-3.32,4.15-4.75,6.4a1.19,1.19,0,0,0,0,1.38c1.22,2.09,2.42,4.2,3.63,6.3C206.15,106.31,207.44,108.58,208.8,111ZM15.09,121.54c.09,5.78-.13,12.39.13,19,0,.81.25,1.08,1.07,1.08,2.49,0,5,.12,7.48.19,1.49,0,1.49.05,1,1.4-.13.38-.27.75-.39,1.13-1.07,3.41-1.58,6.81-.37,10.34,1.39,4.08,5,4.77,8.08,3.51A10.55,10.55,0,0,0,37.27,153a18.48,18.48,0,0,0,1.67-11.72c-.08-.53,0-.71.53-.73,3.64-.18,7.29-.39,10.94-.57,1.69-.08,1.9.18,1.79,1.93a2.89,2.89,0,0,1-.3,1.15,12.3,12.3,0,0,0-1.34,5.86,11.59,11.59,0,0,0,1.82,7,6.08,6.08,0,0,0,7.75,1.66,14.22,14.22,0,0,0,4.95-5.35,17.81,17.81,0,0,0,1.62-12.18c-.16-.83.06-.93.79-.93,5.06,0,10.11,0,15.17,0,.87,0,1.12-.21,1.1-1.1-.09-5.92-.1-11.83-.2-17.75-.11-6.68.06-13.35-.19-20a1.71,1.71,0,0,1,1.58-2c.42-.09.85-.15,1.28-.2s.52-.09.53-.44a27.33,27.33,0,0,0-.06-5.86c-.06-.36-.19-.46-.59-.44q-7.74.5-15.5.92-7.1.42-14.21.8l-14.22.8-8.25.46c-4.54.25-9.08.47-13.62.78-2.68.18-5.37.21-8,.55-.61.08-.78.3-.76.88,0,1.26-.1,2.53,0,3.78.27,2.9-.34,2.34,2.51,2.55.9.07,1.08.35,1.07,1.18C15.08,109.6,15.09,115.15,15.09,121.54ZM148.83,147c0-.07.08-.12.08-.18A153.24,153.24,0,0,1,150,131c.4-4,.78-8.05.8-12.11,0-.64-.17-.85-.83-.87a12.78,12.78,0,0,1-5-1.15,16.47,16.47,0,0,1-9.18-11,1.09,1.09,0,0,0-1.21-1c-1.2,0-2.39-.12-3.58-.22-4.72-.37-9.45-.77-14.18-1.14l-11.41-.85c-3.2-.25-6.41-.52-9.61-.79-.61-.06-.88.08-.93.77-.35,4.7-.76,9.39-1.13,14.09-.31,3.93-.59,7.87-.9,11.8-.36,4.49-.75,9-1.09,13.48-.1,1.34-.06,1.37,1.31,1.34a11.49,11.49,0,0,1,4.78.73c.54.24.7.44.33,1a19.79,19.79,0,0,0-1.41,2.75c-1.53,3.67-1.93,7.35-.06,11.06,1.8,3.56,3.8,4.73,7.85,3.43,2.78-.89,4.33-3.19,5.66-5.6a19.45,19.45,0,0,0,2-10.42c0-.53-.28-1.22,0-1.53s1,0,1.59,0c3.28.19,6.56.43,9.83.64.59,0,.78.18.41.77-.49.79-.92,1.62-1.33,2.45-1.72,3.56-2.27,7.27-.67,11s5,4.58,8.17,2.64a10.74,10.74,0,0,0,3.21-3.09c2.49-3.58,3-7.58,2.49-11.78-.14-1.21-.2-1.21.95-1.16,1.66.07,3.33.06,5,.22C144.16,146.63,146.53,146.36,148.83,147Z"></path><path class="cls-4" d="M244.83,155.75c-.12.33-.23.67-.36,1s-.17.53-.52.51-.37-.32-.44-.57l-.29-1c-.34.37-.24.77-.29,1.12s0,.49-.36.47-.26-.26-.24-.44c0-.8.11-1.59.17-2.38,0-.26.11-.44.4-.46a.49.49,0,0,1,.59.39c.14.52.32,1,.55,1.75.21-.69.39-1.18.52-1.69a.54.54,0,0,1,.64-.46c.37,0,.38.31.4.58.05.62.14,1.25.13,1.88,0,.29.29.82-.33.83s-.29-.49-.34-.77a5,5,0,0,1,0-.67Z"></path><path class="cls-4" d="M239.74,157.34c.07-.31-.07-.8.57-.61.27.08.66.16.78-.21s-.26-.57-.56-.68c-.56-.22-.95-.57-.72-1.2s.9-.69,1.51-.62c.17,0,.44,0,.38.32s-.26.32-.53.29-.58-.08-.63.28.23.38.44.46c.55.23,1.06.51.84,1.23s-.84.84-1.52.77c-.19,0-.38,0-.57,0Z"></path><path class="cls-5" d="M208.8,111c-1.36-2.37-2.65-4.64-3.94-6.91-1.21-2.1-2.41-4.21-3.63-6.3a1.19,1.19,0,0,1,0-1.38c1.43-2.25,3.19-4.25,4.75-6.4.26-.35.58-.27.89-.25,2.15.14,4.31.28,6.46.44,2.87.22,5.75.47,8.63.7,1.12.09,2.25.19,3.37.23.51,0,.68.33.87.69,1.47,2.8,2.55,5.76,3.81,8.65.21.48-.05.76-.27,1.08l-6.12,9c-.63.93-.59,1.1.45,1.56a5.44,5.44,0,0,0,3.42.3,1.42,1.42,0,0,1,1.7.77,34.27,34.27,0,0,1,5.41,20.46,32.26,32.26,0,0,1-4.05,15.13.72.72,0,0,0,.1,1c3,3.29,6,6.6,8.94,9.91l4.11,4.59a2.69,2.69,0,0,1-1.36.13c-6.15.08-12.29.13-18.44.23-.81,0-1.07-.2-1.06-1,0-2.39-.08-4.79,0-7.18,0-.89-.31-1.19-1.12-1.37a14,14,0,0,0-4.74-.41c-1.43.18-1.53.38-1.73,1.78a11.62,11.62,0,0,1-3.46,7.21,4.25,4.25,0,0,1-7.29-2.13,10.37,10.37,0,0,1-.09-4.92c.45-2-.37-2.42-2.05-2.43-3.06,0-6.11-.22-9.16-.29-.8,0-.81-.55-.87-1.06-.2-1.64-.42-3.29-.55-4.94A1.71,1.71,0,0,0,190,146a18.73,18.73,0,0,0-5.74-.23c-.64.13-.94.22-.85,1,.74,6.42-1.11,11.85-6.2,16.05-2.2,1.82-7,2.13-9.27-1.29a10.62,10.62,0,0,1-1.67-4.81,21.49,21.49,0,0,1,1.92-10.94c.3-.73,0-.87-.59-.9l-7.66-.36c-1,0-1.92-.11-2.89-.14a2.18,2.18,0,0,0-1.64.34c0-1.82-.08-3.54,0-5.26.19-3.58.46-7.15.73-10.72.3-3.9.68-7.8,1-11.7.31-4.23.63-8.47.66-12.72a1.58,1.58,0,0,0-1.45-1.68c-4.42-.48-8.83-1-13.25-1.42-.75-.07-.93-.21-.47-.92,1.26-1.91,2.47-3.86,3.67-5.81a1.21,1.21,0,0,1,1.21-.65q11.2.38,22.4.69c4.12.11,8.23.31,12.35.37,1.12,0,2.25.15,3.38.16.59,0,.71.22.72.76.09,4.62.22,9.23.33,13.84,0,1.14.44,1.57,1.54,1.56q9.72-.09,19.44-.21C208,111,208.31,111,208.8,111Zm-1.39,42.8-.06-.11s0,.05,0,.06.05,0,.07,0a4.76,4.76,0,0,1-.75,4.59c-.17.28-.62.61-.34.93s.69.1,1,0l.29-.05c1-.13,1.35.15,1.52,1.1.06.34,0,.73.37,1.06.57-.7.94-1.52,1.55-2.17.48-.5,1.4-.61,1.6-1s-.61-1.13-.68-1.85a15,15,0,0,1,.15-3.43,3.48,3.48,0,0,1-4.29.87A1.53,1.53,0,0,0,207.41,153.75Zm-29.51-26.3c0,.47,0,.94,0,1.4.24,3.16.93,6.15,3,8.66,2.59,3.09,6.4,3.67,9.24,1.34a12.08,12.08,0,0,0,3.17-3.92c2.66-5.28,1.59-12.93-2.28-17.41a6.47,6.47,0,0,0-8.39-.75A13.3,13.3,0,0,0,177.9,127.45Zm45.65-.57c.33-1,.69-2,.95-3a1.89,1.89,0,0,0-.16-1.63c-1.49-2.15-5-3.46-7.48-2.44-4.24,1.77-5.84,5.38-4.11,9.61A18.23,18.23,0,0,0,216,134c1.23,1.49,2.49,3,2.65,5,.07.93.23,2.09-.71,2.62s-2-.18-2.73-.9-1.5-1.5-2.27-2.24c-.37-.37-.67-.44-.93.18-.55,1.31-1.18,2.6-1.77,3.9a.86.86,0,0,0-.07.84c1.62,3.19,5.66,5.87,10,3.85,3.39-1.59,4.5-5.43,4.18-8.75a15.17,15.17,0,0,0-4.06-8.59,3.55,3.55,0,0,1-.74-3.24,1.41,1.41,0,0,1,2.23-1.07A11.79,11.79,0,0,1,223.55,126.88ZM203.62,116.8v-.38c-2.29,0-4.58,0-6.88,0-.64,0-.78.22-.76.8,0,1.23,0,2.46,0,3.69,0,2.08,0,2.08,2.11,2,1.33-.08,1.92.45,1.89,1.76,0,1.93-.1,3.85-.14,5.78-.07,3.59-.13,7.17-.19,10.76,0,.32-.08.72.44.71a27.63,27.63,0,0,0,3.28-.08,1,1,0,0,0,1-1c.56-3.3,1.12-6.6,1.7-9.9.32-1.86.62-3.72,1-5.57a2.19,2.19,0,0,1,2-2,2.32,2.32,0,0,0,2.49-1.92c.37-1.21.33-2.49.6-3.72.12-.59.05-.87-.68-.85C208.86,116.82,206.24,116.8,203.62,116.8ZM177.92,119a34.71,34.71,0,0,0-.37-3.56c-.07-.69-.25-.87-1-.69-2.06.5-4.14.91-6.22,1.33-3.05.6-6.11,1.2-9.11,2.07-.74.21-1.11.49-.9,1.37a14.83,14.83,0,0,1,.48,3.23c0,1.14.57,1.25,1.44,1.09l.88-.17a13.43,13.43,0,0,1,2.75-.41c.82,0,1.3.27,1.38,1.15s.26,1.64.4,2.46a87.82,87.82,0,0,0,2.26,10.78c.19.65.42.85,1.1.55,1.15-.52,2.33-1,3.52-1.38a.78.78,0,0,0,.63-.92c-.19-2.54-.39-5.09-.48-7.64-.07-1.79-.44-3.57-.05-5.36.23-1.08.75-2,1.87-2.22C177.85,120.45,178,119.73,177.92,119Zm-3.76,27.38a7.84,7.84,0,0,0-1,2.06c-.57,1.21-.77,1.33-2,1.09-.45-.08-.91-.16-1.36-.26s-.73.13-.55.64c.26.76.51,1.51.81,2.24a2.18,2.18,0,0,1,0,2c-.51,1-.89,2.1-1.41,3.36.87-.32,1.52-.53,2.15-.79s.83-.07,1.07.46c.39.92.85,1.8,1.34,2.8a9.69,9.69,0,0,0,1.32-3.4,3.84,3.84,0,0,1,2.33-3.09,3.56,3.56,0,0,0,1.89-1.72c-2.43.06-3.1-1.66-3.72-3.44A5.21,5.21,0,0,0,174.16,146.34Z"></path><path class="cls-6" d="M15.09,121.54c0-6.39,0-11.94,0-17.5,0-.83-.17-1.11-1.07-1.18-2.85-.21-2.24.35-2.51-2.55-.12-1.25,0-2.52,0-3.78,0-.58.15-.8.76-.88,2.67-.34,5.36-.37,8-.55,4.54-.31,9.08-.53,13.62-.78l8.25-.46,14.22-.8q7.11-.39,14.21-.8,7.76-.44,15.5-.92c.4,0,.53.08.59.44a27.33,27.33,0,0,1,.06,5.86c0,.35-.24.41-.53.44s-.86.11-1.28.2a1.71,1.71,0,0,0-1.58,2c.25,6.68.08,13.35.19,20,.1,5.92.11,11.83.2,17.75,0,.89-.23,1.1-1.1,1.1-5.06-.05-10.11,0-15.17,0-.73,0-.95.1-.79.93a17.81,17.81,0,0,1-1.62,12.18,14.22,14.22,0,0,1-4.95,5.35,6.08,6.08,0,0,1-7.75-1.66,11.59,11.59,0,0,1-1.82-7,12.3,12.3,0,0,1,1.34-5.86,2.89,2.89,0,0,0,.3-1.15c.11-1.75-.1-2-1.79-1.93-3.65.18-7.3.39-10.94.57-.57,0-.61.2-.53.73A18.48,18.48,0,0,1,37.27,153a10.55,10.55,0,0,1-5.17,5.18c-3.05,1.26-6.69.57-8.08-3.51-1.21-3.53-.7-6.93.37-10.34.12-.38.26-.75.39-1.13.48-1.35.48-1.36-1-1.4-2.49-.07-5-.17-7.48-.19-.82,0-1-.27-1.07-1.08C15,133.93,15.18,127.32,15.09,121.54Zm18.66,0c-.08,3.91.63,7.4,2.9,10.44a7.06,7.06,0,0,0,10.05,1.44,12.42,12.42,0,0,0,4.13-5.26,19.91,19.91,0,0,0,.75-12.88,12.49,12.49,0,0,0-2.62-5c-3.2-3.62-7.92-3.61-11.21,0A15.11,15.11,0,0,0,33.75,121.51Zm23.52-13.08a6.39,6.39,0,0,1-1.06-1.78c-.61-1.36-1-2.8-1.7-4.13a1,1,0,0,0-1.19-.6c-2,.35-3.91.68-5.88,1-.65.09-.73.27-.42.79a5.92,5.92,0,0,1,.3.62c2,4.2,4.51,8.13,6.75,12.2a7.14,7.14,0,0,1,.87,3.41c.09,2.92.27,5.83.38,8.75,0,.55.2.75.76.72,1.36-.08,2.72-.14,4.08-.14.57,0,.62-.26.63-.73a61.12,61.12,0,0,1,1.91-14.05c.95-3.9,2.07-7.75,3.18-11.6.23-.8.11-1.1-.76-1.23a27.17,27.17,0,0,1-3.78-.85c-.76-.22-1.05,0-1.31.68C59.15,103.75,58.21,106,57.27,108.43Zm19.53,2.66c.29-1.19.59-2.41.89-3.62a.65.65,0,0,0-.23-.7,7,7,0,0,0-11.09,1.15c-1.9,3-1.49,5.71,1.13,8.61,1.4,1.55,2.91,3,4.35,4.52a6.39,6.39,0,0,1,2,3.28c.33,1.94-.91,3-2.77,2.43a5.66,5.66,0,0,1-2-1.28c-.63-.57-1.28-1.13-2-1.78-.55,1.72-1,3.33-1.57,4.92-.14.43.1.7.3,1A8,8,0,0,0,71.38,133c2.91.45,7-2.12,7.52-4.9a12.89,12.89,0,0,0-1-8.73,15.06,15.06,0,0,0-3.22-3.75,7.93,7.93,0,0,1-1.79-2.24,2.66,2.66,0,0,1,.51-3,2.38,2.38,0,0,1,2.92.45C76.48,110.9,76.51,111.11,76.8,111.09ZM31.58,123.21a63.5,63.5,0,0,1,.25-9.15c0-.52.19-.72.75-.77a1.8,1.8,0,0,0,1.86-1.92,13,13,0,0,0-.15-2.78c-.12-.93-.13-1.88-.19-2.82-1,.16-2,.29-2.94.47-4,.71-8.06,1.26-12,2.19-.66.15-.9.4-.9,1a12.57,12.57,0,0,0,.28,2.37c.19.94.14,2.18.72,2.73s1.9.22,2.88.15,1.39.26,1.57,1.29c.82,4.77,1.74,9.52,2.64,14.27.18.94.18,2.15.77,2.71s1.83.13,2.78.1a7.12,7.12,0,0,1,.8,0c.75.06.93-.29.92-1C31.56,129.12,31.58,126.17,31.58,123.21Zm-5.7,24.37C28.73,149.35,27,151.74,27,154c.75-.7,1.39-1.31,2.05-1.9a.83.83,0,0,1,1.41.13c.51.66,1.12,1.24,1.81,2,0-.37.06-.53.07-.69.09-2.14.27-4.24,1.84-5.93a1.9,1.9,0,0,0,.31-.62c.4-1,.31-1.2-.78-1.12-1.92.15-2.13-.61-2.53-2.09a4.72,4.72,0,0,0-.51-1.82C29.42,144.13,29.25,147.15,25.88,147.58Zm34.49-7.28c-1.51,1.64-2.85,3.41-5.49,3.16a3.45,3.45,0,0,1,.93,3.71c-.13.44-.27.88-.39,1.33-.15.64-.73,1.43-.32,1.86s1.22-.09,1.83-.26a1.39,1.39,0,0,1,1.69.36c.44.52.93,1.41,1.71,1.1s.5-1.26.6-2c.18-1.4.15-2.9,1.77-3.75a1.81,1.81,0,0,1-1.88-1.5,9,9,0,0,1-.23-2.37A3.37,3.37,0,0,0,60.37,140.3Z"></path><path class="cls-6" d="M148.83,147c-2.3-.66-4.67-.39-7-.62-1.64-.16-3.31-.15-5-.22-1.15-.05-1.09-.05-.95,1.16.49,4.2,0,8.2-2.49,11.78a10.74,10.74,0,0,1-3.21,3.09c-3.2,1.94-6.52,1.17-8.17-2.64s-1-7.41.67-11c.41-.83.84-1.66,1.33-2.45.37-.59.18-.73-.41-.77-3.27-.21-6.55-.45-9.83-.64-.54,0-1.25-.43-1.59,0s0,1,0,1.53a19.45,19.45,0,0,1-2,10.42c-1.33,2.41-2.88,4.71-5.66,5.6-4,1.3-6,.13-7.85-3.43-1.87-3.71-1.47-7.39.06-11.06a19.79,19.79,0,0,1,1.41-2.75c.37-.58.21-.78-.33-1a11.49,11.49,0,0,0-4.78-.73c-1.37,0-1.41,0-1.31-1.34.34-4.49.73-9,1.09-13.48.31-3.93.59-7.87.9-11.8.37-4.7.78-9.39,1.13-14.09.05-.69.32-.83.93-.77,3.2.27,6.41.54,9.61.79l11.41.85c4.73.37,9.46.77,14.18,1.14,1.19.1,2.38.2,3.58.22a1.09,1.09,0,0,1,1.21,1,16.47,16.47,0,0,0,9.18,11,12.78,12.78,0,0,0,5,1.15c.66,0,.83.23.83.87,0,4.06-.4,8.08-.8,12.11a153.24,153.24,0,0,0-1.08,15.88C148.91,146.9,148.86,147,148.83,147ZM126.6,124.73a16.7,16.7,0,0,0-.87-5.6c-1.54-4.37-6.25-7.49-11-3.75a11.74,11.74,0,0,0-3.18,3.91c-2.13,4.16-2.22,8.55-1.24,13A7.88,7.88,0,0,0,115.1,138c2.51,1.07,5.59,0,7.85-2.43C125.65,132.64,126.59,129.16,126.6,124.73Zm.15,12.59a2.72,2.72,0,0,0,0,.7c.12.42-.42.95.45,1.27,2.5.92,3.16.59,3.58-2.08,0-.23,0-.46.09-.69a8,8,0,0,1,.71-2.47c.28-.48.53-.49.92-.15a3.13,3.13,0,0,1,1.05,1.88c.22,1.3.35,2.62.58,3.93.36,2.07,1.42,2.73,3.48,2.27.53-.12.77-.33.75-.93,0-2,0-4.06,0-6.08a1.91,1.91,0,0,1,.55-1.42c1-1,1.91-2,2.76-3.14a7,7,0,0,0-1.48-10.18c-3-2.26-6.56-2.48-10.16-2.28-.54,0-.52.45-.58.78C128.46,124.92,127.26,131.07,126.75,137.32Zm-18.33-21.18a4.11,4.11,0,0,0,1.67-.24.75.75,0,0,0,.57-.71c.17-1.65.35-3.3.61-4.93.1-.63-.15-.64-.61-.64-3.83,0-7.65,0-11.47,0-.49,0-.68.14-.76.66-1,7.07-2.09,14.14-3.13,21.22-.32,2.2-.29,2.2,1.82,3,1.9.69,2.91.17,3.39-1.77.08-.32.13-.65.18-1a21.87,21.87,0,0,1,.61-3.72c.82-2.43.79-2.81,3.35-2.79.2,0,.4,0,.6,0,1,0,1.59-.43,1.6-1.55a11,11,0,0,1,.28-2c.31-1.65.32-1.65-1.36-1.55-2.6.16-2.63.12-2.22-2.47a1.75,1.75,0,0,1,1.8-1.64A19.67,19.67,0,0,1,108.42,116.14ZM98,149.7c.68.86,1.19,1.56,1.75,2.2a1,1,0,0,1,.11,1.47c-.65,1-1.18,2-1.81,3.07h.36c2-.43,4-.87,6,.59.79.6,1.07.33,1.23-.69,0-.2.05-.4.06-.59.09-1.85.32-3.63,2.13-4.8-1.74-1-1.44-2.74-1.61-4.44A9.48,9.48,0,0,1,98,149.7Zm32.47-1.54a15.44,15.44,0,0,0-1.83,2,1.9,1.9,0,0,1-2.67.77c-.45-.18-1.22-.63-1.43-.23-.3.56.44,1,.85,1.41,1.1,1.06,1.17,1.7.24,2.92a13.26,13.26,0,0,0-1.41,1.91c-.13.27-.32.58-.15.85s.56.14.81,0a3.26,3.26,0,0,1,4.28,1.2c0,.05.1.09.14.14.44.55.65.32.84-.21a7.3,7.3,0,0,1,2.55-3.71c.51-.35.14-.52-.07-.74a5.61,5.61,0,0,1-1.47-2.78C130.92,150.62,130.73,149.51,130.47,148.16Z"></path><path class="cls-7" d="M177.9,127.45a13.3,13.3,0,0,1,4.78-10.68,6.47,6.47,0,0,1,8.39.75c3.87,4.48,4.94,12.13,2.28,17.41a12.08,12.08,0,0,1-3.17,3.92c-2.84,2.33-6.65,1.75-9.24-1.34-2.1-2.51-2.79-5.5-3-8.66C177.87,128.39,177.9,127.92,177.9,127.45Zm11.86.88a21.75,21.75,0,0,0-.44-3.62,8,8,0,0,0-1.35-3,1.51,1.51,0,0,0-2.58-.14,6.4,6.4,0,0,0-1.3,2,13.14,13.14,0,0,0-.55,7.24c.21,1.37.36,2.77,1.49,3.8s2.15,1,3.08-.27A9.53,9.53,0,0,0,189.76,128.33Z"></path><path class="cls-8" d="M223.55,126.88a11.79,11.79,0,0,0-1.81-1.31,1.41,1.41,0,0,0-2.23,1.07,3.55,3.55,0,0,0,.74,3.24,15.17,15.17,0,0,1,4.06,8.59c.32,3.32-.79,7.16-4.18,8.75-4.3,2-8.34-.66-10-3.85a.86.86,0,0,1,.07-.84c.59-1.3,1.22-2.59,1.77-3.9.26-.62.56-.55.93-.18.77.74,1.5,1.51,2.27,2.24s1.67,1.48,2.73.9.78-1.69.71-2.62c-.16-2-1.42-3.53-2.65-5a18.23,18.23,0,0,1-3.25-4.51c-1.73-4.23-.13-7.84,4.11-9.61,2.44-1,6,.29,7.48,2.44a1.89,1.89,0,0,1,.16,1.63C224.24,124.89,223.88,125.85,223.55,126.88Z"></path><path class="cls-8" d="M203.62,116.8c2.62,0,5.24,0,7.86,0,.73,0,.8.26.68.85-.27,1.23-.23,2.51-.6,3.72a2.32,2.32,0,0,1-2.49,1.92,2.19,2.19,0,0,0-2,2c-.39,1.85-.69,3.71-1,5.57-.58,3.3-1.14,6.6-1.7,9.9a1,1,0,0,1-1,1,27.63,27.63,0,0,1-3.28.08c-.52,0-.45-.39-.44-.71.06-3.59.12-7.17.19-10.76,0-1.93.11-3.85.14-5.78,0-1.31-.56-1.84-1.89-1.76-2.11.12-2.11.12-2.11-2,0-1.23,0-2.46,0-3.69,0-.58.12-.81.76-.8,2.3,0,4.59,0,6.88,0Z"></path><path class="cls-8" d="M177.92,119c.12.77-.07,1.49-1.39,1.68-1.12.17-1.64,1.14-1.87,2.22-.39,1.79,0,3.57.05,5.36.09,2.55.29,5.1.48,7.64a.78.78,0,0,1-.63.92c-1.19.42-2.37.86-3.52,1.38-.68.3-.91.1-1.1-.55a87.82,87.82,0,0,1-2.26-10.78c-.14-.82-.31-1.63-.4-2.46s-.56-1.15-1.38-1.15a13.43,13.43,0,0,0-2.75.41l-.88.17c-.87.16-1.42,0-1.44-1.09a14.83,14.83,0,0,0-.48-3.23c-.21-.88.16-1.16.9-1.37,3-.87,6.06-1.47,9.11-2.07,2.08-.42,4.16-.83,6.22-1.33.72-.18.9,0,1,.69A34.71,34.71,0,0,1,177.92,119Z"></path><path class="cls-9" d="M174.16,146.34a5.21,5.21,0,0,1,.82,1.94c.62,1.78,1.29,3.5,3.72,3.44a3.56,3.56,0,0,1-1.89,1.72,3.84,3.84,0,0,0-2.33,3.09,9.69,9.69,0,0,1-1.32,3.4c-.49-1-.95-1.88-1.34-2.8-.24-.53-.52-.7-1.07-.46s-1.28.47-2.15.79c.52-1.26.9-2.34,1.41-3.36a2.18,2.18,0,0,0,0-2c-.3-.73-.55-1.48-.81-2.24-.18-.51,0-.76.55-.64s.91.18,1.36.26c1.28.24,1.48.12,2-1.09A7.84,7.84,0,0,1,174.16,146.34Z"></path><path class="cls-10" d="M207.41,153.75a1.53,1.53,0,0,1,.48,0,3.48,3.48,0,0,0,4.29-.87,15,15,0,0,0-.15,3.43c.07.72.92,1.35.68,1.85s-1.12.54-1.6,1c-.61.65-1,1.47-1.55,2.17-.39-.33-.31-.72-.37-1.06-.17-.95-.55-1.23-1.52-1.1l-.29.05c-.36.08-.84.23-1,0s.17-.65.34-.93a4.76,4.76,0,0,0,.75-4.59Z"></path><path class="cls-10" d="M207.42,153.73s0,0-.07,0,0,0,0-.06l.06.11Z"></path><path class="cls-8" d="M33.75,121.51a15.11,15.11,0,0,1,4-11.24c3.29-3.62,8-3.63,11.21,0a12.49,12.49,0,0,1,2.62,5,19.91,19.91,0,0,1-.75,12.88,12.42,12.42,0,0,1-4.13,5.26A7.06,7.06,0,0,1,36.65,132C34.38,128.91,33.67,125.42,33.75,121.51Zm5.82,1.32c0,2.71.49,4.44,1.61,5.7a2.09,2.09,0,0,0,3.52-.22c2.25-4,3-8.19,1.33-12.61a2.63,2.63,0,0,0-2.22-2c-1.29-.13-1.89.78-2.47,1.69-.22.36-.37.78-.56,1.16A14,14,0,0,0,39.57,122.83Z"></path><path class="cls-8" d="M57.27,108.43c.94-2.39,1.88-4.68,2.76-7,.26-.69.55-.9,1.31-.68a27.17,27.17,0,0,0,3.78.85c.87.13,1,.43.76,1.23-1.11,3.85-2.23,7.7-3.18,11.6a61.12,61.12,0,0,0-1.91,14.05c0,.47-.06.72-.63.73-1.36,0-2.72.06-4.08.14-.56,0-.73-.17-.76-.72-.11-2.92-.29-5.83-.38-8.75a7.14,7.14,0,0,0-.87-3.41c-2.24-4.07-4.74-8-6.75-12.2a5.92,5.92,0,0,0-.3-.62c-.31-.52-.23-.7.42-.79,2-.27,3.93-.6,5.88-1a1,1,0,0,1,1.19.6c.69,1.33,1.09,2.77,1.7,4.13A6.39,6.39,0,0,0,57.27,108.43Z"></path><path class="cls-7" d="M76.8,111.09c-.29,0-.32-.19-.43-.29a2.38,2.38,0,0,0-2.92-.45,2.66,2.66,0,0,0-.51,3,7.93,7.93,0,0,0,1.79,2.24A15.06,15.06,0,0,1,78,119.37a12.89,12.89,0,0,1,1,8.73c-.55,2.78-4.61,5.35-7.52,4.9a8,8,0,0,1-5.64-3.38c-.2-.3-.44-.57-.3-1,.53-1.59,1-3.2,1.57-4.92.74.65,1.39,1.21,2,1.78a5.66,5.66,0,0,0,2,1.28c1.86.61,3.1-.49,2.77-2.43a6.39,6.39,0,0,0-2-3.28c-1.44-1.52-2.95-3-4.35-4.52-2.62-2.9-3-5.57-1.13-8.61a7,7,0,0,1,11.09-1.15.65.65,0,0,1,.23.7C77.39,108.68,77.09,109.9,76.8,111.09Z"></path><path class="cls-8" d="M31.58,123.21c0,3,0,5.91,0,8.87,0,.71-.17,1.06-.92,1a7.12,7.12,0,0,0-.8,0c-.95,0-2.17.48-2.78-.1s-.59-1.77-.77-2.71c-.9-4.75-1.82-9.5-2.64-14.27-.18-1-.53-1.36-1.57-1.29s-2.24.44-2.88-.15-.53-1.79-.72-2.73a12.57,12.57,0,0,1-.28-2.37c0-.65.24-.9.9-1,4-.93,8-1.48,12-2.19,1-.18,2-.31,2.94-.47.06.94.07,1.89.19,2.82a13,13,0,0,1,.15,2.78,1.8,1.8,0,0,1-1.86,1.92c-.56,0-.71.25-.75.77A63.5,63.5,0,0,0,31.58,123.21Z"></path><path class="cls-10" d="M25.88,147.58c3.37-.43,3.54-3.45,4.83-5.67a4.72,4.72,0,0,1,.51,1.82c.4,1.48.61,2.24,2.53,2.09,1.09-.08,1.18.12.78,1.12a1.9,1.9,0,0,1-.31.62c-1.57,1.69-1.75,3.79-1.84,5.93,0,.16,0,.32-.07.69-.69-.74-1.3-1.32-1.81-2a.83.83,0,0,0-1.41-.13c-.66.59-1.3,1.2-2.05,1.9C27,151.74,28.73,149.35,25.88,147.58Z"></path><path class="cls-9" d="M60.37,140.3a3.37,3.37,0,0,1,.22,1.67,9,9,0,0,0,.23,2.37,1.81,1.81,0,0,0,1.88,1.5c-1.62.85-1.59,2.35-1.77,3.75-.1.71.14,1.68-.6,2s-1.27-.58-1.71-1.1a1.39,1.39,0,0,0-1.69-.36c-.61.17-1.45.67-1.83.26s.17-1.22.32-1.86c.12-.45.26-.89.39-1.33a3.45,3.45,0,0,0-.93-3.71C57.52,143.71,58.86,141.94,60.37,140.3Z"></path><path class="cls-7" d="M126.6,124.73c0,4.43-.95,7.91-3.65,10.81-2.26,2.43-5.34,3.5-7.85,2.43a7.88,7.88,0,0,1-4.84-5.69c-1-4.44-.89-8.83,1.24-13a11.74,11.74,0,0,1,3.18-3.91c4.8-3.74,9.51-.62,11,3.75A16.7,16.7,0,0,1,126.6,124.73ZM115,128.13a14.68,14.68,0,0,0,.4,3.14c.27,1.12.69,2.14,1.94,2.4s1.71-.73,2.27-1.47c2.49-3.3,2.77-7,1.85-10.88a2.25,2.25,0,0,0-1.91-1.89,2.16,2.16,0,0,0-2.33,1.17A14.27,14.27,0,0,0,115,128.13Z"></path><path class="cls-11" d="M126.75,137.32c.51-6.25,1.71-12.4,2.68-18.59.06-.33,0-.75.58-.78,3.6-.2,7.11,0,10.16,2.28a7,7,0,0,1,1.48,10.18c-.85,1.1-1.81,2.12-2.76,3.14a1.91,1.91,0,0,0-.55,1.42c0,2,0,4.05,0,6.08,0,.6-.22.81-.75.93-2.06.46-3.12-.2-3.48-2.27-.23-1.31-.36-2.63-.58-3.93a3.13,3.13,0,0,0-1.05-1.88c-.39-.34-.64-.33-.92.15a8,8,0,0,0-.71,2.47c0,.23-.06.46-.09.69-.42,2.67-1.08,3-3.58,2.08-.87-.32-.33-.85-.45-1.27A2.72,2.72,0,0,1,126.75,137.32Zm11.52-10.76a4,4,0,0,0-3.39-3.77c-.54,0-.78.14-.87.67-.18,1.11-.43,2.21-.6,3.32-.13.86-.69,2.12-.09,2.53.82.55,2.05.05,3-.37S138.39,127.79,138.27,126.56Z"></path><path class="cls-7" d="M108.42,116.14a19.67,19.67,0,0,0-3.07-.14,1.75,1.75,0,0,0-1.8,1.64c-.41,2.59-.38,2.63,2.22,2.47,1.68-.1,1.67-.1,1.36,1.55a11,11,0,0,0-.28,2c0,1.12-.61,1.51-1.6,1.55-.2,0-.4,0-.6,0-2.56,0-2.53.36-3.35,2.79a21.87,21.87,0,0,0-.61,3.72c0,.33-.1.66-.18,1-.48,1.94-1.49,2.46-3.39,1.77-2.11-.77-2.14-.77-1.82-3,1-7.08,2.1-14.15,3.13-21.22.08-.52.27-.66.76-.66,3.82,0,7.64,0,11.47,0,.46,0,.71,0,.61.64-.26,1.63-.44,3.28-.61,4.93a.75.75,0,0,1-.57.71A4.11,4.11,0,0,1,108.42,116.14Z"></path><path class="cls-9" d="M98,149.7a9.48,9.48,0,0,0,8.18-3.19c.17,1.7-.13,3.4,1.61,4.44-1.81,1.17-2,3-2.13,4.8,0,.19,0,.39-.06.59-.16,1-.44,1.29-1.23.69-1.92-1.46-3.91-1-6-.59h-.36c.63-1.07,1.16-2.11,1.81-3.07a1,1,0,0,0-.11-1.47C99.19,151.26,98.68,150.56,98,149.7Z"></path><path class="cls-9" d="M130.47,148.16c.26,1.35.45,2.46.68,3.55a5.61,5.61,0,0,0,1.47,2.78c.21.22.58.39.07.74a7.3,7.3,0,0,0-2.55,3.71c-.19.53-.4.76-.84.21,0-.05-.1-.09-.14-.14a3.26,3.26,0,0,0-4.28-1.2c-.25.11-.61.29-.81,0s0-.58.15-.85a13.26,13.26,0,0,1,1.41-1.91c.93-1.22.86-1.86-.24-2.92-.41-.4-1.15-.85-.85-1.41.21-.4,1,.05,1.43.23a1.9,1.9,0,0,0,2.67-.77A15.44,15.44,0,0,1,130.47,148.16Z"></path><path class="cls-12" d="M189.76,128.33a9.53,9.53,0,0,1-1.65,6c-.93,1.24-1.93,1.31-3.08.27s-1.28-2.43-1.49-3.8a13.14,13.14,0,0,1,.55-7.24,6.4,6.4,0,0,1,1.3-2,1.51,1.51,0,0,1,2.58.14,8,8,0,0,1,1.35,3A21.75,21.75,0,0,1,189.76,128.33Z"></path><path class="cls-13" d="M39.57,122.83a14,14,0,0,1,1.21-6.29c.19-.38.34-.8.56-1.16.58-.91,1.18-1.82,2.47-1.69a2.63,2.63,0,0,1,2.22,2c1.64,4.42.92,8.62-1.33,12.61a2.09,2.09,0,0,1-3.52.22C40.06,127.27,39.57,125.54,39.57,122.83Z"></path><path class="cls-13" d="M115,128.13a14.27,14.27,0,0,1,2.22-7.53,2.16,2.16,0,0,1,2.33-1.17,2.25,2.25,0,0,1,1.91,1.89c.92,3.9.64,7.58-1.85,10.88-.56.74-1.1,1.71-2.27,1.47s-1.67-1.28-1.94-2.4A14.68,14.68,0,0,1,115,128.13Z"></path><path class="cls-12" d="M138.27,126.56c.12,1.23-.83,1.9-1.93,2.38s-2.2.92-3,.37c-.6-.41,0-1.67.09-2.53.17-1.11.42-2.21.6-3.32.09-.53.33-.7.87-.67A4,4,0,0,1,138.27,126.56Z"></path></svg> 