<?xml version="1.0" encoding="UTF-8"?> <svg xmlns="http://www.w3.org/2000/svg" id="Layer_1" data-name="Layer 1" viewBox="0 0 254.14 256"><defs><style>.cls-1{fill:#fff;}.cls-2{fill:#fefefe;}.cls-3{fill:#baa163;}.cls-4{fill:#baa265;}.cls-5{fill:#fefefd;}.cls-6{fill:#bba366;}.cls-7{fill:#bba266;}.cls-8{fill:#bba367;}.cls-9{fill:#baa164;}.cls-10{fill:#bca469;}.cls-11{fill:#fdfdfc;}.cls-12{fill:#fcfbfa;}</style></defs><rect class="cls-1" y="0.65" width="254.14" height="254.7"></rect><path class="cls-2" d="M.94,256Q.94,128.31.93.65c0-.53.12-.65.65-.65H254.42c.53,0,.65.12.65.65q0,127.35,0,254.7c0,.53-.12.65-.65.65Zm184.14-35.58c.43.13.68-.1.79-.57a4.71,4.71,0,0,1,.22-.59q2.32-6.27,4.66-12.54c.11-.31.21-.6.63-.67,3-.51,6.06-.87,9.05-1.55,1.76-.4,3.56-.6,5.35-.87.34-.06.54-.19.58-.57q.42-3.78.86-7.56c.26-2.26.53-4.52.79-6.78a.72.72,0,0,1,.46-.7c2.51-1.08,5.07-2,7.54-3.25,1.89-.92,3.89-1.65,5.84-2.47.22-.09.48-.14.43-.52-.26-2.19-.49-4.38-.73-6.58-.31-2.7-.61-5.41-.91-8.11,0-.23-.09-.49.16-.64a15.31,15.31,0,0,0,1.43-1.24c3.31-2.52,6.6-5.06,9.92-7.56a.82.82,0,0,0,.31-1.12c-1.52-4.19-3-8.4-4.54-12.58a1.85,1.85,0,0,1,.39-2.3,11.42,11.42,0,0,0,1-1.21c2.4-3.07,4.8-6.15,7.22-9.21a.73.73,0,0,0,0-1c-.93-1.35-1.81-2.74-2.7-4.12-1.68-2.61-3.43-5.17-5.17-7.74a1,1,0,0,1-.09-1.08c2-4.21,3.94-8.43,5.92-12.63a.78.78,0,0,0-.22-1.12c-3.47-3.1-6.93-6.22-10.4-9.31a1,1,0,0,1-.39-1.1q1.28-6.7,2.52-13.42c.22-1.18.21-1.17-.83-1.73l-11.59-6.26c-.33-.18-.71-.28-.74-.82-.25-4.81-.55-9.61-.8-14.42a.77.77,0,0,0-.68-.85c-4.55-1.15-9.09-2.35-13.64-3.5a1,1,0,0,1-.81-.81c-.26-1-.55-2-.85-3-1.07-3.52-2.16-7-3.22-10.58a.64.64,0,0,0-.72-.56c-4.72-.08-9.44-.19-14.16-.26a.87.87,0,0,1-.83-.49c-2.38-4-4.79-8.09-7.17-12.13a.82.82,0,0,0-1.05-.51c-4.41,1-8.83,2-13.23,3.07a1.89,1.89,0,0,1-2-.58c-3.15-3.13-6.34-6.22-9.5-9.35a.74.74,0,0,0-1-.17c-4,2.06-8.1,4.08-12.13,6.14a1.36,1.36,0,0,1-1.54-.07c-3.9-2.48-7.83-4.94-11.74-7.41a.61.61,0,0,0-.89,0c-3.52,3.15-7.08,6.26-10.6,9.41a1,1,0,0,1-1.17.24c-4.4-1.43-8.81-2.83-13.2-4.28a.87.87,0,0,0-1.18.42c-2.55,3.71-5.16,7.39-7.7,11.12a1.65,1.65,0,0,1-1.72.83c-2.13-.19-4.26-.3-6.39-.44-2.42-.17-4.83-.32-7.24-.52a.75.75,0,0,0-.91.6c-1.66,4.36-3.35,8.72-5,13.08a.91.91,0,0,1-.88.72c-.82.07-1.62.25-2.43.39-3.82.7-7.69,1.12-11.48,2a.63.63,0,0,0-.6.68c-.06.87-.2,1.73-.31,2.59-.5,3.89-1,7.77-1.49,11.66a.83.83,0,0,1-.57.77c-3,1.31-6,2.42-9,3.88-1.3.65-2.67,1.15-4,1.7a.63.63,0,0,0-.47.78c.54,4.8,1,9.61,1.55,14.42,0,.28.07.54-.22.75-.89.65-1.7,1.4-2.57,2.07-2.88,2.27-5.81,4.47-8.73,6.68a.67.67,0,0,0-.28.93c1.61,4.41,3.18,8.83,4.81,13.23a1.2,1.2,0,0,1-.25,1.37q-4.38,5.43-8.74,10.88c-.25.32-.47.58-.15,1,1.2,1.68,2.34,3.41,3.46,5.14,1.46,2.25,3,4.44,4.55,6.63a1.07,1.07,0,0,1,.08,1.22c-2,4.28-3.95,8.57-5.94,12.85a.62.62,0,0,0,.18.88c3.44,3,6.85,6.09,10.29,9.1a1.46,1.46,0,0,1,.53,1.62c-.86,4.23-1.68,8.47-2.49,12.71-.3,1.56-.28,1.56,1.16,2.32l11.47,6c.33.18.63.32.65.81.16,4.79.37,9.58.53,14.36a.92.92,0,0,0,.84,1c4.51,1.11,9,2.26,13.52,3.38a1.13,1.13,0,0,1,.92.89c1.3,4.51,2.64,9,3.95,13.51a.77.77,0,0,0,.87.67c4.7,0,9.4.13,14.1.18a1,1,0,0,1,1,.56c2.31,4,4.65,8,6.95,12a.88.88,0,0,0,1.16.47c4.52-1.09,9-2.14,13.55-3.24a1,1,0,0,1,1.11.34c3.32,3.36,6.66,6.7,10,10.06a.77.77,0,0,0,1.08.18c4.05-2.14,8.12-4.24,12.17-6.38a1.19,1.19,0,0,1,1.39.05c4,2.46,7.93,4.88,11.89,7.32a.7.7,0,0,0,1,0c3.5-3.1,7-6.18,10.52-9.28a1,1,0,0,1,1.06-.24c4.44,1.44,8.9,2.85,13.34,4.29a.84.84,0,0,0,1.15-.39c2.52-3.76,5.09-7.5,7.61-11.27a1.52,1.52,0,0,1,1.6-.77C175.79,219.79,180.4,220.09,185.08,220.41Z" transform="translate(-0.93 0)"></path><path class="cls-3" d="M185.08,220.41c-4.68-.32-9.29-.62-13.91-1a1.52,1.52,0,0,0-1.6.77c-2.52,3.77-5.09,7.51-7.61,11.27a.84.84,0,0,1-1.15.39c-4.44-1.44-8.9-2.85-13.34-4.29a1,1,0,0,0-1.06.24c-3.5,3.1-7,6.18-10.52,9.28a.7.7,0,0,1-1,0c-4-2.44-7.94-4.86-11.89-7.32a1.19,1.19,0,0,0-1.39-.05c-4,2.14-8.12,4.24-12.17,6.38a.77.77,0,0,1-1.08-.18c-3.33-3.36-6.67-6.7-10-10.06a1,1,0,0,0-1.11-.34c-4.51,1.1-9,2.15-13.55,3.24a.88.88,0,0,1-1.16-.47c-2.3-4-4.64-8-6.95-12a1,1,0,0,0-1-.56c-4.7-.05-9.4-.14-14.1-.18a.77.77,0,0,1-.87-.67c-1.31-4.5-2.65-9-3.95-13.51a1.13,1.13,0,0,0-.92-.89c-4.51-1.12-9-2.27-13.52-3.38a.92.92,0,0,1-.84-1c-.16-4.78-.37-9.57-.53-14.36,0-.49-.32-.63-.65-.81l-11.47-6c-1.44-.76-1.46-.76-1.16-2.32.81-4.24,1.63-8.48,2.49-12.71a1.46,1.46,0,0,0-.53-1.62c-3.44-3-6.85-6.08-10.29-9.1a.62.62,0,0,1-.18-.88c2-4.28,3.95-8.57,5.94-12.85a1.07,1.07,0,0,0-.08-1.22c-1.54-2.19-3.09-4.38-4.55-6.63-1.12-1.73-2.26-3.46-3.46-5.14-.32-.45-.1-.71.15-1q4.37-5.44,8.74-10.88a1.2,1.2,0,0,0,.25-1.37c-1.63-4.4-3.2-8.82-4.81-13.23a.67.67,0,0,1,.28-.93c2.92-2.21,5.85-4.41,8.73-6.68.87-.67,1.68-1.42,2.57-2.07.29-.21.25-.47.22-.75-.51-4.81-1-9.62-1.55-14.42A.63.63,0,0,1,31,70.3c1.35-.55,2.72-1,4-1.7C38,67.14,41,66,44,64.72a.83.83,0,0,0,.57-.77c.48-3.89,1-7.77,1.49-11.66.11-.86.25-1.72.31-2.59A.63.63,0,0,1,47,49c3.79-.89,7.66-1.31,11.48-2,.81-.14,1.61-.32,2.43-.39a.91.91,0,0,0,.88-.72c1.67-4.36,3.36-8.72,5-13.08a.75.75,0,0,1,.91-.6c2.41.2,4.82.35,7.24.52,2.13.14,4.26.25,6.39.44A1.65,1.65,0,0,0,83,32.35c2.54-3.73,5.15-7.41,7.7-11.12a.87.87,0,0,1,1.18-.42c4.39,1.45,8.8,2.85,13.2,4.28a1,1,0,0,0,1.17-.24c3.52-3.15,7.08-6.26,10.6-9.41a.61.61,0,0,1,.89,0c3.91,2.47,7.84,4.93,11.74,7.41a1.36,1.36,0,0,0,1.54.07c4-2.06,8.09-4.08,12.13-6.14a.74.74,0,0,1,1,.17c3.16,3.13,6.35,6.22,9.5,9.35a1.89,1.89,0,0,0,2,.58c4.4-1.06,8.82-2,13.23-3.07a.82.82,0,0,1,1.05.51c2.38,4,4.79,8.08,7.17,12.13a.87.87,0,0,0,.83.49c4.72.07,9.44.18,14.16.26a.64.64,0,0,1,.72.56c1.06,3.53,2.15,7.06,3.22,10.58.3,1,.59,2,.85,3a1,1,0,0,0,.81.81c4.55,1.15,9.09,2.35,13.64,3.5a.77.77,0,0,1,.68.85c.25,4.81.55,9.61.8,14.42,0,.54.41.64.74.82l11.59,6.26c1,.56,1.05.55.83,1.73q-1.25,6.7-2.52,13.42a1,1,0,0,0,.39,1.1c3.47,3.09,6.93,6.21,10.4,9.31a.78.78,0,0,1,.22,1.12c-2,4.2-3.94,8.42-5.92,12.63a1,1,0,0,0,.09,1.08c1.74,2.57,3.49,5.13,5.17,7.74.89,1.38,1.77,2.77,2.7,4.12a.73.73,0,0,1,0,1c-2.42,3.06-4.82,6.14-7.22,9.21a11.42,11.42,0,0,1-1,1.21,1.85,1.85,0,0,0-.39,2.3c1.56,4.18,3,8.39,4.54,12.58a.82.82,0,0,1-.31,1.12c-3.32,2.5-6.61,5-9.92,7.56a15.31,15.31,0,0,1-1.43,1.24c-.25.15-.18.41-.16.64.3,2.7.6,5.41.91,8.11.24,2.2.47,4.39.73,6.58.05.38-.21.43-.43.52-1.95.82-3.95,1.55-5.84,2.47-2.47,1.2-5,2.17-7.54,3.25a.72.72,0,0,0-.46.7c-.26,2.26-.53,4.52-.79,6.78q-.43,3.78-.86,7.56c0,.38-.24.51-.58.57-1.79.27-3.59.47-5.35.87-3,.68-6,1-9.05,1.55-.42.07-.52.36-.63.67q-2.34,6.27-4.66,12.54a4.71,4.71,0,0,0-.22.59C185.76,220.31,185.51,220.54,185.08,220.41Zm-58.48,2c1.33-.08,3,0,4.76-.12A101,101,0,0,0,142.88,221a93.56,93.56,0,0,0,16.39-4.42,96.39,96.39,0,0,0,11.18-5c2.89-1.51,5.67-3.17,8.41-4.92,2.27-1.46,4.3-3.24,6.45-4.85a90.32,90.32,0,0,0,16.93-17.23,96.32,96.32,0,0,0,19.5-54.88,98.59,98.59,0,0,0-1.89-22.89,85.07,85.07,0,0,0-3.46-12.45,99,99,0,0,0-6.23-14.19,116.25,116.25,0,0,0-7.92-12.28A81.33,81.33,0,0,0,194,58.45c-1.91-1.91-3.88-3.78-6-5.5-2.46-2-4.88-4.09-7.5-5.91a91.74,91.74,0,0,0-11.83-7,93.25,93.25,0,0,0-10.15-4.34A96.16,96.16,0,0,0,147,32.39a97.7,97.7,0,0,0-20.38-2.29c-2.79,0-5.58.13-8.37.36a89.85,89.85,0,0,0-13.55,2.11A92.25,92.25,0,0,0,69,49.32,107.27,107.27,0,0,0,55.6,61.5a92,92,0,0,0-8.71,11.27,87.58,87.58,0,0,0-8.3,15.29c-.92,2.25-1.85,4.5-2.64,6.8a98.9,98.9,0,0,0-5.07,25.82c-.15,2.85-.22,5.72-.09,8.59.13,3.16.34,6.32.75,9.46a95.35,95.35,0,0,0,2.35,12.19A102.74,102.74,0,0,0,38.36,164a91.14,91.14,0,0,0,4.94,10.07,112.59,112.59,0,0,0,7.58,11.39,69,69,0,0,0,5.88,6.89,91.85,91.85,0,0,0,7.51,7.12A108.63,108.63,0,0,0,73,206.2a91.35,91.35,0,0,0,15.43,8.46,95.3,95.3,0,0,0,38.2,7.78Z" transform="translate(-0.93 0)"></path><path class="cls-2" d="M126.6,222.44a95.3,95.3,0,0,1-38.2-7.78A91.35,91.35,0,0,1,73,206.2a108.63,108.63,0,0,1-8.7-6.74,91.85,91.85,0,0,1-7.51-7.12,69,69,0,0,1-5.88-6.89,112.59,112.59,0,0,1-7.58-11.39A91.14,91.14,0,0,1,38.36,164a102.74,102.74,0,0,1-4.47-13.07,95.35,95.35,0,0,1-2.35-12.19c-.41-3.14-.62-6.3-.75-9.46-.13-2.87-.06-5.74.09-8.59A98.9,98.9,0,0,1,36,94.86c.79-2.3,1.72-4.55,2.64-6.8a87.58,87.58,0,0,1,8.3-15.29A92,92,0,0,1,55.6,61.5,107.27,107.27,0,0,1,69,49.32a92.25,92.25,0,0,1,35.74-16.75,89.85,89.85,0,0,1,13.55-2.11c2.79-.23,5.58-.39,8.37-.36A97.7,97.7,0,0,1,147,32.39a96.16,96.16,0,0,1,11.53,3.34,93.25,93.25,0,0,1,10.15,4.34,91.74,91.74,0,0,1,11.83,7c2.62,1.82,5,3.89,7.5,5.91,2.1,1.72,4.07,3.59,6,5.5a81.33,81.33,0,0,1,8.23,9.46,116.25,116.25,0,0,1,7.92,12.28,99,99,0,0,1,6.23,14.19,85.07,85.07,0,0,1,3.46,12.45,98.59,98.59,0,0,1,1.89,22.89,96.4,96.4,0,0,1-19.5,54.88,90.32,90.32,0,0,1-16.93,17.23c-2.15,1.61-4.18,3.39-6.45,4.85-2.74,1.75-5.52,3.41-8.41,4.92a96.39,96.39,0,0,1-11.18,5A93.56,93.56,0,0,1,142.88,221a101,101,0,0,1-11.52,1.31C129.64,222.42,127.93,222.36,126.6,222.44ZM40.33,131.67a8,8,0,0,0,.1,1.49c.07,1.77.36,3.51.58,5.27a82.83,82.83,0,0,0,4.84,19,87.4,87.4,0,0,0,5.24,11.33A78,78,0,0,0,59.52,181c1.58,1.87,3.12,3.79,4.77,5.59a67.22,67.22,0,0,0,6.47,6A90.11,90.11,0,0,0,79.31,199,114.92,114.92,0,0,0,90,205a59.16,59.16,0,0,0,7.13,3,84.36,84.36,0,0,0,11.55,3.27,92.77,92.77,0,0,0,9.83,1.45c2,.19,4,.3,5.93.35a69.71,69.71,0,0,0,7.78-.22c1.88-.15,3.75-.35,5.62-.57a63.88,63.88,0,0,0,8.13-1.49,80,80,0,0,0,17.85-6.47,98.78,98.78,0,0,0,15-9.34,104.79,104.79,0,0,0,8-6.91c1.68-1.59,3.1-3.41,4.63-5.14a81.45,81.45,0,0,0,6.42-8.4,79.79,79.79,0,0,0,6.62-11.88c1.12-2.49,2.17-5,3.09-7.58a88.76,88.76,0,0,0,4.11-17.47c.39-2.79.56-5.6.68-8.41a75.42,75.42,0,0,0-.24-9.26c-.2-2.5-.46-5-.85-7.48a87.84,87.84,0,0,0-1.78-8.65,89.42,89.42,0,0,0-6.29-16.57,79.82,79.82,0,0,0-5.93-10,93.14,93.14,0,0,0-8.28-10.39,84,84,0,0,0-11.6-10.28,98.93,98.93,0,0,0-12.81-7.94,70.45,70.45,0,0,0-14-5.49,88.72,88.72,0,0,0-12.11-2.59c-2.67-.38-5.36-.58-8.05-.79a66.35,66.35,0,0,0-11.36.25c-2.34.22-4.66.47-7,.84a79.45,79.45,0,0,0-10.88,2.52A73.29,73.29,0,0,0,87,49.11a111.34,111.34,0,0,0-10,6.08,95.35,95.35,0,0,0-10.81,8.94,87.13,87.13,0,0,0-6.23,6.94,77,77,0,0,0-5.49,7.37,74.41,74.41,0,0,0-5.77,10.27c-1.28,2.82-2.52,5.64-3.55,8.56a78.87,78.87,0,0,0-2.92,10.22c-.46,2.25-.91,4.49-1.18,6.77-.15,1.22-.27,2.45-.44,3.67a37.16,37.16,0,0,0-.34,4.59A90,90,0,0,0,40.33,131.67Z" transform="translate(-0.93 0)"></path><path class="cls-4" d="M40.33,131.67a90,90,0,0,1-.12-9.15,37.16,37.16,0,0,1,.34-4.59c.17-1.22.29-2.45.44-3.67.27-2.28.72-4.52,1.18-6.77a78.87,78.87,0,0,1,2.92-10.22c1-2.92,2.27-5.74,3.55-8.56a74.41,74.41,0,0,1,5.77-10.27,77,77,0,0,1,5.49-7.37,87.13,87.13,0,0,1,6.23-6.94,95.35,95.35,0,0,1,10.81-8.94,111.34,111.34,0,0,1,10-6.08,73.29,73.29,0,0,1,14.18-5.82,79.45,79.45,0,0,1,10.88-2.52c2.32-.37,4.64-.62,7-.84a66.35,66.35,0,0,1,11.36-.25c2.69.21,5.38.41,8.05.79a88.72,88.72,0,0,1,12.11,2.59,70.45,70.45,0,0,1,14,5.49,98.93,98.93,0,0,1,12.81,7.94,84,84,0,0,1,11.6,10.28,93.14,93.14,0,0,1,8.28,10.39,79.82,79.82,0,0,1,5.93,10,89.42,89.42,0,0,1,6.29,16.57,87.84,87.84,0,0,1,1.78,8.65c.39,2.49.65,5,.85,7.48a75.42,75.42,0,0,1,.24,9.26c-.12,2.81-.29,5.62-.68,8.41a88.76,88.76,0,0,1-4.11,17.47c-.92,2.57-2,5.09-3.09,7.58a79.79,79.79,0,0,1-6.62,11.88,81.45,81.45,0,0,1-6.42,8.4c-1.53,1.73-3,3.55-4.63,5.14a104.79,104.79,0,0,1-8,6.91,98.78,98.78,0,0,1-15,9.34,80,80,0,0,1-17.85,6.47,63.88,63.88,0,0,1-8.13,1.49c-1.87.22-3.74.42-5.62.57a69.71,69.71,0,0,1-7.78.22c-2-.05-4-.16-5.93-.35a92.77,92.77,0,0,1-9.83-1.45A84.36,84.36,0,0,1,97.08,208,59.16,59.16,0,0,1,90,205a114.92,114.92,0,0,1-10.64-6,90.11,90.11,0,0,1-8.55-6.35,67.22,67.22,0,0,1-6.47-6c-1.65-1.8-3.19-3.72-4.77-5.59a78,78,0,0,1-8.43-12.29,87.4,87.4,0,0,1-5.24-11.33,82.83,82.83,0,0,1-4.84-19c-.22-1.76-.51-3.5-.58-5.27A8,8,0,0,1,40.33,131.67Zm85.9,29.11h75.62a1,1,0,0,0,1.15-.73,84.74,84.74,0,0,0,6.8-39.12,82.87,82.87,0,0,0-2.07-14.19,86,86,0,0,0-9.53-23.69,1.5,1.5,0,0,0-1.5-.84q-50.3,0-100.59,0H55.62a1.14,1.14,0,0,0-1.17.65c-1,1.85-2.07,3.68-3,5.58a84,84,0,0,0-6.85,19.26A85.16,85.16,0,0,0,49.51,160a1.14,1.14,0,0,0,1.24.81Q88.49,160.77,126.23,160.78ZM50.44,162c.82,1.67,1.52,3.24,2.33,4.74a88.1,88.1,0,0,0,13.91,18.81,77.83,77.83,0,0,0,9.09,8,88.36,88.36,0,0,0,20,11.31,75.89,75.89,0,0,0,18.81,5,82.92,82.92,0,0,0,13.91.77,79.05,79.05,0,0,0,10.65-.94,76.6,76.6,0,0,0,18.75-5.31,98.26,98.26,0,0,0,13.24-6.87,81.39,81.39,0,0,0,18-15.5,82.92,82.92,0,0,0,12.76-19.43c.19-.41.19-.62-.33-.56H50.44Zm5.2-81H195.82a2,2,0,0,0,.35,0c.2,0,.47.12.57-.12s-.12-.33-.21-.48a95.05,95.05,0,0,0-9.87-12.56c-1.26-1.4-2.65-2.67-4-4A88.84,88.84,0,0,0,159,48.58c-1.68-.77-3.43-1.4-5.18-2A83,83,0,0,0,123.05,42a78.48,78.48,0,0,0-9.81.94,74.44,74.44,0,0,0-20.68,6.19c-1.16.57-2.35,1.06-3.5,1.65a80.53,80.53,0,0,0-23.92,18,100.35,100.35,0,0,0-6.47,7.81C57.63,78,56.62,79.41,55.64,81Z" transform="translate(-0.93 0)"></path><path class="cls-5" d="M126.23,160.78q-37.74,0-75.48,0a1.14,1.14,0,0,1-1.24-.81,84.83,84.83,0,0,1,1.94-71.53c.93-1.9,2-3.73,3-5.58a1.14,1.14,0,0,1,1.17-.65H96.11q50.29,0,100.59,0a1.5,1.5,0,0,1,1.5.84,86,86,0,0,1,9.53,23.69,82.87,82.87,0,0,1,2.07,14.19,84.74,84.74,0,0,1-6.8,39.12,1,1,0,0,1-1.15.73ZM108.12,94c0,.28.13.36.24.47.54.58,1.09,1.17,1.66,1.73.25.25.3.44,0,.69a3.93,3.93,0,0,0-.44.55,9.07,9.07,0,0,0,2.46,12.91,8.33,8.33,0,0,0,9.27-.51.84.84,0,0,1,1.26,0c.51.44,1.11.79,1.61,1.25a.78.78,0,0,0,1.21,0c.56-.47,1.18-.86,1.74-1.33a.6.6,0,0,1,.91,0,8.29,8.29,0,0,0,12.72-3.17,8.9,8.9,0,0,0-.65-8.85c-.26-.41-.83-.74-.78-1.2s.65-.76,1-1.16.87-.74,1.14-1.35c-1.39,0-2.68,0-4,0a2.35,2.35,0,0,1-1.55-.51,19.15,19.15,0,0,0-9.75-3.73,18.67,18.67,0,0,0-12.62,3.74A2.38,2.38,0,0,1,112,94C110.72,94,109.42,94,108.12,94Zm45.72,42.76c.23.36.47.28.66.33a.76.76,0,0,1,.66.85c0,2.42,0,4.84,0,7.26,0,.7-.08,1.39-1,1.42a.39.39,0,0,0,0,.13s.1.11.16.11l3.73,0c.12,0,.27,0,.28-.15s-.16-.22-.29-.21c-.63.07-.92-.27-.94-.84,0-.87-.05-1.74-.06-2.61,0-.16,0-.32.19-.4a1.58,1.58,0,0,1,1.63.48c.56.76,1.13,1.51,1.66,2.28a3.1,3.1,0,0,0,3.11,1.47c.61-.06,1.22,0,1.83,0,.2,0,.42,0,.51-.23-1-.31-1-.45-.63-1.45.1-.24.19-.48.3-.72.59-1.32.21-1.07,1.66-1.09,2.12,0,2.12,0,2.89,2,.12.33.44.67.27,1-.36.66.14.49.43.49l5.85,0c.17,0,.39.08.49-.21-.08,0-.16-.13-.23-.12-.84.07-1-.49-1.07-1.14-.06-1.36-.11-2.73-.12-4.09a3.69,3.69,0,0,1,0-1.65c.5.52.95,1,1.39,1.46,1.75,1.9,3.79,3.51,5.49,5.46.19.21.44.52.77.39s.24-.52.24-.82c.06-2.48.1-5,.15-7.46,0-1.31,0-1.31,1.26-1.92a24.25,24.25,0,0,0-3.76.08c1.53.45,1.2.62,1.26,1.87,0,.82.08,1.64.1,2.46s0,1.84,0,2.76l-.18.1a4.81,4.81,0,0,0-.42-.56L175.52,137c-.18-.17-.33-.47-.63-.34s-.21.44-.21.68c-.06,2.68-.09,5.36-.15,8,0,1.13-.26,1.32-1.36,1.17a.75.75,0,0,1-.56-.36,8.42,8.42,0,0,1-.72-1.28c-1.12-2.61-2.23-5.23-3.35-7.84-.1-.22-.14-.55-.47-.54s-.36.33-.48.54-.11.26-.16.39c-1.16,2.68-2.3,5.35-3.46,8-.33.77-.48.79-1.08.22a28.09,28.09,0,0,1-2.28-2.6c-.79-.95-.78-1,.09-1.86a5,5,0,0,0,.37-.43,2.33,2.33,0,0,0-1.53-3.89,30.7,30.7,0,0,0-4.29-.11C154.82,136.75,154.38,136.77,153.84,136.77Zm-38.12-17.44a1.14,1.14,0,0,0,.28.13c1,.26,1,.26,1.06,1.35,0,2,0,4,0,5.93a9.49,9.49,0,0,1-.11,1.68.62.62,0,0,1-.5.52,1.75,1.75,0,0,1-2.09-.85c-.22-.39-.38-.81-.56-1.22-1.07-2.52-2.13-5.06-3.2-7.58-.08-.19-.15-.43-.42-.42s-.29.22-.36.39c-1.07,2.55-2.24,5.06-3.24,7.65-.37,1-.63,2.07-2,2.18v.18a23.83,23.83,0,0,0,3.38-.13c-.93-.33-1-.41-.59-1.32.27-.62.25-1.47.79-1.83s1.37-.12,2.07-.12c1.48,0,1.18-.23,1.64,1.14.14.4.31.79.47,1.18a.9.9,0,0,1-.09,1.08c1.65,0,3.18,0,4.7,0s3.1.28,4.65.11c2.09-.22,3.89-.89,4.83-3.06a4.82,4.82,0,0,0-4.25-7.07c-2-.15-4,0-6-.08A.49.49,0,0,0,115.72,119.33ZM98,136.77c1.39.6,1.23.32,1.23,1.95,0,2,0,4.05,0,6.07,0,.79.25,1.77-1,2h4.22c-.1-.24-.24-.28-.38-.27-.7.06-.85-.37-.92-.95-.1-.8-.07-1.6-.09-2.39,0-.18-.07-.38.15-.5a1.75,1.75,0,0,1,1.64.41c.73,1,1.47,2,2.28,3a2.19,2.19,0,0,0,1.77.82c2.56,0,5.12,0,7.69,0,.2,0,.48.05.56-.18a3,3,0,0,0,.11-2c-.22.56-.41,1.14-1.08,1.19a12.05,12.05,0,0,1-1.9,0,.82.82,0,0,1-.81-.89c0-.92,0-1.83,0-2.75,0-.18,0-.43.23-.43a11.38,11.38,0,0,1,2.18.07c.49.1.41.62.79,1.08a19.22,19.22,0,0,0,.16-2.3c-1,.54-2.06.26-3.06.32-.31,0-.3-.22-.3-.44V138c0-.22,0-.47.31-.42,1.06.19,2.48-.63,3,1.14.33-.55.17-1.1.28-1.59s-.09-.41-.41-.41c-1.91,0-3.81,0-5.71,0-.21,0-.46-.09-.64.13.1.18.25.16.38.17.63,0,.9.38.89,1,0,2.45,0,4.89,0,7.34,0,.39,0,.91-.39,1a1.53,1.53,0,0,1-1.5-.27,21.84,21.84,0,0,1-2.78-3c-.87-1.07-.87-1.06,0-2L105,141a2.38,2.38,0,0,0-1.43-4.13,29.24,29.24,0,0,0-4.29-.1C98.81,136.75,98.38,136.77,98,136.77Zm76.4-10.29c-.23.37-.08.78-.15,1.15s.22,1-.16,1.17-.88-.32-1.25-.63a22.32,22.32,0,0,1-2.06-2.49c-.31-.35-.76-.71-.83-1.11s.61-.69.87-1.09l.09-.11a2.47,2.47,0,0,0,.58-2.6,2.43,2.43,0,0,0-2.19-1.52c-1.73-.21-3.47,0-5.2-.09a.21.21,0,0,0-.23.13c.14.26.4.2.62.23a.64.64,0,0,1,.63.7q0,4,0,8a.65.65,0,0,1-.64.71c-.14,0-.34-.06-.4.22h4.31c-.27-.33-.56-.19-.79-.27a.64.64,0,0,1-.53-.57,25.22,25.22,0,0,1-.12-2.88c0-.23,0-.42.34-.43.65,0,1.23,0,1.63.66a15.42,15.42,0,0,0,1.63,2.38,2.51,2.51,0,0,0,1.78,1.15c1.77,0,3.52.3,5.28.17a3,3,0,0,0,2.77-2.93,3.42,3.42,0,0,0-2-3.2,13.54,13.54,0,0,1-1.74-1.07,1.32,1.32,0,0,1,.41-2.35,1.92,1.92,0,0,1,2.68,1.21c0,.11,0,.26.19.26s.18-.18.18-.31c0-.44,0-.89,0-1.34a.48.48,0,0,0-.49-.55,8.78,8.78,0,0,0-2.11-.13c-1.95.18-3.09,1.37-2.93,3.07a2.9,2.9,0,0,0,1.39,2.11c.63.44,1.31.82,2,1.25a1.76,1.76,0,0,1,.88,1.37,1.68,1.68,0,0,1-1.54,1.92,2.12,2.12,0,0,1-2.54-1.56C174.59,126.92,174.72,126.61,174.35,126.48ZM82,119.15l0,.2c.08,0,.16.12.24.12.84,0,1,.48,1,1.24,0,2.14,0,4.28,0,6.42,0,.84.24,1.86-1.07,2.06h4.2c-.18-.31-.42-.2-.61-.24a.73.73,0,0,1-.68-.76c0-.9,0-1.79,0-2.68,0-.21,0-.46.29-.46.6,0,1.17-.1,1.59.58a14.58,14.58,0,0,0,2.06,2.84,2.64,2.64,0,0,0,2,.81c1.76,0,3.52,0,5.29,0,.21,0,.45.08.65-.11-.09-.25-.28-.19-.42-.19-.65,0-1-.26-1-.95,0-.26,0-.52,0-.77,0-2,0-4,0-6.07,0-.82-.12-1.69,1.05-1.84l0-.1h-4c.59.27,1.11.45,1.1,1.27,0,2.35,0,4.7,0,7,0,1.47-.74,1.84-2,1.05a3.48,3.48,0,0,1-.6-.49c-1.09-1-1.82-2.31-2.82-3.39-.25-.27-.08-.39.12-.55a4.77,4.77,0,0,0,1.19-1.38,2.26,2.26,0,0,0-1.45-3.43,10.13,10.13,0,0,0-2.8-.22Zm44.58.08c1.54.84,1.55.83,2.28,2.54,1,2.31,1.93,4.63,2.91,6.94.11.27.16.67.52.69s.47-.42.59-.7c1.15-2.52,2.27-5,3.4-7.58a8.28,8.28,0,0,1,.6-1.19c.43-.62,1.09-.54,1.72-.39s.51.6.51,1c0,2.35,0,4.7,0,7,0,.8-.12,1.4-1.06,1.46,0,0,0,.08,0,.12h4.56c-.21-.13-.26-.19-.32-.2-1.35-.06-1.23-.33-1.24-1.43,0-2.24,0-4.47,0-6.71,0-.74,0-1.37,1-1.47,0,0,0-.07,0-.15h-7.52c1.09.53,1.1.53.68,1.57-.69,1.69-1.39,3.39-2.09,5.08-.08.2-.2.39-.36.7-.79-2-1.51-3.9-2.24-5.77-.4-1-.4-1,.59-1.58Zm31.28,10.2a4.83,4.83,0,0,0,4.68-3.37c1-2.63.33-6-3.42-6.9a8,8,0,0,0-3.15-.06,5.2,5.2,0,0,0-3.38,8.18C153.61,128.9,155.27,129.45,157.84,129.43ZM64.18,141.05l.49-.46a2.24,2.24,0,0,0,.85-2.32,2,2,0,0,0-1.9-1.43,39.39,39.39,0,0,0-5,0s0,.07-.06.11.28.12.44.15a.82.82,0,0,1,.81.93c0,2.4,0,4.79,0,7.19,0,.75-.08,1.4-1,1.45a.51.51,0,0,0,0,.15.56.56,0,0,0,.24.1c1.52,0,3,.05,4.57,0A3.1,3.1,0,0,0,66.32,145a2.5,2.5,0,0,0-.43-2.81A4.26,4.26,0,0,0,64.18,141.05Zm78-4.23c1.23.47,1.23.47,1.23,1.79,0,1.5,0,3,0,4.51a3.8,3.8,0,0,0,3.25,3.89c2.82.36,4.92-.78,5.23-3.85.16-1.6,0-3.19.08-4.79,0-1.08,0-1.08,1-1.39,0,0,0-.08,0-.15h-3.73c.18.29.4.21.57.25a.78.78,0,0,1,.72.87c0,1.88,0,3.76,0,5.64a2.29,2.29,0,0,1-1.46,2.29c-1.56.59-3.59.08-3.73-2.4-.09-1.61-.06-3.24,0-4.86,0-1.22,0-1.22,1.11-1.8Zm.67,9.93c-1.23-.21-1.46-1.24-1.89-2.1,0-.08-.07-.17-.11-.26-1-2.44-2.07-4.88-3.13-7.31-.1-.24-.14-.61-.51-.59s-.35.35-.45.58l-3.48,8.08c-.31.71-.61,1.43-1.56,1.46,0,0-.07.09-.17.25a20.06,20.06,0,0,0,3.49-.12c-.94-.41-1-.5-.6-1.52.05-.15.12-.3.18-.45.57-1.37.57-1.37,2.05-1.37,1.83,0,1.85,0,2.5,1.7.18.48.7.94.25,1.56-.1.13.1.19.2.19A15.94,15.94,0,0,0,142.89,146.75Zm-69.12-3.92a6.88,6.88,0,0,0,.34-1.93c0-.18-.12-.24-.28-.15-.89.49-1.85.15-2.77.24-.37,0-.4-.21-.4-.5,0-.8,0-1.6,0-2.39,0-.41.14-.56.53-.52s.52,0,.78,0c.84,0,1.84-.22,2,1.15a11.53,11.53,0,0,0,.3-1.79c0-.21-.08-.27-.3-.25-2,.14-4,.05-6,.05-.16,0-.37-.08-.44.18,1.34.44,1.22.23,1.23,1.76,0,2,0,4,0,6.06,0,.82.19,1.82-1.1,1.9a.3.3,0,0,0,.35.24l5.86,0c.19,0,.42,0,.49-.2a4,4,0,0,0,.17-2.06c-.12.11-.18.13-.19.17A1.22,1.22,0,0,1,73,145.93a3.85,3.85,0,0,1-1.93-.21,1,1,0,0,1-.4-.86c0-.45,0-.89,0-1.34,0-1.76,0-1.74,1.73-1.71C73.09,141.82,73.67,141.92,73.77,142.83Zm24.61-13.65h4.45c-.29-.29-.54-.18-.76-.23a.7.7,0,0,1-.69-.73c-.19-2.6-.06-5.21-.1-7.81,0-.46.22-.6.66-.6a2.16,2.16,0,0,1,2.15,2,2.1,2.1,0,0,1-1.77,2.51c-.16,0-.34,0-.42.22a.67.67,0,0,0,.63.18,3.9,3.9,0,0,0,2.22-.8,3,3,0,0,0,1.06-3,2.38,2.38,0,0,0-2.3-1.75c-1.66-.19-3.32,0-5-.07-.12,0-.3,0-.32.2.07,0,.15.11.23.11.86,0,1,.47,1,1.23,0,2.21,0,4.42,0,6.63C99.44,128.13,99.6,129,98.38,129.18Zm24.47,9.8a7.07,7.07,0,0,0,.11-1.89c0-.26-.22-.31-.44-.36a6.85,6.85,0,0,0-2.59-.08c-1.9.33-2.9,1.76-2.43,3.42a3.54,3.54,0,0,0,1.65,1.94c.61.4,1.25.74,1.84,1.18a1.69,1.69,0,0,1,.54,2,2.34,2.34,0,0,1-1.86,1.18,2.44,2.44,0,0,1-2.11-1.76c0-.16,0-.4-.3-.49a7.86,7.86,0,0,0-.17,2.21c0,.25.18.36.38.46a4.77,4.77,0,0,0,5-.89,2.87,2.87,0,0,0,.21-3.74,5.89,5.89,0,0,0-2.11-1.62,4.47,4.47,0,0,1-1.31-.93,1.23,1.23,0,0,1,.1-1.82,2,2,0,0,1,3.21.92C122.59,138.78,122.58,138.9,122.85,139Zm-30.4-.07c.46-.66.24-1.19.32-1.67s-.06-.54-.54-.53a70.42,70.42,0,0,1-8.09-.08c-.17,0-.37-.06-.42.14a3.51,3.51,0,0,0-.19,1.86c.49-1.13,1.47-1,2.37-1h.49c.88,0,.89,0,.88.9,0,2.09.07,4.18-.08,6.27,0,.8.24,1.77-1.06,1.85.06.12.08.19.1.19l4.08,0a.3.3,0,0,0,.21-.14c0-.19-.16-.22-.29-.21-1,.13-1.07-.55-1.08-1.23,0-2.42,0-4.84,0-7.26,0-.33.11-.48.45-.44.58.06,1.17,0,1.75.08A1.13,1.13,0,0,1,92.45,138.91Zm95.86,7.73c.05.22.16.25.28.25h3.74c.13,0,.33,0,.34-.15s-.21-.23-.36-.21c-.73.09-.94-.34-1-.95q0-.39,0-.78c0-1.92,0-3.85,0-5.78,0-1.42,0-1.44,1.43-1.4.82,0,1.74-.05,2,1.21.41-.58.19-1.11.26-1.6s-.07-.52-.54-.52a72.76,72.76,0,0,1-8.09-.07c-.14,0-.32-.08-.38.08a3.5,3.5,0,0,0-.23,1.91c.49-1.14,1.48-1,2.38-1a4.42,4.42,0,0,0,.63,0c.58-.1.77.1.75.7-.07,2.14.07,4.28-.09,6.41C189.29,145.53,189.63,146.55,188.31,146.64ZM82.09,139.1a7.36,7.36,0,0,0,.15-1.8c0-.35-.12-.51-.46-.57a6.26,6.26,0,0,0-3.13.08,2.61,2.61,0,0,0-1,4.57,8,8,0,0,0,1.5,1,5.41,5.41,0,0,1,1.46,1.09,1.59,1.59,0,0,1,0,2,2.14,2.14,0,0,1-2.14.72,2.24,2.24,0,0,1-1.73-2.05s-.1-.07-.22-.15a10.26,10.26,0,0,0-.14,2.12c0,.4.14.59.52.7A6.79,6.79,0,0,0,80,147a3.06,3.06,0,0,0,2.52-3.09,3.38,3.38,0,0,0-2-3,14.32,14.32,0,0,1-1.79-1.1,1.31,1.31,0,0,1,.44-2.37C80.49,137,81.34,137.43,82.09,139.1Zm51.2-.37a5.24,5.24,0,0,0,.12-1.88c0-.19-.18-.15-.32-.14-1,0-2,.07-3,0a37.61,37.61,0,0,1-5.41-.14c-.12,0-.26,0-.29.13a3.23,3.23,0,0,0-.17,1.86c.41-1.09,1.34-.91,2.16-1,.32,0,.66,0,1,0s.54.08.54.49c0,2.38,0,4.75,0,7.12,0,.7-.07,1.39-1,1.41a.8.8,0,0,0-.06.18h4.43c-.06-.17-.13-.23-.21-.25-1.13-.22-1.11-.22-1.19-1.35-.15-2.14-.05-4.27-.07-6.41,0-1.18,0-1.2,1.17-1.17C131.87,137.64,132.9,137.46,133.29,138.73Zm10.92-12.26c-.05.66-.09,1.3-.16,1.94a.73.73,0,0,0,.66.84,7.23,7.23,0,0,0,3.07.09,2.8,2.8,0,0,0,2.33-2.11,3,3,0,0,0-.82-3.1,7.36,7.36,0,0,0-1.54-1.11,5.31,5.31,0,0,1-1.5-1,1.24,1.24,0,0,1-.1-1.67,2.1,2.1,0,0,1,3.28.3c.12.24,0,.75.32.68s.11-.58.17-.89a.61.61,0,0,0,0-.14c0-1.07,0-1.1-1.06-1.24a6.75,6.75,0,0,0-1.62,0,2.76,2.76,0,0,0-1.4,5.2c.55.4,1.16.71,1.73,1.08a1.87,1.87,0,0,1,.95,2.33,1.83,1.83,0,0,1-2.07,1.09,1.86,1.86,0,0,1-1.9-1.64C144.52,126.86,144.61,126.58,144.21,126.47Zm-63.39-5.18a3.58,3.58,0,0,0,.25-1.64c0-.44-.12-.56-.56-.53a44.37,44.37,0,0,1-8.15-.09c-.17,0-.29,0-.33.15a4,4,0,0,0-.22,1.87c.75-.94.75-.94,2-1,.39,0,.79,0,1.19,0s.58.11.58.55c0,2.23,0,4.47,0,6.7,0,.74.2,1.75-1.29,1.75a12.79,12.79,0,0,0,4.62,0c-1.43-.37-1.44-.37-1.45-2,0-1.86,0-3.71,0-5.57,0-1.5,0-1.5,1.53-1.47C79.78,120.07,80.64,120,80.82,121.29Z" transform="translate(-0.93 0)"></path><path class="cls-2" d="M50.44,162H201.51c.52-.06.52.15.33.56A82.92,82.92,0,0,1,189.08,182a81.39,81.39,0,0,1-18,15.5,98.26,98.26,0,0,1-13.24,6.87,76.6,76.6,0,0,1-18.75,5.31,79.05,79.05,0,0,1-10.65.94,82.92,82.92,0,0,1-13.91-.77,75.89,75.89,0,0,1-18.81-5,88.36,88.36,0,0,1-20-11.31,77.83,77.83,0,0,1-9.09-8,88.1,88.1,0,0,1-13.91-18.81C52,165.23,51.26,163.66,50.44,162ZM131,196.85l.06-.16c-.79-.66-1.55-1.35-2.36-2a1,1,0,0,1-.44-1.21c.21-.91.37-1.83.57-2.87-.76.4-1.43.7-2,1.09a1.88,1.88,0,0,1-2.26,0,20.58,20.58,0,0,0-2.29-1.09c.29,1.14.5,2.1.8,3a.91.91,0,0,1-.37,1.14c-.76.61-1.47,1.26-2.31,2,1.1.17,2,.34,3,.45a1.24,1.24,0,0,1,1.13.77c.39.86.85,1.7,1.35,2.66.4-1.09.77-2,1.1-3a.71.71,0,0,1,.75-.56C128.76,197.07,129.87,197,131,196.85Zm-4.75-22a6.68,6.68,0,0,0-.48-2.83,2.87,2.87,0,0,0-2.44-2,2.78,2.78,0,0,0-2.91,1.59,7.45,7.45,0,0,0-.06,6.86,2.78,2.78,0,0,0,4.94.19A7.06,7.06,0,0,0,126.24,174.85Zm13,5.31c.2.13.37,0,.53-.06a7.85,7.85,0,0,0,2-1.34c1.77-1.61,2.88-3.52,2.52-6a3,3,0,0,0-2.29-2.57,3.45,3.45,0,0,0-3.68,1.14,2.79,2.79,0,0,0,.07,3.4,2.84,2.84,0,0,0,3.24.59c.22-.11.48-.19.51-.51-1.38.26-1.86.17-2.37-.44a2.92,2.92,0,0,1-.3-2.88,1.45,1.45,0,0,1,2.21-.51,2.51,2.51,0,0,1,.93,1.69,7,7,0,0,1-2.72,6.9C139.67,179.73,139.32,179.8,139.26,180.16Zm-22-2.59c-.34.42-.54,1-1.12,1.1a13,13,0,0,1-3.52.1,14.5,14.5,0,0,1,1.11-1,10.1,10.1,0,0,0,2.87-3.43c1-2.23-.15-4.13-2.58-4.27a6.35,6.35,0,0,0-1.68.12c-1.22.25-1.62,1.22-.92,2.36,0-.13.09-.24.12-.34a1.81,1.81,0,0,1,3.59,0,4.87,4.87,0,0,1-1.25,4.23,21.43,21.43,0,0,1-3,2.88c-.14.12-.34.24-.28.45s.32.15.49.15h5.08c.34,0,.68,0,.79-.42A5.08,5.08,0,0,0,117.25,177.57Zm23.36,17.52c-.57-.49-1-.9-1.45-1.23a.81.81,0,0,1-.35-1,5.93,5.93,0,0,0,.23-1.5.57.57,0,0,0-.54.17,1.93,1.93,0,0,1-2.6.08,3.49,3.49,0,0,0-.73-.31,2.46,2.46,0,0,0,.23,1.34,1.1,1.1,0,0,1-.46,1.49,3.07,3.07,0,0,0-1,.93c.62.11,1.15.21,1.68.27a.91.91,0,0,1,.82.62c.2.48.48.93.79,1.51.25-.67.46-1.19.62-1.72a.62.62,0,0,1,.65-.5C139.16,195.26,139.8,195.17,140.61,195.09Zm-27-3.28-.07.21c.11.45.18.91.33,1.35a1,1,0,0,1-.41,1.32,10.8,10.8,0,0,0-1.15,1,16.54,16.54,0,0,0,1.63.3,1,1,0,0,1,1,.72c.18.44.43.86.71,1.43a8.92,8.92,0,0,0,.53-1.37c.15-.7.57-.89,1.22-.87a4,4,0,0,0,1.58-.2c-.48-.41-.91-.8-1.37-1.16a.8.8,0,0,1-.34-1,17.41,17.41,0,0,0,.36-1.83A2.66,2.66,0,0,1,113.63,191.81Zm15.92-19.32a4.07,4.07,0,0,0,1.4-.5c.42-.18.66-.16.65.39,0,2,0,4,0,6.06,0,1-.13,1.12-1.19,1.22-.15,0-.34-.06-.44.2h4.82c-.21-.12-.26-.18-.32-.18-1.17,0-1.3-.25-1.29-1.49,0-2.51-.1-5,.08-7.53,0-.19,0-.41-.12-.53s-.35.06-.49.16c-.71.45-1.41.92-2.11,1.4A2.93,2.93,0,0,0,129.55,172.49Z" transform="translate(-0.93 0)"></path><path class="cls-2" d="M55.64,81c1-1.62,2-3,3-4.47a100.35,100.35,0,0,1,6.47-7.81,80.53,80.53,0,0,1,23.92-18c1.15-.59,2.34-1.08,3.5-1.65A74.44,74.44,0,0,1,113.24,43a78.48,78.48,0,0,1,9.81-.94,83,83,0,0,1,30.74,4.57c1.75.6,3.5,1.23,5.18,2a88.84,88.84,0,0,1,23.66,15.33c1.38,1.28,2.77,2.55,4,4a95.05,95.05,0,0,1,9.87,12.56c.09.15.3.3.21.48s-.37.1-.57.12a2,2,0,0,1-.35,0H55.64Zm63.58-22.14a.48.48,0,0,0,.26.47c1.2,1.12,2.4,2.25,3.61,3.35a.9.9,0,0,1,.37,1A16.41,16.41,0,0,0,123,66a24.39,24.39,0,0,0-.48,3.25,7.61,7.61,0,0,0,.69-.42c1.24-1,2.6-1.74,3.91-2.61a.77.77,0,0,1,1,0c1.17.81,2.47,1.42,3.57,2.35a2.75,2.75,0,0,0,1.13.63c-.2-1.53-.6-3-.91-4.38-.43-1.95-.43-1.93,1-3.25,1-.87,1.9-1.78,3-2.79l-3.6-.28a6.08,6.08,0,0,1-2.29-.24c-.65-.35-.79-1.32-1.15-2-.55-1.07-1.07-2.16-1.66-3.36a6.05,6.05,0,0,0-.29.59c-.55,1.4-1.11,2.8-1.62,4.21a.92.92,0,0,1-.92.68C122.69,58.47,121,58.69,119.22,58.89ZM138.65,61c.84.8,1.53,1.46,2.23,2.1a.68.68,0,0,1,.24.74c-.19.91-.33,1.83-.52,2.9.86-.54,1.61-1,2.31-1.47a.91.91,0,0,1,1.19,0c.72.5,1.48.93,2.37,1.48-.24-1.06-.4-1.93-.64-2.78a1,1,0,0,1,.38-1.22,14.17,14.17,0,0,0,1.87-1.85c-1-.07-1.79-.17-2.63-.17a.92.92,0,0,1-.95-.64c-.37-.82-.79-1.62-1.24-2.55-.36.92-.7,1.67-.94,2.45a1,1,0,0,1-1,.73ZM108,67.28c1-.59,1.72-1,2.45-1.54a.71.71,0,0,1,.94,0c.77.51,1.57,1,2.48,1.54-.23-1-.37-1.92-.63-2.76a1.09,1.09,0,0,1,.4-1.28c.63-.55,1.23-1.13,2-1.8-.94-.07-1.7-.19-2.46-.17a1.26,1.26,0,0,1-1.37-.92c-.3-.74-.68-1.44-1.09-2.28-.34.88-.67,1.63-.92,2.4a1,1,0,0,1-1.08.79c-.82.06-1.65.18-2.63.29.73.67,1.32,1.27,2,1.8a1.26,1.26,0,0,1,.46,1.41C108.25,65.53,108.14,66.32,108,67.28Z" transform="translate(-0.93 0)"></path><path class="cls-4" d="M108.12,94c1.3,0,2.6,0,3.91,0a2.38,2.38,0,0,0,1.55-.5,18.67,18.67,0,0,1,12.62-3.74A19.15,19.15,0,0,1,136,93.51a2.35,2.35,0,0,0,1.55.51c1.29,0,2.58,0,4,0-.27.61-.79.91-1.14,1.35s-.92.68-1,1.16.52.79.78,1.2a8.9,8.9,0,0,1,.65,8.85,8.29,8.29,0,0,1-12.72,3.17.6.6,0,0,0-.91,0c-.56.47-1.18.86-1.74,1.33a.78.78,0,0,1-1.21,0c-.5-.46-1.1-.81-1.61-1.25a.84.84,0,0,0-1.26,0,8.33,8.33,0,0,1-9.27.51,9.07,9.07,0,0,1-2.46-12.91,3.93,3.93,0,0,1,.44-.55c.28-.25.23-.44,0-.69-.57-.56-1.12-1.15-1.66-1.73C108.25,94.37,108.08,94.29,108.12,94Zm8.21,15.27c3.67.13,6.32-3.21,6.35-6.55A6.32,6.32,0,1,0,110,102.6C110.08,106.06,112.68,109.4,116.33,109.28Zm16.86,0c3.64.2,6.32-3.41,6.31-6.49a6.3,6.3,0,1,0-12.59-.1C126.88,106,129.62,109.44,133.19,109.28ZM117.65,94.06c4.18,1.15,6.15,3.18,7.11,7.36a8.8,8.8,0,0,1,7.1-7.34C128.65,91.27,121.12,91.17,117.65,94.06Z" transform="translate(-0.93 0)"></path><path class="cls-6" d="M153.84,136.77c.54,0,1,0,1.41,0a30.7,30.7,0,0,1,4.29.11,2.33,2.33,0,0,1,1.53,3.89,5,5,0,0,1-.37.43c-.87.9-.88.91-.09,1.86a28.09,28.09,0,0,0,2.28,2.6c.6.57.75.55,1.08-.22,1.16-2.67,2.3-5.34,3.46-8,0-.13.1-.26.16-.39s.15-.54.48-.54.37.32.47.54c1.12,2.61,2.23,5.23,3.35,7.84a8.42,8.42,0,0,0,.72,1.28.75.75,0,0,0,.56.36c1.1.15,1.34,0,1.36-1.17.06-2.68.09-5.36.15-8,0-.24-.09-.56.21-.68s.45.17.63.34l6.53,6.54a4.81,4.81,0,0,1,.42.56l.18-.1c0-.92,0-1.84,0-2.76s-.06-1.64-.1-2.46c-.06-1.25.27-1.42-1.26-1.87a24.25,24.25,0,0,1,3.76-.08c-1.24.61-1.24.61-1.26,1.92,0,2.49-.09,5-.15,7.46,0,.3.12.68-.24.82s-.58-.18-.77-.39c-1.7-1.95-3.74-3.56-5.49-5.46-.44-.48-.89-.94-1.39-1.46a3.69,3.69,0,0,0,0,1.65c0,1.36.06,2.73.12,4.09,0,.65.23,1.21,1.07,1.14.07,0,.15.08.23.12-.1.29-.32.21-.49.21l-5.85,0c-.29,0-.79.17-.43-.49.17-.33-.15-.67-.27-1-.77-2-.77-2-2.89-2-1.45,0-1.07-.23-1.66,1.09-.11.24-.2.48-.3.72-.39,1-.34,1.14.63,1.45-.09.27-.31.23-.51.23-.61,0-1.22,0-1.83,0a3.1,3.1,0,0,1-3.11-1.47c-.53-.77-1.1-1.52-1.66-2.28a1.58,1.58,0,0,0-1.63-.48c-.21.08-.19.24-.19.4,0,.87,0,1.74.06,2.61,0,.57.31.91.94.84.13,0,.31,0,.29.21s-.16.15-.28.15l-3.73,0c-.06,0-.11-.07-.16-.11a.39.39,0,0,1,0-.13c.95,0,1-.72,1-1.42,0-2.42,0-4.84,0-7.26a.76.76,0,0,0-.66-.85C154.31,137.05,154.07,137.13,153.84,136.77Zm6,3.07a2.11,2.11,0,0,0-2.37-2.37c-.38,0-.54.17-.54.56q0,1.65,0,3.3c0,.33.14.48.48.55C158.88,142.22,159.85,141.42,159.86,139.84Zm6.43,2.83h2.41c.21,0,.3-.08.21-.3-.39-1-.78-2-1.23-3.2Z" transform="translate(-0.93 0)"></path><path class="cls-7" d="M115.72,119.33a.49.49,0,0,1,.51-.17c2,.08,4-.07,6,.08a4.82,4.82,0,0,1,4.25,7.07c-.94,2.17-2.74,2.84-4.83,3.06-1.55.17-3.09-.17-4.65-.11s-3,0-4.7,0a.9.9,0,0,0,.09-1.08c-.16-.39-.33-.78-.47-1.18-.46-1.37-.16-1.13-1.64-1.14-.7,0-1.51-.25-2.07.12s-.52,1.21-.79,1.83c-.39.91-.34,1,.59,1.32a23.83,23.83,0,0,1-3.38.13v-.18c1.34-.11,1.6-1.22,2-2.18,1-2.59,2.17-5.1,3.24-7.65.07-.17.15-.37.36-.39s.34.23.42.42c1.07,2.52,2.13,5.06,3.2,7.58.18.41.34.83.56,1.22a1.75,1.75,0,0,0,2.09.85.62.62,0,0,0,.5-.52,9.49,9.49,0,0,0,.11-1.68c0-2,0-3.95,0-5.93,0-1.09,0-1.09-1.06-1.35A1.14,1.14,0,0,1,115.72,119.33Zm4.56.58h-.35c-1,0-1,0-1,1,0,2,0,4,0,5.92,0,1.42.35,1.76,1.78,1.83h.35c1.33-.09,2.68-.3,3.32-1.61C125.72,124.26,125.07,120,120.28,119.91Zm-10.46,1.66c-.45,1.14-.85,2.14-1.25,3.13-.09.23-.07.36.21.35h2c.28,0,.3-.12.21-.35C110.64,123.71,110.25,122.71,109.82,121.57Z" transform="translate(-0.93 0)"></path><path class="cls-8" d="M98,136.77c.43,0,.86,0,1.29,0a29.24,29.24,0,0,1,4.29.1A2.38,2.38,0,0,1,105,141l-.15.16c-.9,1-.9,1,0,2a21.84,21.84,0,0,0,2.78,3,1.53,1.53,0,0,0,1.5.27c.44-.13.39-.65.39-1,0-2.45,0-4.89,0-7.34,0-.64-.26-1-.89-1-.13,0-.28,0-.38-.17.18-.22.43-.12.64-.13,1.9,0,3.8,0,5.71,0,.32,0,.5,0,.41.41s0,1-.28,1.59c-.5-1.77-1.92-.95-3-1.14-.29-.05-.31.2-.31.42v2.54c0,.22,0,.46.3.44,1-.06,2,.22,3.06-.32a19.22,19.22,0,0,1-.16,2.3c-.38-.46-.3-1-.79-1.08a11.38,11.38,0,0,0-2.18-.07c-.27,0-.23.25-.23.43,0,.92,0,1.83,0,2.75a.82.82,0,0,0,.81.89,12.05,12.05,0,0,0,1.9,0c.67,0,.86-.63,1.08-1.19a3,3,0,0,1-.11,2c-.08.23-.36.18-.56.18-2.57,0-5.13,0-7.69,0a2.19,2.19,0,0,1-1.77-.82c-.81-.95-1.55-1.95-2.28-3a1.75,1.75,0,0,0-1.64-.41c-.22.12-.16.32-.15.5,0,.79,0,1.59.09,2.39.07.58.22,1,.92.95.14,0,.28,0,.38.27H98.16c1.27-.24,1-1.22,1-2,0-2,0-4,0-6.07C99.18,137.09,99.34,137.37,98,136.77Zm3,2.9v1.62a.5.5,0,0,0,.26.53,2.16,2.16,0,0,0,2.07-.29,2.81,2.81,0,0,0,.45-2.84,2.11,2.11,0,0,0-2.12-1.22c-.47,0-.69.15-.67.65S101,139.15,101,139.67Z" transform="translate(-0.93 0)"></path><path class="cls-4" d="M174.35,126.48c.37.13.24.44.29.67a2.12,2.12,0,0,0,2.54,1.56,1.68,1.68,0,0,0,1.54-1.92,1.76,1.76,0,0,0-.88-1.37c-.65-.43-1.33-.81-2-1.25a2.9,2.9,0,0,1-1.39-2.11c-.16-1.7,1-2.89,2.93-3.07a8.78,8.78,0,0,1,2.11.13.48.48,0,0,1,.49.55c0,.45,0,.9,0,1.34,0,.13,0,.32-.18.31s-.15-.15-.19-.26a1.92,1.92,0,0,0-2.68-1.21,1.32,1.32,0,0,0-.41,2.35,13.54,13.54,0,0,0,1.74,1.07,3.42,3.42,0,0,1,2,3.2,3,3,0,0,1-2.77,2.93c-1.76.13-3.51-.2-5.28-.17a2.51,2.51,0,0,1-1.78-1.15,15.42,15.42,0,0,1-1.63-2.38c-.4-.68-1-.69-1.63-.66-.3,0-.34.2-.34.43a25.22,25.22,0,0,0,.12,2.88.64.64,0,0,0,.53.57c.23.08.52-.06.79.27H164c.06-.28.26-.21.4-.22a.65.65,0,0,0,.64-.71q0-4,0-8a.64.64,0,0,0-.63-.7c-.22,0-.48,0-.62-.23a.21.21,0,0,1,.23-.13c1.73.08,3.47-.12,5.2.09a2.43,2.43,0,0,1,2.19,1.52,2.47,2.47,0,0,1-.58,2.6l-.09.11c-.26.4-1,.59-.87,1.09s.52.76.83,1.11a22.32,22.32,0,0,0,2.06,2.49c.37.31.77.83,1.25.63s.09-.77.16-1.17S174.12,126.85,174.35,126.48Zm-7.48-4.4c0,.54,0,1.08,0,1.62,0,.26.06.51.32.55a2.16,2.16,0,0,0,1.94-.26,2.69,2.69,0,0,0,.49-2.93,2,2,0,0,0-2.21-1.15c-.37,0-.55.16-.54.56S166.87,121.54,166.87,122.08Z" transform="translate(-0.93 0)"></path><path class="cls-9" d="M82,119.15H85.1a10.13,10.13,0,0,1,2.8.22,2.26,2.26,0,0,1,1.45,3.43,4.77,4.77,0,0,1-1.19,1.38c-.2.16-.37.28-.12.55,1,1.08,1.73,2.39,2.82,3.39a3.48,3.48,0,0,0,.6.49c1.28.79,2,.42,2-1.05,0-2.35,0-4.7,0-7,0-.82-.51-1-1.1-1.27h4l0,.1c-1.17.15-1.05,1-1.05,1.84,0,2,0,4,0,6.07,0,.25,0,.51,0,.77,0,.69.36,1,1,.95.14,0,.33-.06.42.19-.2.19-.44.11-.65.11-1.77,0-3.53,0-5.29,0a2.64,2.64,0,0,1-2-.81,14.58,14.58,0,0,1-2.06-2.84c-.42-.68-1-.6-1.59-.58-.31,0-.3.25-.29.46,0,.89,0,1.78,0,2.68a.73.73,0,0,0,.68.76c.19,0,.43-.07.61.24h-4.2c1.31-.2,1.06-1.22,1.07-2.06,0-2.14,0-4.28,0-6.42,0-.76-.18-1.23-1-1.24-.08,0-.16-.08-.24-.12Zm3,2.87v1.62c0,.28,0,.57.34.62a2.44,2.44,0,0,0,1.78-.13,2.59,2.59,0,0,0,.73-2.94,2.15,2.15,0,0,0-2.25-1.33c-.43,0-.63.24-.61.68S84.94,121.53,84.94,122Z" transform="translate(-0.93 0)"></path><path class="cls-7" d="M126.56,119.23h4.5c-1,.56-1,.56-.59,1.58.73,1.87,1.45,3.75,2.24,5.77.16-.31.28-.5.36-.7.7-1.69,1.4-3.39,2.09-5.08.42-1,.41-1-.68-1.57H142c0,.08,0,.15,0,.15-.92.1-1,.73-1,1.47,0,2.24,0,4.47,0,6.71,0,1.1-.11,1.37,1.24,1.43.06,0,.11.07.32.2H138s0-.12,0-.12c.94-.06,1.07-.66,1.06-1.46,0-2.35,0-4.7,0-7,0-.42,0-.89-.51-1s-1.29-.23-1.72.39a8.28,8.28,0,0,0-.6,1.19c-1.13,2.53-2.25,5.06-3.4,7.58-.12.28-.16.72-.59.7s-.41-.42-.52-.69c-1-2.31-1.93-4.63-2.91-6.94C128.11,120.06,128.1,120.07,126.56,119.23Z" transform="translate(-0.93 0)"></path><path class="cls-8" d="M157.84,129.43c-2.57,0-4.23-.53-5.27-2.15A5.2,5.2,0,0,1,156,119.1a8,8,0,0,1,3.15.06c3.75.86,4.46,4.27,3.42,6.9A4.83,4.83,0,0,1,157.84,129.43Zm-4.14-5.63a5.11,5.11,0,0,0,1.72,4.11c1.65,1.32,4.58,1.16,5.22-1.65a7.71,7.71,0,0,0,.14-2.87,4.38,4.38,0,0,0-1.47-2.81c-1.7-1.46-4.86-1.15-5.46,1.64A12,12,0,0,0,153.7,123.8Z" transform="translate(-0.93 0)"></path><path class="cls-7" d="M64.18,141.05a4.26,4.26,0,0,1,1.71,1.14,2.5,2.5,0,0,1,.43,2.81,3.1,3.1,0,0,1-2.76,1.87c-1.52.06-3.05,0-4.57,0a.56.56,0,0,1-.24-.1.51.51,0,0,1,0-.15c.95,0,1-.7,1-1.45,0-2.4,0-4.79,0-7.19a.82.82,0,0,0-.81-.93c-.16,0-.34,0-.44-.15s0-.11.06-.11a39.39,39.39,0,0,1,5,0,2,2,0,0,1,1.9,1.43,2.24,2.24,0,0,1-.85,2.32Zm-2.55,2.41h0c0,.52,0,1,0,1.55a1,1,0,0,0,.36.87,1.81,1.81,0,0,0,2.62-.92,2.8,2.8,0,0,0-1.53-3.21c-1-.4-1.47-.11-1.47.94Zm0-4.27v1.26c0,.26,0,.45.35.51a1.6,1.6,0,0,0,2-1.23,1.89,1.89,0,0,0-1.43-2.29c-.83-.09-.94,0-.94.84Z" transform="translate(-0.93 0)"></path><path class="cls-8" d="M142.22,136.82h4.29c-1.07.58-1.1.58-1.11,1.8,0,1.62-.05,3.25,0,4.86.14,2.48,2.17,3,3.73,2.4a2.29,2.29,0,0,0,1.46-2.29c.05-1.88,0-3.76,0-5.64a.78.78,0,0,0-.72-.87c-.17,0-.39,0-.57-.25h3.73c0,.07,0,.14,0,.15-1,.31-1,.31-1,1.39,0,1.6.08,3.19-.08,4.79-.31,3.07-2.41,4.21-5.23,3.85a3.8,3.8,0,0,1-3.25-3.89c0-1.5,0-3,0-4.51C143.45,137.29,143.45,137.29,142.22,136.82Z" transform="translate(-0.93 0)"></path><path class="cls-6" d="M142.89,146.75a15.94,15.94,0,0,1-3.23.1c-.1,0-.3-.06-.2-.19.45-.62-.07-1.08-.25-1.56-.65-1.71-.67-1.7-2.5-1.7-1.48,0-1.48,0-2.05,1.37-.06.15-.13.3-.18.45-.39,1-.34,1.11.6,1.52a20.06,20.06,0,0,1-3.49.12c.1-.16.13-.25.17-.25,1,0,1.25-.75,1.56-1.46l3.48-8.08c.1-.23.14-.56.45-.58s.41.35.51.59c1.06,2.43,2.09,4.87,3.13,7.31,0,.09.07.18.11.26C141.43,145.51,141.66,146.54,142.89,146.75Zm-6-7.59-1.39,3.51h2.35c.3,0,.35-.11.25-.38C137.72,141.32,137.35,140.34,136.9,139.16Z" transform="translate(-0.93 0)"></path><path class="cls-8" d="M73.77,142.83c-.1-.91-.68-1-1.38-1-1.73,0-1.73-.05-1.73,1.71,0,.45,0,.89,0,1.34a1,1,0,0,0,.4.86,3.85,3.85,0,0,0,1.93.21,1.22,1.22,0,0,0,1.38-1.11s.07-.06.19-.17a4,4,0,0,1-.17,2.06c-.07.2-.3.2-.49.2l-5.86,0a.3.3,0,0,1-.35-.24c1.29-.08,1.09-1.08,1.1-1.9,0-2,0-4,0-6.06,0-1.53.11-1.32-1.23-1.76.07-.26.28-.18.44-.18,2,0,4,.09,6-.05.22,0,.32,0,.3.25a11.53,11.53,0,0,1-.3,1.79c-.2-1.37-1.2-1.11-2-1.15-.26,0-.52,0-.78,0s-.55.11-.53.52c0,.79,0,1.59,0,2.39,0,.29,0,.54.4.5.92-.09,1.88.25,2.77-.24.16-.09.32,0,.28.15A6.88,6.88,0,0,1,73.77,142.83Z" transform="translate(-0.93 0)"></path><path class="cls-7" d="M98.38,129.18c1.22-.14,1.06-1.05,1.06-1.85,0-2.21,0-4.42,0-6.63,0-.76-.16-1.25-1-1.23-.08,0-.16-.08-.23-.11,0-.25.2-.21.32-.2,1.66.09,3.32-.12,5,.07a2.38,2.38,0,0,1,2.3,1.75,3,3,0,0,1-1.06,3,3.9,3.9,0,0,1-2.22.8.67.67,0,0,1-.63-.18c.08-.22.26-.19.42-.22a2.1,2.1,0,0,0,1.77-2.51,2.16,2.16,0,0,0-2.15-2c-.44,0-.67.14-.66.6,0,2.6-.09,5.21.1,7.81a.7.7,0,0,0,.69.73c.22.05.47-.06.76.23Z" transform="translate(-0.93 0)"></path><path class="cls-6" d="M122.85,139c-.27-.08-.26-.2-.29-.31a2,2,0,0,0-3.21-.92,1.23,1.23,0,0,0-.1,1.82,4.47,4.47,0,0,0,1.31.93,5.89,5.89,0,0,1,2.11,1.62,2.87,2.87,0,0,1-.21,3.74,4.77,4.77,0,0,1-5,.89c-.2-.1-.37-.21-.38-.46a7.86,7.86,0,0,1,.17-2.21c.31.09.26.33.3.49a2.44,2.44,0,0,0,2.11,1.76,2.34,2.34,0,0,0,1.86-1.18,1.69,1.69,0,0,0-.54-2c-.59-.44-1.23-.78-1.84-1.18a3.54,3.54,0,0,1-1.65-1.94c-.47-1.66.53-3.09,2.43-3.42a6.85,6.85,0,0,1,2.59.08c.22.05.45.1.44.36A7.07,7.07,0,0,1,122.85,139Z" transform="translate(-0.93 0)"></path><path class="cls-10" d="M92.45,138.91a1.13,1.13,0,0,0-1.14-1.23c-.58-.09-1.17,0-1.75-.08-.34,0-.45.11-.45.44,0,2.42,0,4.84,0,7.26,0,.68.11,1.36,1.08,1.23.13,0,.3,0,.29.21a.3.3,0,0,1-.21.14l-4.08,0s0-.07-.1-.19c1.3-.08,1-1,1.06-1.85.15-2.09,0-4.18.08-6.27,0-.91,0-.91-.88-.9H85.9c-.9,0-1.88-.12-2.37,1a3.51,3.51,0,0,1,.19-1.86c0-.2.25-.15.42-.14a70.42,70.42,0,0,0,8.09.08c.48,0,.61.12.54.53S92.91,138.25,92.45,138.91Z" transform="translate(-0.93 0)"></path><path class="cls-10" d="M188.31,146.64c1.32-.09,1-1.11,1-1.92.16-2.13,0-4.27.09-6.41,0-.6-.17-.8-.75-.7a4.42,4.42,0,0,1-.63,0c-.9,0-1.89-.13-2.38,1a3.5,3.5,0,0,1,.23-1.91c.06-.16.24-.1.38-.08a72.76,72.76,0,0,0,8.09.07c.47,0,.61.11.54.52s.15,1-.26,1.6c-.22-1.26-1.14-1.18-2-1.21-1.43,0-1.43,0-1.43,1.4,0,1.93,0,3.86,0,5.78q0,.39,0,.78c.05.61.26,1,1,.95.15,0,.38,0,.36.21s-.21.15-.34.15h-3.74C188.47,146.89,188.36,146.86,188.31,146.64Z" transform="translate(-0.93 0)"></path><path class="cls-6" d="M82.09,139.1c-.75-1.67-1.6-2.13-2.87-1.67a1.31,1.31,0,0,0-.44,2.37,14.32,14.32,0,0,0,1.79,1.1,3.38,3.38,0,0,1,2,3A3.06,3.06,0,0,1,80,147a6.79,6.79,0,0,1-3.07-.14c-.38-.11-.56-.3-.52-.7a10.26,10.26,0,0,1,.14-2.12c.12.08.22.11.22.15a2.24,2.24,0,0,0,1.73,2.05,2.14,2.14,0,0,0,2.14-.72,1.59,1.59,0,0,0,0-2,5.41,5.41,0,0,0-1.46-1.09,8,8,0,0,1-1.5-1,2.61,2.61,0,0,1,1-4.57,6.26,6.26,0,0,1,3.13-.08c.34.06.49.22.46.57A7.36,7.36,0,0,1,82.09,139.1Z" transform="translate(-0.93 0)"></path><path class="cls-4" d="M133.29,138.73c-.39-1.27-1.42-1.09-2.33-1.11-1.18,0-1.19,0-1.17,1.17,0,2.14-.08,4.27.07,6.41.08,1.13.06,1.13,1.19,1.35.08,0,.15.08.21.25h-4.43a.8.8,0,0,1,.06-.18c1,0,1-.71,1-1.41,0-2.37,0-4.74,0-7.12,0-.41-.14-.53-.54-.49s-.66,0-1,0c-.82.08-1.75-.1-2.16,1a3.23,3.23,0,0,1,.17-1.86c0-.13.17-.15.29-.13a37.61,37.61,0,0,0,5.41.14c1,0,2,0,3,0,.14,0,.31-.05.32.14A5.24,5.24,0,0,1,133.29,138.73Z" transform="translate(-0.93 0)"></path><path class="cls-7" d="M144.21,126.47c.4.11.31.39.35.6a1.86,1.86,0,0,0,1.9,1.64,1.83,1.83,0,0,0,2.07-1.09,1.87,1.87,0,0,0-.95-2.33c-.57-.37-1.18-.68-1.73-1.08a2.76,2.76,0,0,1,1.4-5.2,6.75,6.75,0,0,1,1.62,0c1.08.14,1.08.17,1.06,1.24a.61.61,0,0,1,0,.14c-.06.31.19.8-.17.89s-.2-.44-.32-.68a2.1,2.1,0,0,0-3.28-.3,1.24,1.24,0,0,0,.1,1.67,5.31,5.31,0,0,0,1.5,1,7.36,7.36,0,0,1,1.54,1.11,3,3,0,0,1,.82,3.1,2.8,2.8,0,0,1-2.33,2.11,7.23,7.23,0,0,1-3.07-.09.73.73,0,0,1-.66-.84C144.12,127.77,144.16,127.13,144.21,126.47Z" transform="translate(-0.93 0)"></path><path class="cls-4" d="M80.82,121.29c-.18-1.26-1-1.22-1.87-1.23-1.53,0-1.53,0-1.53,1.47,0,1.86,0,3.71,0,5.57,0,1.61,0,1.61,1.45,2a12.79,12.79,0,0,1-4.62,0c1.49,0,1.28-1,1.29-1.75.06-2.23,0-4.47,0-6.7,0-.44-.16-.58-.58-.55s-.8,0-1.19,0c-1.24,0-1.24,0-2,1a4,4,0,0,1,.22-1.87c0-.16.16-.17.33-.15a44.37,44.37,0,0,0,8.15.09c.44,0,.6.09.56.53A3.58,3.58,0,0,1,80.82,121.29Z" transform="translate(-0.93 0)"></path><path class="cls-4" d="M131,196.85c-1.12.1-2.23.22-3.35.28a.71.71,0,0,0-.75.56c-.33,1-.7,1.93-1.1,3-.5-1-1-1.8-1.35-2.66a1.24,1.24,0,0,0-1.13-.77c-.93-.11-1.85-.28-3-.45.84-.72,1.55-1.37,2.31-2a.91.91,0,0,0,.37-1.14c-.3-.93-.51-1.89-.8-3a20.58,20.58,0,0,1,2.29,1.09,1.88,1.88,0,0,0,2.26,0c.6-.39,1.27-.69,2-1.09-.2,1-.36,2-.57,2.87a1,1,0,0,0,.44,1.21c.81.62,1.57,1.31,2.36,2Z" transform="translate(-0.93 0)"></path><path class="cls-8" d="M126.24,174.85a7.06,7.06,0,0,1-.95,3.84,2.78,2.78,0,0,1-4.94-.19,7.45,7.45,0,0,1,.06-6.86,2.78,2.78,0,0,1,2.91-1.59,2.87,2.87,0,0,1,2.44,2A6.68,6.68,0,0,1,126.24,174.85Zm-1.53.63a8.2,8.2,0,0,0-.77-4,1.32,1.32,0,0,0-1.22-.81,1.24,1.24,0,0,0-1.11,1,10.17,10.17,0,0,0,.15,6.82,1.36,1.36,0,0,0,1.29,1c.69,0,1-.58,1.2-1.14A7.71,7.71,0,0,0,124.71,175.48Z" transform="translate(-0.93 0)"></path><path class="cls-6" d="M139.26,180.16c.06-.36.41-.43.63-.61a7,7,0,0,0,2.72-6.9,2.51,2.51,0,0,0-.93-1.69,1.45,1.45,0,0,0-2.21.51,2.92,2.92,0,0,0,.3,2.88c.51.61,1,.7,2.37.44,0,.32-.29.4-.51.51a2.84,2.84,0,0,1-3.24-.59,2.79,2.79,0,0,1-.07-3.4,3.45,3.45,0,0,1,3.68-1.14,3,3,0,0,1,2.29,2.57c.36,2.5-.75,4.41-2.52,6a7.85,7.85,0,0,1-2,1.34C139.63,180.18,139.46,180.29,139.26,180.16Z" transform="translate(-0.93 0)"></path><path class="cls-8" d="M117.25,177.57a5.08,5.08,0,0,1-.29,1.94c-.11.4-.45.42-.79.42h-5.08c-.17,0-.41.09-.49-.15s.14-.33.28-.45a21.43,21.43,0,0,0,3-2.88,4.87,4.87,0,0,0,1.25-4.23,1.81,1.81,0,0,0-3.59,0c0,.1-.08.21-.12.34-.7-1.14-.3-2.11.92-2.36a6.35,6.35,0,0,1,1.68-.12c2.43.14,3.58,2,2.58,4.27a10.1,10.1,0,0,1-2.87,3.43,14.5,14.5,0,0,0-1.11,1,13,13,0,0,0,3.52-.1C116.71,178.52,116.91,178,117.25,177.57Z" transform="translate(-0.93 0)"></path><path class="cls-8" d="M140.61,195.09c-.81.08-1.45.17-2.09.19a.62.62,0,0,0-.65.5c-.16.53-.37,1.05-.62,1.72-.31-.58-.59-1-.79-1.51a.91.91,0,0,0-.82-.62c-.53-.06-1.06-.16-1.68-.27a3.07,3.07,0,0,1,1-.93,1.1,1.1,0,0,0,.46-1.49,2.46,2.46,0,0,1-.23-1.34,3.49,3.49,0,0,1,.73.31,1.93,1.93,0,0,0,2.6-.08.57.57,0,0,1,.54-.17,5.93,5.93,0,0,1-.23,1.5.81.81,0,0,0,.35,1C139.63,194.19,140,194.6,140.61,195.09Z" transform="translate(-0.93 0)"></path><path class="cls-8" d="M113.63,191.81a2.66,2.66,0,0,0,4-.09,17.41,17.41,0,0,1-.36,1.83.8.8,0,0,0,.34,1c.46.36.89.75,1.37,1.16a4,4,0,0,1-1.58.2c-.65,0-1.07.17-1.22.87a8.92,8.92,0,0,1-.53,1.37c-.28-.57-.53-1-.71-1.43a1,1,0,0,0-1-.72,16.54,16.54,0,0,1-1.63-.3,10.8,10.8,0,0,1,1.15-1,1,1,0,0,0,.41-1.32c-.15-.44-.22-.9-.33-1.35Z" transform="translate(-0.93 0)"></path><path class="cls-4" d="M129.55,172.49a2.93,2.93,0,0,1,1-.8c.7-.48,1.4-.95,2.11-1.4.14-.1.29-.3.49-.16s.13.34.12.53c-.18,2.5-.07,5-.08,7.53,0,1.24.12,1.49,1.29,1.49.06,0,.11.06.32.18H130c.1-.26.29-.19.44-.2,1.06-.1,1.18-.19,1.19-1.22,0-2,0-4,0-6.06,0-.55-.23-.57-.65-.39A4.07,4.07,0,0,1,129.55,172.49Z" transform="translate(-0.93 0)"></path><path class="cls-9" d="M119.22,58.89c1.75-.2,3.47-.42,5.2-.59a.92.92,0,0,0,.92-.68c.51-1.41,1.07-2.81,1.62-4.21a6.05,6.05,0,0,1,.29-.59c.59,1.2,1.11,2.29,1.66,3.36.36.71.5,1.68,1.15,2a6.08,6.08,0,0,0,2.29.24l3.6.28c-1.06,1-2,1.92-3,2.79-1.46,1.32-1.46,1.3-1,3.25.31,1.43.71,2.85.91,4.38a2.75,2.75,0,0,1-1.13-.63c-1.1-.93-2.4-1.54-3.57-2.35a.77.77,0,0,0-1,0c-1.31.87-2.67,1.64-3.91,2.61a7.61,7.61,0,0,1-.69.42A24.39,24.39,0,0,1,123,66a16.41,16.41,0,0,1,.42-2.22.9.9,0,0,0-.37-1c-1.21-1.1-2.41-2.23-3.61-3.35A.48.48,0,0,1,119.22,58.89Z" transform="translate(-0.93 0)"></path><path class="cls-7" d="M138.65,61l2.69-.29a1,1,0,0,0,1-.73c.24-.78.58-1.53.94-2.45.45.93.87,1.73,1.24,2.55a.92.92,0,0,0,.95.64c.84,0,1.68.1,2.63.17a14.17,14.17,0,0,1-1.87,1.85,1,1,0,0,0-.38,1.22c.24.85.4,1.72.64,2.78-.89-.55-1.65-1-2.37-1.48a.91.91,0,0,0-1.19,0c-.7.5-1.45.93-2.31,1.47.19-1.07.33-2,.52-2.9a.68.68,0,0,0-.24-.74C140.18,62.44,139.49,61.78,138.65,61Z" transform="translate(-0.93 0)"></path><path class="cls-4" d="M108,67.28c.18-1,.29-1.75.47-2.52a1.26,1.26,0,0,0-.46-1.41c-.65-.53-1.24-1.13-2-1.8,1-.11,1.81-.23,2.63-.29a1,1,0,0,0,1.08-.79c.25-.77.58-1.52.92-2.4.41.84.79,1.54,1.09,2.28a1.26,1.26,0,0,0,1.37.92c.76,0,1.52.1,2.46.17-.72.67-1.32,1.25-2,1.8a1.09,1.09,0,0,0-.4,1.28c.26.84.4,1.72.63,2.76-.91-.57-1.71-1-2.48-1.54a.71.71,0,0,0-.94,0C109.68,66.24,108.91,66.69,108,67.28Z" transform="translate(-0.93 0)"></path><path class="cls-11" d="M116.33,109.28c-3.65.12-6.25-3.22-6.29-6.68a6.32,6.32,0,1,1,12.64.13C122.65,106.07,120,109.41,116.33,109.28Zm0-10.91a4.2,4.2,0,0,0-4.25,4.31,4.23,4.23,0,1,0,8.46,0A4.21,4.21,0,0,0,116.38,98.37Z" transform="translate(-0.93 0)"></path><path class="cls-11" d="M133.19,109.28c-3.57.16-6.31-3.27-6.28-6.59a6.3,6.3,0,1,1,12.59.1C139.51,105.87,136.83,109.48,133.19,109.28Zm4.22-6.51a4.2,4.2,0,0,0-4.08-4.4,4.32,4.32,0,0,0-4.4,4.27,4.38,4.38,0,0,0,4.27,4.43A4.27,4.27,0,0,0,137.41,102.77Z" transform="translate(-0.93 0)"></path><path class="cls-11" d="M117.65,94.06c3.47-2.89,11-2.79,14.21,0a8.8,8.8,0,0,0-7.1,7.34C123.8,97.24,121.83,95.21,117.65,94.06Z" transform="translate(-0.93 0)"></path><path class="cls-11" d="M159.86,139.84c0,1.58-1,2.38-2.43,2-.34-.07-.48-.22-.48-.55q0-1.65,0-3.3c0-.39.16-.53.54-.56A2.11,2.11,0,0,1,159.86,139.84Z" transform="translate(-0.93 0)"></path><path class="cls-12" d="M166.29,142.67l1.39-3.5c.45,1.16.84,2.18,1.23,3.2.09.22,0,.3-.21.3Z" transform="translate(-0.93 0)"></path><path class="cls-5" d="M120.28,119.92c4.79.12,5.44,4.34,4.09,7.15-.64,1.31-2,1.52-3.32,1.61h-.35c-1.43-.07-1.77-.41-1.78-1.83,0-2,0-4,0-5.92,0-1,0-1,1-1Z" transform="translate(-0.93 0)"></path><path class="cls-12" d="M109.82,121.57c.43,1.14.82,2.14,1.21,3.13.09.23.07.36-.21.35h-2c-.28,0-.3-.12-.21-.35C109,123.71,109.37,122.71,109.82,121.57Z" transform="translate(-0.93 0)"></path><path class="cls-11" d="M101,139.67c0-.52,0-1,0-1.55s.2-.65.67-.65a2.11,2.11,0,0,1,2.12,1.22,2.81,2.81,0,0,1-.45,2.84,2.16,2.16,0,0,1-2.07.29.5.5,0,0,1-.26-.53Z" transform="translate(-0.93 0)"></path><path class="cls-5" d="M166.87,122.08c0-.54,0-1.08,0-1.61s.17-.53.54-.56a2,2,0,0,1,2.21,1.15,2.69,2.69,0,0,1-.49,2.93,2.16,2.16,0,0,1-1.94.26c-.26,0-.32-.29-.32-.55C166.88,123.16,166.87,122.62,166.87,122.08Z" transform="translate(-0.93 0)"></path><path class="cls-12" d="M84.94,122c0-.49,0-1,0-1.48s.18-.63.61-.68a2.15,2.15,0,0,1,2.25,1.33,2.59,2.59,0,0,1-.73,2.94,2.44,2.44,0,0,1-1.78.13c-.3-.05-.35-.34-.34-.62Z" transform="translate(-0.93 0)"></path><path class="cls-5" d="M153.7,123.8a12,12,0,0,1,.15-1.58c.6-2.79,3.76-3.1,5.46-1.64a4.38,4.38,0,0,1,1.47,2.81,7.71,7.71,0,0,1-.14,2.87c-.64,2.81-3.57,3-5.22,1.65A5.11,5.11,0,0,1,153.7,123.8Z" transform="translate(-0.93 0)"></path><path class="cls-11" d="M61.63,143.46v-.77c0-1.05.45-1.34,1.47-.94A2.8,2.8,0,0,1,64.63,145a1.81,1.81,0,0,1-2.62.92,1,1,0,0,1-.36-.87c0-.51,0-1,0-1.55Z" transform="translate(-0.93 0)"></path><path class="cls-12" d="M61.63,139.19v-.91c0-.84.11-.93.94-.84A1.89,1.89,0,0,1,64,139.73,1.6,1.6,0,0,1,62,141c-.3-.06-.35-.25-.35-.51Z" transform="translate(-0.93 0)"></path><path class="cls-12" d="M136.9,139.16c.45,1.18.82,2.16,1.21,3.14.1.27,0,.38-.25.38h-2.35Z" transform="translate(-0.93 0)"></path><path class="cls-11" d="M124.71,175.48a7.71,7.71,0,0,1-.46,2.85c-.21.56-.51,1.11-1.2,1.14a1.36,1.36,0,0,1-1.29-1,10.17,10.17,0,0,1-.15-6.82,1.24,1.24,0,0,1,1.11-1,1.32,1.32,0,0,1,1.22.81A8.2,8.2,0,0,1,124.71,175.48Z" transform="translate(-0.93 0)"></path><path class="cls-8" d="M116.38,98.37a4.21,4.21,0,0,1,4.21,4.35,4.23,4.23,0,1,1-8.46,0A4.2,4.2,0,0,1,116.38,98.37Zm0,7.38a3.06,3.06,0,1,0-3-3.12A3,3,0,0,0,116.33,105.75Z" transform="translate(-0.93 0)"></path><path class="cls-8" d="M137.41,102.77a4.27,4.27,0,0,1-4.21,4.3,4.38,4.38,0,0,1-4.27-4.43,4.32,4.32,0,0,1,4.4-4.27A4.2,4.2,0,0,1,137.41,102.77Zm-1.25,0a3,3,0,0,0-2.91-3.09,3.06,3.06,0,0,0-.05,6.12A3,3,0,0,0,136.16,102.72Z" transform="translate(-0.93 0)"></path><path class="cls-12" d="M116.33,105.75a3.06,3.06,0,0,1,0-6.12,3.06,3.06,0,0,1,0,6.12Zm2.15-3a2.09,2.09,0,0,0-2.12-2.22,2.17,2.17,0,0,0-2.12,2.18,2.07,2.07,0,0,0,2.14,2.19A2,2,0,0,0,118.48,102.71Z" transform="translate(-0.93 0)"></path><path class="cls-12" d="M136.16,102.72a3,3,0,0,1-3,3,3.06,3.06,0,0,1,.05-6.12A3,3,0,0,1,136.16,102.72Zm-3,2.14a2.17,2.17,0,0,0,2.18-2.18,2.17,2.17,0,1,0-4.33,0A2.12,2.12,0,0,0,133.2,104.86Z" transform="translate(-0.93 0)"></path><path class="cls-4" d="M118.48,102.71a2,2,0,0,1-2.1,2.15,2.07,2.07,0,0,1-2.14-2.19,2.17,2.17,0,0,1,2.12-2.18A2.09,2.09,0,0,1,118.48,102.71Z" transform="translate(-0.93 0)"></path><path class="cls-4" d="M133.2,104.86a2.12,2.12,0,0,1-2.15-2.2,2.17,2.17,0,1,1,4.33,0A2.17,2.17,0,0,1,133.2,104.86Z" transform="translate(-0.93 0)"></path></svg> 