<?xml version="1.0" encoding="UTF-8"?> <svg xmlns="http://www.w3.org/2000/svg" id="Layer_1" data-name="Layer 1" viewBox="0 0 256 188.41"><defs><style>.cls-1{fill:#fff;}</style></defs><rect class="cls-1" width="256" height="188.41"></rect><path class="cls-1" d="M229.44,186.58H24.56V4.24H229.44ZM134.77,74.94l.21-.27,7.86,4.55a5.79,5.79,0,0,0,1.21.56c2.18.66,4.3,1.64,5.53,3.57,2,3.09,3.66,6.34,5.41,9.56.53,1,.82,2,1.32,3a1.65,1.65,0,0,0,1,.78A1.94,1.94,0,0,1,158.89,99a1.91,1.91,0,0,1-.17.51,42.52,42.52,0,0,0-1.57,4.66,6,6,0,0,1-4.77,4.88.93.93,0,0,0-.6.48c-.26,1-.47,2-.65,3.07a.84.84,0,0,0,.88,1.08,15.89,15.89,0,0,0,7.19-1,28.56,28.56,0,0,0,4.42-2.39,9,9,0,0,0,2.12-2c.87-1.1,1.52-2.17,3.14-2.56a9.06,9.06,0,0,0,4.67-3.42,1.64,1.64,0,0,0,.16-2.12,41.33,41.33,0,0,0-2.63-3.88,2.22,2.22,0,0,1-.27-2.67c.75-1.34,1.61-2.61,2.33-4a34.28,34.28,0,0,0,2-4.29c.68-1.86.39-2.19-1.59-2.47-1.71-.24-3.42-.48-5.14-.7a8.7,8.7,0,0,1-7.33-5.68,41.62,41.62,0,0,0-5.28-9.58A20.12,20.12,0,0,1,152,55.28a3.4,3.4,0,0,1,1.8-3.55,1.85,1.85,0,0,0,.92-2.11c-.12-.75-.21-1.51-.31-2.28-.19-1.46-.46-2.86-2-3.62-.61-.31-.58-.82,0-1.19,1.65-1.16,2.47-2.91,3.34-4.65s1-3.54-.43-5.15a1.41,1.41,0,0,1-.18-.29,1.37,1.37,0,0,1,.24-1.93l0,0a1,1,0,0,0,.31-1.31.7.7,0,0,0-.13-.17,10.62,10.62,0,0,0-4-3.58,1.2,1.2,0,0,0-.64-.19,4,4,0,0,1-3.43-1.38,4.9,4.9,0,0,0-4-1.64A.7.7,0,0,1,143,22c-.53-.88-1-1.82-1.55-2.69a1.71,1.71,0,0,1,0-2.06c.37-.54.82-1,1.17-1.57a12.53,12.53,0,0,0,1.17-2,2.84,2.84,0,0,0-.45-3.11,17.29,17.29,0,0,0-5.71-4.51A3.24,3.24,0,0,0,135,5.81c-1.72.49-3.45.92-5.16,1.45a27.31,27.31,0,0,0-3.16,1.19,4.65,4.65,0,0,1-3,.43q-1.23-.29-2.46-.51a2.56,2.56,0,0,0-2.41.79,7.25,7.25,0,0,0-1.15,1.55,4.51,4.51,0,0,1-3.34,2.41c-1.65.26-3.38.34-5.07.53-.43,0-1,.09-1.25.37a3.42,3.42,0,0,1-2.71,1.17c-1.21.12-2.57-.09-3.6.39-1.57.71-3.29,1.23-4.53,2.6a3,3,0,0,1-1.93.9c-3,.08-3.82.62-4.88,3.39-.29.75-.69,1.45-1,2.17a3,3,0,0,1-.41-.17,10.07,10.07,0,0,0-13.74,2.21,32.39,32.39,0,0,0-1.87,2.94c-2.87,4.53-1,10.82,2.92,13.51a9.14,9.14,0,0,1,2.93,2.94l.18.1a5.39,5.39,0,0,0,3.29-3,1.16,1.16,0,0,1,.09.82,6.81,6.81,0,0,1-1,1.75A15,15,0,0,0,78,53.13c-.36,2.07-1.18,4.11-1.28,6.15A33.92,33.92,0,0,1,75.77,65c-.35,1.55-.68,3.1-.9,4.67-.15,1,.21,1.37,1.25,1.52s1.17.36.78,1.2a11.4,11.4,0,0,0-.65,5.6,6.78,6.78,0,0,0,2.34,4.41,5.81,5.81,0,0,0,1.21.69c-.29-1.64-.63-3-.74-4.4A7.5,7.5,0,0,1,80,74.66a8.53,8.53,0,0,1,.36,1.65,2.61,2.61,0,0,0,.37.7c.21-.19.56-.33.62-.57.32-1.1.75-2.23,0-3.35a2.36,2.36,0,0,1-.28-1c-.13-.89.14-1.32,1-1.41a1.16,1.16,0,0,0,1.13-1.06c.08-.41.16-.82.21-1.25A20.55,20.55,0,0,1,84.27,63c.45-1.08.78-2.19,1.21-3.29A20.7,20.7,0,0,1,91,51.28a23,23,0,0,0,2.82-3.17c1.17-1.46,2.27-3,3.42-4.47.34-.44.77-1,1.4-.61s.33,1.08,0,1.53a13.83,13.83,0,0,1-1.85,2.33c-1.76,1.7-3.58,3.29-5.38,4.94a7.08,7.08,0,0,0-2.15,3.7c-.68,2.95,0,5.53,2.61,7.14a2.13,2.13,0,0,1,.69,1.49,3.7,3.7,0,0,1-.26,1.58c-.71,2.16-1.42,4.32-2.18,6.45-.27.74-.6,1.51-1.65,1.39-.15,0-.41.28-.51.47a9.9,9.9,0,0,0-.46,1.29Q84.8,84.12,82.07,92.9a8.53,8.53,0,0,0-.56,3.74,2.82,2.82,0,0,1-.18,1.08c-.82,2.59-1.73,5.17-2.59,7.75-.59,1.75-1.16,3.51-1.76,5.25-.17.49-.26,1,.26,1.23.19.08.7-.42.91-.74a8,8,0,0,0,.7-1.55c1.49-4,3-8,4.44-12.06.15-.42.23-.91.82-.9s1-.37,1.18-1Q87.1,90.79,89,85.86A9.53,9.53,0,0,1,90.14,84a1.9,1.9,0,0,1,2.07-.1c.2.17.63.36.73.27a1.2,1.2,0,0,0,.35-.82c0-.47,0-.82.57-1a5.13,5.13,0,0,0,2.7-3.7c.06-1.92.12-3.84.2-6L99.35,76c.5-.26,1-.49,1.52-.7a9.14,9.14,0,0,1,1.38-.29c-.06.52-.09,1-.19,1.54a1.35,1.35,0,0,1-.31.51,4,4,0,0,0-.16,4,3.51,3.51,0,0,1,.2,1.84c-.07.68-.35,1.34-.45,2-.09.51-.14.94-.77,1.07a2.08,2.08,0,0,0-1.69,2c-.15,1-.38,2,.82,2.68.72.42.67.83-.08,1.25s-1.54.86-2.3,1.29A2.41,2.41,0,0,0,96,95.41c0,1.87,0,3.76-.08,5.63a1.92,1.92,0,0,0,.71,1.7c1.06.9,1,1.2-.18,1.8a2.13,2.13,0,0,0-1.33,1.85,10.57,10.57,0,0,1-1.86,5.14c-1.58,2.08-3.08,4.21-4.62,6.32a1.37,1.37,0,0,1-.25.23c-1,.82-1,.82-.49,2-1.05,1-2.09,2-3.18,2.93a10.76,10.76,0,0,0-3,4.86c-1.08,3.17.75,5.48,3.09,6.78a2.22,2.22,0,0,0,2.28.09c1.59-1,3.18-1.88,4.68-2.94a5.88,5.88,0,0,0,2.61-4c.15-.93.7-1.25,1.64-1.3a1.6,1.6,0,0,0,.93-.42c1.3-1.28,2.53-2.63,3.84-3.88a4.45,4.45,0,0,0,1.28-2.24,1.72,1.72,0,0,1,.6-.94,32,32,0,0,0,10.48-11,17.47,17.47,0,0,0,2.89-7.29c.35-3.57,1.7-6.86,3-10.41.83,1.64,1.52,3.07,2.34,4.46a13.61,13.61,0,0,1,1.59,8.69c-.37,3.72-.43,7.48-.64,11.22a4.87,4.87,0,0,0,.92,3.2,7.65,7.65,0,0,1,1.37,6c-.29,1.65-.35,3.29-.57,4.94-.41,3-.39,6-1.32,8.91a2.26,2.26,0,0,0,.39,2.37,7.28,7.28,0,0,1-4.19,1.11c-4.31-.25-8.64-.38-12.95-.54a2.36,2.36,0,0,0-.83.21c-.32.13-.62.45-.93.45-1.88,0-3.74,0-5.61-.1a26.41,26.41,0,0,0-3.6-.51c-3.68.32-7.35.83-11,1.25l-5.22.57v-.12l2.68-.82c-1.64,0-3.2-.1-4.72,0-2.53.19-5,.57-7.58.82-2,.18-4,.24-5.95.35-3.69.2-7.4.74-11.05,0a15.24,15.24,0,0,0-8.9.89c-.34.14-.71.22-1,.34a8.38,8.38,0,0,0-.83.3H211.34c-.45-.2-.69-.34-.93-.44-2.57-1.09-5.12-2.19-7.69-3.24a4.23,4.23,0,0,0-1.65-.33c-3.23,0-6.5.28-9.56-1.13a3.16,3.16,0,0,0-3.79.49.25.25,0,0,0-.15,0c-.42-.82-1.22-.82-1.91-.82-3,0-5.91.15-8.86.26-1,0-2,.39-2.87.12a18.52,18.52,0,0,0-7.26-.28c-3.58.33-7.15.82-10.77,1.19l.58-.65-.06-.29c-3.89-.77-7.78-1.2-11.74-.08,0-.22,0-.44,0-.65-.44-2.16-.51-2.31-2.43-2.75-.82-.21-1.73-.31-2.59-.49a4.61,4.61,0,0,1-1.65-.56,17.94,17.94,0,0,1-2.3-2.14,5,5,0,0,1-1.42-4c.11-1.65.25-3.35.3-5a5.16,5.16,0,0,1,1.82-3.79,11.86,11.86,0,0,0,2.57-3c1.23-2.36,2.24-4.83,3.29-7.3a7.15,7.15,0,0,0,0-5.56c-.66-1.64-1.2-3.29-1.76-4.93-1.55-4.61-1.88-9.46-2.91-14.17-.52-2.41-1-4.84-1.55-7.23A17.79,17.79,0,0,0,134.77,74.94ZM82.86,164.48v-4.3a1.48,1.48,0,0,0-.25-.7c-1.64-2.91-3.29-5.81-5-8.71-.1-.19-.33-.46-.51-.46h-5c-.2,0-.48.3-.54.51s.21.4.37.57a8.09,8.09,0,0,1,1.26,1.29c2.19,3.68,4.31,7.4,6.47,11.09a1.38,1.38,0,0,0,.76.66A22.63,22.63,0,0,0,82.86,164.48Zm69-3.65h1.77c.41,0,1-.26,1.1.45s.82,1.48-.13,2.16c-.17.11-.37.48-.31.59a.87.87,0,0,0,.64.41h5.36a.72.72,0,0,0,.57-.36c0-.17-.17-.42-.29-.62a4.58,4.58,0,0,1-.73-1.15c-.6-2.3-1.12-4.63-1.64-6.95-.41-1.69-.82-3.38-1.22-5.05h-4.45a19.8,19.8,0,0,0,.22,2.19c.51,2.38,1.07,4.74,1.65,7.21H152Zm-50.72,9.52H96a.85.85,0,0,0-.6.46c-.06.11.18.51.35.56.6.19.65.61.65,1.14v9.8c0,.52,0,.95-.63,1.14-.18.06-.42.43-.37.55a.8.8,0,0,0,.59.48h5.7a.75.75,0,0,0,.58-.48.74.74,0,0,0-.44-.58c-.71-.15-.77-.62-.77-1.21V170.35Zm81.19-20.11h-4.93c-.27,0-.54.3-.82.47.18.21.36.44.52.67s.48.63.48.94v10a1,1,0,0,1-.62,1.07c-.18.06-.43.42-.39.53a.93.93,0,0,0,.57.49,6.84,6.84,0,0,0,1.28,0h4.11a1.22,1.22,0,0,0,.74-.43c.06,0-.14-.54-.29-.58-.75-.21-.71-.82-.71-1.35V150.24Zm10.14,7.08v4.86c0,.54,0,1-.65,1.22a.64.64,0,0,0-.34.56.67.67,0,0,0,.51.44c1.87,0,3.75,0,5.62,0a.7.7,0,0,0,.53-.44.67.67,0,0,0-.35-.56c-.63-.22-.67-.68-.67-1.22v-9.71c0-.52.06-.95.64-1.15.18-.06.43-.42.38-.55a.87.87,0,0,0-.57-.5H192a.83.83,0,0,0-.56.5c-.05.14.19.49.37.56.55.19.63.56.63,1,0,1.65,0,3.3,0,4.94Zm-128.15,7.4c-.18-.47-.21-1-.47-1.15a2.05,2.05,0,0,1-1-1.92v-9.21c0-.51,0-.93.65-1.13a.52.52,0,0,0,.34-.66.53.53,0,0,0-.49-.37H57.74a.75.75,0,0,0-.54.44.68.68,0,0,0,.32.58c.69.21.68.72.67,1.28v8.61a2.67,2.67,0,0,0,1.24,2.37,7,7,0,0,0,4.85,1.13Zm23.91,5.66h-5a.77.77,0,0,0-.6.43c0,.19.26.42.4.64s.57.66.57,1q.08,5,0,10.06c0,.31-.35.61-.54.91l-.46.72c.25.14.5.39.75.4h5.62c.18-.15.46-.3.49-.48a.64.64,0,0,0-.36-.55c-.83-.18-.83-.74-.83-1.42V170.38Zm131-20.1h-5.08a.83.83,0,0,0-.57.49c-.05.14.19.5.36.56.59.2.64.62.64,1.15v9.71c0,.55-.05,1-.67,1.22a.67.67,0,0,0-.32.58.73.73,0,0,0,.52.43h5.55a.82.82,0,0,0,.56-.48c.05-.13-.19-.48-.37-.55-.58-.21-.63-.63-.63-1.15v-12Zm-51.49,0h-4.93c-.26,0-.5.26-.76.41.16.24.27.6.48.69.57.22.55.64.55,1.11v9.71c0,.55,0,1-.67,1.21a.52.52,0,0,0,.18,1c1.87,0,3.75,0,5.62,0,.18,0,.44-.26.5-.46a.57.57,0,0,0-.27-.52c-.82-.22-.74-.82-.74-1.43v-8.18Zm-4.77,20.14v11.83c0,.59,0,1.06-.76,1.21a.54.54,0,0,0,.11,1.07h6c.19,0,.47-.3.56-.51s-.23-.49-.41-.53c-.82-.17-.82-.76-.82-1.42V170.42ZM91.25,150.25h-5a.79.79,0,0,0-.61.42.72.72,0,0,0,.37.63c.57.22.62.64.62,1.16v9.7c0,.55,0,1-.67,1.22a.53.53,0,0,0-.3.67.51.51,0,0,0,.48.33h5.1Zm14,14.18V150.24h-4.84c-.26,0-.51.26-.76.4.15.24.25.6.46.69.51.2.55.56.55,1v10a.89.89,0,0,1-.57,1c-.2.09-.45.44-.41.61a.73.73,0,0,0,.59.44c1.64.1,3.29.05,5,.05Zm35.17,5.92h-4.94a.8.8,0,0,0-.63.4.71.71,0,0,0,.35.62c.6.21.64.63.63,1.15v9.81c0,.52-.05.93-.65,1.12a.54.54,0,0,0-.35.66.53.53,0,0,0,.49.37h5.1Zm-22.86-20.09h-5c-.19,0-.54.24-.55.39a.81.81,0,0,0,.36.64c.61.2.64.64.63,1.15v9.62c0,.58,0,1.14-.71,1.35-.15,0-.29.4-.28.6a.63.63,0,0,0,.48.37h5.11Zm9.17,34.45c3.47.54,5.52-1.16,5.53-4.3v-7.83c0-.51,0-.94.61-1.16.19-.08.28-.42.43-.63-.24-.15-.48-.41-.73-.42h-5.44c-.25,0-.49.28-.73.43.19.24.34.6.59.68a.82.82,0,0,1,.64.94v9.78a3.44,3.44,0,0,1-.26,1.05C127.15,183.72,126.94,184.17,126.71,184.71Zm-94-20.36c.38-1.54.82-3.12,1.17-4.72a1.56,1.56,0,0,0-.09-.74c-.54-2-1.08-4.11-1.64-6.16-.16-.58-.27-1.09.37-1.49a.75.75,0,0,0,.22-.64.69.69,0,0,0-.51-.33H26.82a.82.82,0,0,0-.6.48c-.06.14.17.42.29.62a4.08,4.08,0,0,1,.62.93c1,3.44,1.91,6.89,2.85,10.32.53,1.92.53,1.92,2.53,1.79A1,1,0,0,0,32.74,164.35Zm102.68-14.11h-2.73a.83.83,0,0,0-.64.43c-.06.18.17.47.3.69a5.94,5.94,0,0,1,.67,1.21c1,3.46,1.92,7,2.86,10.42.4,1.44.4,1.4,1.91,1.43.61,0,.82-.2.94-.78.25-1.2.61-2.36.83-3.56a3.3,3.3,0,0,0,0-1.4c-.52-2.07-1.08-4.11-1.65-6.18a1,1,0,0,1,.29-1.2c.21-.15.26-.49.39-.75a2.83,2.83,0,0,0-.83-.33C137,150.21,136.21,150.24,135.42,150.24Zm-33.42,20c-.15,1.08-.11,1,.46,1.54a1.74,1.74,0,0,1,.55,1.06,17.37,17.37,0,0,1,0,3.06,1.89,1.89,0,0,1-.69,1.13.82.82,0,0,0-.3,1.12.78.78,0,0,0,.24.27,2.5,2.5,0,0,1,.74,1.31,9.93,9.93,0,0,1,0,2,2.74,2.74,0,0,0,1.87,2.93,3.35,3.35,0,0,0,3.87-1.3,1.38,1.38,0,0,0,.16-1.2c-.37-.54-.69.12-1,.25a1.73,1.73,0,0,1-.3,0v-1.82a2.47,2.47,0,0,0-2.08-2.77l-1-.3,1-.37a3.31,3.31,0,0,0,2.18-3.24,3.11,3.11,0,0,0-2.26-3.16A23.83,23.83,0,0,0,102,170.24Zm81.26-20.06c-.16,1-.12,1,.41,1.5a2,2,0,0,1,.58,1.16,16.37,16.37,0,0,1,0,3,2.17,2.17,0,0,1-.74,1.19c-.41.36-.52,1,0,1.27a1.43,1.43,0,0,1,.82,1.39c0,.93,0,1.87.12,2.8a2.33,2.33,0,0,0,1.47,2,3.39,3.39,0,0,0,4.21-1.21,3,3,0,0,0,.14-1.14l-1,.26h-.38c.23-2.4.15-4.66-3.34-4.86l1.08-.43a3.21,3.21,0,0,0,2.28-3.4,3.28,3.28,0,0,0-2.58-3.2,22.41,22.41,0,0,0-3.06-.36Zm-14.6,0c-.17.73-.13,1.15.47,1.51a1.64,1.64,0,0,1,.57,1.14,14.84,14.84,0,0,1,0,3,2.06,2.06,0,0,1-.76,1.17c-.42.37-.55,1-.06,1.26a1.52,1.52,0,0,1,.86,1.53v2.3a2.61,2.61,0,0,0,1.58,2.46,3.43,3.43,0,0,0,4.16-1.19,1.3,1.3,0,0,0,.15-1.12c-.36-.53-.71,0-1,.22h-.32c.19-2.36.14-4.64-3.34-4.83l1-.43a3.28,3.28,0,0,0,2.32-3.39,3.38,3.38,0,0,0-2.81-3.29,26.57,26.57,0,0,0-2.81-.33Zm51.48,0c-.18.76-.11,1.19.51,1.57a1.85,1.85,0,0,1,.55,1.24,23.25,23.25,0,0,1,0,2.64,1.35,1.35,0,0,1-.83,1.42c-.38.15-.49,1-.13,1.17,1,.38.95,1.24,1,2.05v1.36c0,1.6.56,2.52,1.69,2.94a3.37,3.37,0,0,0,3.85-1,4,4,0,0,0,.39-1.34l-1.42.06v-1.79a2.46,2.46,0,0,0-2-2.67c-.35-.11-.71-.18-1.17-.29l.87-.35a3.18,3.18,0,0,0,2.31-3.45,3.24,3.24,0,0,0-2.59-3.18,23.58,23.58,0,0,0-3-.38Zm-67.21,19.9a5.69,5.69,0,0,0-4.25,2.06,9.22,9.22,0,0,0-.65,10.15,5.65,5.65,0,0,0,4.93,2.52c0-.63.23-1.15-.53-1.47a1.45,1.45,0,0,1-.59-1.13c-.05-3.11-.05-6.24,0-9.36a1.63,1.63,0,0,1,.57-1.23c.72-.41.59-.92.52-1.56Zm53.37-5.33a5.82,5.82,0,0,0,5-3.52,9.22,9.22,0,0,0,0-7.69,5.75,5.75,0,0,0-5-3.53c-.09.56-.16,1,.4,1.37a1.47,1.47,0,0,1,.46,1.1c.05,3.29,0,6.53,0,9.79a1.46,1.46,0,0,1-.41,1,1.1,1.1,0,0,0-.42,1.41Zm-90.12,20a5.38,5.38,0,0,0,4.73-2.88,8.94,8.94,0,0,0-.15-9.05,5.44,5.44,0,0,0-4.57-2.74c-.11.59-.18,1.06.43,1.43a1.3,1.3,0,0,1,.41,1v9.81a1.61,1.61,0,0,1-.45,1.12A1.13,1.13,0,0,0,116.18,184.71Zm-1-14.63a5.35,5.35,0,0,0-3.42,1.34,7,7,0,0,0-2.36,4.93c-.24,2.58.17,5,2.15,6.89a5.69,5.69,0,0,0,3.86,1.55c-.19-.52-.29-.87-.44-1.2s-.65-.9-.66-1.36c-.06-3.23,0-6.46,0-9.7a1.48,1.48,0,0,1,.49-1.09C115.39,171.06,115.29,170.63,115.2,170.08Zm90.09-5.34c.11-.61.14-1-.42-1.4a1.51,1.51,0,0,1-.48-1.09q0-4.94,0-9.79a1.52,1.52,0,0,1,.47-1.1c.57-.36.55-.78.42-1.37a5.66,5.66,0,0,0-4.85,3.11,9.1,9.1,0,0,0-.24,8.09,5.84,5.84,0,0,0,5.1,3.55ZM49.83,149.94c.18.52.29.88.45,1.24s.65.9.66,1.35q.08,4.82,0,9.63a1.64,1.64,0,0,1-.51,1.16c-.59.42-.5.83-.37,1.4a5.93,5.93,0,0,0,5.21-4,9.35,9.35,0,0,0,0-6.9A6.06,6.06,0,0,0,49.83,150Zm-.77,0A5.77,5.77,0,0,0,44,153.47a9.25,9.25,0,0,0-.13,7.4,5.84,5.84,0,0,0,5.19,3.85c.1-.58.16-1-.44-1.41a1.52,1.52,0,0,1-.47-1.11q0-4.86,0-9.71a1.5,1.5,0,0,1,.47-1.11c.54-.36.55-.77.43-1.4Zm43.1.28c0,.55-.15,1,.49,1.32a1.62,1.62,0,0,1,.64,1.27q.09,4.51,0,9a1.67,1.67,0,0,1-.65,1.26c-.62.36-.54.75-.45,1.24a5.8,5.8,0,0,0,5.53-3.73,8.61,8.61,0,0,0-.87-8.05,5.12,5.12,0,0,0-4.69-2.3Zm26.38,14.12a5.75,5.75,0,0,0,5.45-3.62,8.55,8.55,0,0,0-.82-8.23,5.19,5.19,0,0,0-4.62-2.3c-.08.57-.19,1,.47,1.32a1.51,1.51,0,0,1,.6,1,11.66,11.66,0,0,1,.1,1.87v6.9c0,.7,0,1.5-.71,1.87s-.59.75-.47,1.28ZM35,150.27c-.41,1.65-.82,3.19-1.19,4.76a1.89,1.89,0,0,0,.08.91q.93,3.52,1.91,7.05c.4,1.48.41,1.47,2,1.47.5,0,.76-.13.87-.67.27-1.21.61-2.42.91-3.62a1.69,1.69,0,0,0,0-.67c-.82-3.07-1.6-6.13-2.42-9.23Zm105.81,0c-.42,1.65-.82,3.24-1.22,4.86a2.14,2.14,0,0,0,.11.83l1.89,7c.42,1.57.42,1.55,2.07,1.52a.64.64,0,0,0,.75-.59c.28-1.25.63-2.46.93-3.71a1.31,1.31,0,0,0,0-.68c-.79-3.06-1.59-6.14-2.4-9.22ZM89.11,179.05c2,0,4-.16,5-2.13a4.39,4.39,0,0,0-.2-4.84c-1.19-1.72-3-1.76-4.85-1.72-.15.65-.11,1.09.56,1.35a1.17,1.17,0,0,1,.5.91c0,1.39,0,2.78,0,4.16a1.22,1.22,0,0,1-.52.9c-.67.29-.68.73-.54,1.38Zm-24-14.39h.24a4.12,4.12,0,0,0,3.29-4.12c0-2.27,0-4.54,0-6.82a2.46,2.46,0,0,1,1.17-2.47c.15-.09.34-.39.3-.52a.76.76,0,0,0-.51-.46h-3a.76.76,0,0,0-.54.43.84.84,0,0,0,.35.57,2.31,2.31,0,0,1,1.11,2.17v6.82a3,3,0,0,1-1.83,3,.94.94,0,0,0-.7,1.14A1.06,1.06,0,0,0,65.06,164.66Zm60.4,18.47a5.92,5.92,0,0,0,1.05-1.13,1.77,1.77,0,0,0-.31-2.13,1.91,1.91,0,0,0-2.14-.64,2.1,2.1,0,0,0-1.57,1.82c-.29,1.84,1.31,3.51,3.7,3.61-.28-.57-.49-1-.73-1.53ZM152,153.07c-.08.25-.14.4-.18.56-.68,2.47-1.36,4.93-2.05,7.46a3,3,0,0,1-1.64,2.32.5.5,0,0,0,.19,1,23.22,23.22,0,0,0,2.89,0c.25,0,.49-.27.73-.42-.15-.21-.27-.52-.47-.61-.82-.37-.92-1-.7-1.76.47-1.64.82-3.28,1.36-4.93a4.59,4.59,0,0,0-.13-3.6Zm-79,.82v7.05a2.43,2.43,0,0,1-1.18,2.47c-.14.08-.32.4-.27.52a.77.77,0,0,0,.53.43h3a.75.75,0,0,0,.51-.44c0-.12-.15-.43-.31-.51a2.36,2.36,0,0,1-1.16-2.31c0-1.39-.07-2.78,0-4.17a4.29,4.29,0,0,0-1.1-3Zm81,16.11c-.19.82-.11,1.19.59,1.55A4.42,4.42,0,0,1,156,173.1a18.49,18.49,0,0,1,.82,1.94,3.21,3.21,0,0,0,.7.73c.19-.28.53-.56.53-.83.06-1.39,0-2.78,0-4.17a.8.8,0,0,0-.39-.66.72.72,0,0,0-.68.28c-.32.48-.7.39-1.12.26ZM82.87,158v-4.72a2,2,0,0,1,1.06-1.9c.2-.12.3-.42.45-.64-.24-.15-.48-.44-.72-.45a20.72,20.72,0,0,0-2.73,0c-.25,0-.48.29-.73.44.15.23.25.53.45.64a2.08,2.08,0,0,1,1.07,1.91,12.06,12.06,0,0,1,0,1.7A3.59,3.59,0,0,0,82.87,158ZM40,158c.44-1.71.82-3.29,1.25-4.93a2.57,2.57,0,0,1,1.35-1.86c.18-.09.43-.46.37-.56a.91.91,0,0,0-.61-.43c-.82,0-1.64,0-2.47,0a2.79,2.79,0,0,0-.78.37c.16.24.26.59.48.71a1.26,1.26,0,0,1,.59,1.65,15.77,15.77,0,0,1-.42,1.64A4.41,4.41,0,0,0,40,158Zm105.64,26.5v-3.4a3.12,3.12,0,0,0-.4-1c-.25.25-.61.46-.75.77a3.63,3.63,0,0,1-2.47,2.32c-.82.2-.82.61-.67,1.29Zm.23-26.55c.41-1.64.83-3.13,1.18-4.63a2.76,2.76,0,0,1,1.4-2c.19-.09.27-.42.4-.64a2.05,2.05,0,0,0-.71-.35,23.62,23.62,0,0,0-2.38,0,2.49,2.49,0,0,0-.78.35c.14.25.23.6.44.72a1.25,1.25,0,0,1,.6,1.6c-.11.41-.2.82-.31,1.23A4.09,4.09,0,0,0,145.91,157.9Zm-35.36,6.49v-3.76c0-.2-.23-.55-.37-.55a1,1,0,0,0-.65.36,2.49,2.49,0,0,0-.32.68,3.55,3.55,0,0,1-2.27,2c-.74.2-.9.54-.66,1.24Zm-.14-14.11H106c.2.46.3,1,.52,1.1a3.94,3.94,0,0,1,2.83,2.7.76.76,0,0,0,.61.4c.17,0,.42-.37.43-.57,0-1.19,0-2.37,0-3.62Zm31,21.25a3.41,3.41,0,0,1,2.82,1.92,5,5,0,0,0,.37.82.86.86,0,0,0,.61.29c.13,0,.35-.32.35-.49v-3.69h-4.17ZM108.6,157.16c0-.68.05-1.36,0-2,0-.28-.27-.54-.42-.83a5.77,5.77,0,0,0-.68.63,8.7,8.7,0,0,0-1,1.56,1.85,1.85,0,0,0,0,1.31,8.64,8.64,0,0,0,1.14,1.69,3,3,0,0,0,.66.51c.14-.21.38-.43.4-.66C108.64,158.64,108.6,157.9,108.6,157.16Zm50.75,13.23c0,1.33,0,2.58,0,3.82,0,.37.36.73.55,1.09a5.41,5.41,0,0,0,.74-1,11.19,11.19,0,0,1,.91-2.24,1.89,1.89,0,0,0,.45-1.7Zm-15.62,6.9v-2.12c0-.24-.3-.47-.46-.7a5.67,5.67,0,0,0-.62.58,7.51,7.51,0,0,0-1.07,1.55,1.78,1.78,0,0,0,0,1.34,8.54,8.54,0,0,0,1.16,1.64,4,4,0,0,0,.58.51c.16-.24.42-.45.45-.7.06-.67,0-1.39,0-2.1Zm24.72-6.9a2,2,0,0,0,.45,1.64,14.93,14.93,0,0,1,1,2.58c.12.26.44.43.67.65.18-.22.52-.42.52-.65,0-1.4,0-2.82,0-4.26Zm-14.61,14.37a4.64,4.64,0,0,0,4.17-3.29c.07-.29-.22-.66-.35-1-.23.14-.61.24-.69.46a3.84,3.84,0,0,1-3.13,2.65Z"></path><path d="M134.77,74.94a17,17,0,0,1,1.17,2.71c.59,2.4,1,4.82,1.55,7.23,1,4.71,1.37,9.57,2.91,14.17.56,1.65,1.11,3.34,1.76,4.94a7,7,0,0,1,0,5.55,79.67,79.67,0,0,1-3.29,7.31,12,12,0,0,1-2.57,3,5.16,5.16,0,0,0-1.82,3.79c0,1.65-.19,3.35-.3,5a5,5,0,0,0,1.42,4,19.46,19.46,0,0,0,2.3,2.15,4.6,4.6,0,0,0,1.65.55c.82.19,1.74.29,2.6.49,1.91.45,2,.59,2.42,2.75a3.64,3.64,0,0,1,0,.66c4-1.12,7.86-.69,11.75.07l.05.3-.57.65c3.62-.42,7.18-.87,10.76-1.2a18.52,18.52,0,0,1,7.26.28c.82.27,1.91-.09,2.87-.12,2.95-.11,5.91-.21,8.86-.26.7,0,1.5,0,1.91.83,0,0,.12,0,.15-.06a3.18,3.18,0,0,1,3.79-.49c3.06,1.41,6.34,1.11,9.57,1.13a4.21,4.21,0,0,1,1.64.33c2.58,1,5.12,2.15,7.69,3.24l.93.44H41.32c.39-.14.6-.23.83-.3s.71-.2,1.05-.34a15.24,15.24,0,0,1,8.9-.89c3.67.72,7.4.18,11,0,2-.1,4-.17,5.95-.35,2.53-.23,5.05-.61,7.58-.82,1.52-.12,3.06,0,4.72,0l-2.68.82v.12l5.22-.57c3.66-.43,7.33-.93,11-1.24,1.17-.1,2.39.42,3.6.5,1.86.11,3.73.11,5.61.11.31,0,.61-.33.93-.46a2.15,2.15,0,0,1,.83-.2c4.31.15,8.64.29,13,.53a7.2,7.2,0,0,0,4.19-1.11,2.26,2.26,0,0,1-.39-2.37c.93-2.9.91-5.93,1.32-8.91.22-1.65.28-3.29.57-4.93a7.67,7.67,0,0,0-1.37-6.06,4.86,4.86,0,0,1-.92-3.2c.21-3.74.26-7.49.64-11.22a13.63,13.63,0,0,0-1.59-8.69c-.82-1.38-1.5-2.85-2.34-4.46-1.32,3.55-2.67,6.84-3,10.41a17.65,17.65,0,0,1-2.89,7.3,31.93,31.93,0,0,1-10.48,11,1.72,1.72,0,0,0-.6.94,4.37,4.37,0,0,1-1.28,2.24c-1.32,1.26-2.54,2.61-3.84,3.88a1.54,1.54,0,0,1-.93.42c-.91.06-1.46.37-1.64,1.31a5.89,5.89,0,0,1-2.61,3.94c-1.5,1.06-3.09,2-4.68,2.94a2.22,2.22,0,0,1-2.29-.08c-2.33-1.31-4.16-3.61-3.08-6.79a10.76,10.76,0,0,1,3-4.86c1.09-.93,2.13-2,3.18-2.93-.48-1.12-.48-1.12.49-2a1.09,1.09,0,0,0,.25-.23c1.54-2.1,3-4.23,4.61-6.31a10.59,10.59,0,0,0,1.9-5.13,2.14,2.14,0,0,1,1.33-1.85c1.22-.6,1.24-.9.18-1.81a1.92,1.92,0,0,1-.71-1.69c.07-1.87.1-3.76.08-5.63a2.42,2.42,0,0,1,1.27-2.25c.76-.43,1.54-.82,2.29-1.3s.83-.82.09-1.24C98.45,90,98.68,89,98.79,88a2.08,2.08,0,0,1,1.7-2c.62-.13.68-.56.76-1.07.11-.67.39-1.33.46-2a3.5,3.5,0,0,0-.2-1.84,4,4,0,0,1,.16-4,1.24,1.24,0,0,0,.31-.5c.1-.51.13-1,.19-1.54a11,11,0,0,0-1.39.28c-.51.21-1,.45-1.51.71l-2.6-3.39c-.07,2.13-.14,4-.19,6a5.15,5.15,0,0,1-2.7,3.7c-.52.16-.57.51-.57,1a1.25,1.25,0,0,1-.35.82c-.1.09-.54-.1-.73-.27a1.91,1.91,0,0,0-2.08.1,10,10,0,0,0-1.11,1.9Q87,90.81,85.21,95.74c-.23.6-.52,1-1.18,1s-.7.47-.83.89l-4.44,12.07a7.33,7.33,0,0,1-.69,1.54c-.21.33-.72.83-.91.75-.53-.2-.44-.74-.26-1.23.6-1.75,1.17-3.5,1.76-5.25.82-2.58,1.73-5.16,2.59-7.75a2.85,2.85,0,0,0,.18-1.08A8.39,8.39,0,0,1,82,92.91c1.82-5.86,3.62-11.71,5.44-17.57a8.92,8.92,0,0,1,.46-1.28c.1-.2.35-.48.51-.47,1.07.12,1.41-.65,1.65-1.4.76-2.13,1.47-4.28,2.17-6.44a3.8,3.8,0,0,0,.35-1.59,2.12,2.12,0,0,0-.69-1.41c-2.58-1.65-3.29-4.2-2.61-7.15a7.08,7.08,0,0,1,2.15-3.7C93.22,50.26,95,48.61,96.8,47a14.14,14.14,0,0,0,1.88-2.29c.3-.44.58-1.13,0-1.53s-1.05.17-1.4.61c-1.15,1.48-2.24,3-3.42,4.47A22.43,22.43,0,0,1,91,51.41a20.84,20.84,0,0,0-5.53,8.38c-.43,1.07-.76,2.19-1.2,3.29-.72,1.75-.65,3.61-.83,5.44,0,.43-.13.82-.21,1.26a1.16,1.16,0,0,1-1.18,1c-.89.09-1.16.52-1,1.41a2.37,2.37,0,0,0,.29,1c.76,1.11.33,2.24,0,3.34-.07.24-.41.39-.63.58a2.83,2.83,0,0,1-.37-.71A8.26,8.26,0,0,0,80,74.69,7.4,7.4,0,0,0,79,78.76c.12,1.38.45,2.75.74,4.4a6.88,6.88,0,0,1-1.21-.69,6.8,6.8,0,0,1-2.34-4.41,11.17,11.17,0,0,1,.65-5.6c.39-.82.18-1.07-.77-1.2s-1.39-.52-1.24-1.53c.22-1.57.55-3.13.9-4.67a34.08,34.08,0,0,0,.94-5.76c.1-2.06.92-4.11,1.28-6.15a14.94,14.94,0,0,1,3.82-7.4,7.15,7.15,0,0,0,1-1.75,1.16,1.16,0,0,0-.09-.82,5.37,5.37,0,0,1-3.29,3c-.09,0-.16-.06-.18-.09a9.17,9.17,0,0,0-2.93-3c-4-2.7-5.76-9-2.92-13.51a31.21,31.21,0,0,1,1.87-3A10,10,0,0,1,89,24.43a3,3,0,0,0,.41.18c.33-.73.73-1.43,1-2.17,1.06-2.77,1.91-3.29,4.88-3.39a3.08,3.08,0,0,0,1.93-.9c1.25-1.37,3-1.89,4.53-2.6,1-.48,2.39-.28,3.6-.39A3.45,3.45,0,0,0,108.09,14c.22-.28.82-.32,1.25-.37,1.68-.19,3.38-.26,5.06-.53a4.5,4.5,0,0,0,3.32-2.39,7.33,7.33,0,0,1,1.1-1.5,2.54,2.54,0,0,1,2.42-.8c.83.15,1.65.31,2.47.5a4.66,4.66,0,0,0,3-.43,29.28,29.28,0,0,1,3.16-1.19c1.71-.53,3.44-1,5.16-1.45a3.33,3.33,0,0,1,2.55.25,17.39,17.39,0,0,1,5.71,4.51,2.84,2.84,0,0,1,.45,3.11,12.93,12.93,0,0,1-1.15,1.93c-.37.55-.83,1-1.18,1.57a1.71,1.71,0,0,0,0,2.06c.56.87,1,1.81,1.55,2.69a.72.72,0,0,0,.58.24,4.76,4.76,0,0,1,4,1.64,3.87,3.87,0,0,0,3.42,1.38,1.23,1.23,0,0,1,.65.19,10.69,10.69,0,0,1,4,3.58,1,1,0,0,1,0,1.35.76.76,0,0,1-.17.13,1.39,1.39,0,0,0-.32,1.93l0,0a1.41,1.41,0,0,0,.18.29c1.44,1.65,1.29,3.35.43,5.15s-1.65,3.49-3.34,4.65c-.57.38-.6.88,0,1.19,1.53.76,1.8,2.16,2,3.62.1.77.19,1.53.3,2.28a1.85,1.85,0,0,1-.92,2.11A3.38,3.38,0,0,0,152,55.28a20.11,20.11,0,0,0,3.85,11.63,41.76,41.76,0,0,1,5.3,9.59,8.7,8.7,0,0,0,7.33,5.68c1.72.22,3.43.46,5.14.7,2,.27,2.27.6,1.59,2.46a34.41,34.41,0,0,1-2,4.3c-.72,1.34-1.58,2.62-2.33,4a2.22,2.22,0,0,0,.27,2.67c1,1.23,1.77,2.57,2.63,3.88a1.64,1.64,0,0,1-.16,2.12,9.06,9.06,0,0,1-4.67,3.42c-1.64.39-2.27,1.46-3.14,2.56a9.45,9.45,0,0,1-2.12,2,29.43,29.43,0,0,1-4.42,2.39,15.89,15.89,0,0,1-7.19,1,.84.84,0,0,1-.88-1.08c.18-1,.39-2.06.65-3.07a.91.91,0,0,1,.6-.48,6,6,0,0,0,4.77-4.88,42.52,42.52,0,0,1,1.57-4.66,1.94,1.94,0,0,0-.9-2.59,2,2,0,0,0-.52-.17,1.6,1.6,0,0,1-1-.77c-.5-1-.83-2.07-1.32-3-1.75-3.22-3.44-6.47-5.41-9.56-1.23-1.94-3.35-2.91-5.53-3.58a5.76,5.76,0,0,1-1.21-.55L135,74.68Zm-3.29-53.37c.93-.45,2-.95,3.09-1.5a1.07,1.07,0,0,0,.39-1.71c-.53-.87-1-1.76-1.55-2.64a10.92,10.92,0,0,0-11.2-5.18c-.32.06-.62.17-.93.25a5.59,5.59,0,0,0,1.81.44,7,7,0,0,1,6.15,4.2c.82,1.9,1.42,3.91,2.23,6.14Zm-36,49.07c-2.05.4-2.34.72-2.37,2.6V74.6A7.38,7.38,0,0,1,92.31,78a30.72,30.72,0,0,0-1.56,3.76c-.29.83.08,1.14.91,1a1.67,1.67,0,0,0,.75-.35c1-.93,2.07-1.86,3-2.84a1.46,1.46,0,0,0,.46-1C95.75,76,95.63,73.34,95.51,70.64Zm33-47.69a3.62,3.62,0,0,0,.09,2.76,4.11,4.11,0,0,1,.3,1.29c.08.39.15.82.22,1.23a1.25,1.25,0,0,0-.61,1.65,1.33,1.33,0,0,0,.41.5c-.42.76.08,1.26.37,1.91.16-.21.26-.28.29-.38a65.38,65.38,0,0,1,2.77-7.21c.14-.34,0-.82-.1-1.24l-1.07.51H131c0-1.45,0-1.45-.71-1.2-.15.61-.15,1.47-.44,1.58-.92.41-.94-.66-1.37-1.37Zm-15.69,3.66,2.66,1.64a5.56,5.56,0,0,1,2.9,4.66c.26,3.51.47,7,.69,10.54.06.88.1,1.78.16,2.67a14.66,14.66,0,0,0,.26-2.72c0-3.7.1-7.4-.08-11.07-.14-3-3.28-5.66-6.59-5.69Zm3.1,29.68a2.32,2.32,0,0,1-.83-2.63,3.41,3.41,0,0,0,.15-1,3,3,0,0,0-.29-.83c-.24.12-.58.17-.71.36-.51.71-1,1.48-1.43,2.23l.16.11,1.51-1c0,.82.07,1.52.11,2.19.08,1.08.25,1.16,1.33.57Zm4.24-2.93-.13.18c1.75,2.4,0,4.6-.42,6.91a5.77,5.77,0,0,0,1.44-6.31c-.17-.29-.59-.5-.89-.75Zm19.22-31.94,1.9.26L140.21,20Z"></path><path d="M82.86,164.48a20.36,20.36,0,0,1-2.47,0c-.28,0-.59-.38-.76-.65-2.16-3.7-4.28-7.41-6.47-11.09a7.37,7.37,0,0,0-1.26-1.36c-.16-.18-.41-.43-.37-.57s.34-.51.54-.52c1.64,0,3.35,0,5,0,.18,0,.41.27.51.47,1.65,2.89,3.35,5.8,5,8.7a1.48,1.48,0,0,1,.25.71C82.87,161.52,82.86,162.91,82.86,164.48Z"></path><path d="M151.82,160.79l.24-1.12h2.32c-.56-2.46-1.12-4.82-1.64-7.2a18,18,0,0,1-.22-2.19h4.38c.4,1.65.82,3.36,1.22,5.05.55,2.32,1.07,4.65,1.64,6.95a5.06,5.06,0,0,0,.72,1.15c.13.2.34.44.3.62a.74.74,0,0,1-.57.36h-5.36a.9.9,0,0,1-.64-.41c-.06-.12.14-.48.31-.59,1-.69.2-1.45.13-2.17s-.69-.42-1.1-.44S152.49,160.79,151.82,160.79Z"></path><path d="M101.1,170.35v11.87c0,.59.05,1.06.77,1.21a.74.74,0,0,1,.44.57.78.78,0,0,1-.58.49c-1.9,0-3.81,0-5.71,0a.83.83,0,0,1-.58-.48c0-.12.19-.49.37-.55.6-.2.63-.62.63-1.14v-9.8c0-.53,0-1-.65-1.14-.17-.06-.41-.45-.35-.57a.87.87,0,0,1,.6-.45C97.68,170.34,99.32,170.35,101.1,170.35Z"></path><path d="M182.29,150.24v11.83c0,.57,0,1.14.71,1.35.15,0,.34.53.29.58a1.22,1.22,0,0,1-.74.43h-4.11a6.84,6.84,0,0,1-1.28,0,.93.93,0,0,1-.57-.49c-.05-.11.21-.47.39-.53a1,1,0,0,0,.62-1.07v-10c0-.31-.29-.64-.48-.94a6.78,6.78,0,0,0-.53-.67c.27-.17.53-.46.83-.47C179,150.22,180.56,150.24,182.29,150.24Z"></path><path d="M192.43,157.32v-4.93c0-.5-.08-.87-.62-1.06-.18-.06-.43-.42-.38-.55a.83.83,0,0,1,.56-.5h5.53a.84.84,0,0,1,.57.5c0,.13-.2.49-.38.55-.58.2-.64.63-.64,1.15v9.71c0,.54,0,1,.67,1.22a.67.67,0,0,1,.35.56.72.72,0,0,1-.53.44c-1.87,0-3.75,0-5.62,0a.69.69,0,0,1-.51-.44.66.66,0,0,1,.34-.56c.65-.22.66-.68.65-1.22C192.42,160.56,192.43,158.94,192.43,157.32Z"></path><path d="M64.28,164.69a7,7,0,0,1-4.85-1.14,2.7,2.7,0,0,1-1.24-2.36v-8.6c0-.57,0-1.07-.67-1.28a.7.7,0,0,1-.32-.58.75.75,0,0,1,.54-.44h5.62a.53.53,0,0,1,.56.5.55.55,0,0,1-.4.54c-.6.19-.65.62-.65,1.13v9.21a2.05,2.05,0,0,0,.93,1.88C64.07,163.72,64.1,164.22,64.28,164.69Z"></path><path d="M88.19,170.35v11.72c0,.68,0,1.24.82,1.42a.64.64,0,0,1,.36.55c0,.18-.3.33-.48.48s-.18,0-.26,0H83.26c-.25,0-.5-.26-.75-.4l.46-.72c.19-.3.55-.6.55-.91,0-3.35,0-6.71,0-10.06,0-.32-.37-.65-.58-1s-.43-.45-.39-.64a.74.74,0,0,1,.59-.43C84.79,170.33,86.44,170.35,88.19,170.35Z"></path><path d="M219.2,150.25v12c0,.53.05,1,.63,1.15.18.07.42.42.37.55a.81.81,0,0,1-.57.48h-5.54a.73.73,0,0,1-.52-.43.65.65,0,0,1,.32-.58c.62-.22.68-.67.67-1.22v-9.71c0-.53-.05-.95-.64-1.15-.17-.06-.41-.42-.36-.55a.85.85,0,0,1,.56-.5C215.81,150.23,217.45,150.25,219.2,150.25Z"></path><path d="M167.71,150.24V162c0,.61-.05,1.22.74,1.44a.55.55,0,0,1,.27.52.7.7,0,0,1-.5.45c-1.87,0-3.75,0-5.62,0a.66.66,0,0,1-.51-.43.68.68,0,0,1,.33-.57c.63-.21.67-.67.67-1.22v-9.71c0-.47,0-.89-.55-1.11-.21-.08-.32-.44-.48-.68.26-.15.51-.41.76-.41C164.39,150.22,166,150.24,167.71,150.24Z"></path><path d="M162.94,170.38h4.63V182c0,.66,0,1.25.83,1.42.17,0,.44.41.4.53s-.36.51-.56.51h-6a.74.74,0,0,1-.55-.49.72.72,0,0,1,.44-.58c.73-.15.76-.62.76-1.21V170.38Z"></path><path d="M91.25,150.25v14.17h-5.1a.52.52,0,0,1-.51-.53.53.53,0,0,1,.33-.48c.63-.22.68-.66.67-1.21v-9.71c0-.51,0-.93-.62-1.16a.72.72,0,0,1-.37-.63.79.79,0,0,1,.61-.42C87.9,150.23,89.54,150.25,91.25,150.25Z"></path><path d="M105.23,164.43H100.3a.73.73,0,0,1-.59-.44c0-.17.21-.52.41-.61a.89.89,0,0,0,.57-1v-10c0-.45,0-.82-.55-1-.21-.09-.31-.45-.47-.69.26-.14.51-.4.77-.4,1.59,0,3.17,0,4.83,0Z"></path><path d="M140.4,170.35v14.16h-5.1a.53.53,0,0,1-.51-.54.51.51,0,0,1,.37-.48c.6-.19.65-.61.65-1.13v-9.81c0-.52,0-.94-.63-1.14a.73.73,0,0,1-.35-.63.8.8,0,0,1,.63-.4C137.07,170.33,138.69,170.35,140.4,170.35Z"></path><path d="M117.54,150.26v14.16h-5.11a.67.67,0,0,1-.48-.37c0-.21.13-.57.28-.61.76-.21.72-.77.71-1.35v-9.62c0-.51,0-.95-.63-1.14a.85.85,0,0,1-.36-.65c0-.14.36-.39.55-.39C114.17,150.24,115.83,150.26,117.54,150.26Z"></path><path d="M126.71,184.71c.23-.54.44-1,.61-1.45a3.52,3.52,0,0,0,.26-1v-9.78a.82.82,0,0,0-.64-.94c-.24-.08-.39-.44-.58-.68.24-.15.48-.42.72-.43h5.45c.24,0,.48.27.73.42-.15.21-.24.55-.44.62-.6.23-.61.66-.61,1.17v7.83C132.23,183.55,130.18,185.25,126.71,184.71Z"></path><path d="M32.74,164.35l-.24.08c-2,.13-2,.13-2.52-1.79-.95-3.44-1.89-6.88-2.86-10.32a4.14,4.14,0,0,0-.62-.94c-.12-.19-.35-.47-.29-.61a.82.82,0,0,1,.6-.48c1.81,0,3.63,0,5.44,0a.63.63,0,0,1,.51.33.73.73,0,0,1-.22.64c-.64.39-.53.9-.37,1.49.57,2.05,1.11,4.11,1.65,6.16a1.55,1.55,0,0,1,.09.74C33.54,161.19,33.12,162.84,32.74,164.35Z"></path><path d="M135.42,150.24h2.39a2.79,2.79,0,0,1,.82.34c-.13.25-.18.6-.39.75-.47.34-.42.73-.29,1.2.56,2.05,1.12,4.11,1.65,6.17a3.35,3.35,0,0,1,0,1.41c-.25,1.19-.61,2.36-.82,3.55-.12.58-.34.82-.95.78-1.5,0-1.51,0-1.91-1.43-.94-3.47-1.88-7-2.86-10.42a6.21,6.21,0,0,0-.67-1.21c-.13-.22-.36-.51-.3-.69a.8.8,0,0,1,.64-.42c.91-.05,1.82,0,2.73,0Z"></path><path d="M102,170.24a22.55,22.55,0,0,1,3.37.55,3.12,3.12,0,0,1,2.26,3.17,3.3,3.3,0,0,1-2.18,3.23l-1,.37,1,.3a2.47,2.47,0,0,1,2.08,2.77v1.82c.2,0,.26.06.3,0,.35-.13.67-.82,1-.25a1.38,1.38,0,0,1-.16,1.2,3.34,3.34,0,0,1-3.84,1.26,2.76,2.76,0,0,1-1.86-2.93,11.58,11.58,0,0,0,0-2,2.57,2.57,0,0,0-.74-1.31.82.82,0,0,1,.06-1.39,1.94,1.94,0,0,0,.69-1.13,19.54,19.54,0,0,0,0-3.06,1.79,1.79,0,0,0-.55-1.06C101.89,171.25,101.85,171.3,102,170.24Z"></path><path d="M183.26,150.16a23.19,23.19,0,0,1,3,.37,3.29,3.29,0,0,1,2.58,3.2,3.2,3.2,0,0,1-2.29,3.39l-1.08.44c3.49.2,3.57,2.47,3.34,4.86h.38l1-.26a3,3,0,0,1-.14,1.14,3.39,3.39,0,0,1-4.21,1.21,2.35,2.35,0,0,1-1.47-2c-.07-.93-.08-1.87-.11-2.81a1.44,1.44,0,0,0-.83-1.38c-.49-.24-.38-.91,0-1.27a2.12,2.12,0,0,0,.74-1.19,14.74,14.74,0,0,0,0-3,2,2,0,0,0-.57-1.16C183.14,151.14,183.1,151.18,183.26,150.16Z"></path><path d="M168.66,150.17c.94.05,1.88.14,2.82.28a3.38,3.38,0,0,1,2.81,3.29,3.29,3.29,0,0,1-2.32,3.39l-1,.43c3.47.19,3.53,2.47,3.34,4.83h.32c.33-.21.68-.75,1-.22a1.31,1.31,0,0,1-.16,1.12,3.4,3.4,0,0,1-4.15,1.19,2.59,2.59,0,0,1-1.58-2.46v-2.3a1.52,1.52,0,0,0-.86-1.53c-.49-.23-.36-.89.06-1.26a2.06,2.06,0,0,0,.76-1.17,14.84,14.84,0,0,0,0-3,1.68,1.68,0,0,0-.57-1.14C168.53,151.33,168.49,150.9,168.66,150.17Z"></path><path d="M220.14,150.16a25.06,25.06,0,0,1,3,.36,3.23,3.23,0,0,1,2.59,3.17,3.19,3.19,0,0,1-2.31,3.46l-.87.34c.46.12.83.18,1.17.29a2.47,2.47,0,0,1,2,2.67v1.8l1.41-.07a4,4,0,0,1-.39,1.35,3.38,3.38,0,0,1-3.85,1c-1.13-.42-1.64-1.34-1.69-3v-1.35c0-.82,0-1.65-1-2.06-.36-.13-.25-1,.14-1.17a1.34,1.34,0,0,0,.82-1.42,23.25,23.25,0,0,0,0-2.64,1.87,1.87,0,0,0-.55-1.24C220,151.33,220,150.91,220.14,150.16Z"></path><path d="M152.93,170.06c.07.64.2,1.15-.53,1.54a1.66,1.66,0,0,0-.57,1.23q-.08,4.68,0,9.36a1.46,1.46,0,0,0,.59,1.12c.76.32.55.83.53,1.48a5.64,5.64,0,0,1-4.93-2.53,9.22,9.22,0,0,1,.65-10.15A5.67,5.67,0,0,1,152.93,170.06Z"></path><path d="M206.3,164.73a1.13,1.13,0,0,1,.42-1.44,1.41,1.41,0,0,0,.42-1v-9.8a1.42,1.42,0,0,0-.47-1.09c-.56-.39-.48-.82-.39-1.37a5.74,5.74,0,0,1,5,3.52,9.3,9.3,0,0,1,0,7.69A5.85,5.85,0,0,1,206.3,164.73Z"></path><path d="M116.18,184.71a1.11,1.11,0,0,1,.39-1.32,1.61,1.61,0,0,0,.45-1.12q0-4.94,0-9.81a1.3,1.3,0,0,0-.41-1c-.61-.37-.54-.83-.42-1.43a5.43,5.43,0,0,1,4.56,2.73,8.94,8.94,0,0,1,.15,9A5.38,5.38,0,0,1,116.18,184.71Z"></path><path d="M115.2,170.08c.09.55.19,1-.39,1.36a1.48,1.48,0,0,0-.49,1.09c0,3.24,0,6.47,0,9.7,0,.46.45.9.67,1.36s.24.68.43,1.2a5.69,5.69,0,0,1-3.86-1.55c-2-1.89-2.39-4.31-2.15-6.89a7,7,0,0,1,2.36-4.93A5.35,5.35,0,0,1,115.2,170.08Z"></path><path d="M205.29,164.74a5.84,5.84,0,0,1-5.1-3.55,9.08,9.08,0,0,1,.21-8.05,5.68,5.68,0,0,1,4.85-3.11c.12.59.15,1-.42,1.37a1.54,1.54,0,0,0-.47,1.1q-.06,4.89,0,9.79a1.47,1.47,0,0,0,.48,1.09C205.43,163.7,205.4,164.13,205.29,164.74Z"></path><path d="M49.83,150a6,6,0,0,1,5.41,3.9,9.25,9.25,0,0,1,0,6.9,5.92,5.92,0,0,1-5.2,4c-.13-.55-.22-1,.36-1.4a1.62,1.62,0,0,0,.51-1.17c0-3.2.05-6.41,0-9.62,0-.45-.45-.9-.66-1.36A11.93,11.93,0,0,1,49.83,150Z"></path><path d="M49.06,150c.12.63.11,1-.43,1.4a1.54,1.54,0,0,0-.47,1.12c0,3.24,0,6.47,0,9.71a1.52,1.52,0,0,0,.47,1.11c.6.38.54.82.44,1.41a5.84,5.84,0,0,1-5.19-3.85,9.25,9.25,0,0,1,.13-7.4A5.75,5.75,0,0,1,49.06,150Z"></path><path d="M92.16,150.27a5.15,5.15,0,0,1,4.69,2.32,8.61,8.61,0,0,1,.87,8,5.8,5.8,0,0,1-5.53,3.74c-.09-.5-.17-.88.45-1.25a1.67,1.67,0,0,0,.65-1.25q.09-4.51,0-9a1.64,1.64,0,0,0-.64-1.27C92,151.24,92.13,150.82,92.16,150.27Z"></path><path d="M118.54,164.38c-.12-.53-.18-.92.43-1.22.76-.37.7-1.18.71-1.88v-6.9a10.56,10.56,0,0,0-.11-1.86,1.46,1.46,0,0,0-.6-1c-.65-.3-.54-.74-.46-1.31a5.19,5.19,0,0,1,4.62,2.3,8.53,8.53,0,0,1,.82,8.22A5.76,5.76,0,0,1,118.54,164.38Z"></path><path d="M35,150.27h2.16c.82,3.1,1.65,6.16,2.42,9.23a1.69,1.69,0,0,1,0,.67c-.3,1.2-.64,2.41-.91,3.62-.11.54-.37.67-.87.67-1.54,0-1.55,0-2-1.47q-1-3.53-1.91-7.05a1.89,1.89,0,0,1-.08-.91C34.14,153.46,34.55,151.89,35,150.27Z"></path><path d="M140.77,150.27h2.16c.8,3.08,1.61,6.15,2.41,9.21a1.56,1.56,0,0,1,0,.68c-.31,1.24-.66,2.46-.94,3.71-.1.46-.31.57-.75.59-1.64,0-1.64,0-2.07-1.52q-.95-3.49-1.88-7a2,2,0,0,1-.12-.82C139.93,153.5,140.35,151.89,140.77,150.27Z"></path><path d="M89.11,179.06c-.14-.65-.13-1.09.53-1.37a1.23,1.23,0,0,0,.52-.91c.06-1.38.06-2.77,0-4.16a1.17,1.17,0,0,0-.5-.9c-.67-.26-.71-.7-.56-1.35,1.83,0,3.66,0,4.85,1.72a4.4,4.4,0,0,1,.21,4.83C93.08,178.9,91.15,179.09,89.11,179.06Z"></path><path d="M65.06,164.66a1,1,0,0,1,.39-1.29,1.06,1.06,0,0,1,.25-.09,3,3,0,0,0,1.82-3v-6.81a2.28,2.28,0,0,0-1.11-2.17.51.51,0,0,1,.19-1h3a.8.8,0,0,1,.51.46c0,.13-.15.43-.31.52a2.46,2.46,0,0,0-1.16,2.47v6.82a4.11,4.11,0,0,1-3.29,4.11Z"></path><path d="M125.46,183.13c.24.5.45,1,.73,1.53-2.39-.1-4-1.77-3.7-3.61a2.1,2.1,0,0,1,1.57-1.82,1.91,1.91,0,0,1,2.14.64,1.77,1.77,0,0,1,.31,2.13A5.92,5.92,0,0,1,125.46,183.13Z"></path><path d="M152,153.07a4.63,4.63,0,0,1,.12,3.65c-.5,1.64-.89,3.29-1.36,4.93-.22.79-.13,1.39.7,1.76.2.09.32.4.48.61-.25.15-.49.41-.74.42-1,0-1.93,0-2.89,0a.5.5,0,0,1-.19-1,3,3,0,0,0,1.65-2.32c.69-2.47,1.36-5,2-7.46C151.84,153.47,151.9,153.32,152,153.07Z"></path><path d="M73,153.93a4.28,4.28,0,0,1,1.11,3c-.09,1.39,0,2.78,0,4.18a2.34,2.34,0,0,0,1.16,2.3c.16.08.36.39.31.52a.73.73,0,0,1-.52.43c-1,0-2,.05-3,0a.75.75,0,0,1-.53-.43c-.05-.12.12-.44.27-.52A2.45,2.45,0,0,0,73,161v-7Z"></path><path d="M153.92,170l2,.63c.42.14.83.23,1.12-.26a.78.78,0,0,1,.69-.28.84.84,0,0,1,.39.66c0,1.39.05,2.79,0,4.18,0,.29-.35.56-.53.82a3.39,3.39,0,0,1-.7-.72c-.32-.63-.46-1.36-.83-1.94a4.23,4.23,0,0,0-1.51-1.55C153.81,171.23,153.73,170.83,153.92,170Z"></path><path d="M82.87,158a3.58,3.58,0,0,1-1.15-3,12.06,12.06,0,0,0,0-1.7,2.07,2.07,0,0,0-1.07-1.93c-.2-.11-.3-.42-.45-.64.25-.15.48-.43.73-.44a20.72,20.72,0,0,1,2.73,0c.24,0,.48.29.72.45-.15.21-.25.52-.45.63a2,2,0,0,0-1.05,1.91C82.87,154.85,82.87,156.42,82.87,158Z"></path><path d="M40,158a4.44,4.44,0,0,1-.21-3.39,16,16,0,0,0,.42-1.65,1.25,1.25,0,0,0-.59-1.64c-.22-.13-.32-.47-.47-.71a2.24,2.24,0,0,1,.78-.37,20.19,20.19,0,0,1,2.46,0,.88.88,0,0,1,.61.43c.06.09-.19.47-.37.56a2.6,2.6,0,0,0-1.35,1.85C40.88,154.71,40.48,156.26,40,158Z"></path><path d="M145.68,184.51h-4.27c-.18-.68-.17-1.1.67-1.29a3.63,3.63,0,0,0,2.47-2.32c.14-.31.49-.52.75-.78a3.55,3.55,0,0,1,.4,1C145.72,182.21,145.68,183.31,145.68,184.51Z"></path><path d="M145.91,157.9a4.38,4.38,0,0,1-.16-3.75c.11-.41.2-.82.31-1.23a1.25,1.25,0,0,0-.6-1.6c-.21-.12-.3-.47-.44-.72a2.49,2.49,0,0,1,.78-.35,23.62,23.62,0,0,1,2.38,0,2.05,2.05,0,0,1,.71.35c-.13.22-.21.55-.4.64a2.76,2.76,0,0,0-1.4,2C146.67,154.78,146.28,156.26,145.91,157.9Z"></path><path d="M110.55,164.4h-4.29c-.24-.7-.08-1,.66-1.24a3.56,3.56,0,0,0,2.27-2,2.52,2.52,0,0,1,.33-.68,1,1,0,0,1,.65-.37c.13,0,.36.36.37.56C110.55,161.88,110.55,163.12,110.55,164.4Z"></path><path d="M110.39,150.29v3.63c0,.2-.26.55-.43.56a.75.75,0,0,1-.61-.39,4,4,0,0,0-2.83-2.71c-.22,0-.32-.63-.52-1.09Z"></path><path d="M141.35,171.54v-1.13h4.17v3.69c0,.18-.22.48-.35.49a.86.86,0,0,1-.61-.29,5,5,0,0,1-.37-.82A3.42,3.42,0,0,0,141.35,171.54Z"></path><path d="M108.6,157.16v2.21c0,.23-.25.44-.39.66a3.7,3.7,0,0,1-.67-.51,8.82,8.82,0,0,1-1.13-1.7,1.85,1.85,0,0,1,0-1.31,8.53,8.53,0,0,1,1-1.56,6.67,6.67,0,0,1,.68-.62c.14.26.4.52.42.82A14.89,14.89,0,0,1,108.6,157.16Z"></path><path d="M159.35,170.39H162a1.89,1.89,0,0,1-.44,1.7,10.13,10.13,0,0,0-.91,2.24,5.41,5.41,0,0,1-.74,1c-.19-.36-.53-.72-.56-1.09C159.31,173,159.35,171.72,159.35,170.39Z"></path><path d="M143.76,177.29v2.13c0,.24-.29.46-.45.7a7,7,0,0,1-.58-.51,8.61,8.61,0,0,1-1.16-1.65,1.83,1.83,0,0,1,0-1.34,7.51,7.51,0,0,1,1.07-1.55,6.89,6.89,0,0,1,.63-.57c.15.23.42.45.45.7C143.79,175.87,143.76,176.59,143.76,177.29Z"></path><path d="M168.49,170.39h2.65v4.26c0,.23-.34.43-.52.65-.23-.22-.56-.39-.67-.65a14.2,14.2,0,0,0-1-2.58A2,2,0,0,1,168.49,170.39Z"></path><path d="M153.87,184.76v-1.2a3.84,3.84,0,0,0,3.14-2.65c.07-.21.45-.31.69-.46.12.34.42.71.34,1A4.62,4.62,0,0,1,153.87,184.76Z"></path><path class="cls-1" d="M131.47,21.57c-.83-2.23-1.41-4.24-2.25-6.14a7,7,0,0,0-6.15-4.2,5.65,5.65,0,0,1-1.81-.44c.31-.08.62-.19.94-.25a10.92,10.92,0,0,1,11.19,5.18c.51.88,1,1.77,1.55,2.64a1.06,1.06,0,0,1-.39,1.71C133.49,20.62,132.39,21.12,131.47,21.57Z"></path><path class="cls-1" d="M95.51,70.64c.12,2.7.26,5.32.34,8a1.5,1.5,0,0,1-.46,1c-1,1-2,1.91-3,2.84a1.66,1.66,0,0,1-.76.35c-.82.19-1.19-.16-.9-1A29.22,29.22,0,0,1,92.24,78a7.5,7.5,0,0,0,.82-3.42V73.24C93.17,71.36,93.46,71,95.51,70.64Z"></path><path class="cls-1" d="M128.51,23c.43.71.45,1.78,1.37,1.4.29-.12.29-1,.44-1.58.72-.26.72-.26.71,1.2h.15l1.07-.52c.05.42.24.91.1,1.24a67,67,0,0,0-2.77,7.21c0,.1-.13.18-.29.38-.29-.65-.82-1.14-.37-1.91a1.25,1.25,0,0,1-.29-1.74,1.15,1.15,0,0,1,.49-.41c-.07-.44-.14-.82-.22-1.23a4.18,4.18,0,0,0-.3-1.29A3.59,3.59,0,0,1,128.51,23Z"></path><path class="cls-1" d="M112.82,26.64c3.28,0,6.45,2.65,6.57,5.66.18,3.67.09,7.4.09,11.06a14.69,14.69,0,0,1-.27,2.73l-.15-2.68c-.23-3.51-.44-7-.69-10.53a5.57,5.57,0,0,0-2.88-4.63C114.67,27.76,113.84,27.24,112.82,26.64Z"></path><path class="cls-1" d="M115.92,56.32c-1.08.59-1.24.51-1.3-.54,0-.66-.08-1.34-.12-2.19l-1.48,1-.16-.11c.46-.75.92-1.51,1.43-2.23.13-.19.47-.24.71-.35a3,3,0,0,1,.29.82,3.37,3.37,0,0,1-.15,1A2.32,2.32,0,0,0,115.92,56.32Z"></path><path class="cls-1" d="M120.16,53.39c.3.25.72.46.89.82a5.76,5.76,0,0,1-1.44,6.31c.39-2.31,2.17-4.52.42-6.92Z"></path><path class="cls-1" d="M139.38,21.46,140.2,20l1.08,1.72Z"></path></svg> 